<svg id="svg" xmlns="http://www.w3.org/2000/svg" xmlns:xlink="http://www.w3.org/1999/xlink" width="400" height="400" viewBox="0, 0, 400,400"><g id="svgg"><path id="path0" d="M134.990 110.287 C 119.431 112.118,107.508 129.980,103.790 157.028 C 103.091 162.112,103.491 161.699,99.814 161.138 C 92.398 160.006,84.619 157.556,64.332 149.962 C 38.956 140.464,35.410 139.353,28.169 138.637 C 15.480 137.381,6.960 142.834,7.879 151.622 C 8.860 161.008,19.233 166.353,30.677 163.367 L 33.152 162.722 33.369 163.711 C 34.776 170.114,49.367 165.204,54.125 156.727 C 55.282 154.666,54.318 154.641,52.894 156.695 C 47.493 164.489,34.654 168.911,34.654 162.979 C 34.654 162.402,35.290 161.920,37.327 160.952 C 43.547 157.998,47.558 154.157,47.558 151.154 C 47.558 145.507,38.316 150.856,34.407 158.765 C 32.801 162.013,31.689 162.517,25.409 162.839 C 10.054 163.626,3.035 147.102,16.516 141.901 C 24.255 138.916,32.378 140.632,59.326 150.948 C 81.316 159.365,91.361 162.544,99.539 163.673 L 102.673 164.105 102.674 173.205 C 102.677 196.056,107.619 212.043,114.866 212.644 C 121.993 213.235,127.351 203.431,127.366 189.770 C 127.370 186.373,127.373 183.597,127.373 183.599 C 127.373 183.602,128.452 183.945,129.770 184.361 C 136.028 186.338,143.357 185.336,147.377 181.953 C 148.866 180.701,148.804 180.636,149.086 183.751 C 150.819 202.875,166.640 208.798,179.561 195.158 C 186.268 188.078,196.053 169.984,193.896 168.651 C 192.663 167.888,191.858 168.849,189.693 173.668 C 180.358 194.448,166.238 203.932,158.211 194.813 C 154.833 190.976,152.631 180.231,155.115 179.709 C 165.725 177.480,171.102 168.800,164.069 165.253 C 158.850 162.622,152.818 166.274,150.038 173.750 C 146.464 183.359,129.044 185.870,124.890 177.374 C 122.657 172.807,119.135 170.213,117.036 171.589 C 114.475 173.266,117.224 178.088,122.571 181.300 C 123.980 182.146,124.671 191.751,123.717 197.218 C 122.050 206.762,116.632 210.966,113.482 205.161 C 110.200 199.113,107.275 178.199,108.184 167.282 L 108.445 164.161 111.642 163.940 C 127.480 162.847,143.672 147.874,148.195 130.138 C 151.627 116.682,146.474 108.935,134.990 110.287 M140.645 113.218 C 149.352 115.411,148.946 129.587,139.785 143.252 C 132.580 153.999,122.555 160.422,111.008 161.691 L 108.651 161.950 108.919 158.855 C 111.308 131.203,126.318 109.611,140.645 113.218 M46.376 151.160 C 46.601 153.085,42.948 156.509,37.569 159.414 L 34.966 160.820 35.718 159.345 C 38.669 153.561,45.997 147.933,46.376 151.160 M162.748 167.234 C 166.011 168.486,163.466 174.048,158.844 175.765 C 154.145 177.511,154.007 177.429,155.198 173.573 C 156.654 168.860,159.895 166.139,162.748 167.234 M248.577 170.154 C 236.027 173.533,228.743 190.185,226.731 220.092 L 226.322 226.175 220.643 237.604 C 204.181 270.733,198.463 271.048,200.572 238.710 C 201.522 224.126,201.309 223.617,192.104 218.450 L 188.495 216.425 190.156 211.530 C 194.011 200.172,192.047 194.195,185.527 197.444 C 178.679 200.856,177.478 209.682,183.049 215.639 L 184.754 217.461 181.294 224.583 C 166.368 255.307,157.536 260.761,155.863 240.290 C 155.459 235.344,155.506 233.903,156.576 218.563 C 156.800 215.346,156.199 214.528,153.552 214.453 C 151.447 214.393,150.988 215.166,150.838 219.021 L 150.708 222.349 149.414 220.837 C 144.324 214.890,136.694 216.566,133.229 224.392 C 120.557 253.011,98.696 258.917,96.765 234.244 L 96.506 230.927 99.580 230.266 C 107.651 228.532,112.341 222.695,109.327 218.135 C 105.228 211.934,93.879 217.682,92.349 226.734 C 91.560 231.407,76.012 241.106,69.310 241.106 C 69.154 241.106,68.654 240.191,68.200 239.072 C 65.463 232.327,57.670 229.533,49.906 232.512 C 49.350 232.725,49.313 232.185,49.477 226.327 L 49.658 219.908 52.251 214.009 C 62.783 190.056,65.828 176.839,61.293 174.773 C 55.774 172.258,50.592 178.576,47.210 191.942 C 45.269 199.614,43.134 215.127,43.134 221.560 L 43.134 223.646 37.500 229.335 C 14.114 252.950,9.201 274.101,23.601 289.163 C 27.242 292.972,29.551 294.760,30.405 294.433 C 31.524 294.003,30.979 292.849,29.017 291.498 C 10.848 278.985,14.621 257.820,39.774 231.152 L 42.730 228.018 42.747 231.719 L 42.765 235.420 41.161 236.761 C 37.356 239.942,37.739 243.806,41.943 244.647 L 43.027 244.863 43.279 252.478 C 44.272 282.514,47.985 295.271,54.924 292.494 C 60.843 290.126,67.250 270.481,69.022 249.267 C 69.272 246.275,69.631 243.932,69.847 243.880 C 78.437 241.801,85.428 238.539,90.093 234.433 L 91.797 232.933 91.797 235.117 C 91.797 240.365,94.316 246.627,97.852 250.171 C 105.921 258.256,118.563 253.674,128.400 239.097 L 130.876 235.430 130.883 237.070 C 130.919 245.198,133.451 249.427,138.249 249.375 C 143.070 249.321,146.137 246.017,149.347 237.419 L 150.379 234.654 150.397 237.613 C 150.507 255.779,158.092 261.983,168.237 252.207 C 172.168 248.419,175.341 243.272,181.630 230.485 L 187.307 218.942 188.677 219.768 C 194.894 223.520,194.581 222.492,194.362 238.471 C 194.048 261.292,195.800 268.756,201.471 268.756 C 206.475 268.756,212.610 260.667,221.933 241.781 L 225.877 233.792 226.125 240.658 C 226.960 263.765,231.312 273.917,240.382 273.917 C 247.712 273.917,254.444 265.608,268.109 239.698 L 270.494 235.175 270.732 237.205 C 271.606 244.634,275.954 251.297,281.236 253.299 C 291.046 257.018,302.987 248.366,312.115 230.927 C 313.270 228.719,314.499 226.581,314.845 226.175 C 315.191 225.770,315.942 224.223,316.515 222.739 C 317.514 220.150,317.575 220.077,318.022 220.929 C 319.073 222.935,324.388 242.398,323.985 242.764 C 323.922 242.820,322.627 243.391,321.106 244.032 C 306.004 250.398,298.794 262.745,305.102 271.438 C 313.174 282.560,330.289 266.588,330.316 247.907 L 330.323 243.463 333.364 242.242 C 345.111 237.526,349.765 233.041,354.990 221.395 L 355.646 219.934 356.849 223.054 C 358.124 226.361,361.171 236.722,361.507 238.894 L 361.706 240.184 359.191 241.191 C 345.697 246.590,338.921 258.181,345.132 265.238 C 353.815 275.102,367.839 263.072,368.051 245.579 L 368.111 240.651 373.088 238.925 C 382.912 235.517,388.336 231.594,391.098 225.898 C 393.672 220.588,391.582 218.656,388.881 223.849 C 386.934 227.593,383.492 231.214,380.092 233.096 C 376.389 235.146,366.820 238.307,366.820 237.480 C 366.820 235.151,362.252 223.486,359.248 218.143 L 357.548 215.120 359.405 209.588 C 364.143 195.474,364.387 190.635,360.377 190.297 C 352.542 189.638,348.011 204.152,352.686 214.932 L 353.648 217.149 352.089 220.925 C 348.877 228.706,344.101 233.993,337.073 237.548 C 335.386 238.401,329.789 240.737,329.432 240.737 C 329.359 240.737,329.183 240.115,329.042 239.355 C 328.298 235.339,324.438 224.886,321.412 218.691 L 319.557 214.894 321.026 210.949 C 325.185 199.787,325.005 196.106,320.301 196.137 C 313.161 196.184,310.381 205.025,314.580 214.325 C 315.999 217.467,315.990 217.496,311.025 226.795 C 303.110 241.620,295.403 249.079,287.543 249.523 C 280.259 249.935,276.411 245.025,275.567 234.244 L 275.308 230.927 278.382 230.266 C 288.013 228.197,292.666 219.764,286.041 216.384 C 280.369 213.491,273.090 218.541,271.190 226.688 C 269.919 232.137,255.292 257.737,249.403 264.820 C 238.537 277.890,232.312 264.752,232.267 228.652 L 232.258 221.544 235.178 216.855 C 236.784 214.276,240.095 209.263,242.536 205.714 C 256.512 185.396,258.883 181.525,259.380 178.211 C 260.301 172.071,255.302 168.342,248.577 170.154 M254.382 173.886 C 258.694 176.433,257.420 179.302,242.285 201.106 C 240.314 203.945,237.459 208.201,235.941 210.565 C 234.422 212.928,232.975 215.168,232.724 215.542 C 231.761 216.979,233.093 207.381,234.856 200.192 C 238.281 186.219,243.349 176.986,249.401 173.695 C 250.513 173.090,253.210 173.194,254.382 173.886 M60.293 179.196 C 61.650 181.393,58.421 192.568,52.364 206.636 C 50.323 211.375,50.156 211.646,50.320 209.954 C 51.891 193.758,54.442 182.923,57.416 179.816 C 58.400 178.788,59.847 178.476,60.293 179.196 M360.423 194.111 C 360.865 195.261,356.473 211.244,355.716 211.244 C 355.230 211.244,354.928 207.233,355.098 203.018 C 355.306 197.878,356.684 194.690,359.078 193.810 C 359.989 193.475,360.197 193.522,360.423 194.111 M321.064 199.212 C 321.512 199.752,320.340 204.954,318.966 208.522 C 318.585 209.513,318.149 210.654,317.997 211.060 C 317.560 212.226,316.248 208.546,316.222 206.083 C 316.183 202.305,319.603 197.451,321.064 199.212 M189.413 200.641 C 189.952 202.720,188.957 207.167,186.730 212.641 L 185.912 214.652 184.963 213.407 C 182.156 209.727,182.937 203.931,186.683 200.642 C 188.398 199.136,189.023 199.136,189.413 200.641 M106.544 218.986 C 109.258 221.701,104.802 226.742,98.853 227.686 L 97.245 227.941 97.504 226.690 C 98.750 220.665,103.865 216.307,106.544 218.986 M285.346 218.986 C 288.060 221.701,283.604 226.742,277.655 227.686 L 276.047 227.941 276.306 226.690 C 277.552 220.665,282.667 216.307,285.346 218.986 M145.507 221.071 C 148.983 222.721,149.769 226.188,148.032 232.217 C 143.331 248.533,136.201 251.587,136.315 237.235 C 136.405 225.882,140.493 218.692,145.507 221.071 M61.382 235.476 C 63.613 236.640,66.946 241.011,66.184 241.773 C 65.925 242.032,58.361 242.899,54.149 243.154 L 49.864 243.412 49.596 239.838 C 49.449 237.872,49.424 236.167,49.542 236.050 C 51.186 234.406,58.640 234.045,61.382 235.476 M43.134 240.518 C 43.134 241.942,43.046 242.120,42.422 241.957 C 41.411 241.692,41.202 240.846,41.890 239.796 C 42.758 238.471,43.134 238.689,43.134 240.518 M362.903 244.101 C 365.605 257.608,351.807 272.093,346.099 261.742 C 343.217 256.515,349.487 248.293,359.710 243.897 C 362.458 242.715,362.628 242.726,362.903 244.101 M66.565 247.465 C 64.819 267.049,59.292 287.067,54.997 289.366 C 52.884 290.497,51.253 284.731,50.524 273.548 C 49.947 264.715,49.401 252.748,49.401 248.957 L 49.401 245.530 54.286 245.490 C 56.972 245.468,60.166 245.326,61.382 245.175 C 62.599 245.025,64.316 244.877,65.199 244.847 L 66.803 244.793 66.565 247.465 M325.293 246.912 C 327.362 259.428,315.149 276.203,308.215 270.368 C 301.346 264.588,308.377 252.582,322.115 246.635 C 325.226 245.289,325.022 245.271,325.293 246.912 " stroke="none" fill="#000000" fill-rule="evenodd"></path></g></svg>