<?xml version="1.0" encoding="utf-8"?>
<!-- Generator: Adobe Illustrator 23.1.0, SVG Export Plug-In . SVG Version: 6.00 Build 0)  -->
<svg version="1.1" id="Слой_1" xmlns="http://www.w3.org/2000/svg" xmlns:xlink="http://www.w3.org/1999/xlink" x="0px" y="0px"
	 viewBox="0 0 752.5 720" style="enable-background:new 0 0 752.5 720;" xml:space="preserve">
<g>
	<path d="M293.1,341.6C293.2,341.8,293.2,341.8,293.1,341.6L293.1,341.6z"/>
	<path d="M61.5,302.6C61.5,302.6,61.5,302.6,61.5,302.6c-0.1,0.1-0.1,0.2-0.1,0.3C61.4,302.8,61.4,302.7,61.5,302.6
		C61.5,302.6,61.5,302.6,61.5,302.6z"/>
	<path d="M82.6,147.1C82.6,147.1,82.6,147.1,82.6,147.1c-0.1,0-0.2,0-0.3,0C82.4,147.1,82.5,147.1,82.6,147.1
		C82.6,147.1,82.6,147.1,82.6,147.1z"/>
	<path d="M86.8,145.9c-0.1,0.1-0.2,0.1-0.2,0.1c0,0,0,0,0,0C86.6,146,86.7,145.9,86.8,145.9z"/>
	<path d="M106.4,134.9c0,0-0.1,0.1-0.1,0.1C106.3,135,106.4,134.9,106.4,134.9C106.4,134.9,106.4,134.9,106.4,134.9z"/>
	<polygon points="171.2,132.1 171.1,132.1 171.1,132.1 	"/>
	<path d="M428.2,169.2c-0.3,0.1,7.2,23.5,7.9,25.7c2.5,7.2,4.6,14.4,7.2,21.6c1.7,4.7,4.1,18.1,8.7,20.3c5.8,2.8,10.8-5,8.7-9.9
		c-0.4-0.9-1-1.8-1.8-2.7c-8.4-9.5-13.1-22.6-17.2-34.6c-0.6-1.8-5.7-20.4-6.2-20.4c2.8-0.1,5.7-0.9,8.1-2.4
		c4.6-2.7,7.7-7.3,10.4-11.7c0.7-1.2,0.7-3.9-0.8-4.6c-1.7-0.8-3.2,1.7-4.2,2.8c-2.7,3.2-6.1,5.8-9.8,7.7c-0.2,0.1-0.4,0.2-0.6,0.3
		c-0.1,0-0.1,0-0.1,0.1c0,0,0,0-0.1,0c-0.1,0-0.3,0.1-0.4,0.1c1.6-1.7,2.8-3.9,3.2-6.2c0.4-1.8-0.5-3.9-2.5-4.4
		c-1.8-0.4-4,0.5-4.4,2.5c-0.1,0.4-0.2,0.8-0.3,1.2c0,0.1-0.2,0.4-0.2,0.4c0,0,0,0,0,0c-0.1,0.2-0.3,0.5-0.4,0.7
		c-0.9-2.1-1.8-4.1-3-6.1c-0.9-1.6-3.3-2.3-4.9-1.3c-1.6,1.1-2.3,3.1-1.3,4.9c0.9,1.6,1.7,3.2,2.5,4.9c0,0.1,0.1,0.1,0.1,0.2
		c-0.1,0-0.2,0-0.3-0.1c-0.1,0-0.1-0.1-0.2-0.1c0,0,0,0-0.3-0.1c0.1,0,0.2,0,0.3,0.1c0,0-0.2-0.1-0.3-0.1c-0.4-0.2-0.7-0.4-1-0.6
		c-0.1,0-0.2-0.1-0.3-0.2c0,0-0.1-0.1-0.2-0.2c-0.3-0.3-0.6-0.6-0.9-1c-1.2-1.4-3.8-1.3-5,0c-1.4,1.5-1.3,3.5,0,5
		c0.6,0.7,1.2,1.2,1.9,1.7c-0.1,0-0.1,0-0.2,0c-3-0.2-6.2-1.3-8.8-2.8c-1.2-0.7-5-3.3-6.4-1.9c-1.4,1.4-1.4,3.7,0,5
		C411.2,169.1,420.1,171.2,428.2,169.2z"/>
	<path d="M442.6,25.6c0.2-0.1,0.4-0.2,0.6-0.4c1.4,8,1.9,16,2.2,24.1c0.2,6.9-2.8,14-3.2,21c-0.2,3,1,5.8,3.8,7.1
		c1.8,0.8,3.3,0.7,5.1,0.1c2-0.6,4-3,4.1-5.1c0.4-7.5-1.2-15.9-2.4-23.4c-1.3-7.8-1.1-15.9-2.4-23.9c0.1,0.7,6.6-0.3,7.3-0.5
		c2.6-0.6,5.2-1.6,7.5-3c2.7-1.7,8-6.8,5.8-10.7c0,0-0.1-0.1-0.1-0.1c-2.4-3.8-7.9,3.8-9.8,4.9c-2.9,1.7-6.2,2.5-9.5,2.3
		c3.1-1.9,5.6-4.9,6.7-8.4c0.5-1.8,0.1-3.9-1.8-4.7c-1.6-0.6-4.1-0.1-4.7,1.8c-0.2,0.5-0.3,1-0.6,1.5c-0.1,0.2-0.2,0.5-0.4,0.7
		c0,0.1,0,0.1,0,0.1c0,0,0,0-0.1,0.1c-0.3,0.4-0.6,0.8-0.9,1.2c-0.1,0.2-0.3,0.3-0.4,0.5c-0.1,0.1-0.2,0.2-0.3,0.3
		c-0.4,0.3-0.8,0.6-1.2,0.9c0,0-0.2,0.1-0.3,0.2c-0.3-3.4-0.9-6.7-1.8-10c-0.5-1.8-3-2.7-4.6-2c-1.9,0.9-2.5,2.7-2,4.6
		c0.1,0.2,0.1,0.5,0.2,0.7c0,0.1,0,0.1,0.1,0.2c0.1,0.4,0.2,0.8,0.3,1.3c0.2,0.9,0.3,1.8,0.5,2.7c0.1,1,0.3,2.1,0.3,3.2
		c-0.3-0.1-0.5-0.2-0.8-0.3c-0.2-0.1-0.5-0.2-0.7-0.4c-0.1,0-0.1,0-0.1,0c0,0-0.1,0-0.1-0.1c-0.4-0.3-0.9-0.6-1.3-1
		c-0.1-0.1-0.2-0.2-0.3-0.3c0,0-0.3-0.3-0.3-0.3c-0.4-0.5-0.7-0.9-1-1.5c-1-1.6-3.6-1.9-5-0.7c-1.6,1.3-1.8,3.3-0.7,5
		c1.9,3,4.9,5.3,8.3,6.4c-0.2,0.1-0.3,0.1-0.5,0.2c-0.2,0.1-0.4,0.1-0.5,0.2c-2,0.6-4.2,0.5-6.2-0.3c-2.2-0.9-3.1-2.6-4.8-3.9
		c-1.4-1.1-3.2-1-3.7,1.1c-0.4,1.6,0.7,3.9,1.5,5.2C427.9,28.2,436.7,28.9,442.6,25.6z"/>
	<path d="M562.4,178c5-0.2,7.6-3.6,10.6-7.2c6.6-7.9,11.9-17,17.8-25.4c6.5-9.3,12.6-18.9,18.2-28.8c5-9,9.6-18.2,13.8-27.6
		c4.2,4.8,9.8,8.4,16.1,9.8c7.2,1.7,17.6,1.2,23.1-4.4c1-1,2.9-3.4,2.7-5.1c0-0.2-0.1-0.4-0.1-0.5c-0.7-1.4-3.3-1.7-4.5-0.8
		c-5.5,3.9-12.5,5.6-19.2,4c-4.3-1-8.2-3.2-11.3-6.3c0.8,0.8,4.8,0.2,5.9,0.1c1.9-0.2,3.7-0.7,5.6-1.1c2.6-0.6,5.9-2.8,6-6
		c0-2.5-3.2-3.4-5-2.4c-4.2,2.5-9.3,3.1-13.9,1.9c2.2-4.6,4.4-9.1,6.6-13.7c0.8-1.7,0.4-5-2-5.2c-2.6-0.2-5.4,3.3-6.3,5.4
		c-0.4,0.9-4.8,10.3-4.7,10.3c-4.3-3.4-7.1-8.7-7.3-14.2c-0.1-1.7-2.1-4.2-4.2-3.4c-3.4,1.3-2.7,7.8-1.7,10.3c0.8,2.2,1.7,4.4,3,6.4
		c0.7,1,3.2,5.3,4.5,5.4c-4.3-0.2-8.4-1.8-11.5-4.9c-4.1-4-6-10.1-4.9-15.7c0.4-2.1-1.3-5.2-3.5-3.4c-2,1.7-3.1,6.3-3,8.7
		c0.3,5.9,1.9,11.1,6.3,15.4c4.5,4.4,10.6,6.8,16.8,7c-7.4,16.8-16.5,32.9-26.7,48.2c-2.2,3.2-4.4,6.5-6.7,9.6
		c-3.2,4.4-5.7,8.5-9.9,12.1c-3.9,3.3-8.3,6-12.5,9c-2.1,1.5-4.2,3.7-4,6.5C556.6,175.1,559.1,178.1,562.4,178z"/>
	<path d="M501.3,89.6c-2,6.4-3.8,12.8-5.4,19.3c-1.6,6.8-3.1,13.6-4.1,20.5c-0.8,5.7-3.2,11.4-4.3,17.2c-0.6,3.4-1.5,6.9-1.3,10.4
		c0.3,6.3,10,7.9,11.3,1.3c1.8-9.3,0-19.4,1.4-28.9c1.7-11,4.5-21.9,7.6-32.6c2.3-8.1,5.1-16,8.3-23.8c-0.3,0.8,5.9,3.3,6.6,3.5
		c2.5,0.7,5.5,1.2,8.1,0.6c3.6-0.8,7.1-3,9.2-6c0.9-1.3,2-2.8,1-4c-0.1-0.1-0.3-0.3-0.5-0.4c-1.4-1-3.4-0.6-4.5,0.5
		c-0.2,0.2-0.3,0.3-0.5,0.4c-0.1,0.1-0.2,0.2-0.2,0.2c-0.5,1.6-4.6,2.2-5.9,2.3c-2.3,0.1-4.8-0.1-6.9-1.3c-0.3-0.2-0.7-0.4-1-0.6
		c-0.1,0-0.1-0.1-0.1-0.1c-0.1-0.1-0.3-0.2-0.4-0.3c4.3-0.3,8.5-2.3,11.5-5.5c1.6-1.7,1-6.2-2-5.7c-1.1,0.2-2.1,1.6-3,2.1
		c-1.6,0.9-3.6,1.3-5.3,1.7c-0.3,0.1-0.6,0.1-0.8,0.2c-0.1,0-0.2,0-0.4,0c-0.1,0-0.1,0-0.2,0c0.4-1.4,0.8-2.8,1.3-4.2
		c0.1-0.4,0.3-0.9,0.4-1.3c0,0,0,0,0-0.1c0.1-0.3,0.2-0.5,0.3-0.8c0.4-1.1,0.9-2.1,1.4-3.1c0.8-1.7,0.3-4-1.4-4.8
		c-1.7-0.8-3.9-0.4-4.8,1.4c-1.7,3.5-3.1,7.1-4.1,10.9c-0.3-0.2-0.5-0.4-0.8-0.7c-0.2-0.2-0.4-0.4-0.6-0.6c-1.4-1.5-2.3-3.3-2.8-5.3
		c-0.4-1.8-0.9-3.7-3.4-3.5c-1.8,0.1-3.7,1.6-3.5,3.6c0.5,4.8,2.9,9.1,6.5,12c-0.3,0-0.7,0-1,0c-0.1,0-0.1,0-0.2,0c0,0,0,0-0.1,0
		c-0.3,0-0.6-0.1-0.9-0.1c-0.6-0.1-1.3-0.3-1.9-0.4c-0.6-0.2-1.1-0.3-1.7-0.5c-0.1,0-0.1,0-0.1,0c0,0-0.1,0-0.2-0.1
		c-4-1.7-8.2-5.9-10.1-9.7c-0.6-1.3-2.8-2.3-4-1.2c-0.9,0.8-0.8,3.4-0.8,4.5c0.2,3,1.8,5.7,4,7.8c4.3,4.2,10.9,6.7,16.8,7
		C506.7,71.1,501.9,87.8,501.3,89.6z"/>
	<path d="M316.6,158.8c3.9-2.7,4.3-6.5,3.9-11c-0.2-1.9-0.6-3.6-0.4-5.5c0.3-2.2,0.9-4.5,1.2-6.7c0-0.1,0-0.1,0-0.2
		c1-3.7,1.9-7.4,3-11c2.1-6.6,4.6-13.1,7.2-19.5c2.7-6.5,5.8-12.9,9.1-19.1c2.8,2.9,6.4,5,10.3,5.8c6.6,1.3,13.7-1,18.2-6.1
		c1.5-1.6,1.3-4-0.1-5c-0.7-0.5-1.6-0.6-2.8-0.1c-0.8,0.3-1.6,0.9-2.3,1.4c-1.8,1.2-3.7,2.3-5.8,2.7c-2,0.5-4.2,0.2-6.2-0.2
		c-1.5-0.3-3.5-2-4.6-2.1c4.5,0.2,9-1,12.7-3.6c1.6-1.1,2.3-3.1,1.3-4.9c-2-3.4-4.1-0.6-6.5,0.3c-2.6,1-5.8,1.3-8.6,0.9
		c0,0-0.1,0-0.1,0c1.5-3,3-6,4.5-9c0.8-1.7,0.5-3.9-1.3-4.9c-1.6-0.9-4-0.5-4.9,1.3c-1.5,3.1-2.9,7-5,9.7c-0.2,0.3-3.3-5.6-3.7-6.4
		c-0.6-1.6-1.7-4.6-3.7-4.6c-1.7,0-3.8,1.6-3.6,3.6c0.2,1.8,0.7,3.5,1.3,5.2c0.4,0.9,1.1,1.9,1,2.9c-2.6,0.1-5.1-2.1-6.7-3.8
		c-1.8-2-2.6-5.3-3.7-7.7c-0.6-1.2-1-3.3-1.8-4.4c-1.8-2.5-5.3-0.3-5.2,2.4c0.3,6.6,3.2,13.1,8.3,17.3c3.7,3.1,8.2,4.9,12.8,5.5
		c-4.5,8.4-8.5,17-12,25.9c-2.1,5.4-4.1,10.9-5.8,16.4c-0.8,2.6-1.4,5.2-2.1,7.8c-0.4,1.6-1.1,3-1.6,4.5c-1.2,2.3-2.1,4.7-3.2,7.1
		c-1.7,4.1-3.1,9.1-0.8,13.1C310.5,159.3,314.2,160.5,316.6,158.8z"/>
	<path d="M224.4,172c3.2,1.3,7.2-0.4,8.1-3.9c1.2-5,0.9-9.2,3.6-14c3.6-6.3,7.6-12.4,11.9-18.3c2.6-3.6,5.4-7.1,8.4-10.4
		c1.6,2,3.8,3.4,6.2,4.2c1.4,0.4,2.9,0.7,4.3,0.6c1.8-0.1,3.3-0.5,4.9-1.2c1.7-0.7,2.5-3.5,1.2-4.8c0,0,0,0-0.1-0.1
		c-1.5-1.4-5.3-0.8-7.2-1.1c-0.2,0-0.4-0.1-0.6-0.1c1.3-0.2,2.6-0.6,3.7-1.2c1.7-0.9,2.3-3.3,1.3-4.9c-0.6-0.9-4.7-2.1-5.5-1.1
		c0.6-0.8,1.4-1.6,2.1-2.3c1.4-1.3,1.4-3.8,0-5c-1.5-1.3-3.6-1.4-5,0c-1.1,1-2.1,2.1-3,3.3c0.7-0.9-1.1-4.5-1.8-5.2
		c-1.6-1.5-4.5-0.3-5,1.9c-0.4,1.5-0.4,3.2-0.2,4.8c-0.1-0.5-1.2-1.2-1.5-1.6c-0.9-1.4-1.8-2.9-2.5-4.4c-0.4-0.8-0.8-2.6-1.6-3
		c-1.9-0.8-4.3,1.8-4.1,3.5c0.4,4.1,2,7.9,5,10.8c1.1,1.1,2.4,2,3.7,2.8c-11.5,12.9-19.6,28-29.1,42.3
		C219.5,166.5,221.3,170.7,224.4,172z"/>
	<path d="M163.7,107.2l0.5,1.3c0.3,0.6,0.8,1.1,1.4,1.5c0.3,0.3,0.7,0.6,1.2,0.7c0.6,0.3,1.3,0.5,2,0.5c0.5-0.1,0.9-0.1,1.4-0.2
		c0.4-0.2,0.8-0.4,1.3-0.5c0.6-0.3,1.1-0.8,1.5-1.4c0.5-0.5,0.8-1.1,0.9-1.8c0-0.1,0-0.2,0-0.2c0.3-0.9,0.3-1.9,0-2.8
		c-0.3-0.9-0.7-1.7-1.4-2.4c-0.4-0.3-0.7-0.6-1.1-0.8c-0.8-0.5-1.7-0.7-2.7-0.7c-0.7,0-1.4,0.1-2.1,0.5c-0.7,0.2-1.2,0.6-1.7,1.1
		c-0.7,0.7-1.1,1.5-1.4,2.4c-0.3,0.9-0.3,1.9,0,2.8C163.6,107.1,163.7,107.2,163.7,107.2z"/>
	<path d="M91.7,116.4c0.6,0.4,1.3,0.6,2,0.6c0.7,0,1.4-0.2,2-0.6c0.7-0.5,1-0.7,1.5-1.5c0.4-0.6,0.6-1.3,0.6-2.1
		c0-0.4-0.1-0.8-0.1-1.1c0-0.1,0-0.2,0-0.2c-0.1-0.3-0.2-0.6-0.3-0.9c0-0.1,0-0.1,0-0.2c-0.1-0.3-0.2-0.6-0.4-0.9
		c-0.2-0.4-0.5-0.8-0.9-1c-0.2-0.2-0.5-0.4-0.8-0.5c-0.4-0.2-0.9-0.3-1.4-0.3c-0.3,0-0.7,0.1-1,0.1c-0.3,0.1-0.6,0.2-0.9,0.4
		c-0.4,0.2-0.8,0.5-1,0.9c-0.3,0.4-0.5,0.8-0.7,1.3c0,0.1,0,0.1,0,0.2c-0.2,0.3-0.3,0.6-0.3,0.9c0,0.1,0,0.2,0,0.2
		c-0.1,0.4-0.1,0.7-0.1,1.1c0,0.7,0.2,1.4,0.6,2.1C90.6,115.7,91,115.9,91.7,116.4z"/>
	<path d="M5.3,260.9c-3.3,0.2-6.1,3-5.1,6.3c0,0,0,0.1,0,0.1c2.1,5.2,9.9,4.8,10-1.4C10.2,263.2,8.3,260.7,5.3,260.9z"/>
	<path d="M14.4,344.8c0.4,4.1,5.6,6.3,7.7,2.2c0,0,0,0,0-0.1c0,0,0-0.1,0.1-0.1c0.8-1.4,0.7-2.9-0.1-4.1
		C20.1,339.3,14,340.7,14.4,344.8z"/>
	<path d="M260.2,390c0.9-1.5,0.9-3.4,0.3-5c-0.8-2.1-2.7-3.7-5.2-3.6c-1.9,0.1-3.4,1.6-4.3,3.1c-1.3,2.3-1.4,5.4,0.8,7.1
		C254.6,393.9,258.5,392.9,260.2,390z"/>
	<path d="M153.8,388.8c0.7-0.2,1.3-0.5,1.8-1c0.9-0.9,1.4-2.6,1.5-4.2c0-1.3-0.3-2.5-0.9-3.2c-0.3-0.5-0.8-0.9-1.4-1.2
		c-3.1-2-8,0.7-7.8,4.5C147.1,386.6,150.8,389.6,153.8,388.8z"/>
	<path d="M262.7,262.7c-2.7-1.8-7-1.1-7.6,2.5c0,0,0,0,0,0.1c0,0-0.2,1.2-0.2,1.2c0,2.9,2.2,4.8,4.9,4.9c3.4,0.1,5.5-3.4,4.7-6.2
		C264.3,264.2,263.7,263.3,262.7,262.7z"/>
	<path d="M178.5,234.9c0.6,2.6,3.5,4.1,5.9,3.7c2.5-0.4,4.3-3.7,3.3-6.1C186.2,228.7,177.1,228.2,178.5,234.9z"/>
	<path d="M167.5,167.9c2.5,5.9,11.1,1.6,8.7-4.1C174.1,159,164.8,161.7,167.5,167.9z"/>
	<path d="M89.4,201c-0.3-0.9-0.8-1.8-1.6-2.4c-2.6-2.1-6.8-0.5-8.2,2.3c-1.7,3.5,2.2,6.5,5.4,6.4C88.4,207.2,90.1,203.8,89.4,201z"
		/>
	<path d="M337.3,266.3c-4.1,8-5.5,15.7-4.3,22.9c1.8,9.1,7.7,17.2,17.7,24.1c9.8,6.8,24.1,12.7,42.5,17.5l0.9,8.9
		c-9.3,2-18.6,4.3-27.3,7.7c-14.3,5.2-24.7,12.1-32.2,21.3c-8.8,10.7-14.3,23.4-16.1,36.4c-0.9,6.1-0.7,12.1,0,18
		c0.9,5.9,2.5,11.4,5,16.4c3.6,7.7,8.9,13.9,15.4,18.4c6.8,4.8,15,7.1,23.8,7.1c11.1,0,20.4-3.9,27.3-11.8
		c6.3-7.1,10.7-17,13.6-30.2c2.3-11.3,3.4-24.5,3.4-40.6c0-11.1-0.5-22.7-1.4-34.3c0-0.2,0.2-0.2,0.2-0.2
		c11.6-2.3,22.5-4.6,31.1-8.2c2.2-0.9,4.2-1.8,6-2.9c0,0.4-0.1,0.8-0.1,1.3c-0.7,14.8,1.6,25.7,7,32.7c4.3,5.2,10.2,7.9,17.2,7.9
		c10.4,0,19.5-7.3,27.5-21.8c-1.1,26.1,2.7,34.1,5.9,37.9c2.1,2.5,5,3.9,8,3.9h0.2c3.4,0,6.6-1.6,9.8-4.6c2.3-2.3,4.6-5.4,7-9.5
		c0.4-0.7,0.8-1.4,1.2-2.1c1.8,6.3,5.1,11.6,9.7,15.7c5.5,4.8,13,7.7,21.3,8.2c0.5,0.2,1.3,0.4,2,0.4c8,0,15.5-2.1,22-6.4
		c5.7-3.8,10.7-9.1,15.2-16.1c5.7-9.1,10-20.2,13.9-31.6c0,1.4,0,2.8,0.1,4.1c0.4,17.2,1.3,30.5,2.9,41.1
		c1.8,13.2,4.6,21.3,8.8,25.5c3,3,6.1,3.8,8.2,3.8c3.6,0,7-2.1,10.4-6.6c2.1-3,4.5-7.1,6.8-12.5c3.9-8.8,8-20.7,12.3-35.7
		c7.3-25.4,12.9-51.1,13-51.5c0.5-2.9-1.3-5.7-4.3-6.3c-2.9-0.7-5.7,1.3-6.3,4.1c0,0.2-5.2,23.8-12,47.9
		c-3.9,14.1-7.9,25.5-11.3,33.9c-5,11.8-8,15-8.9,15.7c-0.7-0.5-3.4-3.6-5.4-15c-1.8-9.5-2.9-22.9-3.4-39.8
		c-0.9-31.6,0.5-70,1.8-101.1c0.7-17.7,1.3-32.9,1.3-43.1v-0.2c16.3-4.3,36.8-5.7,49.3-4.1c15.5,2,26.2,16.3,16.7,31.2
		c-3,4.7-9.9,8.3-15.4,5.5c-3.8-1.9-7.9-7.1-12.7-4.3c-2.3,1.4-3.6,4.9-1.9,7.3c7,10.1,21.3,12.3,31.3,5.2
		c10.2-7.2,15.1-21.7,12-33.8c-0.3-1-0.6-2-1-3c-4.5-11.6-15.7-17.2-27.6-18.6c-28.5-3.3-55.6,3.4-81.3,15.6
		c-14.9,7.1-30,14.6-46.6,16.6c-9.9,1.2-18.7,1.9-27.5-4.9c-6.4-5-7.9-12.7-6-20.4c0.8-3.2,4.5-5.1,0.9-8.6c-2-2-5.6-2.1-7.6,0
		c-7.9,8.3-7.6,21.8-1.1,30.9c7.2,10,19.7,13.9,31.6,14.2c23.2,0.6,44.3-10.8,64.8-20.4c4-1.9,7.4-3.4,11-4.9c-0.2,4.4,0,9-0.1,13.1
		c-0.3,8.7-0.6,17.5-0.9,26.2c-0.6,17.6-1.4,37.7-1.8,57.8c0,0.1-0.1,0.2-0.1,0.3c-2.1,5.9-4.1,12.1-6.1,18.2
		c-3.4,10.9-7,22.2-11.4,31.8c-1.1-6.6-3.8-12.5-7.7-17.9c-5-6.6-11.6-11.4-17.9-16.3c-5.9-4.5-11.8-8.8-16.3-14.5
		c4.1-7.7,7.1-16.3,8.4-24.7c1.4-8.8,0.9-16.4-1.4-21.8c-2.3-5.4-5.9-7.3-8.6-7.9c-3.6-0.9-7.1-0.2-10,2.1c-5.2,4.1-8,12.5-8,24.3
		c0,10.4,2.1,19.4,6.4,27.2c-0.6,2.1-4.9,19.1-11,35.9c-10.9,30.2-17.5,33.1-18.4,33.4c-0.7-0.7-5.2-6.3-3-38.8
		c1.3-18.9,4.1-37,4.3-37.2c0.4-2.9-1.6-5.7-4.5-6.3c-2.9-0.4-5.5,1.4-6.1,4.3c-0.2,0.2-3,15.2-8.9,30.2
		c-7.1,17.9-15.4,27.7-23.4,27.7c-3.8,0-6.6-1.3-8.8-3.9c-3.6-4.5-5.4-13.6-4.6-25.2c0.3-9,2.1-16.7,2.3-17.7c0,0,0-0.1,0-0.1
		c0.7-2.9-1.1-5.7-3.9-6.4c-0.4-0.1-0.8-0.1-1.2-0.1c-2.5-0.1-4.8,1.6-5.4,4.1c0,0.1-0.1,0.5-0.2,1.2c-1.6,4.1-5.4,7.5-12.3,10.2
		c-7.5,3-17.5,5.2-28,7.3c-1.4-15.5-3.2-31.1-4.8-45.6c-2.1-18-4.1-35-4.8-47.9c-0.4-6.6-0.2-11.6,0.2-15.5c0.2-1.4,0.5-2.7,0.7-3.6
		c0.7-0.5,1.4-0.9,2-1.4l1.8-1.4c2.5-2.3,2.1-4.8,1.8-6.1c-0.7-2.3-2.9-3.9-5.4-3.9c-2.9,0-5.4,1.3-7.3,3.4
		c-0.5,0.7-1.3,1.6-1.8,2.7l-0.5,0.4c-8.4,5.9-22.5,15.9-34.3,27.9C345.5,253.2,340.5,259.8,337.3,266.3z M511.9,218.2
		C511.9,218.6,511.9,218.6,511.9,218.2L511.9,218.2z M546.2,275.7c0.2-0.2,0.4-0.2,0.5-0.2h0.4c0,0,0.7,0.4,1.3,1.8
		c2.5,5.9,1.6,18.2-3.6,30.5c-1.6-4.5-2.5-9.8-2.5-16.3C542.2,282.2,544.4,277.1,546.2,275.7z M536.9,358.4
		c3.9-10.8,7.1-21.4,9.1-28.6c4.7,4.9,9.9,8.9,15,12.7c11.8,8.9,22,16.6,22,34.5c0,12-12,18.6-23.4,18.8h-0.2
		c-11.4,0-23.6-6.4-23.8-24.1c0-1.8-0.9-3.3-2.2-4.3C534.5,364.6,535.7,361.6,536.9,358.4z M395,350.4c0.7,11.1,1.3,21.8,1.3,32.2
		c0,15.4-1.1,27.9-3.2,38.2c-2.3,11.3-6.1,19.8-11.1,25.4c-5,5.5-11.3,8.2-19.3,8.2c-12.9,0-23.6-7-29.5-19.5
		c-8.8-18.2-4.8-41.4,9.8-59.5C354.8,360.9,375.2,354.9,395,350.4z M384.1,233.2c0,3.4,0,7.1,0.2,11.6c0.7,13,2.7,30.2,4.8,48.2
		l3,26.3c-15.4-4.3-27.2-9.3-35.4-15c-7.5-5.2-12-10.9-13.2-17.2c-1.6-9.3,3.8-20.5,16.3-33.4C367.7,245.9,376.6,238.7,384.1,233.2z
		"/>
	<path d="M574.4,226.7C574.9,226.5,574.6,226.6,574.4,226.7L574.4,226.7z"/>
	<path d="M402.1,499.4c0,0-0.1-0.1-0.3-0.3C402,499.3,402.1,499.4,402.1,499.4z"/>
	<path d="M403.4,500.6c0.4,0.4,0,0-0.2-0.2C403.2,500.5,403.3,500.5,403.4,500.6z"/>
	<path d="M400.8,497.2C400.8,497.2,400.8,497.2,400.8,497.2C400.8,497.2,400.8,497.2,400.8,497.2
		C400.8,497.2,400.8,497.2,400.8,497.2z"/>
	<path d="M400.7,497c0,0.1,0.1,0.1,0.1,0.2C400.8,497.1,400.7,497,400.7,497C400.7,497,400.7,497,400.7,497z"/>
	<path d="M227.3,424.8c-4.7,5.8-5.9,14-3.9,21.1c2.5,8.9,10.4,15.5,17.4,21c9.5,7.4,19.8,13.6,30.3,19.4c1,0.5,2,0.7,2.8,0.5
		c1.1-0.1,2.3-0.7,3-2c5.5-9.3,10.2-19,15.1-28.6c4.4-8.7,8.8-18.1,8.2-28.1c-0.5-8.1-4.5-16.2-13.1-18c-6.8-1.5-14.3,1.1-18.7,6.6
		c-3.6,4.5-5.9,10.3-7.3,16.1c-3.7-5.2-8.1-9.7-14.2-12.2C240.1,417.6,232.2,418.7,227.3,424.8z M286.3,418.7
		C286.3,418.7,286.3,418.7,286.3,418.7L286.3,418.7z M252.1,434.8c3.2,3.7,5.6,8.1,8,12.4c0,0,0,0,0,0c0.1,0.1,0.1,0.2,0.2,0.3
		c0.8,1.3,2.1,1.8,3.3,1.8c0.1,0,0.1,0,0.2,0c1.9,0,3.4-1.3,4-2.9c0-0.1,0.1-0.2,0.1-0.3c0-0.1,0.1-0.3,0.1-0.4c0-0.1,0-0.3,0.1-0.4
		c0-0.1,0-0.2,0-0.3c0.4-6.8,2.1-14.4,5.5-20.5c0.4-0.7,0.8-1.4,1.3-2.1c0.1-0.1,0.1-0.2,0.2-0.2c0,0,0.1-0.1,0.2-0.2
		c0.2-0.3,0.4-0.5,0.7-0.7c0.2-0.2,0.5-0.5,0.7-0.7c0.1-0.1,0.1-0.1,0.2-0.2c0,0,0,0,0,0c0.6-0.4,1.2-0.8,1.8-1.1
		c0.3-0.1,0.5-0.3,0.8-0.4c0.1,0,0.2-0.1,0.2-0.1c0.7-0.2,1.3-0.4,2-0.5c0.1,0,0.3,0,0.4-0.1c0.2,0,0.4,0,0.7,0c0.6,0,1.2,0,1.8,0
		c-0.3,0,1.1,0.2,1.4,0.3c0.2,0.1,0.4,0.1,0.7,0.2c0.1,0,0.3,0.1,0.3,0.1c0.5,0.3,1.1,0.6,1.6,0.9c0,0,0,0,0,0c0,0,0.1,0.1,0.1,0.1
		c0.3,0.3,0.5,0.5,0.8,0.8c0.1,0.1,0.1,0.1,0.2,0.2c0,0.1,0.1,0.1,0.1,0.2c0.2,0.3,0.4,0.6,0.5,0.9c0.1,0.2,0.3,0.5,0.4,0.8
		c0.1,0.1,0.2,0.5,0.2,0.5c0.6,1.8,0.9,3.5,1,5.3c0.3,8.4-3.5,16.2-7.2,23.5c-4.2,8.2-8.3,16.5-12.9,24.6c-7-3.9-13.9-8-20.4-12.7
		c-3.8-2.7-7.4-5.6-10.8-8.7c-1.5-1.4-3-2.9-4.4-4.4c-0.4-0.4-0.7-0.8-1.1-1.2c0,0-0.5-0.6-0.6-0.7c-0.5-0.7-1-1.4-1.4-2.1
		c-0.1-0.2-0.6-1.1-0.6-1.3c-0.3-0.7-0.5-1.3-0.7-2c-0.2-0.7-0.3-1.5-0.5-2.2c0-0.1,0-0.1,0-0.2c0-0.1,0-0.1,0-0.2
		c0-0.5-0.1-1-0.1-1.5c0-0.6,0-1.2,0-1.8c0-0.2,0-0.4,0.1-0.7c0,0,0.1-0.6,0.1-0.7c0.1-0.7,0.3-1.4,0.5-2.1c0.1-0.3,0.2-0.7,0.3-1
		c0-0.1,0.1-0.3,0.1-0.4c0,0,0-0.1,0.1-0.2c0.3-0.5,0.5-1,0.8-1.5c0.2-0.3,0.4-0.5,0.5-0.8c0,0,0-0.1,0.1-0.1c0,0,0,0,0.1-0.1
		c0.4-0.4,0.9-0.9,1.3-1.4c0,0,0-0.1,0.1-0.1c0,0,0,0,0.1,0c0.4-0.2,0.7-0.5,1.1-0.7c0.2-0.1,0.4-0.2,0.7-0.3c0,0,0,0,0,0
		c0.5-0.1,1-0.3,1.6-0.4c0,0,1.3-0.1,1.6,0c0.1,0,0.5,0,0.6,0.1c0.4,0.1,0.8,0.1,1.2,0.2c0.4,0.1,0.8,0.2,1.2,0.4
		c0,0,0.6,0.2,0.7,0.3c1,0.4,1.9,1,2.8,1.5C248.7,431.2,250.5,432.9,252.1,434.8z"/>
	<path d="M675.6,530.6c-3-0.7-6,1-6.8,4.1c-4.1,16.4-10.8,33.9-18,46.9c-7.5,13.6-15.7,21.8-21.6,21.9c-2.5,0-5-2.9-6.3-4.8
		c-2.7-3.9-5.3-9.6-7.1-16.5c-2.3-8.4-3.4-18-3.4-27c0.8-3.3,1.5-5.9,1.8-7.4c7.5-3.8,13.5-8.1,17.8-13.2c4.5-5,6.8-10.2,7.1-15.1
		c0.3-4.9-1.7-9.1-5.3-11.3c-3.8-2.4-8.9-2.1-14,0.6c-9.6,5.5-15.8,17.1-18.2,33.6c-0.6,4.6-0.8,9.4-0.7,14.2
		c-2.1,7.7-5,17.8-8.4,27.8c-4.1,11.6-7.9,20.9-11.6,27.5c-5.7,10-8.8,10.2-8.9,10.2c-0.5,0-0.7-0.2-0.9-0.4
		c-0.5-0.7-2.1-3.4-2-12.5c0.2-7,1.3-15.7,2.3-24.3c1.1-9.3,2.3-18.8,2.5-26.8c0.2-10.4-1.4-16.8-5-20.9c-2.5-2.7-5.9-4.3-9.8-4.3
		c-4.6,0-8.9,2-12.9,5.5c-2.9,2.9-5.7,6.6-8.2,11.6c-4.6,8.8-7.9,19.3-10.7,28.8l-2.1,6.4c-0.2-2.9-0.5-6.6-0.7-11.3
		c-0.7-20-0.4-40.6,1.2-60.9c5-0.7,9.8-2.2,14.3-4.7c7.4-4.2,13.4-10.8,17-18.5c3.7-7.9,5.5-16.7,4.5-25.4
		c-1.1-9.6-4.5-21.4-14.1-25.6c-11.7-5.1-17.4,3.7-21.5,13.5c-2.9,6.8-5.4,16.6-7.3,29.1c-1,6.5-1.9,13.7-2.7,21.4
		c-0.7,0-1.4-0.1-2.1-0.1c-0.6-0.1-1.3-0.1-1.9-0.2c-0.2,0-1-0.1-1.2-0.1c-1.2-0.2-2.3-0.4-3.5-0.6c-5-1-9.8-2.4-14.5-4.2
		c-0.6-0.2-1.2-0.4-1.7-0.7c-0.2-0.1-0.5-0.2-0.7-0.3c-0.1,0-0.7-0.3-0.7-0.3c-0.6-0.3-2.2-1-3.1-1.4c-2.3-1-4.5-2.1-6.7-3.3
		c-1.8-0.9-3.5-1.9-5.3-2.8c0-1,0.1-2.1,0.1-3.1c0.6-14.6,1.5-29.3,1.8-43.9c0-1.6,0-3.2-0.4-4.8c-0.4-1.5-1.3-3-2.7-3.8
		c-3.1-1.7-6.2,1.5-7.3,4.1c-1,2.5-1.1,5.2-1.1,7.9c-0.1,12.6-0.5,25.1-1,37.7c-3.7-2.1-7.4-4.1-11.2-6.1
		c-9.4-4.9-19.6-9.7-30.1-11.7c-6.4-1.2-13.1-1.3-19.2,1.4c-3.3,1.5-6,3.9-8.2,6.8c-8.9,11.5-8.9,32.2,6.5,38.3
		c1.9,0.8,3.9,1.1,5.9,1.3c2.8,0.3,5.5-2.7,5.3-5.3c-0.1-3.2-2.4-5-5.3-5.3c0,0,0,0-0.1,0c-0.1,0-0.1,0-0.2-0.1
		c-0.4-0.1-0.8-0.2-1.2-0.3c-10.1-2.9-6.5-16.2-2.4-22.2c1.5-1.9,4.9-3.8,7.2-4.3c5.2-1.1,11.1,0.4,16.6,2.2c2.4,0.8,4.7,1.6,7,2.6
		c0.3,0.1,0.7,0.3,1,0.4c-0.1,0-0.6-0.3,0,0c0.6,0.2,1.1,0.5,1.7,0.7c1.2,0.5,2.4,1.1,3.6,1.7c4.6,2.2,9.1,4.6,13.6,7.1
		c3,1.7,6,3.3,9.1,5c-0.5,15-1.1,31.4-1.4,47.7c-0.2,0.4-0.4,0.8-0.5,1.3c0,0.2-5,19.5-11.6,38.8c-11.4,32.3-18,37.2-19.5,37.7
		c-0.5-0.7-2.3-3.6-2.9-13.6c-0.5-7.5-0.4-17.2,0.7-29.1c1.6-20.4,5-40,5-40.2c0.5-2.9-1.4-5.5-4.3-6.1c-2.9-0.7-5.7,1.3-6.3,4.1
		c-1.8,8.4-4.3,16.4-7.5,23.8c-3.6-7.3-7.7-13.4-12-17.9c-8.8-9.3-16.1-10.2-20.7-9.3c-4.1,0.7-9.6,3.4-13.4,12.1
		c-1.4,3.2-2.4,7.1-3.1,11.5c-3.9,11.5-8.9,22.9-14,31.9c-7.3,12.7-15.2,20.4-20.7,20.4c-2.3,0-4.6-2.9-5.9-4.6
		c-2.5-3.8-4.8-9.1-6.4-15.7c-2.5-10-3.4-21.6-2.5-31.8c7.9-3.6,14.1-7.9,18.6-12.9c4.3-4.6,6.6-9.5,7-14.1
		c0.4-4.6-1.4-8.6-4.8-10.7c-3.6-2.3-8.4-2.1-13.2,0.4c-8.1,4.4-13.7,13.5-16.7,26.2c-1,4-5,20.9-10.7,37.9
		c-10.5,32.5-17.2,37.2-18.4,37.7c-0.5-0.5-2.5-3.4-3.4-13.4c-0.7-7.5-0.9-17.3-0.2-29.3c1.1-20.7,3.8-40.6,3.9-40.7
		c0.2-2.1-0.9-4.3-2.7-5.4c-2-1.1-4.3-0.9-6.1,0.5c-8.8,7.1-18.4,10.2-29.1,9.3c0.9-3,2.1-7.1,3.2-11.8c1.1-5.4,1.8-10,1.8-14.1
		c0-5.9-1.3-10.5-3.6-13.9c-2-2.9-5.9-6.4-13.2-6.4c-10.2,0-18.2,8.6-20,21.4c-0.9,6.8,0.2,13.8,3,19.7c3.1,6.2,8,10.7,14.4,13.1
		c-5.5,9.5-12.3,15-19.9,18.9c-0.2-9.3-1.6-17.5-4.5-23.8c-4.8-11.6-12.3-13.2-16.4-13.2c-5.2,0-10,1.8-14.5,5.2
		c-3.6,2.9-6.8,6.8-9.8,12c-5.2,8.8-8.8,19.7-11.8,29.3c-1.4,4.5-2.9,8.8-4.3,12.1c-0.2,0.4-0.2,0.7-0.4,0.9c-0.7-3-1.6-8-2.1-16.1
		c-0.9-10-1.1-22.2-0.9-34.8c10.9-22.3,19.1-42.7,24.1-58.8c2.7-8.6,4.3-16.1,4.8-22c0.7-7.1,0-12.3-2.1-15.9
		c-2.3-3.6-5.7-5.4-10-5.4c-5.2,0-9.8,3.4-13.6,10.4c-3.9,7.3-7.1,19.3-9.6,35.4c-2.1,13.5-3.4,29.6-4.1,46.7
		c-2.9,4.2-6.2,7.9-10.3,10.8c-2.2,1.5-4.8,3.1-7,4.1c-2,0.9-5.5,1.8-7.3,2c-1.3,0.2-2.7,0.2-4.1,0.1c-0.6,0-1.3-0.1-1.9-0.1
		c-0.1,0-0.3,0-0.4-0.1c-0.4-0.1-0.8-0.2-1.2-0.2c-1.1-0.2-2.2-0.6-3.3-0.9c-0.1,0-0.4-0.1-0.6-0.2c-0.1,0-0.2-0.1-0.2-0.1
		c-0.6-0.3-1.2-0.6-1.8-0.9c-3.5-2-6-4.8-8.2-8.4c-0.6-1-1.1-2-1.6-3c-0.3-0.6-0.6-1.2-0.8-1.8c0,0-0.1-0.2-0.1-0.3
		c-0.1-0.2-0.3-0.7-0.3-0.8c-1.2-3-2-6.1-2.6-9.2c-2.2-12-0.5-25.2,0.9-37.4c2.9-24.6,8.8-49.3,16.4-73
		c7.8-23.9,17.4-47.1,28.1-69.9c9.4-19.9,19.5-39.5,29.9-58.9c-4.7,18.4-9.3,36.7-14,55.1c-1.6,6.3-3.2,12.7-4.8,19
		c-3-0.5-6.1-0.5-9.1,0c-1.8,0.3-3,2.7-2.5,4.4c0.3,1,0.9,1.7,1.7,2.1c-1.7,0.7-3.2,1.6-4.6,2.8c-1.4,1.2-1.3,3.8,0,5
		c1.5,1.4,3.5,1.3,5,0c0.1-0.1,0.1-0.1,0.1-0.1c0.2-0.1,0.3-0.2,0.5-0.3c0.4-0.2,0.8-0.5,1.2-0.7c0.1,0,0.2-0.1,0.3-0.1
		c0,0,0.3-0.1,0.4-0.2c0.4-0.1,0.9-0.3,1.3-0.4c0.2,0,0.4-0.1,0.6-0.1c0,0,0,0,0.1,0c0,0,0,0,0,0c0.1,0,0.2,0,0.3,0
		c-1.2,3.2-2.1,6.5-2.6,9.8c-0.2,1-0.2,1.9,0.4,2.7c0.4,0.7,1.3,1.4,2.1,1.6c1.7,0.4,4.1-0.5,4.4-2.5c0.4-2.6,1-5.1,1.8-7.6
		c0.2-0.6,0.4-1.3,0.7-1.9c0.2,0.2,0.4,0.4,0.6,0.6c0.2,0.2,0.3,0.4,0.5,0.5c0.2,0.3,0.5,0.7,0.7,1c0.1,0.2,0.2,0.3,0.3,0.5
		c0.1,0.1,0.4,1,0.1,0.2c0.7,1.7,2.4,3.1,4.4,2.5c1.7-0.5,3.2-2.5,2.5-4.4c-0.4-0.9-0.9-1.8-1.4-2.7c1.2,0.3,2.7,0.1,3.5-0.9
		c1.3-1.5,1.4-3.6,0-5c-1.9-2-4-3.6-6.4-4.8c6.3-24.9,12.6-49.8,18.9-74.7c0.1,26.2,0.1,52.4,0.2,78.6c0,9.6,0,19.1,0.1,28.7
		c-7.9,0.9-15.4,4.8-20.7,10.6c-3.1,3.4,1.9,8.4,5,5c3.2-3.5,7.1-6,11.5-7.4c-0.5,0.5-0.9,1-1.3,1.5c-2.2,2.8-3.6,6.1-4.7,9.5
		c-0.6,1.8,0.7,4,2.5,4.4c2,0.4,3.8-0.6,4.4-2.5c0.3-0.8,0.6-1.6,0.9-2.5c0-0.1,0.4-0.8,0.4-0.9c0.1-0.3,0.3-0.6,0.5-0.9
		c0.4-0.7,0.7-1.4,1.2-2c0.2-0.3,0.3-0.5,0.5-0.8c0,0,0-0.1,0.1-0.1c0.1,3.2,0.2,6.4,0.4,9.7c0.1,1.9,1.6,3.7,3.6,3.6
		c1.9-0.1,3.6-1.6,3.6-3.6c-0.1-3.7-0.3-7.4-0.4-11.1c0.1,0.1,0.2,0.2,0.3,0.3c0.3,0.3,0.5,0.6,0.8,0.9c0,0.1,0.1,0.1,0.1,0.1
		c0,0,0,0.1,0.1,0.1c0.4,0.6,0.9,1.3,1.2,1.9c0.9,1.6,1.4,2.8,1.9,4.2c0.6,1.7,2.5,3.1,4.4,2.5c1.7-0.6,3.2-2.5,2.5-4.4
		c-1.2-3.2-2.7-6.5-4.9-9.2c4,1.7,7.5,4.4,10.3,7.7c1.2,1.5,3.8,1.3,5,0c1.5-1.5,1.2-3.6,0-5c-5.4-6.5-13.4-10.7-21.9-11.6
		c-0.1-32.1-0.1-64.1-0.2-96.2c3,11.2,6,22.3,9,33.5c1.5,5.7,3.1,11.5,4.6,17.2c-2.5,0.7-4.9,1.8-7.1,3.4c-1.5,1.1-2.4,3.1-1.3,4.9
		c0.9,1.5,3.3,2.5,4.9,1.3c0.4-0.3,0.8-0.6,1.2-0.8c-1.6,1.7-2.9,3.8-3.4,6.1c-0.4,1.8,0.6,3.9,2.5,4.4c1.8,0.4,3.9-0.6,4.4-2.5
		c0.1-0.3,0.2-1,0.4-1.2c-0.2,0.4-0.2,0.5-0.1,0.3c0.1-0.1,0.1-0.2,0.2-0.3c0.1-0.2,0.2-0.3,0.2-0.5c0.1-0.2,0.3-0.4,0.4-0.7
		c0,0,0,0,0,0c0.3-0.3,0.6-0.6,0.9-0.9c0,0,0,0,0.1-0.1c0.8,3.1,1.6,6.2,2.4,9.3c0.5,1.8,2.6,3.1,4.4,2.5c1.9-0.6,3-2.4,2.5-4.4
		c-0.7-2.7-1.4-5.4-2.1-8.1c0.2,0.1,0.4,0.2,0.6,0.4c0.1,0.1,0.2,0.1,0.3,0.2c0,0,0.1,0,0.1,0.1c0.1,0.1,0.2,0.2,0.2,0.2
		c0.2,0.2,0.3,0.3,0.5,0.5c0,0,0.1,0.1,0.2,0.2c0.1,0.1,0.2,0.3,0.2,0.3c0.1,0.2,0.3,0.5,0.4,0.7c0.9,1.6,3.3,2.3,4.9,1.3
		c1.7-1.1,2.2-3.1,1.3-4.9c-0.9-1.7-2.3-3.2-3.8-4.3c0.5-0.3,1-0.7,1.3-1.3c0.8-1.5,0.5-4.1-1.3-4.9c-2.6-1.1-5.3-1.8-8.1-1.9
		c-5.8-21.8-11.7-43.6-17.5-65.4c12.7,22.7,25,45.7,37.4,68.6c4.6,8.5,9.2,16.9,13.8,25.3c-6.4,3.7-12,9.1-15.6,15.6
		c-2.3,4,3.9,7.6,6.2,3.6c1.9-3.4,4.4-6.3,7.2-8.8c-0.9,2.5-1.4,5.2-1.2,7.8c0.1,1.9,1.6,3.7,3.6,3.6c1.8-0.1,3.7-1.6,3.6-3.6
		c0-0.6,0-1.3,0-1.9c0-0.3,0-0.5,0.1-0.8c0-0.1,0-0.2,0.1-0.3c0.1-0.6,0.3-1.2,0.5-1.8c0.1-0.3,0.2-0.5,0.3-0.8
		c0-0.1,0.1-0.3,0.2-0.4c0.2-0.4,0.4-0.9,0.7-1.3c0.1-0.1,0.1-0.2,0.2-0.3c2.3,4.3,5,8.4,8.1,12.3c1.2,1.5,3.8,1.3,5,0
		c1.4-1.5,1.3-3.5,0-5c-0.2-0.3-0.5-0.5-0.7-0.8c0,0,0,0,0,0c-0.1-0.2-0.2-0.3-0.3-0.5c-0.5-0.6-0.9-1.2-1.3-1.9
		c-0.9-1.3-1.8-2.6-2.6-4c-0.7-1.1-1.3-2.3-1.9-3.4c0.5,0.1,1,0.2,1.5,0.4c0,0,0,0,0.1,0c0,0,0,0,0.1,0c0.2,0.1,0.5,0.2,0.7,0.4
		c0.2,0.1,0.5,0.3,0.7,0.4c0,0,0.1,0,0.1,0c0,0,0,0,0.1,0.1c0.5,0.5,1,0.9,1.4,1.4c1.2,1.4,3.8,1.3,5,0c1.4-1.5,1.3-3.5,0-5
		c-1.1-1.4-2.5-2.5-4.1-3.3c2-0.2,4-0.3,6-0.2c1.9,0.1,3.6-1.7,3.6-3.6c0-2-1.6-3.4-3.6-3.6c-5.8-0.4-11.5,0.6-16.9,2.6
		c-15.1-27.5-29.8-55.3-45-82.8c-2.5-4.5-5-9.1-7.6-13.6c14.2,13.9,28.3,27.9,42.5,41.8c3.6,3.6,7.2,7.1,10.8,10.7
		c-3.5,3.8-6.3,8.4-8,13.3c-0.6,1.8,0.7,4,2.5,4.4c2,0.5,3.7-0.6,4.4-2.5c0.2-0.5,0.4-1,0.6-1.6c0-0.1,0.1-0.2,0.1-0.3
		c0.1-0.2,0.2-0.5,0.3-0.7c0.5-1,1-2,1.6-2.9c0,0,0,0,0-0.1c-0.6,2.5-0.6,5.2,0.2,7.6c0.6,1.8,2.5,3.1,4.4,2.5
		c1.8-0.6,3.1-2.5,2.5-4.4c-0.1-0.5-0.2-0.9-0.3-1.4c0-0.2,0-0.5,0-0.7c0-0.4,0-0.8,0.1-1.2c0,0,0-0.1,0-0.1c0-0.2,0.1-0.4,0.1-0.6
		c0-0.1,0-0.1,0.1-0.2c1.2,1.2,2.4,2.4,3.5,3.8c0.7,0.9,1.3,1.8,1.9,2.7c1,1.6,3.2,2.3,4.9,1.3c1.6-1,2.3-3.2,1.3-4.9
		c-1.3-2.1-2.8-4.1-4.5-6c-0.6-0.7-1.2-1.3-1.9-1.9c0.2,0,0.4-0.1,0.6-0.1c0,0,0,0,0,0c0.2,0,0.3,0,0.5,0c0.5,0,1,0,1.4,0
		c0,0,0.1,0,0.1,0c0.2,0,0.4,0.1,0.6,0.1c0.5,0.1,0.9,0.3,1.4,0.4c0.8,0.3,2,0.1,2.7-0.4c0.7-0.4,1.4-1.3,1.6-2.1
		c0.5-2-0.6-3.7-2.5-4.4c-2.5-1-5.4-1.1-8-0.5c1.1-0.7,2.3-1.3,3.5-1.8c1.7-0.8,2.2-3.4,1.3-4.9c-1.1-1.8-3.1-2.1-4.9-1.3
		c-2.3,1.1-4.6,2.4-6.6,3.9c-16.1-15.9-32.2-31.7-48.3-47.6c25.8,13.1,50.8,27.9,75.2,43.5c6.6,4.2,13.2,8.6,19.7,13.1
		c-3.3,4.4-5.8,9.5-7.1,14.9c-0.4,1.9,0.6,3.9,2.5,4.4c1.8,0.5,3.9-0.6,4.4-2.5c0.8-3.4,2.2-6.6,3.9-9.5c-0.6,3.3,0,6.8,1.6,9.8
		c0.9,1.6,3.3,2.3,4.9,1.3c1.7-1.1,2.2-3.1,1.3-4.9c-0.1-0.2-0.2-0.4-0.3-0.7c0,0,0,0,0,0c0,0,0,0,0-0.1c-0.2-0.5-0.3-1-0.4-1.4
		c-0.1-0.2-0.1-0.5-0.1-0.7c0,0.1,0.1,0.2,0.1,0.3c0-0.1,0-0.2-0.1-0.3c0-0.5,0-1,0-1.5c0-0.1,0-0.2,0-0.3c0-0.4,0-0.3,0,0.2
		c-0.1-0.2,0.1-0.6,0.1-0.7c0.1-0.3,0.1-0.5,0.2-0.8c4.1,2.5,8.3,4.7,12.8,6.6c1.7,0.7,4-0.8,4.4-2.5c0.5-2.1-0.6-3.6-2.5-4.4
		c-0.2-0.1-0.4-0.2-0.6-0.2c0,0-0.1,0-0.1-0.1c-0.4-0.2-0.8-0.4-1.2-0.5c-0.8-0.4-1.6-0.8-2.5-1.2c-1.6-0.8-3.1-1.6-4.6-2.5
		c-0.1-0.1-0.2-0.1-0.3-0.2c0.1,0,0.2-0.1,0.3-0.1c0.2-0.1,0.4-0.1,0.7-0.1c0,0,0,0,0.1,0c0.4,0,0.9,0,1.3,0c0.2,0,0.4,0,0.5,0
		c0.1,0,0.2,0,0.3,0.1c1.8,0.4,3.9-0.5,4.4-2.5c0.4-1.8-0.5-4-2.5-4.4c-2-0.4-4.1-0.4-6,0c2.2-1.3,4.5-2.5,7-3.2
		c1.8-0.6,3-2.5,2.5-4.4c-0.5-1.8-2.5-3.1-4.4-2.5c-5.8,1.9-11.2,5.1-15.6,9.3c-28.4-19.5-58.2-37.3-88.7-53.4
		c17.5,4.1,34.9,8.3,52.4,12.2c6.9,1.6,13.8,3.1,20.8,4.6c0.1,0,0.1,0.1,0.2,0.2c-0.7,4.7,1,9.7,4.4,13c1.3,1.3,3.7,1.4,5,0
		c1.3-1.4,1.4-3.6,0-5c-0.2-0.2-0.3-0.3-0.5-0.5c-0.1-0.1-0.1-0.2-0.2-0.2c-0.3-0.3-0.5-0.7-0.7-1.1c-0.1-0.2-0.2-0.4-0.3-0.6
		c0-0.1,0-0.1-0.1-0.1c-0.2-0.4-0.3-0.9-0.4-1.3c-0.1-0.2-0.1-0.5-0.2-0.7c0,0,0,0,0,0c0,0,0,0,0,0c0-0.4-0.1-0.9,0-1.3
		c1.7,1.1,3.5,2,5.5,2.6c2.5,0.8,5.2,1.1,7.9,0.9c1.9-0.1,3.7-1.5,3.6-3.6c-0.1-1.8-1.6-3.7-3.6-3.6c-1.1,0.1-2.3,0.1-3.4,0
		c0,0-0.1,0-0.1,0c-0.2,0-0.4-0.1-0.6-0.1c-0.6-0.1-1.1-0.2-1.6-0.4c-0.5-0.2-1-0.3-1.5-0.5c-0.3-0.1-0.5-0.2-0.8-0.4
		c-0.5-0.3-1-0.5-1.5-0.8c-0.1-0.1-0.2-0.2-0.4-0.2c0.4-0.2,0.8-0.5,1.2-0.7c0.1-0.1,0.2-0.1,0.3-0.1c0.1-0.1,0.3-0.1,0.4-0.2
		c0.5-0.2,1-0.3,1.5-0.4c1.8-0.4,3.1-2.6,2.5-4.4c-0.6-1.9-2.4-2.9-4.4-2.5c-2.6,0.5-5,1.8-6.9,3.5c0-0.5,0-0.9,0.1-1.4
		c0-0.3,0.1-0.6,0.1-0.9c0,0,0,0,0-0.1c0,0,0,0,0-0.1c0.1-0.6,0.2-1.1,0.3-1.7c0.3-1.2,0.6-2.3,1-3.5c0.6-1.8-0.7-4-2.5-4.4
		c-2-0.5-3.7,0.6-4.4,2.5c-1.2,3.4-1.7,7-1.7,10.6c-27.8-6-55.5-12.9-83.2-19.2c22.8-1.3,45.6-2.5,68.4-3.8c8.9-0.5,17.8-1,26.7-1.5
		c0.7,6.9,3.8,13.6,8.7,18.6c3.2,3.3,8.2-1.7,5-5c-2.6-2.6-4.4-5.7-5.4-9c0.7,0.6,1.5,1.2,2.3,1.7c3.4,2.1,7.3,3.1,11.2,3.3
		c1.9,0.1,3.6-1.7,3.6-3.6c-0.1-2-1.6-3.4-3.6-3.6c-2.9-0.2-5.7-1-8.3-2.8c-0.1-0.1-0.2-0.2-0.3-0.2c0,0-0.1-0.1-0.1-0.1
		c-0.2-0.2-0.4-0.4-0.6-0.6c-0.1-0.1-0.2-0.3-0.4-0.4c0.5-0.1,1.1-0.2,1.6-0.3c0.3-0.1,0.6-0.1,0.9-0.2c0.2,0,0.3,0,0.5-0.1
		c2.6-0.3,5.3-0.4,7.9-0.3c1.9,0.1,3.6-1.7,3.6-3.6c-0.1-2-1.6-3.5-3.6-3.6c-3.1-0.2-6.2,0-9.3,0.4c0.1-0.1,0.3-0.3,0.4-0.3
		c0.3-0.2,0.6-0.4,0.9-0.6c0.7-0.4,1.4-0.9,2.1-1.2c0.4-0.2,0.9-0.4,1.3-0.6c0.1-0.1,0.2-0.1,0.3-0.1c0.1,0,0.1,0,0.2-0.1
		c0.9-0.4,1.9-0.7,2.9-1c1.8-0.5,3.1-2.5,2.5-4.4c-0.6-1.8-2.5-3.1-4.4-2.5c-3,0.9-6.2,2.2-8.9,4c0.9-1.3,1.9-2.6,3.1-3.8
		c3.3-3.2-1.8-8.3-5-5c-4.8,4.8-8,11-8.9,17.7c-35.9,2-71.8,3.9-107.6,5.9c-0.3,0-0.6,0-0.8,0c12.6-5.2,25.4-10,38.5-14
		c5-1.5,10.1-2.9,15.1-4.2c2.7,5.9,7.7,10.4,13.8,12.9c1.8,0.7,3.9-0.8,4.4-2.5c0.6-2-0.7-3.7-2.5-4.4c-0.9-0.4-1.7-0.8-2.5-1.4
		c1.7,0.4,3.5,0.5,5.3,0.3c0.8-0.1,1.7-1,2.1-1.6c0.4-0.8,0.6-1.9,0.4-2.7c-0.3-0.9-0.8-1.7-1.6-2.1c-0.9-0.5-1.7-0.5-2.7-0.4
		c1.1-0.1,0.3-0.1,0.1,0c-0.2,0-0.4,0-0.7,0c0,0,0,0,0,0c-0.2-0.1-0.5-0.1-0.7-0.1c-0.2-0.1-0.4-0.1-0.6-0.2c0,0,0,0-0.1,0
		c-0.4-0.2-0.7-0.4-1.1-0.6c0,0-0.1,0-0.1-0.1c0,0-0.1-0.1-0.1-0.1c3.5-0.7,6.9-1.9,10-3.7c1.6-0.9,2.3-3.3,1.3-4.9
		c-1.1-1.6-3.1-2.3-4.9-1.3c-0.5,0.3-1,0.5-1.4,0.8c-0.3,0.1-0.6,0.3-0.8,0.4c-0.1,0-0.6,0.3-0.6,0.3c0.5-0.2,0.6-0.2,0.2-0.1
		c-0.1,0.1-0.3,0.1-0.4,0.2c-0.2,0.1-0.4,0.2-0.7,0.2c-0.5,0.2-1.1,0.4-1.7,0.5c-0.5,0.1-0.9,0.2-1.4,0.4c0,0,0,0,0,0
		c0.2-0.2,0.4-0.4,0.5-0.5c0,0,0,0,0,0c0.4-0.2,0.7-0.5,1.2-0.7c1.7-0.8,2.3-3.3,1.3-4.9c-1.1-1.7-3.1-2.1-4.9-1.3
		c-2.7,1.3-4.8,3.8-5.8,6.6c0.2-4.1,1.9-8,4.6-11c3.1-3.4-1.9-8.4-5-5c-5,5.5-7.5,13-6.6,20.3c-9.9,2.7-19.8,5.5-29.5,8.9
		c-8.4,2.9-16.7,6.2-25,9.6c1.4-5.8,2.6-11.7,3.7-17.6c1.2-6.5,2.3-13.1,3.7-19.6c0.7-3.5,1.6-7,2.4-10.5c4.1,2.4,9.2,3.1,13.7,1.6
		c1.8-0.6,3.1-2.5,2.5-4.4c-0.6-1.8-2.5-3.1-4.4-2.5c-0.5,0.2-1.1,0.3-1.7,0.4c-0.1,0-0.1,0-0.2,0c-0.3,0-0.6,0-0.8,0.1
		c-0.6,0-1.1,0-1.7-0.1c-0.1,0-0.1,0-0.2,0c-0.3-0.1-0.6-0.1-0.9-0.2c-0.5-0.1-1-0.3-1.5-0.5c0,0-0.1,0-0.1-0.1
		c4.2-0.9,8.1-3.4,10.6-7c1.1-1.6,0.3-4-1.3-4.9c-1.8-1-3.8-0.3-4.9,1.3c-0.1,0.1-0.1,0.2-0.1,0.2c0,0-0.1,0.1-0.1,0.1
		c-0.2,0.2-0.4,0.4-0.6,0.6c-0.2,0.2-0.5,0.5-0.7,0.7c-0.1,0-0.1,0.1-0.1,0.1c0,0-0.1,0-0.1,0.1c-0.5,0.3-1,0.7-1.6,0.9
		c-0.2,0.1-0.4,0.2-0.6,0.3c-0.1,0-0.6,0.2-0.6,0.2c-0.6,0.2-1.2,0.3-1.8,0.5c0,0-0.1,0-0.1,0c2-4.4,3-9.3,2.8-14.2
		c-0.1-1.9-1.6-3.7-3.6-3.6c-1.9,0.1-3.6,1.6-3.6,3.6c0,0.8,0,1.7,0,2.5c0,0.4-0.1,0.8-0.1,1.2c0,0.1,0,0.3,0,0.4
		c-0.2,1.5-0.6,3.1-1,4.5c-0.2,0.7-0.5,1.3-0.7,2c-0.1,0.2-0.3,0.7-0.3,0.8c-0.1,0.3-0.3,0.5-0.4,0.8c-0.2-0.2-0.4-0.4-0.6-0.5
		c-0.2-0.2-0.5-0.5-0.7-0.7c-0.1-0.1-0.3-0.4-0.4-0.5c-0.3-0.4-0.6-0.8-0.8-1.3c-0.1-0.2-0.3-0.5-0.4-0.7c0-0.1-0.1-0.3-0.1-0.4
		c-0.2-0.6-0.3-1.2-0.5-1.8c0-0.1,0-0.1-0.1-0.2c0,0,0-0.1,0-0.2c0-0.3,0-0.7,0-1c0-1.9-1.6-3.7-3.6-3.6c-1.9,0.1-3.6,1.6-3.6,3.6
		c0.1,5.5,3,10.7,7.5,13.7c0.1,0.9,0.6,1.8,1.3,2.4c-1.9,7.8-3.7,15.6-5.1,23.4c-1.2,6.5-2.3,13.1-3.7,19.6c-0.5,2.1-1,4.3-1.5,6.4
		c-0.2-27.8-0.4-55.6-0.6-83.5c-0.1-8.2-0.1-16.4-0.2-24.7c2,1.4,4.4,2.2,6.7,2.2c5.4,0.2,9.9-3.3,13.8-6.5c1.5-1.2,1.3-3.8,0-5
		c-1.5-1.4-3.5-1.3-5,0c-0.4,0.3-0.8,0.6-1.2,1c-0.1,0-0.1,0.1-0.1,0.1c-0.2,0.1-0.3,0.3-0.5,0.4c-0.8,0.6-1.6,1.1-2.4,1.6
		c-0.4,0.3-0.9,0.5-1.3,0.7c0,0-0.1,0-0.1,0c0,0,0,0,0,0c-0.2,0.1-0.5,0.2-0.7,0.3c-0.4,0.1-0.9,0.3-1.3,0.3c0,0,0,0-0.1,0
		c0,0,0.1,0,0.1,0c0,0,0,0-0.1,0c-0.7,0.1-0.2,0,0,0c-0.2,0-0.5,0-0.5,0c0,0-0.1,0-0.2,0c4.6-3.5,7.6-9.4,8-15.2
		c0.2-1.9-1.7-3.6-3.6-3.6c-2.1,0-3.4,1.6-3.6,3.6c-0.2,2.7-1.5,5.8-3.4,7.8c-0.9,0.9-1.4,1.5-2.3,2c-0.4-1.6-0.8-3.1-1.1-4.7
		c-0.1-0.7-0.3-1.4-0.4-2.1c-0.1-0.3-0.1-0.7-0.2-1c0-0.2-0.1-0.4-0.1-0.5c-0.2-1.5-0.3-3-0.4-4.4c-0.1-1.9-1.6-3.7-3.6-3.6
		c-1.8,0.1-3.7,1.6-3.6,3.6c0.3,4.7,1,9.4,2.2,13.9c-1.5-0.5-2.9-1.3-4.1-2.5c-1.2-1.2-1.9-2.1-2.7-3.7c-0.5-1-1.2-3-1.3-4
		c-0.2-1.9-1.5-3.6-3.6-3.6c-1.7,0-3.8,1.6-3.6,3.6c0.6,4.8,2.5,9.3,6.1,12.7c1.9,1.8,4.2,3.3,6.8,4.2c0.2,30.1,0.4,60.2,0.6,90.2
		c-3.6-15.1-7.9-30.1-12.9-44.8c-2-6-4.1-11.9-6.4-17.8c4.8-3.1,6.8-9,8.2-14.5c0.4-1.8-0.6-3.9-2.5-4.4c-1.8-0.4-3.9,0.6-4.4,2.5
		c-0.3,1.3-0.6,2.5-1,3.8c-0.4,1.3-0.6,2.1-1.2,3.1c-0.2,0.4-0.4,0.8-0.7,1.2c-1.4-4.1-2.7-8.2-4.1-12.2c-0.6-1.8-2.5-3.1-4.4-2.5
		c-1.8,0.6-3.1,2.5-2.5,4.4c1.5,4.4,2.9,8.7,4.4,13.1c-0.5-0.2-0.9-0.4-1.6-0.8c-0.2-0.2-0.5-0.3-0.7-0.5c-0.1-0.1-0.4-0.3-0.4-0.3
		c-0.5-0.4-1-0.9-1.4-1.3c-1-1-1.8-2-2.7-3c-1.2-1.4-3.8-1.3-5,0c-1.4,1.5-1.3,3.5,0,5c2.4,2.8,5.3,5.7,8.7,7.3
		c-0.1,0-0.1,0.1-0.2,0.2c-0.2,0.1-0.5,0.3-0.7,0.4c-0.3,0.1-0.5,0.2-0.8,0.2c-0.3,0-0.5,0-0.8,0c-0.9-0.2-1.8-0.1-2.6,0.4
		c-0.7,0.4-1.4,1.3-1.6,2.1c-0.2,0.9-0.2,1.9,0.4,2.7c0.5,0.8,1.2,1.4,2.1,1.6c2.6,0.6,5.3,0.1,7.6-1.3c0.8-0.5,1.6-1.2,2.3-1.9
		c8,21.6,14.5,43.7,19.6,66.1c0.1,0.3,0.1,0.7,0.2,1c-11.9-21.6-23.8-43.2-35.7-64.8c-4.3-7.8-8.6-15.7-12.9-23.5
		c1.4-0.6,2.7-1.4,3.9-2.3c3.2-2.4,5.9-5.4,7.5-9.1c0.4-0.9,0.6-1.7,0.4-2.7c-0.2-0.8-0.9-1.7-1.6-2.1c-1.5-0.8-4.1-0.5-4.9,1.3
		c-0.3,0.8-0.7,1.5-1.1,2.2c-0.2,0.3-0.4,0.6-0.6,1c-0.1,0.1-0.2,0.3-0.3,0.4c0,0,0,0,0-0.1c0,0,0,0,0,0.1c0,0,0,0,0,0
		c-0.2,0.3-0.2,0.2-0.1,0.1c-0.5,0.5-1,1.1-1.5,1.7c-0.3,0.3-0.6,0.5-0.8,0.8c-0.2,0.1-0.3,0.3-0.5,0.4c-0.3,0.2-0.5,0.3-0.8,0.5
		c0.6-1.1,1.1-2.3,1.4-3.6c1.1-4.6,0.1-9.3-0.9-13.8c-0.4-1.9-2.6-3-4.4-2.5c-1.9,0.5-2.9,2.5-2.5,4.4c0.4,1.6,0.8,3.4,1,5
		c0.1,0.9,0.2,1.8,0.1,2.8c0,0.4,0,0.8-0.1,1.2c0,0.1-0.1,0.7-0.1,0.7c-0.2,0.7-0.3,1.2-0.5,1.7c-0.5-0.9-1.1-1.8-1.5-2.7
		c-0.4-0.8-0.8-1.6-1.1-2.4c-0.1-0.1-0.1-0.3-0.2-0.4c0-0.1,0-0.1-0.1-0.2c-0.2-0.4-0.3-0.8-0.5-1.2c-0.6-1.6-1.1-3.3-1.6-5
		c-0.5-1.8-2.6-3.1-4.4-2.5c-1.9,0.6-3,2.4-2.5,4.4c1.3,4.9,3.2,9.5,5.8,13.8c-0.1,0-0.2,0-0.3,0c-0.6,0-0.1,0-0.7-0.1
		c-0.8-0.1-1.6-0.3-2.3-0.6c-0.4-0.1-0.7-0.2-1.1-0.4c-0.1,0-0.7-0.3-0.7-0.3c-2.9-1.3-4.9-2.8-6.9-5.2c-1.3-1.5-3.7-1.3-5,0
		c-1.4,1.4-1.3,3.6,0,5c2.7,3.1,6.2,5.5,10,7c1.5,0.6,3.2,1.1,4.9,1.4c-0.3,0.2-0.6,0.4-1,0.6c-0.3,0.1-0.6,0.3-0.8,0.4
		c0,0,0,0-0.1,0c0.1,0,0.1,0,0.2-0.1c-0.1,0-0.2,0.1-0.3,0.1c0,0,0,0,0,0c0,0-0.1,0-0.1,0c-0.6,0.3-1.3,0.5-2,0.6
		c-0.6,0.2-1.2,0.3-1.9,0.4c0,0,0.1,0,0.1,0c-0.1,0-0.1,0-0.2,0c-0.2,0-0.3,0-0.2,0c0,0,0,0,0,0c-0.4,0-0.8,0.1-1.2,0.1
		c-1.9,0.1-3.7,1.6-3.6,3.6c0.1,1.9,1.6,3.6,3.6,3.6c3.6-0.1,7-1.1,10.1-2.7c1.8-0.9,3.4-2.1,4.8-3.5c0,0,0.1,0,0.1,0
		c0.1,0.2,0.1,0.4,0.2,0.5c16,29,31.9,58,47.9,87c1.6,3,3.3,6,4.9,8.9c-15.4-16.8-31.7-32.8-49-47.8c-4.5-3.9-9.2-7.8-13.8-11.6
		c0.7-0.5,1.4-1.1,2-1.8c1.1-1.2,2.1-2.5,2.8-4c0.8-1.8,1.3-3.6,1.5-5.6c0.1-0.9-0.5-1.9-1-2.5c-0.6-0.6-1.6-1.1-2.5-1
		c-0.9,0-1.9,0.3-2.5,1c-0.6,0.6-0.8,1.3-1,2.1c-0.1,0.8-0.4,1.7-0.7,2.5c-0.3,0.6-0.7,1.2-1.1,1.8c1-3.3,1-6.9,0-10.2
		c-0.6-1.8-2.5-3.1-4.4-2.5c-1.8,0.6-3.1,2.5-2.5,4.4c0.2,0.6,0.3,1.2,0.4,1.8c0,0,0,0,0,0c0,0,0,0,0,0.1c0,0.4,0,0.7,0.1,1.1
		c0,0.5,0,1.1-0.1,1.6c0,0,0,0,0,0c0,0.1,0,0.1-0.1,0.3c-0.1,0.3-0.1,0.6-0.2,0.9c-0.1,0.5-0.3,1-0.5,1.5c-2.7-2.6-5.4-5.2-8.2-7.9
		c-1.3-1.3-3.7-1.4-5,0c-1.3,1.4-1.4,3.7,0,5c2.8,2.7,5.6,5.4,8.3,8.1c0,0-0.1,0-0.1,0.1c-0.1,0-0.2,0.1-0.3,0.2
		c-0.2,0.1-0.4,0.2-0.6,0.2c-0.6,0.2-1.2,0.4-1.9,0.5c-0.1,0-0.3,0.1-0.3,0.1c-0.3,0-0.6,0.1-0.9,0.1c-0.6,0-1.1,0-1.7,0
		c-0.1,0-0.3,0-0.4,0c-0.3-0.1-0.6-0.1-0.8-0.2c-0.6-0.1-1.2-0.3-1.8-0.6c-1.7-0.7-4,0.7-4.4,2.5c-0.5,2,0.6,3.7,2.5,4.4
		c3.6,1.4,7.6,1.4,11.3,0.2c-0.5,0.3-1.1,0.6-1.7,0.9c-0.1,0-0.2,0.1-0.3,0.1c0,0-0.1,0-0.1,0c-0.4,0.1-0.7,0.3-1.1,0.4
		c-0.7,0.2-1.5,0.4-2.3,0.6c-1.8,0.4-3,2.7-2.5,4.4c0.6,2,2.4,2.9,4.4,2.5c5-1,9.7-3.8,13.1-7.6c20,16.4,38.9,34,56.7,52.9
		c1.2,1.3,2.4,2.6,3.6,3.9c-23.8-12.8-47.7-25.5-71.5-38.3c-8.6-4.6-17.1-9.2-25.7-13.8c3.2-8,3.5-17.2,0.9-25.4
		c-1.4-4.4-8.3-2.5-6.9,1.9c1.3,4.1,1.7,8.4,1.3,12.6c-1.3-2.6-3.2-4.9-5.3-7c-1.3-1.3-3.8-1.4-5,0c-1.3,1.4-1.4,3.6,0,5
		c0.7,0.7,1.4,1.5,2,2.2c0,0,0.3,0.4,0.4,0.5c0.2,0.3,0.5,0.6,0.7,1c0.4,0.6,0.8,1.3,1.1,1.9c0,0,0,0,0,0c0.1,0.2,0.1,0.3,0.2,0.5
		c0.1,0.4,0.2,0.8,0.3,1.1c0,0.2,0.1,1,0.1,0.2c0,0.4,0.1,0.8,0,1.2c0,0,0,0.1,0,0.1c-0.8-0.6-1.7-1.1-2.5-1.7
		c-0.4-0.3-0.9-0.6-1.3-1c-0.2-0.1-0.4-0.3-0.6-0.4c-0.1-0.1-0.2-0.1-0.3-0.2c0,0,0,0,0,0c-3.4-2.7-6.7-5.6-9.7-8.7
		c-1.3-1.3-3.8-1.4-5,0c-1.3,1.4-1.4,3.6,0,5c4.9,5.1,10.5,9.7,16.4,13.6c0,0,0,0,0,0c-0.1,0.1-0.5,0.4-0.6,0.5
		c-0.2,0.1-0.3,0.2-0.5,0.3c-0.2,0.1-0.4,0.2-0.6,0.3c-0.1,0-0.2,0.1-0.3,0.1c-0.4,0.1-1.2,0.5-1.7,0.4c0.5-0.1,0.6-0.1,0.2,0
		c-0.2,0-0.3,0-0.5,0c-0.4,0-0.7,0-1.1,0c-0.7,0-1.3-0.1-1.9-0.1c-0.2,0-0.3,0-0.5-0.1c-0.3,0-0.6-0.1-0.9-0.1
		c-0.9-0.1-1.7-0.3-2.5-0.5c-1.8-0.4-3.9,0.5-4.4,2.5c-0.4,1.8,0.5,4,2.5,4.4c2.5,0.5,5.2,1,7.9,1c-2.9,1.9-6.1,3.3-9.5,4.2
		c-4.4,1.1-2.6,8,1.9,6.9c9.2-2.3,17.3-8.1,22.5-16c28.6,15.3,57.3,30.7,85.9,46c-15-3.3-29.9-6.6-44.9-9.9
		c-5.8-1.3-11.6-2.5-17.3-3.8c0.4-2.2,0.8-4.4,1-6.7c0.2-1.9-1.8-3.6-3.6-3.6c-1.4,0.1-2.4,0.7-3,1.8c-0.9-1.6-2.1-3-3.6-4.2
		c-1.9-1.5-4.2-1.4-5.6,0.7c-0.2,0.3-0.4,0.6-0.6,0.9c-1,1.5-0.3,4,1.3,4.9c0.6,0.3,1.2,0.5,1.8,0.4c0.1,0.1,0.2,0.3,0.2,0.3
		c0.1,0.2,0.3,0.4,0.4,0.7c0.1,0.2,0.2,0.5,0.4,0.7c0,0,0,0.1,0.1,0.1c0.2,0.4,0.3,0.9,0.4,1.3c0,0,0,0,0,0
		c-3.4-0.8-6.9-1.6-10.3-2.3c-1.8-0.4-3.9,0.6-4.4,2.5c-0.4,1.8,0.5,3.9,2.5,4.4c3.6,0.8,7.2,1.6,10.8,2.4c0,0,0,0,0,0
		c0,0.1-0.1,0.1-0.1,0.2c-0.3,0.3-0.6,0.7-0.9,1c-0.2,0.2-0.4,0.3-0.6,0.5c0,0,0,0,0,0c0,0-0.1,0-0.1,0.1c-0.4,0.3-0.8,0.5-1.3,0.8
		c-0.2,0.1-0.4,0.2-0.5,0.3c0.7-0.4-0.2,0-0.3,0.1c-1.8,0.6-3.1,2.5-2.5,4.4c0.6,1.7,2.5,3.1,4.4,2.5c0.8-0.3,1.6-0.7,2.4-1.1
		c-0.3,1.5,0.1,3.1,1.6,3.9c1.6,0.8,4,0.5,4.9-1.3c1.4-2.8,2.5-5.8,3.5-8.7c23.7,5.2,47.4,10.4,71.1,15.6c0.1,0,0.2,0,0.3,0.1
		c-24.3,2.5-48.5,5.8-72.6,9.8c-7.7,1.3-15.4,2.7-23.1,4.2c-3.2-8.7-10.2-15.5-18.8-18.9c-1.8-0.7-3.9,0.8-4.4,2.5
		c-0.6,2,0.7,3.7,2.5,4.4c3.7,1.5,7,4,9.6,7.1c-2.7-1.4-5.9-2.2-8.8-2.2c-1.9,0-3.6,1.6-3.6,3.6c0,1.9,1.6,3.6,3.6,3.6
		c2.4,0,4.4,0.5,6.5,1.8c0,0,0.5,0.3,0.5,0.4c0.2,0.1,0.3,0.3,0.5,0.4c0.2,0.2,0.4,0.4,0.6,0.6c0,0,0,0,0,0
		c-1.4,0.5-2.8,0.9-4.4,1.3c-1.9,0.4-2.9,0.6-4.6,0.7c-1.9,0.1-3.8,0.1-5.6-0.1c-1.9-0.2-3.6,1.7-3.6,3.6c0.1,2.1,1.6,3.4,3.6,3.6
		c5.2,0.4,10.5-0.2,15.5-1.8c-0.3,0.6-0.7,1.3-1.2,2c-0.1,0.2-0.1,0.2,0,0c-0.1,0.1-0.2,0.2-0.2,0.3c-0.2,0.3-0.5,0.6-0.7,0.9
		c-0.4,0.5-0.9,0.9-1.4,1.4c-1.1,1-1.8,1.5-3.1,2.4c-1.6,1.1-2.3,3.2-1.3,4.9c0.9,1.6,3.3,2.3,4.9,1.3c3.2-2.1,6.3-4.8,8.3-8
		c-0.8,4.1-2.5,7.9-5.1,11.1c-1.2,1.5-1.5,3.6,0,5c1.3,1.3,3.8,1.5,5,0c5.7-6.9,8.5-16,7.4-24.8c29.9-5.7,59.9-10.2,90.2-13.4
		c2.8-0.3,5.7-0.6,8.5-0.9c0.5,0.6,1.3,0.9,2.3,0.9c-19.1,6.3-38.3,12.4-57.4,18.7c-4.8,1.6-9.6,3.2-14.3,4.8
		c-2.1-3-4.7-5.7-7.9-7.7c-1.6-1-4-0.4-4.9,1.3c-0.9,1.8-0.4,3.8,1.3,4.9c0.3,0.2,0.5,0.4,0.8,0.5c-1.6-0.5-3.3-0.8-5-0.7
		c-1.9,0.1-3.7,1.6-3.6,3.6c0.1,1.8,1.6,3.7,3.6,3.6c0.4,0,0.9,0,1.3,0c0.1,0,0.3,0.1,0.5,0.1c0,0,0.1,0,0.1,0
		c0.4,0.1,0.8,0.2,1.1,0.3c0.1,0,0.2,0.1,0.2,0.1c-2.1,1.1-4,2.3-5.8,3.8c-0.7,0.5-1,1.7-1,2.5c0,0.9,0.4,1.9,1,2.5
		c0.7,0.6,1.6,1.1,2.5,1c1,0,1.8-0.4,2.5-1c0.1,0,0.1-0.1,0.2-0.1c1.5-1.1,3.1-2.1,4.7-2.9c0,0.2,0,0.3,0,0.4c0,0.2,0,0.5,0,0.7
		c0,0.2-0.2,0.8,0,0.3c0.2-0.5,0,0.1-0.1,0.3c-0.1,0.2-0.1,0.5-0.2,0.7c-0.1,0.2-0.1,0.4-0.2,0.6c0,0,0,0,0,0c0,0,0,0,0,0.1
		c-0.1,0.3-0.1,0.3-0.1,0.3c-0.1,0.1-0.1,0.3-0.2,0.4c-0.1,0.2-0.3,0.4-0.4,0.6c-1,1.6-0.4,4,1.3,4.9c1.8,0.9,3.8,0.4,4.9-1.3
		c0.6-0.9,1-1.8,1.3-2.8c0.5,1.4,1.8,2.5,3.3,2.4c1.9-0.1,3.6-1.6,3.6-3.6c0-3.2-0.5-6.3-1.6-9.2c21.2-7.2,42.5-13.9,63.8-20.9
		c0.5-0.2,1.1-0.4,1.6-0.5c-22.1,14.1-44.2,28.3-66.4,42.4c-6.9,4.4-13.9,8.9-20.8,13.3c-4.9-5.6-11.1-10.2-18.2-13.1
		c-1.8-0.7-3.9,0.8-4.4,2.5c-0.6,2,0.7,3.7,2.5,4.4c2.9,1.2,5.7,2.8,8.2,4.7c-0.1,0-0.3-0.1-0.4-0.1c-4.2-0.9-8.4-0.8-12.7,0
		c-1.8,0.3-3,2.7-2.5,4.4c0.6,2,2.4,2.8,4.4,2.5c3-0.5,6.8-0.6,9.9,0.3c0.4,0.1,0.8,0.2,1.2,0.4c0.2,0.1,0.5,0.2,0.7,0.3
		c0.7,0.3,1.3,0.6,1.9,1c0.3,0.2,0.7,0.4,1,0.7c0.1,0,0.1,0.1,0.1,0.1c0.1,0.1,0.2,0.2,0.4,0.3c-4.1,1.2-8.1,3-11.8,5.2
		c-1.6,1-2.3,3.2-1.3,4.9c1,1.6,3.2,2.3,4.9,1.3c1.2-0.7,2.3-1.3,3.5-1.9c0.6-0.3,1.1-0.5,1.7-0.8c0.2-0.1,1.2-0.6,0.4-0.2
		c0.3-0.1,0.6-0.2,0.9-0.4c1.8-0.7,3.7-1.3,5.5-1.7c0,0.2,0.1,0.6,0.1,0.6c0,0.3,0,0.6,0,1c0,0.1,0,0.4,0,0.5
		c-0.1,0.4-0.1,0.7-0.2,1.1c-0.1,0.3-0.2,0.6-0.3,0.9c0,0.1,0,0.1-0.1,0.2c0,0,0,0.1-0.1,0.1c-0.2,0.3-0.3,0.7-0.5,1
		c-0.1,0.1-0.5,0.6-0.4,0.6c-0.2,0.2-0.3,0.4-0.5,0.5c-0.2,0.1-0.3,0.3-0.5,0.4c0,0,0,0,0,0c-1.6,1.1-2.3,3.1-1.3,4.9
		c0.9,1.5,3.3,2.4,4.9,1.3c3.1-2.2,5.1-5.5,5.9-9.1c1.2,3.5,1.9,7.2,2.1,10.9c0.2,4.6,7.3,4.6,7.1,0c-0.4-8.6-3.1-16.8-7.7-23.8
		c25.8-16.5,51.7-33,77.5-49.5c-8.9,10.7-17.8,21.4-26.8,32.2c-4.3,5.1-8.6,10.3-12.9,15.4c-2.4-2.7-5.3-4.9-8.6-6.4
		c-1.7-0.8-3.9-0.5-4.9,1.3c-0.8,1.6-0.5,4,1.3,4.9c0.9,0.4,1.7,0.9,2.5,1.4c0.2,0.2,0.5,0.3,0.7,0.5c0,0-0.1,0-0.1,0
		c-2.5-0.2-5.1,0.4-7.3,1.6c-1.6,0.9-2.3,3.3-1.3,4.9c1.1,1.6,3.1,2.3,4.9,1.3c0.2-0.1,0.4-0.2,0.6-0.3c0,0,0.1,0,0.1-0.1
		c0.4-0.1,0.8-0.2,1.2-0.3c0,0,0,0,0.1,0c0.3,0,0.5,0,0.8,0c0.3,0,0.5,0,0.8,0c0.1,0,0.3,0,0.4,0c-0.2,0-0.4,0-0.6-0.1
		c0.2,0,0.5,0,0.8,0.1c-2,1.9-4,3.9-6,5.8c-1.3,1.3-1.4,3.8,0,5c1.4,1.3,3.6,1.4,5,0c1.8-1.7,3.6-3.4,5.3-5.1c0,0.3,0,0.6,0,0.8
		c0,0.1,0,0.2,0,0.2c0,0.2-0.1,0.4-0.2,0.7c-0.1,0.2-0.1,0.4-0.2,0.6c0,0,0,0.1-0.1,0.1c-0.1,0.2-0.3,0.5-0.4,0.7
		c-0.1,0.2-0.7,1,0,0.1c-0.6,0.8-1,1.5-1,2.5c0,0.9,0.4,1.9,1,2.5c1.3,1.2,3.8,1.6,5,0c1.3-1.6,2.1-3.2,2.6-5.1
		c0.6,0.2,1.3,0.2,1.9,0c1.9-0.6,2.9-2.4,2.5-4.4c-0.5-2.5-1.4-4.9-2.6-7.2c14.4-17.3,28.8-34.5,43.1-51.8
		c-7.6,14.4-15,28.9-22.1,43.6c-11.5,24-22,48.6-30.5,73.9c-8.4,25-14.6,50.8-17.8,77c-1.7,13.3-3.2,27-1.3,40.3
		c1.6,11.3,6.6,23,15.9,30.1c9.8,7.4,23,7.2,33.8,2.2c4.4-2,8.3-4.8,11.8-8c0,10.4,0.2,20.4,0.9,28.9c1.4,21.1,4.5,25.5,5.5,27.2
		c2.5,3.8,5.7,3.8,7,3.8c1.8-0.2,3-0.9,4.3-1.8c0,0.4-0.2,0.5-0.2,0.9c-2.1,5-2.3,10.2-0.5,14.6c1.4,3.6,4.1,6.6,7.7,8.8
		c3.4,2,7.5,3,12,3c6.6,0,12.7-2.1,18.2-6.3c4.5-3.6,8.6-8.6,11.8-15c4.3-8.2,7.1-18.6,8.2-29.3c11.6-4.9,23-12.4,31.3-28.6
		c6.4,0.8,12.7,0.6,18.6-0.9c3.8-0.7,7.3-2.1,10.7-3.9c-0.7,7.3-1.8,17.5-2.3,27.9c-2.3,38.2,2.3,48.4,5.9,52.5
		c2.9,3.2,5.9,3.9,8,3.9c7.9,0,13.4-8.8,17-15.4c3.6-7,7.5-16.6,11.4-28.6c0.3-0.9,0.6-1.8,0.9-2.7c0.4,1.9,0.8,3.8,1.3,5.7
		c2,7.7,4.6,14.3,7.9,19.1c5.4,7.7,11.1,9.3,14.8,9.3c10,0,20.2-8.6,30-25.7c1.7-3,3.4-6.2,5-9.6c0.8,3.7,1.8,6.9,3.2,9.6
		c3.9,7.7,9.8,9.8,13.9,10.4c4.8,0.5,9.8-1.1,15.2-4.5c4.8-3,9.5-7.5,13.9-13.4c1.6-2.3,3.4-4.6,4.8-7.1c-2.7,35.4,1.4,44.8,5,49
		c2.5,3.2,5.7,3.9,7.9,3.9c5.9,0,11.4-4.8,17.2-15.4c3.9-7,7.9-16.6,12.1-28.6c0.8-2.2,1.6-4.5,2.3-6.7c0,0.5,0,1,0,1.5
		c0.4,17.2,1.3,30.5,2.9,41.1c1.8,13.2,4.6,21.3,8.8,25.5c3,3,6.1,3.8,8.2,3.8c3.6,0,7-2.1,10.4-6.6c2.1-3,4.5-7.1,6.8-12.5
		c3.9-8.8,8-20.7,12.3-35.7c1.2-4.1,2.3-8.2,3.4-12.2c0.1,0.8,0.1,1.6,0.2,2.3c0.4,4.3,0.9,7.7,1.6,10c0.4,1.6,0.7,2.9,1.3,3.8
		c1.8,3.4,4.6,3.8,5.7,3.8c1.8,0,4.3-0.7,6.4-3.8c1.1-1.3,2-3,2.9-5.4c1.6-3.8,3.2-8.6,5-14.3c2.7-8.9,5.9-19.1,10-27
		c3.9-7.5,7.9-11.4,11.6-11.4c1.1,0,1.4,0.4,1.8,0.7c0.9,1.1,2.5,4.3,2.3,13.8c-0.2,7.3-1.3,16.6-2.3,25.4c-1.1,8.9-2.3,18-2.3,25.5
		c-0.4,9.8,1.1,15.9,4.5,19.8c2.3,2.5,5.4,3.9,8.9,3.9c3.8,0,7.3-1.8,10.7-5.2c2.5-2.5,5-5.9,7.5-10.5c4.1-7.1,8.2-17,12.5-29.3
		c0.5-1.6,1.1-3.2,1.6-4.7c0.2,0.7,0.3,1.4,0.5,2.1c2.2,8.1,5.2,15.1,8.7,20.1c5.8,8,11.9,9.6,15.9,9.6c10.6-0.2,21.2-9.4,31.4-27.8
		c7.7-14,14.8-32.4,19.1-49.6C680.6,534.5,678.7,531.3,675.6,530.6z M625.6,518.7c1.1-0.6,1.9-0.8,2.3-0.8c0,0.4,0,1.3-0.3,2.7
		c-0.5,1.9-3.1,7.4-12.5,13.7C617.4,526.6,620.9,521.2,625.6,518.7z M541.7,448.1C542.2,448.1,541.9,448.1,541.7,448.1
		C541.7,448.1,541.7,448.1,541.7,448.1z M528.8,486.8c1.7-11.4,3.3-24.9,9.5-34.9c4.9-7.9,9.5,1.1,11.3,6c2.8,7.8,2.4,15.7-0.3,23.5
		c-1.2,3.5-3,6.5-5.1,9.6c-0.1,0.1-0.1,0.1-0.1,0.2c0,0,0,0-0.1,0.1c-3.3,4-7.6,7-12.1,9.4c-0.2,0.1-0.3,0.1-0.5,0.2
		c-0.4,0.2-0.8,0.3-1.2,0.4c-1,0.4-2.1,0.7-3.1,0.9c-0.1,0-0.1,0-0.2,0C527.4,497.1,528,491.9,528.8,486.8z M405.5,501.8
		c-0.1,0-0.2-0.1-0.3-0.1C405.3,501.7,405.5,501.8,405.5,501.8z M407.9,476.2c0.2-0.1,0.5-0.2,0.6-0.2
		C408.5,476,408.1,476.2,407.9,476.2z M329.2,528.1c1.1-0.5,1.8-0.7,2.1-0.7c0,0.4,0,1.3-0.4,2.5c-0.5,1.8-3,7-12,12.7
		C321.3,535.5,324.7,530.5,329.2,528.1z M193.7,358.9c0.1,0,0.2,0.1,0.3,0.2C194,359,193.9,359,193.7,358.9z M279.6,294.3
		C279.6,294.1,279.6,294.1,279.6,294.3L279.6,294.3z M240.2,234.2c0,0-0.1,0-0.1-0.1C240.1,234.2,240.1,234.2,240.2,234.2
		C240.2,234.2,240.2,234.2,240.2,234.2z M190.2,196.5c0,0-0.1,0-0.1,0C190.1,196.5,190.2,196.5,190.2,196.5z M70.4,190.5
		c-0.1,0-0.2,0.1-0.2,0.1C70.2,190.6,70.3,190.5,70.4,190.5z M70.4,190.5C70.6,190.4,70.6,190.4,70.4,190.5L70.4,190.5z M57.7,293.7
		c0,0,0.1,0,0.2,0.1c0,0,0,0,0,0C57.8,293.8,57.8,293.8,57.7,293.7z M154.1,454c2.1-4.3,3.9-5.4,4.5-5.4c0.7,0,0.7,0,0.9,0.2
		c0.5,1.1,3,6.8-3.9,29.1c-2.8,9.7-7,20.8-12.3,32.9c-0.1,0-0.1,0.1-0.2,0.1C145.1,485.1,149.2,464.1,154.1,454z M188.3,605
		c-5.4,10.2-12.1,15.4-20.5,15.4c-4.8,0-8.4-1.8-9.6-5c-1.4-3.6,0.2-10.2,8.8-17.9c6.8-6.3,15.7-9.1,25.2-12.1l2.5-0.7
		C193.3,592.1,191.1,599.1,188.3,605z M195.8,572.8c-2.3,0.9-4.6,1.6-7,2.3c-10.2,3.2-20.5,6.6-29.3,14.5c-1.6,1.4-3,2.9-4.3,4.3
		c1.4-3.8,2.9-8,4.5-12.7c5.4-16.6,12.9-39.1,25.9-39.1c3.2,0,5.4,3.6,6.6,6.6c2.3,5.4,3.6,12.9,3.6,21.4V572.8z M233.4,527.3
		c-1.1,5-2.3,9.3-3.4,12.1c-8.8-3.2-11.6-13-10.4-21.3c0.7-6.1,3.9-12.1,9.3-12.1c2.7,0,3.8,0.9,4.3,1.8
		C234.3,509.2,236.3,514,233.4,527.3z M404,579.2c-8.2,10.7-15.4,13.9-19.5,13.6c-0.7,0-3.2-0.4-5.5-4.6c-1.4-2.9-3.2-8.4-3.2-18.4
		c0-4.3,0.3-8,0.7-11.2c1.3-3.9,2.5-7.9,3.5-11.7c1.4-2.4,2.9-3.7,4.5-4h0.9c2.7,0,6.4,2.1,10,6.1c5,5.2,9.6,13,13.8,22.7
		C407.6,574.2,405.8,576.9,404,579.2z M513.7,544.5c-0.6,2.8-5.5,24.9-11.9,47.6c-3.9,14.1-7.9,25.5-11.3,33.9
		c-5,11.8-8,15-8.9,15.7c-0.7-0.5-3.4-3.6-5.4-15c-1.8-9.5-2.9-22.9-3.4-39.8c-0.8-26.8,0.2-58.4,1.2-86.3
		c12.1,6.2,24.6,11.3,38.3,12.7c0.9,0.1,1.9,0.2,2.8,0.2C514.4,523.5,513.9,533.9,513.7,544.5z"/>
	<path d="M335.2,650.3c-9.9,7.2-19.9,14.2-29.9,21.4c-2,1.5-3,4-1.7,6.3c1.2,2,4.3,3.1,6.3,1.7c9.9-7.2,19.9-14.2,29.9-21.4
		c2-1.5,3-4,1.7-6.3C340.3,649.9,337.2,648.8,335.2,650.3z"/>
	<path d="M371.5,654.6c-2.3-0.6-5.2,0.8-5.7,3.2c-3.8,18.8-7.7,37.5-11.5,56.3c-0.5,2.4,0.7,5,3.2,5.7c2.3,0.6,5.2-0.8,5.7-3.2
		c3.8-18.8,7.7-37.5,11.5-56.3C375.3,657.9,374.1,655.3,371.5,654.6z"/>
	<path d="M399.8,662.9c-1-2.3-3.1-4-5.7-3.2c-2.2,0.6-4.2,3.4-3.2,5.7c4.4,10.5,8.8,21,13.2,31.4c1,2.3,3.1,4,5.7,3.2
		c2.2-0.6,4.2-3.4,3.2-5.7C408.6,683.8,404.2,673.4,399.8,662.9z"/>
	<path d="M692.7,310.8c1.5,2.3,4,2.8,6.3,1.7c8.3-3.9,16.6-7.7,24.8-11.6c2.2-1,2.9-4.4,1.7-6.3c-1.5-2.3-4-2.8-6.3-1.7
		c-8.3,3.9-16.6,7.7-24.8,11.6C692.2,305.5,691.5,308.8,692.7,310.8z"/>
	<path d="M747.9,343.6c-17-0.8-33.7-3.7-50-8.7c-2.4-0.7-5,0.9-5.7,3.2c-0.7,2.5,0.8,5,3.2,5.7c17,5.2,34.7,8.2,52.4,9
		c2.5,0.1,4.6-2.2,4.6-4.6C752.5,345.6,750.4,343.7,747.9,343.6z"/>
	<path d="M692.2,367.2c-1.3-2.1-4.2-3-6.3-1.7c-2.1,1.3-3,4.1-1.7,6.3c5.5,8.8,11.1,17.6,16.6,26.5c1.3,2.1,4.2,3,6.3,1.7
		c2.1-1.3,3-4.1,1.7-6.3C703.3,384.8,697.7,376,692.2,367.2z"/>
</g>
</svg>
