<?xml version="1.0" encoding="utf-8"?>
<!-- Generator: Adobe Illustrator 15.1.0, SVG Export Plug-In . SVG Version: 6.00 Build 0)  -->
<!DOCTYPE svg PUBLIC "-//W3C//DTD SVG 1.1//EN" "http://www.w3.org/Graphics/SVG/1.1/DTD/svg11.dtd">
<svg version="1.1" id="Layer_1" xmlns:vectornator="http://vectornator.io"
	 xmlns="http://www.w3.org/2000/svg" xmlns:xlink="http://www.w3.org/1999/xlink" x="0px" y="0px" width="864px" height="864px"
	 viewBox="0 0 864 864" enable-background="new 0 0 864 864" xml:space="preserve">
<g>
	<path fill="#29B473" d="M198.69,473.855c-8.984,0-17.689-1.586-26.116-4.761c-9.259-3.173-17.757-8.417-25.494-15.729
		c-7.293-6.762-13.052-14.903-17.281-24.426c-3.822-8.692-5.94-18.075-6.348-28.15c-0.278-9.936,1.224-19.386,4.505-28.357
		c3.411-9.382,8.68-17.868,15.808-25.459c3.452-3.724,7.219-7.037,11.296-9.936c4.074-2.895,8.395-5.379,12.955-7.452
		c8.705-3.861,18.101-6.002,28.188-6.416c10.225-0.275,19.759,1.295,28.604,4.709c9.67,3.549,18.168,8.75,25.495,15.604
		c1.658,1.522,2.52,3.456,2.59,5.804c0.068,2.351-0.657,4.353-2.176,6.011c-1.658,1.658-3.627,2.523-5.907,2.591
		c-2.28,0.071-4.249-0.654-5.907-2.176c-5.804-5.389-12.301-9.463-19.484-12.226c-7.187-2.759-14.716-4.006-22.592-3.733
		c-7.877,0.278-15.338,1.972-22.385,5.087c-7.047,3.115-13.266,7.579-18.655,13.392c-5.253,5.816-9.259,12.323-12.018,19.52
		c-2.763,7.199-4.006,14.742-3.734,22.631c0.275,7.89,1.969,15.364,5.078,22.424c3.109,7.061,7.565,13.291,13.369,18.688
		c5.803,5.262,12.297,9.278,19.483,12.044c7.183,2.77,14.716,4.016,22.592,3.737c7.876-0.275,15.338-1.969,22.386-5.078
		c7.047-3.108,13.194-7.565,18.447-13.369c1.658-1.658,3.627-2.52,5.907-2.591c2.28-0.068,4.25,0.657,5.907,2.177
		c1.794,1.521,2.695,3.455,2.695,5.803c0,2.353-0.761,4.353-2.28,6.011c-7.047,7.43-15.202,13.188-24.458,17.282
		c-8.706,3.821-18.104,5.938-28.189,6.347H198.69z"/>
	<path fill="#29B473" d="M353.21,475.1c-2.377,0-4.372-0.794-5.981-2.384c-1.61-1.587-2.413-3.487-2.413-5.7V406.7
		c-0.278,0-0.553,0.036-0.829,0.104c-0.275,0.071-0.55,0.104-0.822,0.104H279.94v60.108c0,2.213-0.807,4.113-2.417,5.7
		c-1.609,1.59-3.601,2.384-5.978,2.384c-2.241,0-4.165-0.794-5.774-2.384c-1.61-1.587-2.413-3.487-2.413-5.7V330.424
		c0-2.348,0.803-4.317,2.413-5.907c1.609-1.587,3.533-2.384,5.774-2.384c2.377,0,4.369,0.794,5.978,2.377
		c1.61,1.587,2.417,3.55,2.417,5.888v59.928h63.224h1.651v-59.928c0-2.338,0.803-4.301,2.413-5.888
		c1.609-1.583,3.604-2.377,5.981-2.377c2.238,0,4.162,0.797,5.771,2.384c1.609,1.59,2.416,3.56,2.416,5.907v136.591
		c0,2.213-0.807,4.113-2.416,5.7C357.372,474.306,355.449,475.1,353.21,475.1z"/>
	<path fill="#29B473" d="M457.57,474.893c-2.352,0-4.32-0.794-5.908-2.384c-1.59-1.587-2.383-3.556-2.383-5.907v-56.585h-64.461
		v56.585c0,2.352-0.797,4.32-2.384,5.907c-1.59,1.59-3.56,2.384-5.907,2.384c-2.351,0-4.32-0.794-5.907-2.384
		c-1.59-1.587-2.384-3.556-2.384-5.907v-97.003v-0.622c0.136-6.218,1.451-12.193,3.938-17.929
		c2.487-5.732,5.939-10.811,10.363-15.234c4.56-4.696,9.774-8.255,15.649-10.674c5.871-2.416,12.125-3.627,18.758-3.627
		s12.919,1.211,18.862,3.627c5.939,2.419,11.192,5.979,15.752,10.674c4.421,4.424,7.841,9.502,10.261,15.234
		c2.416,5.736,3.763,11.711,4.042,17.929v0.622v97.003c0,2.352-0.797,4.32-2.384,5.907
		C461.887,474.099,459.918,474.893,457.57,474.893z M384.818,393.435h64.461v-23.214c0-4.421-0.865-8.602-2.591-12.54
		c-1.729-3.938-4.042-7.358-6.944-10.26c-2.901-2.902-6.321-5.182-10.26-6.839c-3.938-1.659-8.119-2.488-12.54-2.488
		c-4.424,0-8.569,0.829-12.436,2.488c-3.871,1.658-7.255,3.938-10.157,6.839s-5.217,6.322-6.943,10.26
		c-1.729,3.938-2.591,8.119-2.591,12.54V393.435z"/>
	<path fill="#29B473" d="M563.068,474.893c-1.797,0-3.455-0.551-4.974-1.658c-1.108-0.69-1.937-1.588-2.488-2.694l-66.74-110.89
		v106.745c0,2.351-0.798,4.32-2.385,5.907c-1.59,1.59-3.56,2.384-5.906,2.384c-2.352,0-4.32-0.794-5.908-2.384
		c-1.59-1.587-2.383-3.557-2.383-5.907V329.802v-0.829c0.136-0.69,0.275-1.276,0.414-1.762c0.136-0.483,0.344-1.001,0.622-1.555
		c0.551-0.965,1.38-1.865,2.487-2.694c0.275-0.275,0.654-0.519,1.14-0.726c0.482-0.208,1.001-0.379,1.555-0.518
		c1.104-0.276,2.073-0.344,2.901-0.208c1.104,0,2.209,0.347,3.317,1.036c1.104,0.693,2,1.451,2.694,2.28l0.414,0.829l66.948,111.305
		V330.01c0-2.348,0.794-4.317,2.384-5.907c1.587-1.586,3.557-2.383,5.907-2.383c2.349,0,4.317,0.797,5.908,2.383
		c1.586,1.59,2.383,3.559,2.383,5.907v136.592c0,2.352-0.797,4.32-2.383,5.907C567.386,474.099,565.417,474.893,563.068,474.893z"/>
	<path fill="#29B473" d="M654.681,474.479c-10.228,0-20.106-2.002-29.641-6.012c-4.424-1.934-8.637-4.249-12.644-6.943
		c-4.009-2.694-7.809-5.769-11.399-9.224c-7.047-7.047-12.437-15.06-16.168-24.043c-4.01-9.255-6.01-19.137-6.01-29.64
		c0-5.11,0.481-10.121,1.45-15.027c0.966-4.903,2.487-9.706,4.56-14.405c3.731-9.12,9.121-17.204,16.168-24.25
		c3.591-3.452,7.391-6.529,11.399-9.224c4.007-2.695,8.22-5.007,12.644-6.944c9.534-4.006,19.413-6.011,29.641-6.011
		c9.948,0,19.447,1.833,28.499,5.493c9.049,3.663,17.168,9.016,24.354,16.063c1.658,1.658,2.487,3.627,2.487,5.907
		c0,2.28-0.761,4.249-2.279,5.907c-1.659,1.522-3.628,2.316-5.908,2.384c-2.279,0.071-4.249-0.726-5.907-2.384
		c-5.528-5.389-11.814-9.535-18.861-12.437c-7.047-2.901-14.51-4.353-22.385-4.353c-8.017,0-15.581,1.487-22.696,4.457
		c-7.119,2.973-13.577,7.29-19.38,12.955c-5.668,5.667-9.949,12.093-12.852,19.276c-2.901,7.187-4.353,14.716-4.353,22.593
		s1.451,15.409,4.353,22.593c2.902,7.186,7.184,13.611,12.852,19.276c5.803,5.667,12.261,9.984,19.38,12.955
		c7.115,2.973,14.68,4.456,22.696,4.456c7.875,0,15.405-1.483,22.592-4.456c7.184-2.971,13.609-7.288,19.276-12.955
		c4.561-4.561,8.256-9.706,11.089-15.441c2.831-5.733,4.731-11.78,5.7-18.137h-36.479c-2.352,0-4.32-0.793-5.908-2.383
		c-1.59-1.587-2.383-3.556-2.383-5.907c0-2.348,0.793-4.317,2.383-5.907c1.588-1.587,3.557-2.383,5.908-2.383h45.393
		c2.348,0,4.316,0.796,5.906,2.383c1.587,1.59,2.384,3.559,2.384,5.907c0,10.088-2.005,19.97-6.01,29.64
		c-4.01,9.12-9.467,17.135-16.375,24.043c-3.456,3.455-7.187,6.529-11.192,9.224c-4.01,2.694-8.291,5.01-12.852,6.943
		C674.578,472.477,664.765,474.479,654.681,474.479z"/>
	<path fill="#29B473" d="M816.764,474.479H744.84c-2.351,0-4.32-0.794-5.906-2.384c-1.591-1.587-2.384-3.557-2.384-5.907V331.461
		c0-2.348,0.793-4.317,2.384-5.908c1.586-1.586,3.556-2.383,5.906-2.383h71.924c2.348,0,4.317,0.797,5.907,2.383
		c1.587,1.59,2.384,3.56,2.384,5.908c0,2.351-0.797,4.32-2.384,5.907c-1.59,1.59-3.56,2.384-5.907,2.384h-63.633v51.817h42.076
		c2.349,0,4.317,0.797,5.907,2.384c1.588,1.59,2.384,3.56,2.384,5.907c0,2.351-0.796,4.32-2.384,5.907
		c-1.59,1.59-3.559,2.384-5.907,2.384h-42.076v49.745h63.633c2.348,0,4.317,0.796,5.907,2.384c1.587,1.59,2.384,3.559,2.384,5.907
		c0,2.351-0.797,4.32-2.384,5.907C821.081,473.685,819.111,474.479,816.764,474.479z"/>
</g>
<g>
	<path fill="#00A69C" d="M105.258,276.324c-5.922,6.377-15.853,12.481-23.142,15.943c-5.284,2.642-11.753,5.011-17.583,5.011
		c-3.553,0-6.833-0.911-9.475-3.189c-2.278-2.096-3.553-4.555-4.282-7.015c-2.916,4.008-7.927,7.471-12.846,7.471
		c-1.731,0-3.189-0.82-4.009-2.369c-2.005-3.644,0.091-10.933,2.369-14.486c2.642-4.1,7.926-7.835,11.844-8.291
		c2.095-0.182,3.371,0.546,4.008,1.185c1.549,1.549,2.278,3.644,2.187,6.195c0,0.273,0,0.547,0,0.82c0,0,0,0.091-0.092,0.091
		c0,0.547-0.091,1.093-0.182,1.64c-0.365,2.824-0.365,8.291,3.553,11.844c5.557,4.919,16.672,0.638,22.867-2.369
		c6.925-3.371,16.399-9.111,21.957-15.124c0.729-0.82,2.004-0.82,2.733-0.091C105.986,274.319,105.986,275.503,105.258,276.324z
		 M49.409,273.408c0-0.091-0.182-0.183-0.546-0.183c-0.091,0-0.182,0-0.364,0.092c-2.369,0.273-6.742,3.097-8.929,6.468
		c-2.004,3.28-3.28,8.747-2.278,10.568c0.183,0.273,0.273,0.364,0.638,0.364c4.829,0,9.657-4.737,11.024-8.2
		c0.455-1.093,0.911-2.368,1.185-3.553c0.091-0.82,0.182-1.367,0.273-1.822C50.593,275.686,50.32,274.228,49.409,273.408z"/>
	<path fill="#00A69C" d="M199.73,277.144c-0.365,0.273-8.929,7.653-21.593,14.122c-6.287,3.28-13.575,4.829-20.317,4.829
		c-7.471,0-14.395-2.004-18.677-5.922c-9.475-8.655-5.831-26.786-4.464-32.161c3.28-13.028,8.655-19.679,12.755-21.592
		c2.187-1.002,3.827-0.638,4.829-0.183c0.729,0.364,1.185,0.911,1.458,1.822c1.184,3.28,0.091,13.484-4.1,21.866
		c-4.282,8.564-11.297,15.124-12.664,16.308c0.546,4.556,2.004,8.564,4.829,11.115c6.924,6.377,22.686,6.56,34.529,0.547
		c12.299-6.287,20.864-13.667,20.955-13.758c0.82-0.638,2.004-0.546,2.733,0.273C200.641,275.139,200.55,276.415,199.73,277.144z
		 M136.775,271.04c2.551-2.643,6.651-7.38,9.384-12.846c3.735-7.562,4.555-16.308,4.009-18.586c-0.273,0-0.638,0.091-1.093,0.365
		c-3.098,1.366-7.744,7.197-10.66,18.95C137.504,262.749,136.866,267.031,136.775,271.04z"/>
	<path fill="#00A69C" d="M257.763,276.87c-0.273,0.091-6.56,3.28-14.941,5.831c-4.373,1.367-10.66,2.278-16.308,2.369
		c-0.638,3.462-2.369,6.286-5.011,8.2c-2.551,1.913-5.922,2.824-9.749,2.824c-1.731,0-3.553-0.183-5.466-0.638
		c-5.284-1.185-9.657-5.558-11.024-10.933c-1.093-4.646,0.273-9.11,3.917-12.117c6.287-5.285,13.029-3.007,16.309-0.638
		c1.913-0.273,4.464,0.182,6.469,1.366c1.822,1.093,4.464,3.371,4.829,8.018c4.828-0.091,10.477-0.82,14.85-2.096
		c8.108-2.551,14.304-5.648,14.395-5.648c0.911-0.547,2.095-0.091,2.642,0.82C259.129,275.23,258.765,276.324,257.763,276.87z
		 M222.596,284.979c-3.736-0.365-6.925-1.094-8.747-2.643c-2.004-1.64-3.007-3.462-2.915-5.284c0.091-1.002,0.455-2.004,1.093-2.916
		c-1.093-0.546-2.642-1.093-4.464-1.093c-1.731,0-3.827,0.638-5.831,2.277c-3.371,2.824-3.098,6.377-2.642,8.291
		c0.911,4.009,4.191,7.198,8.108,8.109c4.829,1.093,9.202,0.546,12.026-1.549C220.956,288.987,222.049,287.165,222.596,284.979z
		 M222.869,281.061c-0.182-1.731-0.82-3.006-2.004-4.009c-1.731-1.458-4.1-1.64-4.737-1.458c-0.82,0.546-1.275,1.093-1.275,1.549
		c-0.092,0.638,0.546,1.367,1.548,2.277C217.402,280.241,219.862,280.879,222.869,281.061z"/>
	<path fill="#00A69C" d="M310.692,277.235c-18.403,16.763-35.714,21.228-43.094,21.228c-3.371,0-6.195-1.093-8.199-3.371
		c-2.825-3.007-4.1-7.927-3.645-14.304c0.364-4.464,2.096-10.842,3.917-16.399c-3.735-0.183-6.924-0.273-6.924-0.273
		c-1.093,0-1.914-0.911-1.914-1.914c0-1.093,0.911-1.913,2.004-1.913c0.273,0,4.009,0.091,8.2,0.273
		c1.458-4.373,2.824-7.653,2.916-8.018c0.456-1.002,1.548-1.458,2.551-1.002c1.002,0.364,1.458,1.458,1.093,2.46
		c-0.091,0.091-1.185,2.824-2.551,6.65c2.369,0.091,4.464,0.273,5.831,0.365c1.093,0.091,1.822,1.093,1.731,2.095
		c-0.091,1.002-0.911,1.823-1.913,1.823c0,0-0.091,0-0.182,0c-1.458-0.183-4.1-0.273-6.742-0.456
		c-1.914,5.649-3.827,12.208-4.1,16.582c-0.364,5.284,0.456,9.202,2.551,11.389c1.276,1.458,3.098,2.095,5.375,2.095
		c6.287,0,22.959-4.191,40.542-20.226c0.729-0.729,2.004-0.638,2.733,0.182C311.512,275.23,311.512,276.505,310.692,277.235z"/>
	<path fill="#00A69C" d="M399.88,277.69c-12.39,9.202-31.067,18.677-47.193,18.677c-0.547,0-1.094,0-1.64,0
		c-3.917-0.183-7.015-1.458-9.203-3.827c-3.371-3.735-3.552-8.837-3.461-10.842c0.273-5.102,3.827-13.302,12.39-13.484
		c7.198-0.091,9.385,4.92,9.566,7.562c0.091,1.093-0.729,2.004-1.822,2.004c-1.001,0.091-1.913-0.729-2.004-1.731
		c-0.091-0.729-0.638-3.917-5.466-3.917c-0.092,0-0.092,0-0.183,0c-6.651,0.091-8.473,7.106-8.564,9.748
		c-0.091,1.549,0,5.375,2.369,8.018c1.548,1.64,3.735,2.46,6.56,2.642c12.755,0.456,30.977-6.56,46.373-17.948
		c0.82-0.637,2.096-0.456,2.643,0.365C400.883,275.868,400.7,277.052,399.88,277.69z"/>
	<path fill="#00A69C" d="M463.835,276.324c-5.922,6.377-15.853,12.481-23.141,15.943c-5.284,2.642-11.752,5.011-17.583,5.011
		c-3.554,0-6.833-0.911-9.476-3.189c-2.278-2.096-3.554-4.555-4.283-7.015c-2.915,4.008-7.926,7.471-12.846,7.471
		c-1.73,0-3.188-0.82-4.008-2.369c-2.004-3.644,0.091-10.933,2.369-14.486c2.642-4.1,7.926-7.835,11.844-8.291
		c2.095-0.182,3.371,0.546,4.008,1.185c1.549,1.549,2.278,3.644,2.187,6.195c0,0.273,0,0.547,0,0.82c0,0,0,0.091-0.091,0.091
		c0,0.547-0.091,1.093-0.183,1.64c-0.364,2.824-0.364,8.291,3.554,11.844c5.557,4.919,16.673,0.638,22.868-2.369
		c6.924-3.371,16.398-9.111,21.956-15.124c0.729-0.82,2.005-0.82,2.733-0.091C464.564,274.319,464.564,275.503,463.835,276.324z
		 M407.987,273.408c0-0.091-0.182-0.183-0.547-0.183c-0.091,0-0.182,0-0.364,0.092c-2.369,0.273-6.743,3.097-8.929,6.468
		c-2.004,3.28-3.28,8.747-2.277,10.568c0.182,0.273,0.273,0.364,0.637,0.364c4.829,0,9.658-4.737,11.025-8.2
		c0.455-1.093,0.911-2.368,1.184-3.553c0.091-0.82,0.183-1.367,0.274-1.822C409.171,275.686,408.898,274.228,407.987,273.408z"/>
	<path fill="#00A69C" d="M535.716,277.326c-0.638,0.82-15.397,18.677-38.355,20.135c-0.456,0-0.912,0-1.367,0
		c-3.279,0-5.648-0.729-7.197-2.46c-2.551-2.733-1.913-7.015-1.366-10.751c0.364-2.459,0.819-5.284-0.092-6.377
		c-0.455-0.547-1.64-0.638-2.459-0.638c-7.106,0-15.216,9.657-20.044,15.488c-1.458,1.731-2.551,3.098-3.463,3.918
		c-0.272,0.273-0.638,0.455-1.001,0.546c-0.912,0.091-1.822-0.182-2.369-0.911c-2.915-3.371,1.185-16.764,1.185-16.855
		c1.457-4.646,4.555-10.66,4.646-10.933c0.547-0.911,1.641-1.275,2.643-0.82c0.911,0.546,1.275,1.731,0.819,2.642
		c0,0.091-3.097,5.922-4.372,10.204c-1.275,4.191-2.005,8.382-2.097,11.024c0.365-0.456,0.729-0.911,1.094-1.276
		c5.193-6.377,14.031-16.854,22.868-16.945c0.092,0,0.092,0,0.092,0c2.459,0,4.281,0.729,5.466,2.095
		c2.004,2.369,1.457,5.922,0.91,9.475c-0.454,3.007-0.91,6.104,0.365,7.562c0.911,0.911,2.733,1.275,5.466,1.184
		c21.319-1.367,35.441-18.495,35.623-18.677c0.638-0.82,1.913-1.002,2.734-0.273C536.263,275.321,536.354,276.505,535.716,277.326z"
		/>
	<path fill="#00A69C" d="M172.564,506.791c-4.373,4.008-23.961,18.312-40.452,18.312c-0.364,0-0.819,0-1.275,0
		c-4.008-0.182-7.015-1.821-9.019-4.737c-6.013-8.654-0.183-26.421,0-27.149c0.364-1.002,1.458-1.64,2.459-1.275
		c1.002,0.364,1.549,1.457,1.275,2.46c-1.549,4.646-4.646,17.857-0.546,23.779c1.275,1.913,3.28,2.915,6.013,3.006
		c15.215,0.729,34.985-13.666,38.994-17.219c0.82-0.729,2.004-0.638,2.733,0.091C173.475,504.877,173.384,506.152,172.564,506.791z
		 M122.638,484.47c0.273-1.003,1.275-2.278,3.462-1.822c1.64,0.364,2.095,1.731,1.822,2.915c-0.182,1.185-0.911,1.913-2.733,1.913
		C122.638,487.385,122.364,485.563,122.638,484.47z"/>
	<path fill="#00A69C" d="M245.445,506.699c-0.638,0.82-15.396,18.678-38.355,20.135c-0.456,0-0.911,0-1.367,0
		c-3.28,0-5.649-0.729-7.198-2.46c-2.551-2.733-1.913-7.016-1.367-10.75c0.365-2.46,0.82-5.285-0.091-6.378
		c-0.456-0.547-1.64-0.638-2.46-0.638c-7.106,0-15.215,9.657-20.043,15.488c-1.458,1.73-2.551,3.098-3.462,3.918
		c-0.273,0.272-0.638,0.455-1.002,0.547c-0.911,0.091-1.822-0.184-2.369-0.912c-2.916-3.37,1.185-16.764,1.185-16.854
		c1.458-4.646,4.555-10.659,4.646-10.933c0.547-0.911,1.64-1.276,2.642-0.82c0.911,0.547,1.275,1.731,0.82,2.643
		c0,0.091-3.098,5.922-4.374,10.204c-1.275,4.19-2.004,8.382-2.095,11.023c0.364-0.456,0.729-0.911,1.093-1.275
		c5.193-6.378,14.031-16.854,22.868-16.945c0.091,0,0.091,0,0.091,0c2.46,0,4.282,0.729,5.466,2.095
		c2.004,2.369,1.458,5.922,0.911,9.476c-0.456,3.006-0.911,6.104,0.364,7.562c0.912,0.911,2.733,1.275,5.467,1.185
		c21.319-1.367,35.44-18.494,35.623-18.678c0.638-0.819,1.914-1.001,2.733-0.272C245.992,504.695,246.083,505.88,245.445,506.699z"
		/>
	<path fill="#00A69C" d="M345.111,505.697c-5.922,6.377-15.853,12.482-23.142,15.943c-5.284,2.643-11.752,5.012-17.583,5.012
		c-3.553,0-6.833-0.912-9.475-3.189c-2.277-2.095-3.553-4.555-4.282-7.015c-2.916,4.008-7.926,7.471-12.846,7.471
		c-1.731,0-3.189-0.82-4.009-2.369c-2.004-3.645,0.091-10.933,2.369-14.485c2.642-4.101,7.926-7.836,11.844-8.291
		c2.095-0.183,3.371,0.547,4.009,1.185c1.549,1.549,2.277,3.644,2.187,6.194c0,0.274,0,0.547,0,0.82c0,0,0,0.092-0.091,0.092
		c0,0.546-0.091,1.093-0.182,1.64c-0.364,2.823-0.364,8.291,3.553,11.844c5.558,4.92,16.672,0.638,22.868-2.368
		c6.924-3.372,16.399-9.111,21.957-15.125c0.729-0.819,2.004-0.819,2.734-0.091C345.84,503.692,345.84,504.877,345.111,505.697z
		 M289.263,502.782c0-0.091-0.182-0.183-0.546-0.183c-0.092,0-0.183,0-0.365,0.092c-2.369,0.272-6.742,3.098-8.929,6.468
		c-2.004,3.28-3.28,8.746-2.277,10.568c0.182,0.273,0.273,0.365,0.638,0.365c4.829,0,9.657-4.738,11.024-8.2
		c0.456-1.094,0.911-2.369,1.185-3.554c0.091-0.819,0.182-1.366,0.273-1.821C290.447,505.06,290.174,503.602,289.263,502.782z"/>
</g>
<g>
	<path fill="#29B473" d="M482.649,640.374c-2.351,0-4.32-0.794-5.907-2.384c-1.59-1.587-2.384-3.556-2.384-5.907V548.76
		c-11.331-1.658-21.142-6.632-29.432-14.923c-5.114-5.11-9.017-10.914-11.711-17.411c-2.695-6.493-4.042-13.266-4.042-20.313
		c0-2.348,0.793-4.317,2.384-5.907c1.587-1.587,3.556-2.384,5.907-2.384c2.348,0,4.316,0.797,5.907,2.384
		c1.587,1.59,2.384,3.56,2.384,5.907c0,4.975,0.965,9.709,2.901,14.198c1.934,4.492,4.56,8.395,7.876,11.711
		s7.219,5.942,11.711,7.876c4.489,1.937,9.292,2.901,14.405,2.901c4.975,0,9.706-0.965,14.198-2.901
		c4.489-1.934,8.395-4.56,11.711-7.876s5.939-7.219,7.876-11.711c1.934-4.489,2.902-9.224,2.902-14.198
		c0-2.348,0.793-4.317,2.384-5.907c1.587-1.587,3.556-2.384,5.907-2.384c2.348,0,4.316,0.797,5.907,2.384
		c1.587,1.59,2.383,3.56,2.383,5.907c0,7.047-1.347,13.819-4.041,20.313c-2.695,6.497-6.529,12.301-11.504,17.411
		c-8.43,8.291-18.24,13.265-29.433,14.923v83.323c0,2.352-0.797,4.32-2.384,5.907C486.967,639.58,484.998,640.374,482.649,640.374z"
		/>
	<path fill="#29B473" d="M622.556,639.752h-71.923c-2.352,0-4.32-0.793-5.907-2.384c-1.591-1.587-2.384-3.556-2.384-5.907V496.735
		c0-2.349,0.793-4.317,2.384-5.907c1.587-1.587,3.556-2.384,5.907-2.384h71.923c2.348,0,4.317,0.797,5.907,2.384
		c1.587,1.59,2.384,3.559,2.384,5.907c0,2.351-0.797,4.32-2.384,5.907c-1.59,1.59-3.56,2.384-5.907,2.384h-63.632v51.817h42.075
		c2.349,0,4.317,0.797,5.907,2.384c1.587,1.59,2.384,3.559,2.384,5.907c0,2.351-0.797,4.32-2.384,5.907
		c-1.59,1.59-3.559,2.384-5.907,2.384h-42.075v49.745h63.632c2.348,0,4.317,0.796,5.907,2.383c1.587,1.591,2.384,3.56,2.384,5.907
		c0,2.352-0.797,4.32-2.384,5.907C626.873,638.959,624.903,639.752,622.556,639.752z"/>
	<path fill="#29B473" d="M726.398,640.167c-2.352,0-4.32-0.794-5.907-2.384c-1.59-1.587-2.384-3.556-2.384-5.907v-56.585h-64.461
		v56.585c0,2.352-0.797,4.32-2.384,5.907c-1.591,1.59-3.56,2.384-5.907,2.384c-2.352,0-4.32-0.794-5.907-2.384
		c-1.591-1.587-2.384-3.556-2.384-5.907v-97.003v-0.622c0.136-6.218,1.451-12.193,3.938-17.929
		c2.487-5.732,5.939-10.811,10.363-15.234c4.56-4.696,9.774-8.255,15.648-10.675c5.872-2.416,12.126-3.627,18.759-3.627
		s12.919,1.211,18.861,3.627c5.939,2.42,11.192,5.979,15.753,10.675c4.421,4.424,7.841,9.502,10.26,15.234
		c2.416,5.735,3.763,11.711,4.042,17.929v0.622v97.003c0,2.352-0.797,4.32-2.384,5.907
		C730.716,639.373,728.746,640.167,726.398,640.167z M653.646,558.709h64.461v-23.214c0-4.421-0.864-8.603-2.591-12.54
		c-1.729-3.938-4.042-7.358-6.943-10.26c-2.902-2.902-6.322-5.182-10.26-6.84c-3.938-1.658-8.12-2.487-12.54-2.487
		c-4.424,0-8.569,0.829-12.437,2.487c-3.87,1.658-7.255,3.938-10.156,6.84c-2.902,2.901-5.218,6.321-6.943,10.26
		c-1.729,3.938-2.591,8.119-2.591,12.54V558.709z"/>
	<path fill="#29B473" d="M811.792,640.581c-1.383,0-2.694-0.311-3.938-0.933c-1.243-0.622-2.212-1.555-2.901-2.798l-41.426-59.279
		h-6.661l-0.204,54.512c0,2.352-0.787,4.32-2.354,5.907c-1.571,1.59-3.518,2.384-5.836,2.384c-2.319,0-4.266-0.794-5.833-2.384
		c-1.571-1.587-2.354-3.556-2.354-5.907l0.414-135.97c0-1.519,0.379-2.866,1.141-4.042c0.758-1.172,1.69-2.104,2.798-2.798
		c1.104-0.965,2.623-1.451,4.56-1.451h19.691c7.047,0,13.712,1.072,20.002,3.213c6.286,2.144,11.918,5.218,16.893,9.224
		c4.695,3.87,8.565,8.638,11.606,14.302c2.902,5.804,4.353,11.814,4.353,18.032c0,6.497-1.45,12.508-4.353,18.033
		c-1.521,2.766-3.212,5.32-5.078,7.669c-1.865,2.351-4.041,4.56-6.528,6.633c-6.772,5.528-14.441,9.19-23.008,10.985l35.651,51.61
		c1.379,1.937,1.865,4.009,1.45,6.218c-0.414,2.212-1.59,4.01-3.523,5.39C814.693,640.099,813.171,640.581,811.792,640.581z
		 M756.865,560.989h11.866c4.993,0,9.748-0.758,14.259-2.28c4.509-1.519,8.57-3.73,12.178-6.633
		c6.658-5.389,9.991-11.882,9.991-19.483c0-7.462-3.333-13.955-9.991-19.483c-7.358-5.804-16.171-8.705-26.437-8.705h-11.659
		L756.865,560.989z"/>
</g>
<path fill="#00A69C" d="M382.393,561.962l-51.34-31.269l-0.778,29.518H94.914V311.16H28.5v315.465h300.024l-0.655,24.858
	l52.932-29.126l52.932-29.126L382.393,561.962z M82.693,316.694l6.687,9.741v17.927l-18.992-27.668H82.693z M46.381,316.694
	l42.998,62.641v17.928l-55.304-80.569H46.381z M34.035,357.817l55.345,80.628v17.929l-55.345-80.629V357.817z M34.035,406.058
	l55.345,80.628v17.93l-55.345-80.629V406.058z M34.035,458.958l55.345,80.629v17.928l-55.345-80.629V458.958z M34.035,621.091v-8.09
	l5.552,8.09H34.035z M60.396,621.091l-26.361-38.404v-17.928l38.668,56.332H60.396z M92.444,621.091l-58.41-85.094v-17.929
	l70.716,103.022H92.444z M133.019,621.091l-37.99-55.345h12.306l37.989,55.345H133.019z M169.33,621.091l-37.99-55.345h12.307
	l37.99,55.345H169.33z M202.443,621.091l-37.99-55.345h12.306l37.99,55.345H202.443z M243.018,621.091l-37.99-55.345h12.306
	l37.99,55.345H243.018z M279.33,621.091l-37.99-55.345h12.306l37.99,55.345H279.33z M312.444,621.091l-37.99-55.345h12.307
	l37.989,55.345H312.444z M306.503,565.746h12.307l10.9,15.88l-0.25,9.463l-0.206,7.803L306.503,565.746z"/>
</svg>
