<?xml version="1.0" encoding="utf-8"?>
<!-- Generator: Adobe Illustrator 24.1.2, SVG Export Plug-In . SVG Version: 6.00 Build 0)  -->
<svg version="1.1" xmlns="http://www.w3.org/2000/svg" xmlns:xlink="http://www.w3.org/1999/xlink" x="0px" y="0px"
	 viewBox="0 0 720 628.52" style="enable-background:new 0 0 720 628.52;" xml:space="preserve">
<style type="text/css">
	.st0{fill:#FD85C1;}
	.st1{fill:#F4F4F6;}
	.st2{fill:#8B80D9;}
	.st3{fill:#7FD390;}
	.st4{fill:#F9D100;}
</style>
<g id="_x35_">
	<path class="st0" d="M615.59,355.06c0.55-8.97-0.62-17.57-3.5-25.58c-3.1-8.62-7.6-16.71-14.83-22.32
		c-30.81-23.93-66.14-23.94-78.04-27.26c19.09-0.28,46.92-4.54,57.56-5.03l24.82-1.77l-2.17-44.32l-0.47-23.63l-23.63-0.68
		c-0.06,0-3.58-0.12-10-0.91c0,0,2.22-19.05,3.45-29.75c1.52-13.24,5.77-42.98,16.39-91.4l8.3-28.89l-29.95-2.53
		c-9.94-0.84-14.9-1.22-24.83-1.87l-19.27-1.26l-5.87,18.4c-1.95,6.12-5.42,19.6-6.9,24.92c-1.42-0.02-10.61-4.13-21.5-7.55
		c-9.18-2.88-19.6-2.66-26.67-1.95c-7.21,0.72-17.18,2.48-23.87,4.88c-3.34,1.2-12.75,3.79-15.82,5.62c0,0,5.32-11.7,6.83-17.25
		c1.39-5.1,3.58-11.18,0.92-17.34c-8.81-20.32-30.63-41.41-40.56-40.52c-10.67,0.96-37.86,25.24-41.21,43.14
		c-2.1,11.25,8.8,21.69,8.8,21.69c-7.32-3.74-20.02-5.36-29.29-5.36c-1.13,0-2.27,0.03-3.44,0.09c-0.6,0.03-1.19,0.07-1.79,0.11
		l-0.18-6.35l-25.55,1.65c-9.71,0.63-14.56,0.98-24.25,1.79l-20.66,1.72l-0.69,7.56c-1.06-0.46-2.09-0.96-3.19-1.36
		c-6.21-2.22-12.7-3.35-19.32-3.35c-1.53,0-3.08,0.06-4.61,0.18c-6.55,0.51-13.05,2.2-19.38,4.92c-1.04-3.56-2.4-7.15-4.26-10.74
		c-6.21-11.99-16.83-22.04-29.91-28.3c-10.15-4.86-21.33-7.32-33.24-7.32c-6.33,0-12.76,0.72-19.13,2.13
		c-18.29,4.07-36.74,14.19-49.36,27.08c-8.96,9.16-15.79,19.32-20.31,30.2c-4.49,10.8-6.83,22.05-6.95,33.42
		c-0.11,10.05,1.07,19.79,3.5,28.97c3.34,12.55,8.7,22.8,15.95,30.45c2.09,2.2,4.28,4.27,6.56,6.18c0,0-4.02,7.37-6.05,13.75
		c-2.03,6.37-8.61,32.37,7.57,55.26c3.87,5.48,8.9,10.13,14.72,13.87c-8.53,10.72-15.51,23.43-20.7,37.81
		c-4.95,13.69-8.41,28.51-10.28,44.04c-1.88,15.51-2.07,30.89-0.58,45.68c1.29,12.86,3.99,25.3,8.02,36.99
		c4.42,12.84,10.72,24.12,18.72,33.52c8.66,10.17,19.27,17.81,31.54,22.7c8.28,3.3,17.26,4.97,26.68,4.97
		c5.56,0,11.31-0.59,17.06-1.74c7.14-1.43,13.91-3.86,20.12-7.22c5.82-3.15,11.16-6.99,15.83-11.39c4.48-4.21,8.47-8.92,11.85-13.97
		c1.29-1.93,2.5-3.89,3.66-5.86l5.19,18.09c0,0,100.2-9.18,114.15-11.73c0.13,0.58,7.75,22.28,7.75,22.28s45,3.72,66.23,3.72
		c17.41,0,33.31-1.7,47.19-5.06l24.81-5.92l-5.2-24.97c-0.42-2-0.76-3.64-1.07-5.11c8.24-0.51,16.05-1.31,23.25-2.46l11.18-1.77
		l5.38,14.57l67.59-9.2c1.3,0.39,2.61,0.77,3.94,1.12l20.95,5.59l19.84-64.24l-11.5-5.64c3.09-4.27,5.68-8.79,7.74-13.53
		C613.06,371.83,615.07,363.53,615.59,355.06z"/>
</g>
<g id="_x34_">
	<path class="st1" d="M181.75,191.43c3.31,7.98,7.91,14.38,13.78,19.24c3.02,2.49,6.19,4.37,9.53,5.65
		c3.33,1.28,6.76,2.19,10.27,2.73c3.51,0.54,7.04,0.73,10.59,0.56c3.55-0.17,6.9-0.53,10.02-1.05c7.42-1.23,15.02-3.38,22.76-6.51
		c-2.38-9.12-3.59-13.68-6.03-22.79c-2.91,1.93-6.14,3.41-9.51,4.57c-2.95,1.02-6.29,1.9-9.94,2.49c-3.65,0.59-7.52,0.33-11.48-0.53
		c-3.91-0.85-7.12-2.29-9.38-4.48c-2.26-2.2-3.95-4.5-5.09-6.82c-1.28-2.61-2.21-5.52-2.68-8.71c7.31-1.06,13.92-3.13,19.88-6.24
		c2.53-1.35,5.11-2.96,7.76-4.83c2.64-1.86,5.09-4.14,7.34-6.82c2.25-2.68,4.24-5.81,5.95-9.38c1.71-3.57,3.14-7.66,4.07-12.13
		c1.23-5.91,1.13-11.41-0.18-16.21c-1.31-4.8-3.46-8.85-6.46-12.14c-3.01-3.29-6.7-5.72-11.07-7.29c-4.38-1.57-8.95-2.17-13.7-1.8
		c-4.76,0.37-9.51,1.77-14.24,4.18c-4.72,2.42-9.01,5.99-12.83,10.7c-5.66,7.06-9.7,15.22-12.17,24.44
		c-2.47,9.23-3.41,18.4-2.93,27.53C176.5,174.91,178.45,183.45,181.75,191.43z M205.79,137.22c2.01-5.01,4.37-8.91,7.05-11.7
		c2.68-2.79,5.18-4.03,7.45-3.72c2.27,0.31,3.49,3.28,3.42,8.65c-0.06,4.23-1.28,7.87-3.43,10.72c-2.16,2.86-4.54,5.11-7.04,6.79
		c-2.97,1.99-6.33,3.52-10.07,4.5C202.92,147.31,203.78,142.23,205.79,137.22z"/>
	<path class="st1" d="M347.21,187.04c-0.92-0.31-2.11-0.76-3.46-1.16c-1.18-0.35-2.62-0.77-4.16-1.38c-1.54-0.6-3.39-1.44-5.55-2.48
		c-2.16-1.04-4.14-2.19-5.93-3.44c-1.78-1.25-3.31-2.52-4.56-3.63c-1.49-1.32-2.97-2.7-4.24-4.16c6.1-2.95,11.31-6.85,15.62-11.72
		c4.32-4.87,7.62-10.05,9.88-15.58c2.26-5.52,3.47-11.1,3.58-16.74c0.11-5.64-0.93-10.71-3.16-15.21
		c-2.23-4.5-5.62-8.14-10.17-10.89c-4.55-2.75-10.36-3.99-17.34-3.65c-3.33,0.16-6.41,0.75-9.23,1.74c-2.82,0.99-5.37,2.2-7.67,3.64
		c-2.3,1.44-4.29,3.06-5.98,4.85c-1.69,1.8-3.17,3.6-4.44,5.39c-0.08-2.93-0.12-5.67-0.11-8.24c0.01-2.56,0.09-4.73,0.2-6.49
		c0.12-2.04,0.15-3.88,0.1-5.49c-9.53,0.61-14.29,0.96-23.79,1.76c-1.78,19.43-1.92,37.03-0.67,52.8
		c1.26,15.77,2.84,29.35,4.79,40.66c2.29,13.36,5.15,25.27,8.42,35.68c9.14-3.19,13.74-4.73,22.99-7.73
		c-0.17-1.02-0.61-2.79-1.24-5.25c-0.51-2.01-1.13-5.03-1.9-8.97c-0.78-3.94-1.78-9.19-3.03-15.74c4.14,4.73,8.71,8.48,13.73,11.27
		c5.02,2.79,9.74,5.03,14.14,6.6c4.99,1.78,10.19,3.11,15.49,4.05C342.54,199.34,344.08,195.24,347.21,187.04z M306.7,145.23
		c-2.84,2.05-5.93,4.05-9.24,5.88c0.11-2.34,0.49-4.86,1.04-7.49c0.45-2.17,1.14-4.75,2.13-7.62c0.99-2.87,2.34-5.85,4.1-8.75
		c1.69-2.8,3.72-4.71,5.91-5.69c2.19-0.98,4.16-1.17,5.88-0.6c1.72,0.57,2.95,1.78,3.69,3.61c0.74,1.83,0.57,4.16-0.58,6.7
		c-1.19,2.61-3.13,5.18-5.52,7.61C311.7,141.32,309.2,143.42,306.7,145.23z"/>
	<path class="st1" d="M374,94.36c-3.11,0.09-5.24,0.27-6.4,0.52c-0.71,5.54-1.27,11.64-1.71,18.29c-0.44,6.65-0.73,13.56-0.89,20.73
		c-0.16,7.17-0.29,14.42-0.38,21.74c-0.09,7.32-0.06,14.37,0.04,21.09c0.23,15.77,0.53,32.02,1.03,48.59
		c9.02-1.15,13.55-1.67,22.62-2.58c2.57-43.01,5.21-86.01,7.94-129.01c-4.65,0.13-8.86,0.23-12.6,0.34
		C380.33,94.15,377.1,94.27,374,94.36z"/>
	<path class="st1" d="M487.84,103.54c-2.9,0-5.04,0.07-6.41,0.2c-1.33,5.94-2,8.92-3.32,14.86c-0.65-1.55-1.46-3.16-2.43-4.82
		c-0.97-1.67-2.34-3.26-4.09-4.79c-1.76-1.53-3.87-2.87-6.34-4.02c-2.48-1.15-5.47-1.91-8.95-2.26c-5.98-0.6-11.62,0.05-16.89,1.94
		c-5.26,1.89-10.04,5.29-14.3,10.18c-4.26,4.89-7.8,11.28-10.61,19.16c-2.82,7.88-4.64,17.45-5.54,28.69
		c-0.9,11.24-0.43,20.55,1.31,27.93c1.74,7.38,4.16,13.24,7.26,17.59c3.11,4.35,6.54,7.42,10.33,9.21
		c3.79,1.79,7.33,2.85,10.63,3.17c2.25,0.22,4.74-0.83,7.49-3.12c2.75-2.29,5.57-5.6,8.5-9.93c2.93-4.32,5.8-9.56,8.62-15.72
		c2.82-6.16,5.39-13.01,7.73-20.54c-0.92,7.7-1.7,14.94-2.36,21.72c-0.65,6.78-1.21,12.81-1.69,18.05
		c-0.57,6.11-1.03,11.82-1.36,17.09c9.43,0.16,14.15,0.29,23.6,0.66c6.06-41.66,12.14-83.31,18.24-124.96
		c-3.92-0.11-7.56-0.11-10.75-0.15C493.68,103.63,490.74,103.54,487.84,103.54z M459.28,149.31c-2.01,8.45-4.67,14.88-7.02,20.22
		c-2.35,5.33-4.62,9.93-6.68,13.73c-2.43,4.48-4.81,8.47-7.21,11.82c-1.17-3.32-2.53-10.88-2.77-15.45
		c-0.23-4.57-0.16-9.28,0.22-14.11c0.39-4.82,1.06-9.52,2.03-14.09c0.97-4.56,2.19-8.63,3.67-12.2c1.48-3.57,3.56-6.44,6.24-8.59
		c2.67-2.15,5.11-3.11,7.28-2.87c2.17,0.25,3.73,1.92,4.66,5.01C460.63,135.87,460.91,142.47,459.28,149.31z"/>
	<path class="st1" d="M166.38,408.08l-1.2-0.26l-0.27,1.2c-1.39,6.2-3.42,11.91-6.05,16.96c-2.22,4.27-5.35,8.34-9.3,12.1
		c-3.86,3.67-8.96,5.9-15.17,6.64c-1.11,0.13-2.19,0.2-3.24,0.2c-4.71,0-8.84-1.38-12.26-4.09c-4.27-3.39-7.76-8.11-10.36-14.05
		c-2.65-6.01-4.53-13.17-5.59-21.28c-1.06-8.17-1.53-16.72-1.39-25.42c0.14-8.68,0.89-17.49,2.23-26.19
		c1.32-8.63,3.07-16.57,5.2-23.59c2.12-6.96,4.61-12.8,7.42-17.35c2.7-4.37,5.54-6.9,8.45-7.51c0.38-0.08,0.76-0.12,1.14-0.12
		c2.6,0,5.4,1.9,8.32,5.65c3.59,4.61,7.3,12.93,11.02,24.71l0.4,1.26l1.23-0.48c7.86-3.06,11.78-4.59,19.65-7.62l0.88-0.34
		l-0.1-0.94c-1.2-11.67-3.74-22-7.55-30.75c-1.7-3.74-3.67-7.34-5.86-10.72c-2.26-3.48-5-6.48-8.13-8.92
		c-3.17-2.48-6.9-4.22-11.08-5.17c-1.85-0.42-3.81-0.63-5.85-0.63c-2.58,0-5.34,0.34-8.22,1.01c-9.52,2.22-17.97,7.86-25.13,16.77
		c-6.98,8.68-12.71,19.17-17.05,31.18c-4.32,11.94-7.34,24.93-8.99,38.61c-1.66,13.71-1.83,27.25-0.52,40.24
		c1.1,10.95,3.39,21.53,6.8,31.42c3.41,9.91,8.18,18.51,14.17,25.55c6.03,7.08,13.39,12.39,21.88,15.77
		c5.36,2.14,11.26,3.22,17.53,3.22c3.92,0,8.03-0.42,12.21-1.26c4.73-0.95,9.17-2.54,13.22-4.73c3.94-2.13,7.53-4.71,10.67-7.66
		c3.12-2.94,5.89-6.2,8.23-9.69c2.31-3.46,4.37-6.99,6.11-10.5c4.01-8.09,6.92-17.19,8.67-27.05l0.21-1.15l-1.14-0.26
		C179.09,410.89,174.85,409.94,166.38,408.08z"/>
	<path class="st1" d="M268.72,359.1c-1.2-8.22-2.76-15.61-4.64-21.95l-0.53-1.8c-1.55-5.38-2.67-9.26-7.04-13.97
		c-3.19-3.45-6.82-5.34-10.22-5.34c-0.37,0-0.74,0.03-1.11,0.07c-4.35,0.54-8.24,1.89-11.57,4.03c-3.3,2.12-6.24,4.77-8.71,7.9
		c-2.44,3.08-4.52,6.46-6.18,10.05l-0.87,1.87c-0.54,1.14-1.08,2.3-1.59,3.45c-0.39-9.53-0.8-22.19-0.82-28.08
		c-0.01-3.56-0.11-8.72-0.21-13.75c-0.1-5.49-0.2-10.82-0.18-13.71c0.03-5.75,0.2-11.56,0.52-17.77l0.08-1.65l-1.6,0.39
		c-3.17,0.76-6.09,1.37-8.99,1.98c-3.58,0.75-7.12,1.5-11.03,2.49l-0.86,0.22l-0.06,0.89c-2.16,30.08-2.92,55.91-2.27,76.78
		c0.64,20.67,1.78,37.98,3.41,51.43c1.88,15.53,3.47,21.06,6.6,31.14l0.29,0.93l23.33-1.63l-0.42-3.4c-0.2-1.49-0.44-3.27-0.64-5.33
		c-0.96-9.64-0.75-11.9-0.42-15.3c0.1-1.01,0.21-2.11,0.29-3.52c0.4-6.2,1.07-12.37,1.99-18.32c0.92-5.89,2.05-11.65,3.38-17.11
		c1.32-5.42,2.75-10.22,4.25-14.27c1.47-3.98,3.06-7.12,4.71-9.34c1.28-1.71,2.52-2.59,4.05-2.59c0.02,0,0.05,0,0.07,0
		c0.41,0.06,1.34,1.03,2.17,4.3c0.83,3.23,1.53,7.48,2.08,12.62c0.54,5.16,0.91,11.13,1.08,17.73c0.18,6.65,0.3,13.42,0.35,20.27
		c0.11,14.64-1.29,32.33-2.51,47.95l-0.46,5.84l25.45-0.75l0.08-1.11c1.56-21.15,3.09-45.47,1.5-66.45
		C270.82,375.62,269.89,367.15,268.72,359.1z"/>
	<path class="st1" d="M300.8,298.38c-3.35,0.45-6.63,0.9-9.77,1.29c-3.15,0.4-5.3,0.79-6.46,1.18c-0.39,6.23-0.6,13.06-0.66,20.5
		c-0.06,7.43,0.05,15.15,0.31,23.14c0.26,7.99,0.56,16.07,0.9,24.21c0.34,8.15,0.8,15.99,1.31,23.46
		c1.21,17.53,2.55,35.58,4.18,53.98c10.13-2.02,15.2-3.02,25.34-5.02c-0.81-48.15-1.61-96.29-2.42-144.44
		C308.85,297.33,304.59,297.88,300.8,298.38z"/>
	<path class="st1" d="M468.2,335.68c2.49-1.02,5.06-2.3,7.7-3.85c2.64-1.55,5.13-3.57,7.48-6.05c2.35-2.48,4.47-5.48,6.39-8.98
		c1.91-3.5,3.59-7.59,4.85-12.16c1.67-6.06,2.07-11.85,1.35-17.14c-0.72-5.29-2.25-9.95-4.58-13.97c-2.33-4.02-5.33-7.3-8.98-9.8
		c-3.66-2.5-7.57-4.04-11.74-4.59c-4.17-0.55-8.46-0.04-12.86,1.58c-4.4,1.62-8.58,4.56-12.55,8.81
		c-5.88,6.4-10.58,14.34-14.12,23.77c-3.53,9.44-5.79,19.17-6.76,29.15c-0.97,9.98-0.55,19.64,1.28,28.95
		c1.82,9.31,5.14,17.14,9.96,23.48c2.48,3.25,5.23,5.85,8.23,7.81c3,1.96,6.15,3.52,9.44,4.67c3.29,1.16,6.66,1.91,10.1,2.27
		c3.44,0.36,6.71,0.46,9.77,0.35c7.29-0.26,14.86-1.54,22.63-3.92c-1.39-9.96-2.08-14.96-3.46-24.96c-2.93,1.64-6.15,2.76-9.45,3.5
		c-2.89,0.65-6.15,1.1-9.67,1.17c-3.51,0.07-7.14-0.82-10.76-2.4c-3.56-1.55-6.4-3.65-8.23-6.41c-1.83-2.76-3.09-5.54-3.83-8.25
		c-0.84-3.04-1.3-6.35-1.3-9.87C455.96,339.06,462.33,338,468.2,335.68z M455.19,297.64c2.43-4.98,4.99-8.71,7.71-11.17
		c2.71-2.46,5.06-3.3,7.04-2.54c1.98,0.76,2.74,4.14,2.07,9.87c-0.53,4.51-2.03,8.16-4.3,10.81c-2.28,2.66-4.7,4.63-7.15,5.96
		c-2.92,1.58-6.16,2.59-9.68,2.92C451.32,307.92,452.76,302.63,455.19,297.64z"/>
	<path class="st1" d="M582.68,365.57c2.3-5.27,3.62-10.69,3.97-16.32c0.35-5.63-0.35-10.85-2.09-15.69
		c-1.74-4.84-4.51-9.01-8.31-12.51c-3.8-3.49-8.74-5.7-14.81-6.51c-2.89-0.39-5.61-0.3-8.13,0.24c-2.52,0.54-4.84,1.36-6.95,2.45
		c-2.12,1.09-3.99,2.43-5.63,4.01c-1.63,1.57-3.09,3.19-4.37,4.83c0.19-3.05,0.41-5.91,0.65-8.57c0.24-2.66,0.51-4.9,0.76-6.7
		c0.29-2.1,0.48-4,0.58-5.68c-8.27-1.08-12.41-1.59-20.7-2.55c-3.62,20.06-5.75,38.57-6.39,55.37c-0.63,16.8-0.7,31.34-0.13,43.52
		c0.67,14.38,2.08,27.26,4.15,38.56c9.21-2.3,13.81-3.43,23.01-5.62c-0.08-1.07-0.36-2.94-0.75-5.55c-0.32-2.14-0.65-5.33-1.05-9.49
		c-0.4-4.16-0.89-9.72-1.48-16.67c3.47,5.42,7.48,9.81,12.03,13.21c4.55,3.39,8.9,6.14,13,8.12c4.65,2.25,9.57,4.02,14.61,5.36
		c3.31-8.04,4.96-12.04,8.26-19.97c-0.85-0.39-1.95-0.95-3.2-1.46c-1.09-0.45-2.43-1.01-3.85-1.77c-1.42-0.75-3.11-1.76-5.08-3.03
		c-1.97-1.26-3.76-2.63-5.35-4.08c-1.59-1.45-2.93-2.91-4.02-4.18c-1.3-1.51-2.59-3.09-3.66-4.73c5.86-2.31,10.9-5.68,15.12-10.1
		C577.13,375.66,580.39,370.84,582.68,365.57z M560.76,349.84c-1.23,2.48-3.16,4.85-5.48,7.01c-2.33,2.16-4.75,3.98-7.15,5.48
		c-2.73,1.71-5.7,3.34-8.87,4.76c0.3-2.41,0.86-4.97,1.58-7.6c0.6-2.19,1.43-4.75,2.56-7.56c1.13-2.82,2.58-5.68,4.37-8.41
		c1.72-2.62,3.67-4.27,5.69-4.94c2.02-0.66,3.77-0.57,5.25,0.28c1.48,0.85,2.49,2.26,3.02,4.24
		C562.27,345.06,561.97,347.4,560.76,349.84z"/>
	<path class="st1" d="M473.49,401.47c-0.13,0.01-12.78,0.86-29.71,0.86c-11.32,0-21.94-0.37-31.6-1.11
		c-0.28-3.95-0.56-8.49-0.86-13.69c-0.5-8.53-1.1-19.14-1.82-31.82c-0.71-12.47-0.95-24.61-0.71-36.1
		c0.26-12.77,0.59-22.53,1.04-30.72c0.52-9.5,1.27-19.26,2.24-29.03l0.18-1.78l-1.79,0.09c-8.21,0.41-12.32,0.65-20.53,1.18
		l-1.25,0.08l-0.18,1.24c-4.13,28.68-6.43,53.63-6.82,74.17c-0.38,20.23,0.01,37.2,1.16,50.44c1.35,15.48,3.58,28.31,6.61,38.13
		l0.34,1.11l3.38-0.07c6.38,0.75,23.37,2.48,43.43,2.49c0,0,0,0,0.01,0c14.73,0,28.1-0.94,39.73-2.8l1.48-0.23l-2.89-22.53
		L473.49,401.47z"/>
	<path class="st1" d="M570.74,244.63l-0.3-19.76c0,0-13.4-0.27-36.55-5.22c0.51-5.01,1.2-11.07,2.03-18.2
		c1.09-9.32,2.44-20.9,4.03-34.75c1.57-13.69,3.54-26.8,5.96-39.31c2.42-12.51,4.69-23.59,6.91-33.13
		c2.58-11.11,2.9-15.86,4.31-22.95c-9.75-0.83-14.62-1.19-24.36-1.83c-9.72,30.48-12.43,48.65-16.17,70.74
		c-3.74,22.09-5.99,40.29-6.91,54.49c-1.09,16.68-0.94,30.66,0.48,41.86c0.18,0.02,0.33,0.05,0.51,0.07l-0.01,0.07
		C510.67,236.7,531.12,246.45,570.74,244.63z"/>
	<path class="st1" d="M429.84,441.47l-0.28-1.42l-1.44,0.2c-0.16,0.02-16.71,2.25-37.32,2.25c-8.89,0-17.3-0.41-25.01-1.23
		l-0.15-2.5c-0.27-4.1-0.53-8.15-0.83-15.88c-0.19-4.97-0.59-8.9-1-13.05c-0.49-4.89-1.05-10.43-1.42-18.96
		c-0.69-16.02-0.8-20.35-0.85-35.59l-0.06-9.93c-0.06-7.81-0.1-12.53,0.16-20.66c0.15-4.61,0.26-9.85,0.38-15.19
		c0.21-9.68,0.42-19.68,0.88-26.96l0.12-1.83l-1.83,0.21c-8.21,0.9-12.31,1.39-20.51,2.42l-1.22,0.15l-0.12,1.23
		c-3.53,35.53-4.68,50.72-5.03,76.52c-0.34,25.4,0.49,37.31,1.98,56.18l0.14,1.78c1.57,19.89,2.43,30.84,5.26,43l0.44,1.2l2.78-0.04
		c6.79,1.2,24.9,3.99,46.32,3.99c0,0,0,0,0,0c15.45,0,29.4-1.47,41.46-4.38l1.46-0.35l-0.31-1.47
		C432.04,452.44,431.57,450.19,429.84,441.47z"/>
	<path class="st1" d="M83.6,177.84c4.62,2.55,9.47,4.76,14.42,6.55c4.99,1.81,9.89,3.38,14.58,4.67c4.64,1.28,8.88,2.69,12.62,4.19
		c3.64,1.46,6.7,3.07,9.1,4.8c2.19,1.57,3.41,3.51,3.71,5.93c0.4,3.15,0.25,8.12-2.71,13.86c-1.85,3.61-3.94,6.61-6.36,9.16
		c-0.8,0.85-1.66,1.65-2.57,2.39c-1.67,1.36-3.42,2.44-5.2,3.2c-2.12,0.9-4.4,1.38-6.6,1.38c-1.08,0-2.16-0.12-3.19-0.34
		c-2.23-0.49-7.59-2.06-9.17-6.13c-2.41-6.21-3.51-14.69-2.75-21.1l0.16-1.38h-1.39c-0.21,0-0.21,0-20.1,6.31l-0.62,0.2l-0.19,0.62
		c-0.24,0.8-5.82,19.83,4.1,33.86c6.04,8.55,17.68,13.66,31.13,13.66c5.9,0,11.68-0.98,16.7-2.84
		c12.47-4.61,21.87-13.12,30.48-27.59c2.57-4.32,4.61-8.19,6.23-13.05c1.19-3.57,2.53-7.79,3.44-12.02
		c0.89-4.18,1.09-8.07,0.59-11.58c-1-7.17-3.66-13.14-7.89-17.76c-4.11-4.47-8.98-8.13-14.45-10.86c-5.44-2.71-11.28-4.97-17.37-6.7
		c-5.23-1.48-10.66-3.21-16.6-5.28c-5.59-1.96-9.6-4.9-11.9-8.74c-2.42-4.04-3.59-8.54-3.48-13.36c0.11-4.95,1.52-10.12,4.21-15.38
		c2.73-5.35,6.46-10.25,11.08-14.57c5.47-5.1,10.05-7.28,15.32-7.28c0.49,0,1,0.02,1.51,0.06c4.97,0.4,9.29,3.32,11.54,7.82
		c2.37,4.75-1.33,15.25-2.95,18.9l-0.72,1.62l29.09,1.83l0.39-0.66c0.54-0.92,13.12-22.73,2.93-42.42
		c-3.76-7.25-10.38-13.42-18.64-17.38c-6.8-3.25-14.39-4.9-22.57-4.9c-4.54,0-9.17,0.52-13.76,1.54
		c-13.6,3.03-27.81,10.79-37.07,20.25c-6.74,6.89-11.84,14.43-15.15,22.4c-3.27,7.87-4.97,16.02-5.06,24.2
		c-0.08,7.82,0.82,15.34,2.68,22.36c2.26,8.51,5.63,15.18,10.01,19.8C74.88,172.07,79.07,175.34,83.6,177.84z"/>
	<path class="st1" d="M361.49,57.55l1.36,0.74c7.09,3.88,12.62,10.1,15.63,17.6l2.01,5c0.47,1.18,2.14,1.18,2.61,0l2.01-5
		c3.01-7.5,8.54-13.72,15.63-17.6l1.36-0.74c0.98-0.53,0.98-1.93,0-2.47l-1.36-0.74c-7.09-3.88-12.62-10.1-15.63-17.6l-2.01-5
		c-0.47-1.18-2.14-1.18-2.61,0l-2.01,5c-3.01,7.5-8.54,13.72-15.63,17.6l-1.36,0.74C360.52,55.62,360.52,57.02,361.49,57.55z"/>
	<path class="st1" d="M317.04,259.11l-1.41-0.69c-7.37-3.62-13.25-9.7-16.64-17.18l-2.26-4.99c-0.53-1.17-2.22-1.1-2.65,0.11
		l-1.82,5.16c-2.73,7.75-8.06,14.3-15.09,18.55l-1.35,0.81c-0.97,0.58-0.9,2.01,0.11,2.5l1.41,0.69c7.37,3.62,13.25,9.7,16.64,17.18
		l2.26,4.99c0.53,1.17,2.22,1.1,2.65-0.11l1.82-5.16c2.73-7.75,8.06-14.3,15.09-18.55l1.35-0.81
		C318.11,261.03,318.05,259.61,317.04,259.11z"/>
</g>
<g id="_x33_">
	<path class="st2" d="M632.07,247.07l14,0.4c1.8-14.53,6.16-43.32,16-88.16l8.3-28.89l-25.81-2.18l-1.78,6.19
		c-10.34,47.16-14.47,76.11-15.94,88.15l4.75,0.14L632.07,247.07z"/>
	<path class="st2" d="M659.8,330.39l-26.36,1.88c2.76,3.21,5.21,6.92,7.36,11.19c3.8,2.28,7.59,4.83,11.32,7.73
		c0.26,0.2,0.5,0.43,0.75,0.63c0.27-0.02,0.57-0.04,0.82-0.05l24.81-1.77l-2.17-44.32l-0.47-23.63l-18.46-0.53L659.8,330.39z"/>
	<path class="st2" d="M366.45,529c-26.07,3.33-104.53,10.53-108.22,10.87l-6.36,0.58l-2.47-8.61c-2.27,2.71-4.7,5.28-7.29,7.71
		c-5.17,4.87-11.05,9.09-17.44,12.55c-6.88,3.73-14.38,6.42-22.27,8c-6.26,1.26-12.51,1.89-18.58,1.89c-9.92,0-19.4-1.74-28.24-5.08
		c8.03,8.42,17.55,14.86,28.34,19.16c8.28,3.3,17.26,4.97,26.68,4.97c5.56,0,11.31-0.59,17.06-1.74c7.14-1.43,13.91-3.86,20.12-7.22
		c5.82-3.15,11.16-6.99,15.83-11.39c4.48-4.21,8.47-8.91,11.85-13.97c1.29-1.93,2.5-3.89,3.66-5.86l5.19,18.09
		c0,0,56.68-5.19,90.72-8.85l-1.21-0.1C373.8,550.01,367.62,532.37,366.45,529z"/>
	<path class="st2" d="M692.49,431.97c0.55-8.97-0.62-17.57-3.5-25.58c-3.1-8.62-7.6-16.71-14.83-22.32
		c-1.08-0.84-2.18-1.59-3.27-2.37c2.14,7.63,3.04,15.65,2.53,23.96c-0.58,9.37-2.8,18.55-6.6,27.27c-1.08,2.49-2.31,4.93-3.66,7.32
		l9.66,4.74l-23.98,77.64l-28.12-7.5c-0.85-0.23-1.7-0.46-2.55-0.71l-72.08,9.81l-5.33-14.44l-4.92,0.78
		c-4.68,0.75-9.74,1.37-15.12,1.86l6.01,28.82l-32.1,7.66c-14.46,3.49-30.95,5.27-48.98,5.27c-11.92,0-30.87-1.13-45.56-2.15
		c2.27,6.55,6.12,17.48,6.12,17.48s45,3.72,66.23,3.72c17.41,0,33.31-1.7,47.19-5.06l24.81-5.92l-5.2-24.97
		c-0.42-2-0.76-3.64-1.07-5.11c8.24-0.51,16.05-1.31,23.25-2.46l11.18-1.77l5.38,14.57l67.59-9.19c1.3,0.39,2.61,0.77,3.94,1.12
		l20.95,5.59l19.84-64.24l-11.5-5.64c3.09-4.27,5.68-8.79,7.74-13.53C689.96,448.73,691.97,440.43,692.49,431.97z"/>
</g>
<g id="_x32_">
	<path class="st3" d="M634.74,305.33l-26.36,1.88c2.79,3.25,5.27,6.99,7.42,11.31c3.3,1.99,6.59,4.11,9.84,6.55
		c0.43-0.03,0.88-0.06,1.27-0.08l24.82-1.77l-2.17-44.32l-0.47-23.63l-16.82-0.49L634.74,305.33z"/>
	<path class="st3" d="M607.01,222.01l12.08,0.35c1.66-13.93,5.97-43.19,16.2-89.82l8.3-28.89l-23.65-2l-2.22,7.73
		c-10.33,47.16-14.47,76.11-15.94,88.15l4.75,0.14L607.01,222.01z"/>
	<path class="st3" d="M233.16,514.81l-6.36,0.58l-2.47-8.61c-2.27,2.71-4.7,5.28-7.29,7.71c-5.18,4.87-11.05,9.09-17.44,12.55
		c-6.88,3.73-14.38,6.42-22.27,8c-6.26,1.26-12.51,1.89-18.58,1.89c-9.92,0-19.39-1.74-28.22-5.07c7.66,7.56,16.57,13.44,26.6,17.44
		c8.28,3.3,17.26,4.97,26.68,4.97c5.56,0,11.31-0.59,17.06-1.74c7.14-1.43,13.91-3.86,20.12-7.22c5.82-3.15,11.16-6.99,15.83-11.39
		c4.48-4.21,8.47-8.91,11.85-13.97c1.29-1.93,2.5-3.89,3.66-5.86l5.19,18.09c0,0,56.61-5.19,90.66-8.85
		c-1.55-4.42-5.84-16.64-6.8-19.39C315.31,507.27,236.86,514.47,233.16,514.81z"/>
	<path class="st3" d="M665.71,405.19c0.55-8.97-0.62-17.57-3.5-25.58c-3.1-8.62-7.6-16.71-14.83-22.32
		c-0.58-0.45-1.16-0.83-1.74-1.26c2.27,7.81,3.24,16.04,2.71,24.57c-0.58,9.37-2.8,18.55-6.6,27.27c-1.08,2.49-2.31,4.93-3.66,7.32
		l9.66,4.74l-23.98,77.64l-28.12-7.5c-0.85-0.23-1.7-0.46-2.55-0.71l-72.08,9.8l-5.33-14.44l-4.92,0.78
		c-4.68,0.75-9.74,1.37-15.12,1.86l6.01,28.82l-32.1,7.66c-14.46,3.49-30.95,5.27-48.98,5.27c-12.24,0-31.87-1.19-46.71-2.23
		c2.29,6.58,5.55,15.85,5.55,15.85s45,3.72,66.23,3.72c17.41,0,33.31-1.7,47.19-5.06l24.81-5.92l-5.2-24.97
		c-0.42-2-0.76-3.64-1.07-5.11c8.24-0.51,16.05-1.31,23.25-2.46l11.18-1.77l5.38,14.57l67.59-9.2c1.3,0.39,2.61,0.77,3.94,1.12
		l20.95,5.59l19.84-64.24l-11.5-5.64c3.09-4.27,5.68-8.79,7.74-13.53C663.18,421.95,665.19,413.66,665.71,405.19z"/>
</g>
<g id="_x31_">
	<path class="st4" d="M594.03,197.29c1.66-13.93,5.97-43.19,16.2-89.82l8.3-28.89l-23.65-2l-2.22,7.72
		c-11.05,50.39-15.01,79.99-16.21,90.38c-0.72,6.3-1.79,15.48-2.55,21.97c0.91,0.06,1.49,0.09,1.71,0.1L594.03,197.29z"/>
	<path class="st4" d="M434.63,57.45c1.96,6.95,0.17,13.28-1.18,18.07l-0.41,1.45c-0.18,0.67-0.41,1.41-0.67,2.19
		c4.61-1.61,10.24-2.88,15.51-3.79C444.21,68.95,439.53,62.74,434.63,57.45z"/>
	<path class="st4" d="M208.1,489.74l-6.36,0.58l-2.47-8.61c-2.27,2.71-4.7,5.28-7.29,7.71c-5.17,4.87-11.05,9.1-17.44,12.55
		c-6.88,3.73-14.38,6.42-22.27,8c-6.26,1.26-12.51,1.89-18.58,1.89c-9.92,0-19.39-1.74-28.23-5.08
		c7.66,7.57,16.57,13.44,26.61,17.45c8.28,3.3,17.26,4.97,26.68,4.97c5.56,0,11.31-0.59,17.06-1.74c7.14-1.43,13.91-3.86,20.12-7.22
		c5.82-3.15,11.16-6.99,15.83-11.39c4.48-4.21,8.47-8.91,11.85-13.97c1.29-1.93,2.5-3.89,3.66-5.86l5.19,18.09
		c0,0,56.62-5.19,90.66-8.85c-1.55-4.42-5.84-16.65-6.8-19.39C290.26,482.2,211.79,489.41,208.1,489.74z"/>
	<path class="st4" d="M622.32,332.23c-0.57-0.45-1.16-0.83-1.74-1.26c2.27,7.81,3.24,16.03,2.71,24.57
		c-0.58,9.37-2.8,18.55-6.6,27.27c-1.08,2.49-2.31,4.93-3.66,7.32l9.66,4.73l-23.98,77.64L570.6,465c-0.85-0.23-1.7-0.46-2.55-0.71
		l-72.09,9.81l-5.33-14.44l-4.92,0.78c-4.67,0.75-9.73,1.37-15.12,1.87l6.01,28.81l-32.1,7.66c-14.46,3.49-30.95,5.27-48.98,5.27
		c-12.24,0-31.87-1.19-46.71-2.23c2.29,6.58,5.55,15.85,5.55,15.85s45,3.72,66.23,3.72c17.41,0,33.31-1.7,47.19-5.06l24.81-5.92
		l-5.2-24.97c-0.42-2-0.76-3.64-1.07-5.11c8.24-0.51,16.05-1.31,23.25-2.46l11.18-1.77l5.38,14.57l67.59-9.2
		c1.3,0.39,2.61,0.77,3.94,1.12l20.95,5.59l19.84-64.24l-11.5-5.64c3.09-4.27,5.68-8.79,7.74-13.53c3.44-7.9,5.45-16.19,5.98-24.66
		c0.55-8.97-0.62-17.57-3.5-25.58C634.04,345.93,629.55,337.84,622.32,332.23z"/>
	<path class="st4" d="M601.84,299.94l24.81-1.77l-2.17-44.32l-0.47-23.63l-16.82-0.49l2.47,50.54l-32.34,2.31
		c-2.05,0.09-4.75,0.33-7.91,0.65c10.16,3.72,20.84,9.03,31.15,16.79C601,299.99,601.46,299.95,601.84,299.94z"/>
	<path class="st4" d="M226.22,63.26c2.34,2.43,6.78,2.53,9.1,0c2.39-2.61,2.49-6.5,0-9.1c-4.44-4.61-8.56-9.51-12.5-14.55
		c-0.11-0.14-0.22-0.28-0.33-0.43c-0.37-0.48-0.73-0.96-1.09-1.45c-0.54-0.73-1.08-1.46-1.62-2.19c-0.46-0.64-0.93-1.28-1.37-1.93
		c-0.97-1.4-2.16-2.49-3.84-2.96c-1.54-0.42-3.59-0.23-4.96,0.65c-2.75,1.77-4.35,5.84-2.31,8.8
		C212.95,48.28,219.33,56.1,226.22,63.26z"/>
	<path class="st4" d="M255.07,48.02c0.5,3.34,4.88,5.47,7.91,4.49c3.64-1.18,5.03-4.33,4.49-7.91c-2-13.31-4.09-26.63-6.62-39.86
		c-0.63-3.31-4.79-5.5-7.91-4.49c-3.53,1.14-5.17,4.36-4.49,7.91C250.98,21.38,253.07,34.7,255.07,48.02z"/>
	<path class="st4" d="M290.39,56.05c3.56,0.81,6.76-1.08,7.91-4.49c3.11-9.21,5.44-18.65,8.56-27.85c1.08-3.19-1.24-7.17-4.49-7.91
		c-3.57-0.81-6.75,1.08-7.91,4.49c-3.13,9.2-5.46,18.65-8.56,27.85C284.82,51.33,287.13,55.31,290.39,56.05z"/>
	<path class="st4" d="M377.44,571.91c-2.34-2.43-6.78-2.53-9.1,0c-2.39,2.61-2.49,6.5,0,9.1c4.44,4.61,8.56,9.51,12.5,14.55
		c0.11,0.14,0.22,0.28,0.33,0.43c0.37,0.48,0.73,0.96,1.09,1.45c0.54,0.73,1.08,1.46,1.62,2.19c0.46,0.64,0.93,1.28,1.37,1.93
		c0.97,1.4,2.16,2.49,3.84,2.96c1.54,0.42,3.59,0.23,4.96-0.65c2.75-1.77,4.35-5.84,2.31-8.8
		C390.71,586.89,384.33,579.07,377.44,571.91z"/>
	<path class="st4" d="M346.87,580.67c-0.58-3.32-4.82-5.49-7.91-4.49c-3.57,1.16-5.12,4.35-4.49,7.91
		c2.33,13.26,4.75,26.52,7.61,39.68c0.72,3.29,4.73,5.52,7.91,4.49c3.46-1.12,5.26-4.38,4.49-7.91
		C351.63,607.19,349.2,593.93,346.87,580.67z"/>
	<path class="st4" d="M311.47,573.41c-3.49-0.79-6.85,1.05-7.91,4.49c-2.88,9.28-4.97,18.78-7.87,28.06c-1,3.21,1.18,7.16,4.49,7.91
		c3.49,0.8,6.84-1.05,7.91-4.49c2.89-9.28,4.99-18.78,7.87-28.06C316.96,578.11,314.79,574.17,311.47,573.41z"/>
	<path class="st4" d="M700.35,222.73c-2.78-2.55-6.31-2.28-9.1,0c-8.17,6.69-16.34,13.37-24.51,20.06c-2.61,2.14-2.39,6.91,0,9.1
		c2.78,2.55,6.31,2.28,9.1,0c8.17-6.69,16.34-13.37,24.51-20.06C702.96,229.69,702.74,224.92,700.35,222.73z"/>
	<path class="st4" d="M719.75,263.03c-1.13-3.48-4.38-5.24-7.91-4.49c-7.41,1.57-14.82,3.15-22.23,4.72
		c-3.3,0.7-5.52,4.74-4.49,7.91c1.13,3.48,4.38,5.24,7.91,4.49c7.41-1.57,14.82-3.15,22.23-4.72
		C718.55,270.24,720.77,266.2,719.75,263.03z"/>
	<path class="st4" d="M45.38,254.42c-1.99-3.08-5.58-3.92-8.8-2.31c-11.13,5.58-22.26,11.16-33.4,16.74
		c-3.01,1.51-4.11,6.01-2.31,8.8c1.99,3.08,5.58,3.92,8.8,2.31c11.13-5.58,22.26-11.16,33.4-16.74
		C46.08,261.71,47.17,257.21,45.38,254.42z"/>
	<path class="st4" d="M44.86,286.16c-1.49-0.79-3.3-1.18-4.96-0.65c-1.53,0.5-3.1,1.46-3.84,2.96c-2.69,5.41-5.39,10.82-8.08,16.23
		c-0.78,1.56-1.12,3.24-0.65,4.96c0.41,1.49,1.56,3.11,2.96,3.84c1.49,0.79,3.3,1.18,4.96,0.65c1.53-0.5,3.1-1.46,3.84-2.96
		c2.69-5.41,5.39-10.82,8.08-16.23c0.78-1.56,1.12-3.24,0.65-4.96C47.41,288.51,46.25,286.9,44.86,286.16z"/>
</g>
</svg>
