<?xml version="1.0" encoding="utf-8"?>
<!-- Generator: Adobe Illustrator 17.1.0, SVG Export Plug-In . SVG Version: 6.00 Build 0)  -->
<!DOCTYPE svg PUBLIC "-//W3C//DTD SVG 1.1//EN" "http://www.w3.org/Graphics/SVG/1.1/DTD/svg11.dtd">
<svg version="1.1" id="Слой_1" xmlns="http://www.w3.org/2000/svg" xmlns:xlink="http://www.w3.org/1999/xlink" x="0px" y="0px"
	 viewBox="0 0 557.5 648" enable-background="new 0 0 557.5 648" xml:space="preserve">
<g>
	<path d="M90,196.3c0.2,11.2,1.4,21.2,3.5,29.9c2,8.1,5,13.2,9,15.3c3.8,2,10.1,2.3,18.8-0.1c1.5-0.4,2.3-0.6,3.8-1.1
		c1.7-0.5,3.6-1.1,5.7-2c2.6-1,4.9-2.3,6.7-3.9c1.4-1.2,2.1-2.6,2.1-4.1c0-0.3,0-0.7-0.1-1c-0.4-1.6-1.9-2.5-4-2.2
		c-1.6,0.2-3.4,0.6-5.5,1.2c-0.5,0.2-0.8,0.2-1.3,0.4c-0.6,0.2-1.2,0.4-1.8,0.6c-2,0.6-3.8,1-5.3,0.9c-2.5-0.1-4.6-1.5-5.9-3.9
		c-1.3-2.4-2.2-5.2-2.7-8.4c-0.5-3.2-0.8-6-1-8.5c0-0.6,0-0.9,0-1.5c-0.5-6.8-0.8-13.7-1-20.7c-0.2-9.6-0.1-20,0.5-30.7
		c0.1-1.3,0.2-2.8,0.4-4.4c0.4-2.6,0.6-5.3,0.6-8.1c0-0.1,0-0.2,0-0.4c0-2.6-0.7-4.8-1.9-6.8c-1.3-2-3.8-3.4-7.2-3.9
		c-1.2-0.2-2.3-0.2-3.2-0.2c-2.5,0-4.4,0.5-5.7,1.4c-1.8,1.4-3,3.4-3.4,5.9c-0.5,2.5-0.7,5.1-0.6,7.8c0,0.4,0,0.8-0.1,1.2
		c-0.2,3.2-0.2,7-0.3,10.8c-0.4,11.9-0.5,23.9-0.3,35.4C90,195.7,90,195.9,90,196.3z"/>
	<path d="M150.4,146.8c1.7,2.5,1.7,4.3,1.9,7.2c0.6,8.8,0.2,17.8,0.3,26.6c0.1,8,0,16.1,0.1,24.3c0,4.9,0.4,8.5-1.3,12.4
		c-0.6,1.3-1.4,2.6-2.5,4c-1.5,1.9-3.6,2.7-3.6,5.5c0,3,2.5,3.9,6.5,2.3c2.5-1,5.1-2.2,7.8-3.1c4.7-1.7,7.4-2.6,13.2-4.7
		c5.2-1.9,7.6-4.4,7.5-7.4c0-0.7-4.1-4.3-4.8-5.8c-1.3-2.9-1.7-6.3-2.1-9.4c-0.6-6.4,0-12.8-0.2-19.2c-0.1-2.9-0.1-5.9-0.1-8.9
		c-0.1-5.3-0.2-8-0.3-13.5c-0.1-4.2-1.5-8.6,0.1-12.6c1.2-3,5.1-4.9,5-7.9c-0.1-1.9-2-3.1-5.9-3.6c-7.7,0.5-11.6,0.7-19.3,1.3
		c-5.6,0.5-8.4,2.4-8.4,5.5c0,0.2,0,0.3,0,0.5C144.6,143.1,148.9,144.7,150.4,146.8z"/>
	<path d="M201.3,183.9c0.1,5,0.2,7.6,0.3,13.4c0,0.6,0,1.2,0,1.8c0,0.8,0,1.7,0,2.6c0,1.1,0.1,2.2,0.3,3.3c0.3,1.9,1.2,3.4,2.6,4.2
		c1.3,0.8,3.4,0.7,6.5-0.4c0.2-0.1,0.3-0.1,0.5-0.2c4.4-1.9,7.3-4.4,8.6-7.3c1.2-2.6,1.7-5.1,1.7-7.5c0-0.3,0-0.5,0-0.9
		c-0.1-3.3-0.2-5.7-0.3-7.5c-0.1-3.1,0.2-6,0.4-9c0.1-1,0.1-2.1,0.1-3.2c3.1-1.2,6.4-2,9.7-2.3c2-0.2,4.1-0.2,5.9-0.9
		c3.2-1.2,6.9-6.9,2.5-9c-1.4-0.7-7.1,1.2-8.7,1.4c-0.9,0.2-1.9,0.3-2.9,0.4c-0.9,0.1-1.9,0.2-2.9,0.3c-1.9,0.1-3.7-0.1-4.3-0.8
		c-0.3-0.3-0.4-1.4-0.4-3c0-2.4,0-3.7-0.1-6.3c0-0.5,0-1.1-0.1-1.8c-0.1-1.1-0.2-2.3-0.2-3.6c0-0.5,0-0.8,0-1.3
		c0-1.7,0.2-3.4,0.9-4.4c0.8-1.2,3-2,6.1-2.2c1.5-0.1,3-0.2,4.5-0.2c1.5,0,2.9,0,4.3,0.1c1.2,0.1,2.2,0.1,3,0.1c0.1,0,0.2,0,0.3,0
		c2,0,3.8-0.5,5.2-1.3c1.2-0.7,1.9-1.6,1.9-2.8c0-0.2,0-0.5-0.1-0.8c-0.4-1.8-1.9-3-4-3.4c-1.5-0.3-3-0.4-4.6-0.4
		c-0.7,0-1.4,0-2.1,0.1c-0.7,0.1-1.4,0.1-2.1,0.1c-2.7,0-5.7,0-9.2-0.1c-3.1-0.1-6-0.1-8.7-0.1c-3.4,0-6.8,0-9.4,0.4
		c-3.3,0.5-5.6,2.5-6.3,5.1c-0.5,2-0.7,3.8-0.7,5.7c0,0.5,0.2,5.1,0.5,12.4C200.5,161.9,200.9,170.9,201.3,183.9z"/>
	<path d="M264.6,189.7c6.6,1.5,14.8-0.5,21.3-1.6c6.5-1.2,16.2-2.4,21.8-6c6.3-4-0.1-7.1-5.9-6.1c-4.9,0.8-9.7,1.7-14.6,2.5
		c-1.8,0.3-3.6,0.6-5.4,0.3c-6.7-1.1-8.2-11.3-0.8-12.3c5.3-0.7,10.8-0.9,15.7-3c2.5-1.1,5.1-3.4,4.2-5.8c-1-2.9-17.6,0.4-21.3-1.7
		c-5.6-3.2-3.6-14.9,2.7-16.3c2.1-0.4,4.3-0.3,6.4-0.3c3,0,6-0.3,8.9-0.8c5.7-1.1,10.8-6.9,2.1-7.8c-1-0.1-3.3-0.1-6.6,0
		c-3.3,0.1-6.6,0.2-10,0.3c-2.5,0.1-3.8,0.2-6.3,0.3c-0.3,0-0.7,0-1,0c-1.7,0-3.5,0-5,0.1c-2.3,0.1-4.3,0.2-6,0.5
		c-2.8,0.4-4.8,1.3-6,2.8c-1.3,1.5-1.7,4-2,6.8c0,0.4-0.1,0.9-0.1,1.3c-0.4,10.5-0.2,20.8-0.2,31.4C256.5,181,257,188,264.6,189.7z"
		/>
	<path d="M146.7,304.1c-3-16.1-5.7-32.6-8.3-48.5c-0.3-2-1.3-4.1-3.3-4.8c-1.6-0.6-3.6-0.1-4.6,1.1c-3.5,4-0.8,14.1,0.1,18.5
		c0.8,4,1.6,7.9,2,11.5c0.1,0.5,0.1,0.9,0,1c-0.1,0.5-6.1,3-17.3,5.4c-0.3,0.1-0.7,0.1-1,0.2c-0.3,0.1-0.6,0.2-0.8,0.2
		c-0.5,0.1-0.9,0.1-1.1,0c-0.2-0.1-0.5-2.1-0.8-6.2c-0.3-4.6-0.5-8.9-0.3-12.4c0.1-0.8,0.1-1.6,0.1-2.3c0-1.5-0.3-2.9-0.7-4.2
		c-0.6-1.9-2.7-3.1-5.6-3c-0.7,0-1.5,0.2-2.1,0.4c-4.2,1.1-6.3,4.3-6.3,9.3c0,4,0.1,5.9,0.2,9.5c0.2,5.6,0.5,10.2,0.9,14.1
		c0.4,4,0.8,8.1,1.3,12.3c0.4,3.6,0.6,5.5,1.1,9.5c0.2,1.5,0.4,2.8,0.7,3.9c0.9,3.2,3.4,5.1,7.5,5c3-0.1,5.3-1,6.3-2.6
		c0.9-1.5,1.1-4.2,0.7-7.5c-0.5-3.9-1.3-7.7-2.1-11.1c-0.6-2.6-0.9-4.2-1-5c-0.1-1.3,0.1-2.3,0.5-2.9c0.6-0.8,2.4-1.5,5.4-2.1
		c1.4-0.3,2.1-0.5,3.5-0.8c4.3-1.2,7.6-2.1,9.8-2.6c1.1-0.2,1.7-0.3,1.9-0.2c0.2,0.1,0.4,0.6,0.6,1.5c0.2,0.9,0.4,1.9,0.5,3
		c0.2,1.1,0.3,2.2,0.5,3.1c0.2,1.5,0.5,3.6,0.8,6.5c0.2,1.7,0.3,2.6,0.4,4.4c0.3,3,0.8,6.1,1.5,8.7c0.7,2.2,2.1,3.6,3.9,4
		c0.5,0.1,0.9,0.1,1.3,0.1c1.3-0.2,2.7-1,3.7-2.5c0.6-0.8,0.9-1.8,1.1-2.9c0.2-1.3,0.1-3.1-0.1-5.1
		C147.5,308.7,147.2,306.5,146.7,304.1z"/>
	<path d="M178.6,234c-2.9,1.5-5.4,4.2-7.1,7.9c-2.6,5.9-4.6,13.6-6,22.3c-1.4,8.7-2.3,17.1-2.9,25.5c-0.6,8.4-1,15.4-1.5,21.1
		c-0.1,0.7-0.1,1.3,0,1.9c0.1,1.4,0.6,2.6,1.3,3.5c1,1.3,3.1,1.9,6,1.5c2.8-0.4,4.9-1.5,6.3-3.2c1.3-1.6,2-3.7,2.1-6
		c0.2-4,0.5-8,0.9-12.1c9.3-2.7,13.9-4,23.1-6.6c1.3,4.9,2.5,10.1,3.5,15.7c0.3,1.4,0.8,2.5,1.7,3.5c0.7,0.8,1.7,1.1,3,0.9
		c0.3,0,0.6-0.1,0.9-0.2c2.2-0.7,3.7-2.4,4-4.5c0.2-1.2,0.2-2.3,0.1-3.4c-0.1-0.8-0.2-1.6-0.4-2.3c-1.2-5.3-2.7-11.6-4.7-18.5
		c-2.1-6.9-4.5-13.9-7-20.9c-2.5-6.9-5-12.8-7.5-17.7c-2.4-4.9-4.7-8-7-9.1c-2.3-1.1-4.9-1.1-7.3-0.2
		C179.6,233.6,179.1,233.8,178.6,234z M183.4,245.7c0.1-0.2,0.4-0.4,0.5-0.4c0.6-0.2,1.2,0.4,2,1.7c1,1.7,2.2,4.3,3.4,7.6
		c1.2,3.3,2.5,6.9,3.8,10.7c1.3,3.8,2.4,7.3,3.3,10.4c1,3.1,1.6,5.2,2,6.4c0.1,0.2,0.1,0.4,0.2,0.5c-8.1,2.4-12.2,3.7-20.4,6.3
		c0-0.1,0-0.2,0-0.3c0.1-2.2,0.5-6.4,1-12.7c0.5-6.3,1.1-12.5,1.9-18.7C181.9,250.9,182.7,246.9,183.4,245.7z"/>
	<path d="M233.3,214.9c-1.4,0.2-2.7,0.4-3.9,0.7c-3.3,0.8-5.7,2.1-7.1,3.9c-1.9,2.2-2.7,5.4-2.4,9.7c0,0.3,0,0.5,0.1,0.8
		c0.3,3.9,0.7,7.9,1.1,11.9c1,9,2.5,18.5,3.8,27.8c1,7.4,2,14.9,2.6,22.1c0.1,1,0.1,2.2,0.1,3.5c0,1.5,0,3.2,0.1,4.8
		c0,0.7,0.1,1.4,0.2,2c0.2,2.3,0.7,4.3,1.6,6c0.9,1.7,2.4,2.8,4.5,3c0.7,0.1,1.5,0.1,2.1,0c1.6-0.2,2.8-0.7,3.7-1.7
		c1.3-1.3,2.2-3,2.5-5.1c0.4-2.1,0.5-4.1,0.4-6.1c-0.1-1.3-0.1-2-0.2-3.3c-0.2-3.4-0.6-6.8-1-10.4c-0.4-3.5-2.1-8.9-1.3-10.5
		c1.4-2.9,10.9-9.2,14.8-16c3.9-6.8,6-14.2,6.4-21.8c0-0.8,0-1.2,0-2c0-0.8,0-1.5-0.1-2.2c-0.1-1.1-0.2-2.1-0.5-3.1
		c-1-4.1-3-7.3-5.8-9.6c-2.8-2.3-6.1-3.7-9.9-4.4C241.2,214.4,237.3,214.3,233.3,214.9z M251.7,230.4c0.8,1.6,1.1,3.5,1.3,5.4
		c0.2,2.2,0,4.4-0.5,6.8c-1,4.4-2.8,8.7-5.3,12.6c-2.5,4-5.2,7.2-8.3,9.6c-1.6-13.3-2.6-20.1-3.6-32.7c-0.1-0.5-0.1-1.1-0.2-1.7
		c-0.1-0.6-0.2-1.3-0.2-1.9c0-0.7-0.1-1.3-0.1-1.9c0-1.2,0.4-2.2,1-3c0.3-0.4,0.8-0.7,1.5-0.8c0.6-0.2,1.3-0.2,2.2-0.2
		C245,223.1,249.5,225.8,251.7,230.4z"/>
	<path d="M303.7,205.8c-2.7-2.3-5.9-3.7-9.6-4.3c-3.7-0.6-7.5-0.6-11.5,0c-1.4,0.2-2.6,0.5-3.8,0.8c-3.2,0.9-5.5,2.2-7,4
		c-1.8,2.3-2.7,5.5-2.5,10c0,0.3,0,0.5,0,0.8c0.2,4,0.5,8.3,0.8,12.6c0.7,9.7,1.8,20,2.6,30.2c0.7,8.1,1.4,16.2,1.7,23.9
		c0,1.1,0.1,2.3,0,3.7c0,1.7,0,3.4,0,5.1c0,0.7,0.1,1.4,0.1,2.1c0.2,2.4,0.6,4.4,1.4,6.1c0.8,1.6,2.3,2.5,4.2,2.6
		c0.7,0,1.4-0.1,2-0.2c1.5-0.3,2.7-1,3.5-2c1.3-1.4,2.1-3.2,2.5-5.3c0.4-2.1,0.5-4.2,0.5-6.3c0-1.3-0.1-2-0.1-3.4
		c-0.1-3.5-0.4-7.1-0.7-10.9c-0.3-3.7-1.8-9.3-0.9-11.2c1.6-3.3,10.9-10.2,15-17.5c4.1-7.3,6.5-15.2,7.2-23.3c0-0.9,0.1-1.3,0.1-2.2
		c0-0.8,0.1-1.6,0-2.3c0-1.1-0.1-2.2-0.4-3.3C308.3,211.3,306.4,208,303.7,205.8z M300.5,229.9c-1.2,4.7-3.1,9.2-5.7,13.5
		c-2.6,4.3-5.4,7.8-8.4,10.6c-1-14.3-1.6-21.7-2.2-34.9c-0.1-0.6-0.1-1.2-0.1-1.8c0-0.7-0.1-1.3-0.1-2c0-0.7,0-1.3,0-1.9
		c0-1.3,0.4-2.3,1.1-3.1c0.3-0.4,0.8-0.7,1.4-0.9c0.6-0.2,1.3-0.2,2.1-0.2c5.3,0.3,9.7,3,11.7,7.8c0.7,1.6,1,3.7,1.1,5.6
		C301.4,225.1,301.1,227.5,300.5,229.9z"/>
	<path d="M319.2,247.4c0.4,9.8,1.4,18.8,2.8,26.6c0.7,3.7,1.6,6.9,2.9,9.7c1.3,2.7,3.7,4.5,6.9,5.1c2.6,0.5,6.2,0.3,10.3-0.1
		c1.2-0.1,2.3-0.2,3.4-0.3c2.8-0.3,5.3-0.6,7.4-0.9c3-0.5,5-1.5,5.7-3c0.4-0.8,0.6-1.5,0.6-2.2c0-0.7-0.2-1.4-0.6-2.1
		c-0.8-1.3-2.1-2-4-1.9c-1.3,0.2-1.9,0.4-3.2,0.6c-1.3,0.3-2.6,0.5-3.9,0.6c-1.3,0.1-2.7,0.3-3.9,0.3c-2.3-0.1-4.2-1.2-5.4-3
		c-1.2-1.8-2-4-2.5-6.7c-0.5-2.7-0.8-5.3-1-7.8c0-0.4-0.1-0.7-0.1-1c-0.1-0.9-0.2-1.9-0.3-2.8c-0.2-1.4-0.4-2.9-0.4-4.3
		c0-0.6,0-1.2,0-1.8c0-2,0.5-4.4,1.7-5.8c0.5-0.6,2-1.1,3.8-1.5c0.8-0.2,1.1-0.2,1.9-0.4c1.2-0.2,2.5-0.5,3.7-0.6
		c1-0.1,1.8-0.3,2.5-0.4c0.3-0.1,0.5-0.1,0.9-0.2c2.3-0.7,3.6-2.2,4.1-4.5c0.1-0.6,0.1-1.1,0.1-1.6c0-1.5-0.6-2.9-1.6-3.7
		c-0.7-0.6-2.1-0.7-3.6-0.5c-0.8,0.1-1.6,0.3-2.4,0.4c-0.7,0.2-1.5,0.3-2.2,0.5c-0.5,0.2-1,0.3-1.4,0.4c-0.9,0.2-1.6,0.4-2.3,0.6
		c-0.5,0.2-1.1,0.3-1.6,0.4c-1.1,0.2-2.1,0.3-2.7,0c-1-0.3-1.6-2.2-1.6-5.1c0-1.4,0-2.9,0.1-4.2c0-6.3,0.1-12.5-0.1-18.4
		c0-0.5,0-0.8,0-1.3c0.1-4,1-6.5,2.7-7.8c1.3-0.9,2.8-1.7,4.7-2.2c0.6-0.2,1.3-0.3,1.9-0.4c0.8-0.2,1.2-0.4,2.1-0.6
		c2.9-0.9,4.8-2.1,5.9-3.5c0.7-1,1.1-2,1.1-2.9c0-0.4-0.1-0.7-0.2-1c-0.4-1.1-1.5-1.8-3.1-1.8c-0.7,0-2.2,0.4-4.5,1
		c-2.3,0.6-4.6,1.3-6.9,2c-1.7,0.5-2.6,0.8-4.3,1.3c-0.2,0.1-0.5,0.1-0.7,0.2c-1.2,0.2-2.4,0.6-3.5,0.9c-1.6,0.5-3,1-4.1,1.5
		c-1.9,0.8-3.3,2.1-4.2,3.8c-0.9,1.7-1.2,4.5-1.3,8.2c0,0.5,0,1.1,0,1.7c0,3.2-0.1,6.7-0.1,10.4c-0.1,9.3,0.1,19.4,0.4,29.6
		C319.1,246.9,319.2,247.1,319.2,247.4z"/>
	<path d="M367.7,191.3c-0.2,1.8-0.3,3.6-0.3,5.4c0.1,4.7,0.1,7.2,0.1,12.2c0.1,7.3,0.1,11.1,0.2,18.7c0.1,8.1,0.2,16.3,0.2,24.3
		c0,6.4,0,12.7-0.1,18.4c0,0.8,0,1.7-0.1,2.5c0,1.1-0.1,2.3-0.1,3.4c0,1.1,0,2.3,0.1,3.4c0.1,2.2,0.6,4,1.5,5.4
		c0.8,1.4,2.3,2.1,4.3,2c2.3-0.1,4-1,5-2.4c1-1.5,1.7-3.4,2-5.7c0.2-1.5,0.3-3,0.3-4.6c0-0.9,0-1.9,0-2.8c0-13.9,0.3-27.9,0.7-41.8
		c0.2-6.3,0.4-12.5,0.6-18.6c0-1.1,0-1.6,0.1-2.7c0.1,0,0.3,0.4,0.6,1.2c0.1,0.2,0.1,0.3,0.2,0.4c1.2,3.6,2.4,7.5,3.5,11.4
		c0.5,1.9,1,3.8,1.5,5.6c0.2,0.8,0.4,1.6,0.6,2.3c0.8,3.2,1.7,6.6,2.5,9.8c1.4,5.8,2.5,12.8,4,19.7c0.1,0.3,0.2,0.7,0.3,1.2
		c0.4,2,1.2,4.9,2.1,8.5c1.1,4.1,2.4,12.3,7.7,13.6c2.4,0.6,4.2-0.5,5.6-2.4c4.7-6.6,4.9-23.8,5.2-27.4c1.3-16.2,2.6-32.5,3.4-48.8
		c0.4-8,1.3-16.4,0.7-24.4c-0.3-3.6,1.3-11.7-2.5-14.3c-4.1-2.8-9,1.7-9.5,5.6c-0.1,0.6-0.1,1.3-0.1,1.9c0,0.6,0,1.2,0,1.8
		c0,0.1,0,0.2,0,0.3c0.2,8.5,0.2,18.5,0.2,28.8c0,10.1-0.4,20.2-1,30.3c-0.5,8.6,0.5,16.8-1.8,25.3c0.7-2.5-3-11-3.5-13.8
		c-1.1-5.8-2.4-11.6-3.8-17.4c-2.8-12-6.1-23.8-9.9-35.6c-2.3-7.3-11.1-18.5-18.2-7C368.7,187,368,189,367.7,191.3z"/>
	<path d="M445.5,283.1c22.2-6.9,21.4-34.2,16.9-50.8c-1.5-5.4-3.3-10.7-5.5-15.9c-1.9-4.6-3.7-9.5-5.3-14.4
		c-1.4-4.3-2.7-8.9-3.6-13.8c-0.8-4.1-1-8.4-0.5-12.8c0.1-0.7,0.2-1.5,0.3-2.2c0.6-2.3,1.5-4.4,2.9-6.1c3.7-4.6,8.5-6.2,13.4-2.3
		c1.7,1.4,4.3,2.6,6.2,1.4c3.8-2.6,0.9-8.8-1.7-11.1c-3.7-3.2-9.9-3.9-14.8-3.3c-7.9,0.9-13.7,7.9-17.3,13.8
		c-2.3,3.9-3.7,8.3-4.3,13.4c-0.3,2.5-0.4,5.2-0.2,7.9c0.7,7.6,2.5,15.4,4.5,22c2,6.6,4.3,13.4,6.7,20.1c0.9,2.4,1.7,4.9,2.6,7.4
		c1.5,4.3,2.4,9,2.5,14c0,1.6-0.1,3.3-0.4,4.9c-1.1,6.4-5.4,18.5-14.6,14.5c-3.1-1.3-4.8-6.4-8.9-3.8c-1.9,1.2-1.9,4.7-2.1,6.5
		c-0.2,1.6,0,3,0.5,4.2C425.7,283.5,438.8,285.2,445.5,283.1z"/>
	<path d="M200.2,591.4c-0.9-8.6-1.8-15.1-2.8-20.4c-1.6-8.3-2.5-16-2.6-23.7c0-1.4-0.1-3.1-0.3-4.8c-0.7-6.8-3.2-10.6-7.1-10.1
		c-1.4,0.2-2.6,0.8-3.5,1.9c-0.9,1.1-1.5,2.3-1.9,3.6c-0.3,1.3-0.5,2.4-0.5,3.2c0.2,3.9,0.9,8,1.7,12c0.9,4.5,1.5,8.7,1.7,12.6
		c0,0.6,0,0.9-0.1,1.1c-0.1,0.5-8.1,2.2-22.8,3.1c-0.5,0-0.9,0.1-1.3,0.1c-0.4,0-0.8,0.1-1.1,0.1c-0.7,0-1.2,0-1.5-0.1
		c-0.3-0.1-0.5-2.3-0.6-6.9c-0.2-5.1-0.4-10-0.1-13.9c0.1-0.9,0.2-1.8,0.1-2.7c-0.1-1.8-0.5-3.5-1.1-5.1c-0.9-2.4-3.8-4.4-7.8-4.9
		c-1-0.1-2-0.1-3-0.1c-5.9,0.2-8.6,3.7-8.3,9.7c0.2,4.8,0.3,7,0.5,11.2c0.3,6.6,0.6,11.8,0.9,16.3c0.3,4.7,0.6,9.4,0.8,14.5
		c0.2,4.4,0.3,6.7,0.5,11.8c0.1,1.9,0.3,3.6,0.6,5c0.8,4.2,4,6.7,9.3,6.8c3.9,0.1,6.9-1,8.2-2.9c1.3-1.9,1.8-5.2,1.6-9.2
		c-0.2-4.8-0.8-9.2-1.6-13.2c-0.6-3-0.8-4.9-0.8-5.7c-0.1-1.5,0.3-2.5,1-3.2c0.9-0.8,3.3-1.3,7.1-1.5c1.8-0.2,2.7-0.2,4.5-0.4
		c5.6-0.6,9.9-1.1,12.8-1.3c1.4-0.1,2.2-0.1,2.4,0c0.2,0.1,0.4,0.7,0.6,1.6c0.1,1,0.3,2.1,0.3,3.3c0.1,1.2,0.2,2.3,0.2,3.4
		c0.1,1.6,0.2,4,0.3,7.2c0,1.9,0,2.9,0.1,4.9c0.1,3.5,0.3,7.1,1.1,10.3c0.6,2.7,2.4,4.6,4.6,5.4c0.6,0.2,1.1,0.3,1.7,0.3
		c1.6,0,3.5-0.9,4.9-2.6c0.8-0.9,1.3-2.1,1.6-3.3c0.3-1.5,0.4-3.6,0.3-6C200.7,596.7,200.5,594.2,200.2,591.4z"/>
	<path d="M259.3,598.1c-1.9,0.2-3.7,0.4-5.6,0.4c-1.9,0.1-3.9,0.2-5.7,0.1c-3.4-0.2-6.2-1.3-7.9-3.1c-1.7-1.7-2.9-3.7-3.5-6
		c-0.6-2.3-1.1-4.5-1.2-6.5c0-0.3-0.1-0.6-0.1-0.8c-0.1-0.7-0.2-1.5-0.4-2.2c-0.3-1.1-0.4-2.2-0.4-3.3c0-0.5,0-0.9,0.1-1.4
		c0.1-1.5,1-3.4,2.7-4.4c0.8-0.5,2.9-0.9,5.6-1.2c1.1-0.1,1.7-0.2,2.8-0.3c1.8-0.2,3.6-0.4,5.3-0.6c1.4-0.1,2.6-0.3,3.6-0.4
		c0.5-0.1,0.7-0.1,1.2-0.1c3.3-0.6,5.3-1.9,6-3.6c0.2-0.4,0.2-0.9,0.2-1.3c0-1.2-0.8-2.3-2.2-2.8c-1.1-0.4-2.9-0.5-5.2-0.2
		c-1.2,0.1-2.3,0.3-3.4,0.4c-1,0.2-2.1,0.3-3.1,0.5c-0.8,0.1-1.4,0.3-2,0.3c-1.2,0.2-2.3,0.4-3.3,0.6c-0.8,0.2-1.5,0.3-2.2,0.4
		c-1.6,0.2-3,0.3-3.9,0.1c-1.3-0.2-2.2-1.6-2.1-3.8c0-1,0.2-2.2,0.2-3.2c0.3-4.8,0.5-9.8,0.4-15c0-0.5,0-0.7,0-1.1
		c0.2-3.5,1.4-6,3.9-7.3c1.8-1,4-1.7,6.6-2.3c0.9-0.2,1.8-0.4,2.7-0.5c1.2-0.3,1.7-0.4,2.9-0.7c4.1-1,6.9-2.2,8.4-3.7
		c1.1-1.1,1.6-2.1,1.6-3c0-0.4-0.1-0.7-0.3-1.1c-0.6-1.2-2.2-1.9-4.5-1.9c-1,0-3.2,0.4-6.4,1.1c-3.2,0.7-6.4,1.4-9.7,2.2
		c-2.4,0.6-3.7,0.8-6.1,1.4c-0.3,0.1-0.7,0.1-1,0.2c-1.7,0.2-3.4,0.6-4.9,0.9c-2.2,0.5-4.2,1-5.8,1.5c-2.7,0.8-4.6,2.2-5.8,4
		c-1.2,1.8-1.6,4.7-1.8,8.1c0,0.5,0,1-0.1,1.6c0,2.9-0.2,5.9-0.4,8.9c-0.5,7.6-0.7,14.8-0.7,22.2c0,0.2,0,0.4,0,0.6
		c0.1,7.1,1.2,13.9,3,20.6c0.8,3.2,2.2,6.3,4,9.1c1.9,2.8,5.4,5,10.1,6c3.9,0.8,9.2,0.8,15.2,0.7c1.7,0,3.4-0.1,4.9-0.1
		c4-0.2,7.6-0.4,10.7-0.7c4.5-0.4,7.4-1.5,8.5-3c0.6-0.8,0.9-1.6,0.9-2.3c0-0.8-0.3-1.5-0.9-2.2c-1.2-1.4-3.2-2-6-2
		C262.1,597.8,261.2,597.9,259.3,598.1z"/>
	<path d="M279.3,565.6c0.1,9,1.1,17.2,2.8,24.6c1.6,7,4.1,11.8,7.5,14.3c3.2,2.3,8.4,3.3,15.7,3c1.3,0,1.9-0.1,3.2-0.1
		c1.4-0.1,3-0.2,4.8-0.4c2.2-0.3,4.1-0.9,5.7-1.8c1.2-0.8,1.9-1.9,1.9-3.4c0-0.3,0-0.7-0.1-1c-0.3-1.8-1.6-3-3.3-3.3
		c-1.4-0.2-2.9-0.3-4.6-0.2c-0.5,0-0.7,0-1.1,0.1c-0.5,0.1-1,0.1-1.5,0.1c-1.7,0.1-3.3,0-4.5-0.3c-2.1-0.6-3.8-2.4-4.8-4.8
		c-1.1-2.5-1.8-5.2-2.1-8.1c-0.4-3-0.6-5.6-0.7-7.8c0-0.5,0-0.8,0-1.3c-0.4-6.2-0.6-12.4-0.6-18.6c-0.1-8.6,0.1-17.9,0.8-27.8
		c0.1-1.2,0.2-2.6,0.4-4.1c0.3-2.5,0.6-5.1,0.6-7.6c0-0.1,0-0.2,0-0.3c0-2.4-0.5-4.4-1.5-5.9c-1.1-1.6-3.2-2.3-6.1-2
		c-1,0.1-1.9,0.3-2.8,0.6c-2.1,0.6-3.8,1.5-5,2.8c-1.6,1.8-2.6,3.9-3,6.3c-0.4,2.4-0.6,4.8-0.6,7.1c0,0.3,0,0.7-0.1,1.1
		c-0.2,2.8-0.2,6.1-0.3,9.4c-0.5,10.1-0.6,19.7-0.5,28.9C279.3,565.1,279.3,565.3,279.3,565.6z"/>
	<path d="M329.3,508.4c0.2,4.7,0.4,9.6,0.7,14.6c0.6,11,1.3,22.5,1.8,33.9c0.4,9.1,1,18.2,1.1,26.9c0,1.2,0,2.7,0,4.2
		c-0.1,1.9-0.1,3.9,0,5.9c0,0.8,0.1,1.7,0.2,2.4c0.2,2.8,0.8,5.3,1.9,7.4c1.1,2.1,3.2,3.4,5.7,3.7c0.9,0.1,1.8,0.1,2.5,0
		c1.8-0.2,3.3-0.8,4.3-1.9c1.5-1.6,2.4-3.6,2.9-6.2c0.4-2.5,0.6-5,0.5-7.4c-0.1-1.6-0.1-2.4-0.1-4c-0.1-4.1-0.3-8.4-0.6-12.7
		c-0.2-4.3-1.8-10.8-0.7-12.8c2-3.6,13.3-10.7,18.6-18.8c5.3-8,8.6-17,9.8-26.3c0.1-1,0.1-1.5,0.2-2.5c0.1-0.9,0.2-1.9,0.2-2.7
		c0-1.3-0.1-2.7-0.3-3.9c-0.8-5.2-3-9.3-6.3-12.3c-3.3-3-7.3-4.9-11.9-5.9c-4.7-1-9.4-1-14.3-0.3c-1.7,0.2-3.3,0.6-4.7,1
		c-4,1.1-6.8,2.8-8.5,5c-2.2,2.8-3.2,6.8-3,12.1C329.3,507.8,329.3,508,329.3,508.4z M348.7,500.3c0.4-0.5,1-0.8,1.8-1
		c0.7-0.2,1.6-0.3,2.6-0.2c6.6,0.5,11.9,4.1,14.2,9.9c0.8,2,1,4.4,1.1,6.7c0,2.7-0.4,5.5-1.2,8.3c-1.6,5.4-4.1,10.5-7.4,15.2
		c-3.3,4.7-6.8,8.5-10.5,11.5c-0.5-13.4-1-26.8-1.4-40.1c-0.1-0.7-0.1-1.4-0.1-2.1c-0.1-0.8-0.1-1.6-0.2-2.3c0-0.8,0-1.6,0-2.3
		C347.4,502.4,347.9,501.2,348.7,500.3z"/>
	<path d="M388.6,601.2c1.7,0.8,3.3,1.4,4.8,1.8c1.5,0.3,3.3,0.5,5.1,0.6c0.6,0,1.2,0,1.8,0c3.8-0.1,7.4-0.6,10.7-1.7
		c3.8-1.2,8-4.2,10.9-8.8c3.2-5,4.8-10.7,5.4-15.6c0.1-0.9,0.1-1.8,0.2-2.7c0.1-5.6-0.9-11.1-3-16.1c-2.1-5.1-4.7-10.1-7.6-15
		c-2.6-4.4-5.1-9-7.4-13.7c-2-4.1-3.8-8.5-5.4-13.1c-1.3-4-1.8-8.1-1.5-12.4c0.1-0.7,0.1-1.5,0.2-2.1c0.5-2,1.6-4.2,2.9-6
		c1.8-2.4,3.9-3.7,5.9-3.9c0.6-0.1,1.2,0,1.7,0.1c2.5,0.6,5,1.8,7.2,3.5c1.9,1.4,3.7,2.4,5.3,3c0.4,0.1,0.8,0.2,1.1,0.2
		c1.2,0,2.3-0.8,3.2-2.2c0.5-0.8,0.7-1.7,0.8-2.6c0.1-0.9,0-1.8-0.4-2.7c-0.7-1.8-1.8-3.4-3.2-4.8c-1.4-1.4-2.8-2.4-3.9-3.1
		c-4.8-2.6-9.7-3.6-14.6-3.1c-1.5,0.2-3,0.4-4.5,0.9c-6.3,1.9-11.4,5.7-15.1,11.4c-2.5,3.9-3.9,8.3-4.2,13.3
		c-0.1,2.4-0.1,5.1,0.3,7.6c1.4,7.3,4.2,14.6,7.3,20.8c3,6.2,6.3,12.4,9.8,18.7c1.2,2.2,2.5,4.6,3.8,7c2.2,4,3.6,8.4,4.2,13
		c0.2,1.5,0.2,3,0.1,4.5c-0.3,3.1-1.3,6.2-3,9.3c-0.2,0.4-0.4,0.6-0.6,0.9c-3.3,3.4-6,5.2-8.3,5.5c-0.2,0-0.3,0-0.4,0
		c-2.1,0-4.5-1.3-7-4.1c-0.7-0.8-1.6-1.6-2.5-2.2c-0.8-0.6-1.6-0.9-2.4-0.9c-0.1,0-0.3,0.1-0.4,0.1c-0.8,0.2-1.9,1.1-2.6,2.7
		c-0.4,1.1-0.6,2.2-0.7,3.1c-0.1,1.6,0.3,3,1.1,4.3C384.9,598.7,386.6,600.2,388.6,601.2z"/>
	<path d="M282.7,376.9c2.7-3.5,5-7.1,6.7-10.8c1.7-3.7,3-7.4,3.8-11.1c1-4.4,1.6-7.7,1.9-10.5c0.2-1.9-0.1-3.7-0.9-5.3
		c-0.7-1.4-1.5-2.3-2.5-2.7c-0.3-0.1-0.6-0.2-0.9-0.1c-0.6,0-1.2,0.3-1.9,0.7c-1.1,0.7-2.7,2.6-3.9,5.5c-1.5,3.7-3.1,10.9-4.9,19.1
		c-1.4,6.2-3.2,16.6-4.1,22.2C278.1,381.9,281.1,379,282.7,376.9z"/>
	<path d="M318.1,464.3c1.1-0.1,2.6-1.2,4.2-3.1c1.7-2.1,3.2-5,4.7-8.6c1.4-3.7,2.5-8.1,3.3-13c0.8-5.4,1.1-10.9,0.8-16.4
		c-0.4-5.9-1.8-12.1-4.2-18.4c-1.4-3.6-4.1-7.4-5.9-9.9c-0.2,1.4-0.3,3.1-0.4,4.5c-0.1,1.6-0.3,3.2-0.4,4.6c-0.5,5-1,10.3-1.5,15.8
		c-0.5,5.4-0.9,11-1.3,16.7c-0.4,5.5-0.5,10.5-0.6,15c0,4.3,0.2,7.8,0.6,10.3C317.6,464,318.1,464.3,318.1,464.3z"/>
	<path d="M366.2,397.8c2.9-0.2,5.5-1,8-2.5c4.7-2.9,8.2-6.3,10.6-10.5c2.4-4.1,3.6-8,3.4-11.5c-0.2-3.9-2.3-4.3-4.2-4.2
		c0-0.6,0-0.8,0-1.4h0c0,0.6,0,0.9-0.1,1.4c-2.7,0.2-5.4,1.2-8,3.2c-2.8,2.1-5.4,4.7-7.7,7.6c-2.3,3-4.2,6.1-5.7,9.4
		c-1.4,3-2.3,5.7-2.6,7.9C362.1,397.7,364.2,397.9,366.2,397.8z"/>
	<path d="M422.4,387.4c2.4-0.1,4.6-0.8,6.7-1.8c4.8-2.5,8.5-5.6,11.1-9.6c2.6-3.9,4-7.7,4-11.3c0.1-4.1-2.3-4.7-4-4.7
		c-0.4,0-0.7,0-1.1,0c-2.4,0.1-4.8,1-7.1,2.5c-2.9,1.9-5.6,4.2-8,7c-2.4,2.8-4.5,5.8-6.2,9c-1.6,3-2.6,5.6-3.1,7.8
		C417.4,387.2,420,387.5,422.4,387.4z"/>
	<path d="M332.2,363.9c2.9-3.5,5.4-7,7.3-10.7c1.9-3.6,3.4-7.4,4.4-11c1.2-4.3,2-7.7,2.4-10.4c0.3-1.9,0.1-3.7-0.6-5.3
		c-0.6-1.4-1.4-2.4-2.4-2.8c-0.3-0.1-0.7-0.2-1-0.2c-0.6,0-1.2,0.3-1.9,0.7c-1.1,0.7-2.8,2.5-4.2,5.4c-1.7,3.7-3.7,10.8-5.9,19
		c-1.7,6.2-4.1,16.7-5.3,22.2C327.3,368.9,330.4,366,332.2,363.9z"/>
	<path d="M157.9,397.1c2.9,0.2,6.1,0.4,9.2,0.2c3.6-0.2,7.4-0.9,11.1-2.1c6.6-2.1,11.4-5.7,14.2-10.5c2.6-4.7,3.6-9.2,2.9-13.4
		c-0.7-4.2-2.9-7.4-6.5-9.8c-2.1-1.4-4.6-2-7.6-1.8c-1.9,0.1-4.2,0.5-6.3,1.3c-14.7,5.7-27.3,19.3-35.6,33.5
		c1.9,0.4,5.7,1.2,8.7,1.6C151.4,396.5,155.1,396.9,157.9,397.1z"/>
	<path d="M272.9,474.7c0.5,2.2,1,2.6,1,2.6c1.1-0.1,2.5-1.3,4-3.2c1.6-2.1,3-5,4.2-8.7c1.2-3.7,2.1-8.1,2.6-13.1
		c0.6-5.4,0.5-10.9-0.1-16.3c-0.7-5.9-2.4-12.1-5.1-18.3c-1.6-3.6-4.4-7.4-6.4-9.8c-0.1,1.4-0.2,3.1-0.2,4.6
		c-0.1,1.6-0.1,3.2-0.2,4.6c-0.3,5-0.5,10.3-0.7,15.8c-0.2,5.5-0.3,11.1-0.4,16.6c-0.1,5.5,0,10.5,0.2,14.9
		C272,468.8,272.4,472.2,272.9,474.7z"/>
	<path d="M222.7,461.9c1.1,1.6,2.3,2.3,3.9,2.3c0.4,0,0.8-0.1,1.2-0.2c3.3-0.9,5.7-3,7.5-6.2c1.1-2,3.5-6.4,4.2-8.1
		c-0.8-0.8-2-2.1-2.5-3.9c-0.6-2.4-0.8-4.9-0.5-7.6c0.3-2.7,1.3-5.1,2.9-7.4c1.1-1.6,3.3-2.5,4.8-3.2c0.5-0.2,1.1-0.5,1.4-0.7
		c0.2-0.7,0.3-3.3-0.2-6.6c-0.4-2.9-1.1-5.6-2.2-8.1c-1-2.5-2.4-4.6-4-6.2c-1.1-1.1-2.3-1.6-3.6-1.5c-0.3,0-0.6,0.1-0.9,0.1
		c-3.6,0.9-6.7,2.9-9,6.1c-2.5,3.4-4.5,7.6-5.7,12.3c-1.3,4.7-2,9.8-2.1,14.9c-0.1,5.2,0.3,9.9,1.2,14.2
		C219.8,456.3,221.1,459.6,222.7,461.9z"/>
	<path d="M334.5,163.9c5.1,0,9.3-4.2,9.3-9.3s-4.2-9.3-9.3-9.3c-5.1,0-9.3,4.2-9.3,9.3S329.4,163.9,334.5,163.9z"/>
	<path d="M359.8,158.3c0.3,0.2,0.6,0.4,0.9,0.6c2,1.4,5,1.2,7,0c2.1-1.2,3.4-3.5,3.4-6c0-2.4-1.3-4.7-3.4-6c-2-1.2-5-1.4-7,0
		c-0.3,0.2-0.6,0.4-0.9,0.6C355.7,150,355.7,155.9,359.8,158.3z"/>
	<path d="M394.5,158.4c3.5-2.1,4.2-7,1.3-9.9c-2.8-2.8-8-2.3-9.9,1.3c-1.1,2.1-1.2,4.1-0.1,6.2C387.5,159.1,391.5,160.2,394.5,158.4
		z"/>
	<path d="M556.7,107.8l-20-49.5c-4-9.9-13.6-16.3-24.2-16.3h-19.9l-18.1-31.7C470.9,4,464,0,456.6,0H100.9C93.5,0,86.7,4,83,10.4
		L64.9,42.1H45c-10.6,0-20.2,6.5-24.2,16.3l-20,49.5c-2.9,7.2,2.4,15,10.1,15h31.6l63.3,489.1c2.3,18,18.9,36.1,37.1,36.1H417
		c18.1,0,32.4-18.1,34.7-36.1L515,122.8h31.6C554.3,122.8,559.6,115,556.7,107.8z M104.3,391.7c-4.6-3.2-8-7.8-7.8-13.7
		c0.1-1.6,0.5-3.2,1.6-4.3c4.7-4.5,9.1,6.3,11.2,9.3c0.9,1.4,2.9,3.9,4.1,5c2.4,2.3,5.9,3.2,9.2,3.8c1.9-3.9,3.7-7.1,5.8-10.9
		c3.1-5.6,6.9-11.5,11.2-15.4c8-7.2,17.2-12.2,27.3-14.7c3.9-1,7.5-1.6,10.7-1.8c3.2-0.2,6.2,0,8.9,0.6c5.6,1.2,10.1,3.5,13.2,6.9
		c3.1,3.4,5,7.4,5.6,11.9c0.6,4.5-0.1,9-2,13.6c-1.9,4.5-4.9,8.7-9,12.4c-4.1,3.8-9.5,6.5-15.9,8c-4.6,1.1-9,1.8-13.2,2
		c-6.3,0.4-12.5,0-18.8-1c-1.9-0.3-3.6-0.7-5.5-1c-1.4-0.3-3.3-0.4-4.7-0.8c0,0-3.2,11.3-4,16.3c-0.1,0.5-0.1,0.7-0.2,1.2
		c-1.2,7.1-1.9,14.7-2,22.6c-0.1,7.9,0.6,15.8,2.1,23.5c1.4,7.7,3.8,14.5,6.9,20.3c3.1,5.7,7.1,10.3,11.9,13.7c4,2.9,9.1,4.1,15,3.8
		c1-0.1,2-0.2,3-0.3c5.9-0.8,11-3.4,15.4-7.6c4.5-4.3,8.4-9.4,11.7-15.4c3.3-5.9,6-12.3,8.1-19.1c0.5-1.8,1.1-3.5,1.6-5.2
		c-0.1-0.4-0.2-0.7-0.3-1.1c-1.2-4.3-1.9-7.3-2.2-9.8c-1.3-11,0.4-21.7,5-31.2c4.6-9.3,11.7-15.2,20.6-17c1.2-0.3,2.4-0.4,3.6-0.5
		c4-0.2,7.6,0.6,10.2,2.5c3.3,2.3,5.7,5.3,7.3,9c1.5,3.6,2.3,7.5,2.4,11.6c0,1,0.1,1.9,0.1,2.8c0.1,2.8,0.2,5.1,0,6.7
		c-0.1,0.7-0.3,1.8-0.5,3c-0.2,1.3-0.5,2.9-0.8,4.7c-0.3,2.3-1.3,5.7-1.9,7.9c0.2,0,0.3-0.1,0.5-0.1c0.5-0.1,1.3-0.6,2.6-1.9
		c1.1-1.1,2.2-2.8,3.3-5.2c0.5-0.9,1-2.3,1.5-3.7c0.2-0.5,0.4-1.1,0.6-1.6c0-0.5,0-0.8,0-1.3c0-5.6,0.1-10.9,0.3-15.8
		c0.1-1.8,0.2-3.4,0.2-4.8c0.1-1.7,0.2-3.2,0.2-4.3c-1.4-0.4-3.3-1.8-4.5-3.6c-1.2-1.9-0.8-5,0.1-7.3c0.8-2.3,3.6-3,5.3-3.5
		c0.2-0.1,0.4-0.1,0.6-0.2c1.3-1.6,1.3-11.8,1.3-17.3c0-3.5,0-6.4,0.2-8.3c0.6-5.8,1.1-10.1,1.6-12.8c0.6-3.2,0.7-4.4,0.8-4.9
		c0.1-0.6,0.2-1.9,0.8-3.8c1.4-5,4.6-9.1,9.2-11.8c4.1-2.4,8.8-3.8,13.9-4.1c0.4,0,0.8,0,1.2-0.1c3.6-0.1,6.8,0.9,9.5,3.1
		c2.8,2.2,4.8,6.1,5.6,10.7c0.4,2.6,0.1,6.1-0.8,10.8c-0.9,4.4-2.6,9-5,13.8c-2.4,4.8-5.5,9.5-9.1,14.1c-4.8,6.1-9.1,10.1-13.1,11.8
		c-0.5,0.2-0.8,0.4-1,0.5c0,0,0,0.1,0,0.1c0,0.3,0,0.7,0,1c2.8-0.3,8.7-2,13.1-3.5c5.4-1.7,10.1-4.4,13.9-8c0.1-0.4,0.3-0.9,0.5-1.3
		c1-2.3,3.8-3,5.5-3.5c0.2-0.1,0.4-0.1,0.6-0.2c1.4-1.6,1.9-11.8,2.2-17.3c0.2-3.5,0.4-6.5,0.6-8.3c0.9-5.8,1.6-10.1,2.2-12.8
		c0.7-3.2,1-4.4,1.1-4.9c0.1-0.6,0.3-1.9,1-3.8c1.7-5,5.1-9.1,9.9-11.7c4.1-2.2,8.6-3.5,13.5-3.8c0.6,0,1.3-0.1,2-0.1
		c3.6,0,6.7,1.1,9.4,3.3c2.7,2.3,4.5,6.2,5,10.9c0.3,2.6-0.2,6.1-1.4,10.8c-1.1,4.4-3.1,9-5.8,13.7c-2.7,4.7-6,9.4-9.8,13.9
		c-2,2.3-4.1,4.6-6.4,6.7c-1.2,1-2.4,2-3.7,2.9c-1,0.7-2.1,1.2-3.1,1.8c2.6-0.4,5.2-0.7,7.5-1.1c7.4-1.3,17.2-2.3,25-5.4
		c3.8-4.1,8.1-7.7,13.2-10.3c3.7-1.9,7.5-3,11.2-3.2c1.3-0.1,2.6-0.1,3.9,0.1c5.9,0.6,9.5,3.2,10.6,7.8c1.1,4.4,0.5,9.3-1.7,14.6
		c-2.1,5.1-5.6,10.1-10.2,14.8c-4.6,4.6-9.9,7.6-16,8.8c-1.9,0.4-3.8,0.7-5.7,0.9c-1.4,0.1-3.3-0.6-5.4-1.4
		c-0.5,3-0.6,11.2,0.7,14.6c1.5,4,4.4,6,8.5,6c0.2,0,0.5,0,0.7,0c3-0.2,6.3-1.4,10.1-3.8c4-2.5,7.9-5.9,11.6-10.1
		c2.5-2.8,5-6.1,7.3-9.6c0-2.4,0.1-4.3,0.2-5.8c0.5-6.3,2.4-12.6,5.6-18.8c3.1-5.9,6.8-11,11-15.2c4.3-4.3,9.1-7.7,14.3-9.9
		c3.1-1.3,6.3-2.1,9.4-2.3c2-0.1,3.9,0,5.8,0.3c5.8,1.1,9.1,4,10,8.7c0.8,4.6-0.1,9.5-2.5,14.6c-2.4,5-6.1,9.8-11.1,14.1
		c-4.8,4.3-10.3,6.8-16.5,7.6c-1.3,0.2-2.8,0.3-4.3,0.4c-0.5,0-1,0-1.4,0.1c-1.3,0-3.3-0.8-5.2-1.8c-0.7,3.2-1.2,11.2-0.1,14.6
		c1.3,4.2,4,6.5,8.2,6.8c0.6,0,1.1,0,1.7,0c2.7-0.2,5.8-1.1,9.2-2.9c4.1-2.2,8.2-5.2,12.1-9.1c1.9-1.9,4-5.5,6.9-5.9
		c0.5-0.1,1.1,0,1.6,0.3c0.8,0.4,1.3,1.3,1.4,2.1c0,0.2,0,0.3,0,0.5c0.1,2.5-2,4.4-3.6,6c-4.4,4.5-9.5,8.3-14.9,11.4
		c-5.3,2.9-11.4,4.7-18.2,5.4c-0.4,0-0.8,0.1-1.2,0.1c-4.6,0.3-8.1-0.4-10.6-2.1c-2.8-1.8-4.8-4.3-6.1-7.1c-0.3-0.6-0.5-1.3-0.7-2
		c-0.6,0.8-1.2,1.5-1.8,2.2c-4.2,4.9-9,9.1-14.3,12.5c-5.1,3.4-11.1,5.6-17.8,6.8c-1.2,0.2-2.4,0.3-3.5,0.4
		c-3.5,0.2-6.3-0.3-8.5-1.5c-2.9-1.7-5.1-3.9-6.5-6.7c-1.4-2.8-2.2-5.8-2.4-9.1c-0.2-2.7-0.4-5.8-0.3-8.5c0.2-6.3,1.7-12.7,4.5-19
		c1.2-2.5,2.5-5,3.9-7.4c-3.3,1.2-6.8,2.1-10.5,2.8c-4.4,0.9-9.8,2.4-15.2,3.6c0.2,0.3,0.5,0.6,0.7,0.8c3.1,3.5,6.7,7.1,8.8,11.3
		c2.7,5.3,4.3,12.5,4.7,21.2c0.2,5.5-0.1,11.3-1,17.3c-0.9,5.9-2.2,11.5-4.1,16.6c-1.9,5.1-4.3,9.6-7.2,13.2
		c-2.9,3.6-6.3,5.8-10.1,6.4c-0.4,0.1-0.8,0.1-1.2,0.1c-2.4,0.1-4.4-0.5-6-2c-1.8-1.7-3.2-4-4.2-6.9c-0.9-2.8-1.6-5.9-1.9-9.4
		c-0.4-3.4-0.6-6.8-0.7-10.2c-0.1-3,0-7.2,0.3-12.6c0.3-5.4,0.6-10.8,0.9-16.5c0.3-5.6,0.7-10.9,1.1-15.8c0.2-1.8,0.3-3.4,0.5-4.9
		c0.2-1.7,0.3-3.2,0.4-4.3c-1-0.3-2.3-1.1-3.3-2.2c-1,0.6-2.1,1.3-3.5,2.1c-2.4,1.4-5.1,2.8-8,4.1c-2.8,1.3-5.7,2.4-8.5,3.5
		c-1.6,0.6-3.9,1.3-5.5,1.8c0.4,0.4,0.8,0.8,1.2,1.2c2.6,2.7,6.6,6.8,8.4,10c3,5.3,4.9,12.3,5.7,21c0.5,5.4,0.5,11.3-0.1,17.3
		c-0.5,5.9-1.6,11.5-3.2,16.6c-1.6,5.2-3.8,9.6-6.5,13.2c-2.7,3.7-6,5.9-9.7,6.5c-0.4,0.1-0.9,0.1-1.3,0.2c-2.3,0.1-4.3-0.5-5.9-1.9
		c-1.9-1.6-3.4-3.9-4.5-6.8c-1.1-2.8-1.9-5.9-2.4-9.3c-0.5-3.4-0.9-6.8-1.3-10.2c-0.3-2.9-0.4-7.2-0.4-12.5c0-0.3,0-0.4,0-0.7
		c-0.2,0.3-0.5,0.5-0.7,0.8c-3.1,3.4-7.5,4.1-9.6,4.4c-0.4,0.1-0.7,0.1-0.9,0.1c-0.5,0.4-1.9,3.3-2.8,5.4c-2.8,6-6.7,13-13.3,15.4
		c-3.9,1.4-9.9,1.9-13.6-0.4c-2.2-1.4-4.2-3.2-5.9-5.5c-1.6,5.4-3.8,10.8-6.4,15.9c-3.5,6.7-8.2,12.8-13.9,18.2
		c-5.7,5.3-13.1,9-22.1,10.8c-1.9,0.4-3.7,0.6-5.4,0.7c-4.5,0.3-8.7-0.4-12.5-1.9c-5.3-2.1-10.2-5.3-14.5-9.4
		c-4.3-4.1-8.1-9-11.3-14.7c-3.1-5.6-5.6-11.5-7.4-17.6c-3.2-10.9-4.9-22.7-4.9-35.1c0-7.7,2.8-18.6,5-26.5c0.9-3.2,1.1-4.3,2.2-7.5
		C114.3,396.9,109.6,395.4,104.3,391.7z M427.1,452.2c-0.1,0.1-0.3,0.3-0.4,0.4c-2.1,2-5.4,2-7.5,0c-0.1-0.1-0.3-0.3-0.4-0.4
		c-1.9-1.8-2.2-4.8-0.9-7.1c1-1.8,3-2.9,5-2.9c2.6,0,4.9,1.8,5.6,4.3C429.1,448.5,428.6,450.7,427.1,452.2z M401.5,450.9
		c0,3.8-3.2,7-7,7c-3.8,0-7-3.2-7-7s3.2-7,7-7C398.3,443.9,401.5,447.1,401.5,450.9z M366.1,461.9c-7.4,0-7.4-11.5,0-11.5
		C373.4,450.5,373.4,461.9,366.1,461.9z M436.1,609.9c-1.3,10.1-10,17.8-20.2,17.8H141.7c-10.2,0-18.9-7.6-20.2-17.8l-10.1-77.8
		c52.2-4.8,103.4-20.1,154.3-31.9c61.7-14.4,124.6-27.2,188.2-27.7L436.1,609.9z M477.2,291.7c-64.4-1.3-127.9,5.3-190.9,18.4
		c-66.2,13.8-131.5,30.7-198.2,42.1L58.6,124.2h440.3L477.2,291.7z M508.2,81.9c4.3,0,7.8,3.5,7.8,7.8s-3.5,7.8-7.8,7.8
		c-4.3,0-7.8-3.5-7.8-7.8S503.9,81.9,508.2,81.9z M480.9,83.2c3.6,0,6.7,3,6.7,6.7c0,3.6-3,6.7-6.7,6.7c-3.6,0-6.7-3-6.7-6.7
		C474.2,86.2,477.2,83.2,480.9,83.2z M450.7,84.1c3.1,0,5.7,2.6,5.7,5.7c0,3.1-2.6,5.7-5.7,5.7S445,93,445,89.8
		C445,86.7,447.6,84.1,450.7,84.1z M107,11.1h184.3l-173.6,9.3c-4.9,0.3-9.6,1.6-13.9,3.9L80.1,36.8l11.2-17.2
		C94.7,14.3,100.7,11.1,107,11.1z M52.9,57.1h300.3L66.1,73.5c-5.8,0.3-11.5,2.4-16.2,5.9l-29.7,22l12.4-30.6
		C36,62.5,44,57.1,52.9,57.1z"/>
</g>
</svg>
