<?xml version="1.0" encoding="utf-8"?>
<!-- Generator: Adobe Illustrator 23.1.0, SVG Export Plug-In . SVG Version: 6.00 Build 0)  -->
<svg version="1.1" id="Слой_1" xmlns="http://www.w3.org/2000/svg" xmlns:xlink="http://www.w3.org/1999/xlink" x="0px" y="0px"
	 viewBox="0 0 720 619.6" style="enable-background:new 0 0 720 619.6;" xml:space="preserve">
<g>
	<path d="M124.9,386.4c4.9-2.1,7.1-7.8,5-12.6c-13.7-31.8-20.7-65.6-20.7-100.6c0-140.1,113.9-254,254-254
		c140.1,0,254,113.9,254,254c0,37-7.8,72.7-23.2,106.1c-2.2,4.8-0.1,10.5,4.7,12.8c1.3,0.6,2.7,0.9,4,0.9c3.6,0,7.1-2.1,8.7-5.6
		c16.5-35.9,24.9-74.3,24.9-114.2C636.5,122.6,514,0,363.3,0C212.6,0,90.1,122.6,90.1,273.2c0,37.6,7.5,74,22.3,108.2
		C114.4,386.3,120.1,388.5,124.9,386.4z"/>
	<path d="M590.2,339.9c1.5,0,3-0.4,4.3-1.1c4.4-2.4,6-7.9,3.6-12.3l-78-142.1c-4.7-8.6-13-13.8-22.2-13.8c0,0,0,0-0.1,0
		c-9.2,0-17.5,5.2-22.2,13.9l-25.8,47.4L392,126.1c-6-10.9-16.5-17.4-28-17.4c0,0-0.1,0-0.1,0c-11.6,0-22,6.6-28,17.6l-56.7,104.2
		l-25.3-46.2c-4.7-8.6-13-13.8-22.2-13.8c0,0,0,0-0.1,0c-9.2,0-17.5,5.2-22.2,13.8L156,278.5c-2.5,4.3-0.9,9.8,3.4,12.3
		c1.4,0.8,2.9,1.2,4.4,1.2c3.1,0,6.2-1.6,7.9-4.6l23.3-41.2l15.2,14c1.3,1.2,2.9,1.8,4.6,1.8c1.1,0,2.2-0.3,3.2-0.8l24.3-13.3
		l21.7,10.4L226,328c-2.4,4.4-0.8,9.9,3.6,12.2c1.4,0.7,2.8,1.1,4.3,1.1c3.2,0,6.3-1.7,7.9-4.7l60.5-111.2l28.5-13.2l28.8,18.5
		c2.2,1.4,5.1,1.4,7.3,0l28.3-18.2l33.6,20.1c0.3,0.2,0.6,0.3,0.9,0.5l30.8,56.3c2.4,4.4,7.9,6,12.3,3.6c4.4-2.4,6-7.9,3.6-12.3
		l-14.6-26.7l18.1-5l22.4,15.8c1.2,0.8,2.5,1.2,3.9,1.2c1.3,0,2.6-0.4,3.7-1.1l24.7-16.4l47.6,86.8C584,338.2,587,339.9,590.2,339.9
		z M238.9,234.4l-23,12.6l-14-12.9l23.2-41c1.5-2.8,3.9-4.5,6.4-4.5c0,0,0,0,0,0c2.5,0,4.9,1.6,6.4,4.4l28.1,51.2l-21-10.1
		C243.1,233.3,240.8,233.3,238.9,234.4z M398.6,198.8c-2.2-1.3-4.9-1.3-7.1,0.1L363.3,217l-28.2-18.1c-1.9-1.2-4.4-1.4-6.5-0.4
		l-15.4,7.1l38.5-70.7c2.8-5.2,7.3-8.2,12.2-8.2c0,0,0,0,0,0c4.9,0,9.4,3,12.2,8.1l41.1,75L398.6,198.8z M506.4,251l-21.2-15
		c-1.7-1.2-3.7-1.5-5.7-1l-12.7,3.5l24.7-45.5c1.5-2.8,3.9-4.5,6.4-4.5c0,0,0,0,0,0c2.5,0,4.9,1.6,6.4,4.4l23.9,43.5L506.4,251z"/>
	<path d="M144.9,365c2.9,0,5.2-2.3,5.2-5.2v-12.7c4.5,2.7,9.6,4.4,13.5,5.2c0.4,0.1,0.8,0.1,1.2,0.1c2.8,0,5.3-2,5.9-4.8
		c0.6-3.2-1.5-6.4-4.7-7.1c-3.1-0.6-14.8-4.2-15.1-10.5c4,2.4,7.6,3.4,7.9,3.5c0.4,0.1,0.9,0.2,1.3,0.2c2.3,0,4.4-1.6,5.1-3.9
		c0.7-2.8-0.9-5.7-3.7-6.4c-0.1,0-11.4-3.2-11.4-11.6V309c4.3,2.8,8.4,3.9,8.7,4c0.4,0.1,0.9,0.2,1.3,0.2c2.3,0,4.5-1.6,5.1-3.9
		c0.7-2.8-0.9-5.7-3.8-6.4c-0.1,0-11.4-3.1-11.4-11.5c0-2.9-2.3-5.2-5.2-5.2s-5.2,2.3-5.2,5.2c0,8.3-11.2,11.5-11.4,11.6
		c-2.8,0.7-4.5,3.6-3.7,6.4c0.6,2.4,2.7,3.9,5.1,3.9c0.4,0,0.9-0.1,1.3-0.2c0.4-0.1,4.4-1.2,8.7-4v2.9c0,8.3-11.2,11.5-11.4,11.6
		c-2.8,0.7-4.5,3.6-3.7,6.4c0.6,2.4,2.7,3.9,5.1,3.9c0.4,0,0.9-0.1,1.3-0.2c0.3-0.1,3.8-1.1,7.8-3.4c-1.9,8.2-8.3,10.2-9.2,10.4
		c-3.2,0.8-5.1,4-4.3,7.2c0.7,2.7,3.1,4.6,5.8,4.6c0.5,0,0.9-0.1,1.4-0.2c0.3-0.1,3.5-0.9,7.2-3.4v10.9
		C139.6,362.7,142,365,144.9,365z"/>
	<path d="M199.6,365c2.9,0,5.2-2.3,5.2-5.2v-12.7c4.5,2.7,9.6,4.4,13.5,5.2c0.4,0.1,0.8,0.1,1.2,0.1c2.8,0,5.3-2,5.9-4.8
		c0.7-3.2-1.4-6.4-4.7-7.1c-3.2-0.6-14.8-4.3-15.1-10.5c4,2.4,7.6,3.4,7.9,3.5c0.4,0.1,0.9,0.2,1.3,0.2c2.3,0,4.4-1.6,5.1-3.9
		c0.7-2.8-0.9-5.7-3.7-6.4c-0.1,0-11.4-3.2-11.4-11.6V309c4.3,2.8,8.4,3.9,8.7,4c0.4,0.1,0.9,0.2,1.3,0.2c2.3,0,4.4-1.6,5.1-3.9
		c0.7-2.8-0.9-5.7-3.7-6.4c-0.1,0-11.4-3.2-11.4-11.6c0-2.9-2.3-5.2-5.2-5.2c-2.9,0-5.2,2.3-5.2,5.2c0,8.3-11.2,11.5-11.4,11.6
		c-2.8,0.7-4.5,3.6-3.7,6.4c0.6,2.4,2.7,3.9,5.1,3.9c0.4,0,0.9-0.1,1.3-0.2c0.4-0.1,4.4-1.2,8.7-4v2.9c0,8.3-11.2,11.5-11.4,11.6
		c-2.8,0.7-4.5,3.6-3.7,6.4c0.6,2.4,2.7,3.9,5.1,3.9c0.4,0,0.9-0.1,1.3-0.2c0.3-0.1,3.9-1.1,7.9-3.5c-0.3,6.2-12,9.8-15.1,10.5
		c-3.2,0.7-5.3,3.8-4.7,7.1c0.6,2.8,3.1,4.8,5.9,4.8c0.4,0,0.8,0,1.2-0.1c3.9-0.8,9-2.5,13.5-5.2v12.7
		C194.3,362.7,196.7,365,199.6,365z"/>
	<path d="M447.8,365c2.9,0,5.2-2.3,5.2-5.2v-12.7c4.5,2.7,9.6,4.4,13.5,5.2c0.4,0.1,0.8,0.1,1.2,0.1c2.8,0,5.3-2,5.9-4.8
		c0.7-3.2-1.4-6.4-4.7-7.1c-3.2-0.6-14.8-4.3-15.1-10.5c4,2.4,7.6,3.4,7.9,3.5c0.4,0.1,0.9,0.2,1.3,0.2c2.3,0,4.4-1.6,5.1-3.9
		c0.7-2.8-0.9-5.7-3.7-6.4c-0.1,0-11.4-3.2-11.4-11.6V309c4.3,2.8,8.4,3.9,8.7,4c0.4,0.1,0.9,0.2,1.3,0.2c2.3,0,4.4-1.6,5.1-3.9
		c0.7-2.8-0.9-5.7-3.7-6.4c-0.1,0-11.4-3.2-11.4-11.6c0-2.9-2.3-5.2-5.2-5.2c-2.9,0-5.2,2.3-5.2,5.2c0,8.3-11.2,11.5-11.4,11.6
		c-2.8,0.7-4.5,3.6-3.7,6.4c0.6,2.4,2.7,3.9,5.1,3.9c0.4,0,0.9-0.1,1.3-0.2c0.4-0.1,4.4-1.2,8.7-4v2.9c0,8.3-11.2,11.5-11.4,11.6
		c-2.8,0.7-4.5,3.6-3.7,6.4c0.6,2.4,2.7,3.9,5.1,3.9c0.4,0,0.9-0.1,1.3-0.2c0.3-0.1,3.9-1.1,7.9-3.5c-0.3,6.2-12,9.8-15.1,10.5
		c-3.2,0.7-5.3,3.8-4.7,7.1c0.6,2.8,3.1,4.8,5.9,4.8c0.4,0,0.8,0,1.2-0.1c3.9-0.8,9-2.5,13.5-5.2v12.7
		C442.6,362.7,444.9,365,447.8,365z"/>
	<path d="M516.3,365c2.9,0,5.2-2.3,5.2-5.2v-12.7c4.5,2.7,9.6,4.4,13.5,5.2c0.4,0.1,0.8,0.1,1.2,0.1c2.8,0,5.3-2,5.9-4.8
		c0.7-3.2-1.4-6.4-4.7-7.1c-3.2-0.6-14.8-4.3-15.1-10.5c4,2.4,7.6,3.4,7.9,3.5c0.4,0.1,0.9,0.2,1.3,0.2c2.3,0,4.4-1.6,5.1-3.9
		c0.7-2.8-0.9-5.7-3.7-6.4c-0.1,0-11.4-3.2-11.4-11.6V309c4.3,2.8,8.4,3.9,8.7,4c0.4,0.1,0.9,0.2,1.3,0.2c2.3,0,4.4-1.6,5.1-3.9
		c0.7-2.8-0.9-5.7-3.7-6.4c-0.1,0-11.4-3.2-11.4-11.6c0-2.9-2.3-5.2-5.2-5.2c-2.9,0-5.2,2.3-5.2,5.2c0,8.3-11.1,11.5-11.4,11.6
		c-2.8,0.7-4.5,3.6-3.7,6.4c0.6,2.4,2.7,3.9,5.1,3.9c0.4,0,0.9-0.1,1.3-0.2c0.4-0.1,4.4-1.2,8.7-4v2.9c0,8.3-11.2,11.5-11.4,11.6
		c-2.8,0.7-4.5,3.6-3.7,6.4c0.6,2.4,2.7,3.9,5.1,3.9c0.4,0,0.9-0.1,1.3-0.2c0.3-0.1,3.9-1.1,7.9-3.5c-0.3,6.2-12,9.8-15.1,10.5
		c-3.2,0.7-5.3,3.8-4.7,7.1c0.6,2.8,3.1,4.8,5.9,4.8c0.4,0,0.8,0,1.2-0.1c3.9-0.8,9-2.5,13.5-5.2v12.7
		C511,362.7,513.4,365,516.3,365z"/>
	<path d="M548.1,379.5l6.5,4.5c4.2,2.9,9.2,4.4,14.2,4.4c5,0,10-1.5,14.2-4.4c2.6-1.8,3.2-5.4,1.4-8c-1.8-2.6-5.4-3.2-8-1.4
		c-4.5,3.1-11,3.1-15.4,0l-9.7-6.8c-2-1.4-4.6-1.4-6.5,0l-9.7,6.8c-4.5,3.1-11,3.1-15.4,0l-9.7-6.8c-2-1.4-4.6-1.4-6.5,0l-9.7,6.8
		c-4.5,3.1-11,3.1-15.4,0l-9.7-6.8c-2-1.4-4.6-1.4-6.5,0l-9.7,6.8c-4.5,3.1-11,3.1-15.4,0l-9.7-6.8c-2-1.4-4.6-1.4-6.5,0l-9.7,6.8
		c-4.5,3.1-11,3.1-15.4,0l-9.7-6.8c-2-1.4-4.6-1.4-6.5,0l-9.7,6.8c-4.5,3.1-11,3.1-15.4,0l-9.7-6.8c-2-1.4-4.6-1.4-6.5,0l-9.7,6.8
		c-4.5,3.1-11,3.1-15.4,0l-9.7-6.8c-2-1.4-4.6-1.4-6.5,0l-9.7,6.8c-4.5,3.1-11,3.1-15.4,0l-9.7-6.8c-2-1.4-4.6-1.4-6.5,0l-9.7,6.8
		c-4.5,3.1-11,3.1-15.4,0l-9.7-6.8c-2-1.4-4.6-1.4-6.5,0l-9.7,6.8c-4.5,3.1-11,3.1-15.4,0l-9.7-6.8c-2-1.4-4.6-1.4-6.5,0l-9.7,6.8
		c-4.5,3.1-11,3.1-15.4,0c-2.6-1.8-6.2-1.2-8,1.4c-1.8,2.6-1.2,6.1,1.4,8c8.4,5.8,20.1,5.8,28.5,0l6.5-4.5l6.5,4.5
		c8.4,5.8,20.1,5.8,28.5,0l6.5-4.5l6.4,4.5c8.4,5.8,20.1,5.8,28.5,0l6.4-4.5l6.4,4.5c8.4,5.8,20.1,5.8,28.5,0l6.5-4.5l6.4,4.5
		c8.4,5.8,20.1,5.8,28.5,0l6.5-4.5l6.5,4.5c8.4,5.8,20.1,5.8,28.5,0l6.5-4.5l6.5,4.5c8.4,5.8,20.1,5.8,28.5,0l6.5-4.5l6.5,4.5
		c8.4,5.8,20.1,5.8,28.5,0l6.5-4.5l6.5,4.5c8.4,5.8,20.1,5.8,28.5,0l6.5-4.5l6.5,4.5c8.4,5.8,20.1,5.8,28.5,0L548.1,379.5z"/>
	<path d="M457.1,410.6c2.3-1.8,2.8-5.2,0.9-7.6c-1.8-2.3-5.2-2.8-7.6-0.9l-8.6,6.8c-3.8,3-9.1,3-12.9,0l-8.6-6.8
		c-1.9-1.5-4.7-1.5-6.6,0l-8.6,6.8c-3.8,3-9.1,3-12.9,0l-8.6-6.8c-1.9-1.5-4.7-1.5-6.6,0l-8.6,6.8c-3.8,3-9.1,3-12.9,0l-8.6-6.8
		c-1.9-1.5-4.7-1.5-6.6,0l-8.6,6.8c-3.8,3-9.1,3-12.9,0l-8.6-6.8c-1.9-1.5-4.7-1.5-6.6,0l-8.6,6.8c-3.8,3-9.1,3-12.9,0l-8.6-6.8
		c-1.9-1.5-4.7-1.5-6.6,0l-8.6,6.8c-3.8,3-9.1,3-12.9,0l-8.6-6.7c-1.9-1.5-4.7-1.5-6.6,0l-8.6,6.8c-3.8,3-9.1,3-12.9,0l-8.6-6.8
		c-1.9-1.5-4.7-1.5-6.6,0l-8.6,6.8c-1.4,1.1-3,1.8-4.7,2.1c-3.6,0.6-5.4,0.1-7.4-0.8c-2.7-1.3-5.9-0.2-7.2,2.4
		c-1.3,2.7-0.2,5.9,2.4,7.2c3,1.5,5.9,2.2,9.2,2.2c1.5,0,3-0.1,4.7-0.4c3.5-0.6,6.8-2,9.6-4.2l5.3-4.2l5.3,4.2c7.7,6,18.4,6,26.1,0
		l5.3-4.2l5.3,4.2c7.7,6,18.4,6,26.1,0l5.3-4.2l5.3,4.2c7.7,6,18.4,6,26.1,0l5.3-4.2l5.3,4.2c7.7,6,18.4,6,26.1,0l5.3-4.2l5.3,4.2
		c7.7,6,18.4,6,26.1,0l5.3-4.2l5.3,4.2c7.7,6,18.4,6,26.1,0l5.3-4.2l5.3,4.2c7.7,6,18.4,6,26.1,0L457.1,410.6z"/>
	<path d="M275,55.6c-19.1,0-34.6,15.5-34.6,34.6c0,6.7,2,13,5.3,18.3l-0.3,0.1c4,9.4,7.5,19.2,10.3,29l0,0l5.8,20.1
		c0.6,2.1,2.5,3.5,4.6,3.5h17.6c2.1,0,4-1.4,4.6-3.4l5.9-20.1c0,0,0,0,0,0l0,0c2.8-9.8,6.3-19.6,10.3-29l-0.3-0.1
		c3.3-5.3,5.3-11.6,5.3-18.3C309.6,71.1,294.1,55.6,275,55.6z M300,90.2c0,12.1-8.7,22.3-20.2,24.5v-49C291.3,67.9,300,78,300,90.2z
		 M270.2,65.7v49c-11.5-2.2-20.2-12.4-20.2-24.5C250,78,258.7,67.9,270.2,65.7z M263.9,131.5c-1-3.3-2.1-6.6-3.2-9.9
		c3,1.4,6.2,2.3,9.5,2.8v7.1H263.9z M280.1,151.7h-10.4l-3-10.5h16.5L280.1,151.7z M279.8,131.5v-7.1c3.4-0.5,6.6-1.4,9.5-2.8
		c-1.1,3.3-2.2,6.6-3.2,9.9H279.8z"/>
	<path d="M520.7,127.3c2.8,0,5.2-2,5.7-4.8c0.2-1.1,0.3-2.1,0.3-3c0-9-6.4-16.6-14.9-18.3c-2.4-8.9-10.5-15.4-20.1-15.4
		c-0.4,0-0.8,0-1.2,0c-4.3-6.2-11.4-10.1-19.1-10.1c-11,0-20.2,7.7-22.6,18c-6.5,1.7-11.5,7.2-12.5,14c-5.5,2.2-9.4,7.6-9.4,13.9
		c0,3.2,2.6,5.7,5.7,5.7H520.7z M447.6,111.3c-0.1-0.4-0.1-0.7-0.1-1.1c0-3.1,2.5-5.6,5.6-5.6l0.4,0c1.6,0.1,3.2-0.4,4.3-1.5
		c1.2-1.1,1.8-2.6,1.8-4.2c0,0,0-0.1,0-0.1c0-6.4,5.3-11.6,11.7-11.6c4.7,0,8.9,2.8,10.8,7.1c1.1,2.7,4.1,4.1,6.9,3.3
		c0.9-0.3,1.8-0.4,2.6-0.4c5.1,0,9.3,4.1,9.3,9.2c0,0,0,0.1,0,0.1c0,1.6,0.7,3.2,1.9,4.3c1.2,1.1,2.8,1.6,4.4,1.5c0.2,0,0.5,0,0.8,0
		c2.6,0,5,1.4,6.2,3.6h-67.7C447.5,114.5,447.9,112.9,447.6,111.3z"/>
	<path d="M127.6,189.8c0,3.2,2.6,5.7,5.7,5.7h44c2.8,0,5.2-2,5.7-4.8c0.2-1.1,0.3-2.1,0.3-3.1c0-9-6.4-16.6-14.9-18.3
		c-2.4-8.9-10.5-15.4-20.1-15.4c-2,0-4,0.3-5.9,0.9c-3,0.9-4.8,4.1-3.9,7.1c0.9,3,4.1,4.8,7.1,3.9c0.9-0.3,1.8-0.4,2.6-0.4
		c5.1,0,9.2,4.1,9.3,9.2c0,0.1,0,0.1,0,0.2c0,1.6,0.7,3.2,1.9,4.3c1.2,1.1,2.8,1.6,4.4,1.4c0.2,0,0.5,0,0.7,0c2.6,0,5,1.4,6.2,3.6
		h-37.5C130.2,184,127.6,186.6,127.6,189.8z"/>
	<path d="M578,161.4c-8.7-0.3-16.1,6.2-17.4,14.5c-5.5,2.2-9.4,7.6-9.4,13.9c0,3.2,2.6,5.7,5.7,5.7h31.5c3.2,0,5.7-2.6,5.7-5.7
		c0-3.2-2.6-5.7-5.7-5.7H571c1-1.3,1.4-2.9,1.1-4.5c-0.1-0.4-0.1-0.7-0.1-1.1c0-3.1,2.5-5.6,5.6-5.6l0.4,0c1.6,0.1,3.2-0.4,4.3-1.5
		c1.2-1.1,1.8-2.6,1.8-4.2c0-0.1,0-0.2,0-0.3C584,163.7,581.2,161.2,578,161.4z"/>
	<path d="M116,514c-7.1-4.8-16-6.7-26.5-6.1c-9.9,0.6-18.1,2.4-24.3,5.8c-6.3,3.4-11,7.5-14.2,12.3c-3.2,4.9-4.9,10.1-5.2,15.8
		c-0.3,5.6,0.6,10.8,2.7,15.6c2.1,4.7,5.2,8.6,9.4,11.6c4.2,3,9.2,4.3,15,4c4.9-0.3,9.1-1.7,12.7-4.2c3.6-2.5,5.9-5.9,7.1-10.2
		c0.4-1.2,0-2.2-0.7-3.1c-0.6-0.7-1.6-1.1-3.1-0.7c-4.4,1.5-8.3,1.7-11.5,0.5c-3.2-1.1-5.6-3-7.2-5.5c-1.6-2.5-2.5-5.4-2.7-8.8
		c-0.1-3.3,0.6-6.5,2.1-9.6c1.6-3,4-5.7,7.2-7.9c3.3-2.2,7.4-3.5,12.5-3.8c5.2-0.4,9.4,1.4,12.8,5.2c3.3,3.8,5.6,8.8,6.9,14.9
		c1.3,6.1,1.4,12.8,0.6,20c-0.9,7.2-2.9,14-6.1,20.5c-3.2,6.5-7.6,12-13.2,16.4c-5.6,4.5-12.5,7-20.7,7.4c-8.7,0.5-16-1.4-21.9-5.5
		c-5.9-4.1-10.3-9.6-13.3-16.3c-3-6.7-4.7-14.3-5-22.5c-0.3-8.3,0.9-16.5,3.4-24.5c2.6-8.1,6.6-15.6,12.1-22.5
		c5.5-6.9,12.4-12.4,20.7-16.4c1.5-0.7,1.9-1.8,1.8-3c-0.1-1.3-0.7-2.4-2-2.8c-7.4-2.6-13.1-6.4-17-11.3c-3.9-5-6.5-10.3-7.7-16.1
		c-1.2-5.7-1.2-11.6,0.1-17.6c1.3-6,3.5-11.4,6.7-16.4c3.2-4.9,7.2-9,11.9-12.3c4.7-3.3,10-5.1,15.8-5.4c5.9-0.3,10.5,0.4,13.8,2.3
		c3.3,1.9,5.5,4.4,6.8,7.3c1.3,2.9,1.6,6.1,1.1,9.4c-0.5,3.3-1.7,6.1-3.4,8.3c-3,3.9-5.5,7.8-7.7,11.5c-2.2,3.8-3.2,7.7-3.2,11.9
		c0,4,0.7,7.1,2.2,9.2c1.5,2.1,3.3,3.5,5.3,4.2c2.1,0.7,4.2,0.7,6.3,0.2c2.1-0.5,4-1.4,5.4-2.5c0.7-0.8,1.1-1.6,1.1-2.3
		c0-0.9-0.4-1.5-1.3-1.9c-1.6-0.8-3-1.8-4.1-3.2c-1.1-1.4-1.7-2.8-1.7-4.3c0-5,1.7-9.8,5-14.2c3.3-4.4,7-8.7,11-12.9
		c4-4.2,7.7-8.3,11-12.4c3.3-4.1,5-8.2,5-12.3c0-4.3-0.9-7.6-2.6-10c-1.7-2.4-3.7-3.9-6-4.7c-2.3-0.8-4.7-0.9-7.2-0.5
		c-2.5,0.4-4.5,1.2-6,2.4c-0.9,0.5-1.2,1.4-1.1,2.3c0.1,0.8,0.5,1.5,1.6,1.9c1.1,0.4,2.1,0.9,2.7,1.6c0.6,0.7,1,1.5,1.3,2.3
		c0.3,0.9,0.4,1.7,0.4,2.6c0,0.9,0,1.6,0,2.2c0,1.2-0.1,2.1-0.2,2.7c-0.3,0.9-0.7,1.4-1.3,1.4c-0.9,0.1-1.4-0.1-1.6-0.5
		c-2.5-3.8-6.4-6.9-11.8-9.3c-5.3-2.4-12.5-3.3-21.3-2.8c-12,0.7-22,3.1-30,7.4c-8,4.3-14.3,9.5-18.9,15.8
		c-4.6,6.3-7.6,13.1-9.1,20.5c-1.5,7.4-1.6,14.5-0.4,21.2c1.2,6.7,3.5,12.7,7,17.8c3.5,5.1,7.9,8.5,13.2,10.1
		c0.7,0.4,1.1,0.9,1.1,1.3c0,0.7-0.3,1.3-0.9,1.6c-9.3,4.9-16.9,11.2-22.7,19.2c-5.8,7.9-9.8,16.4-12,25.5c-2.2,9.1-2.6,18.4-1,27.8
		c1.6,9.4,5.1,18,10.7,25.6c5.6,7.7,13.2,13.8,22.8,18.3c9.6,4.5,21.4,6.5,35.4,5.7c14.5-0.8,26.6-4.4,36.2-10.6
		c9.6-6.2,16.9-13.6,21.9-22.3c5-8.7,7.7-17.8,8.2-27.3c0.5-9.5-0.9-18.3-4.3-26.2C128.4,525.2,123.2,518.8,116,514z"/>
	<path d="M242.1,452c1.9-0.9,3.3-1.8,4.2-2.7c0.9-0.9,1.2-1.6,1-2.1c-0.2-0.6-0.6-0.8-1-0.7c-9.9,1.4-14.8,2.1-24.7,3.4
		c-0.7,0.1-1.3,0.4-1.8,1c-0.4,0.6-0.3,1.2,0.2,1.9c0.4,0.5,0.8,1.3,1,2.2c0.2,0.9-0.6,2.9-2.3,5.8c-7.6,12.5-11.3,18.7-18.9,31.1
		c-6.8-10.8-10.3-16.2-17.1-27c-1.2-1.9-1.8-3.4-1.9-4.3c-0.1-1,0.4-1.9,1.2-2.7c0.7-0.8,1-1.5,0.9-2.1c-0.1-0.6-0.4-0.8-0.9-0.8
		c-13.4,1.6-20.1,2.3-33.6,3.7c-0.4,0-0.7,0.4-0.9,1c-0.1,0.6,0.2,1.3,0.9,1.9c0.8,0.7,2.2,1.3,4,2c1.8,0.7,3.4,2.2,4.9,4.4
		c11.6,18.7,17.3,28,28.9,46.5c-11.2,18.4-16.8,27.6-28,45.9c-2.1,3.2-4.1,5.3-6.1,6.2c-2,1-3.5,1.8-4.3,2.7c-0.7,0.8-1,1.5-0.9,2
		c0.1,0.5,0.4,0.7,0.9,0.7c8.3-0.8,12.4-1.3,20.7-2.2c0.3,0,0.9-0.1,1.8-0.2c0.9-0.1,1.7-0.3,2.4-0.5c0.7-0.2,1.3-0.6,1.8-1
		c0.4-0.4,0.3-1-0.2-1.6c-0.4-0.5-0.8-1.2-1.1-2.1c-0.3-0.9,0.4-2.8,2.2-5.8c7.6-12.4,11.5-18.7,19.1-31.2
		c6.8,10.8,10.1,16.2,16.9,27c1.2,1.9,1.9,3.4,2,4.4c0.1,1-0.2,2.1-1.1,3c-0.8,0.9-1.3,1.5-1.1,2c0.1,0.5,0.5,0.7,1.1,0.6
		c13.3-1.7,20-2.7,33.4-4.5c0.4-0.1,0.8-0.4,1-0.9c0.2-0.6-0.1-1.1-1-1.7c-0.9-0.6-2.2-1.3-4-2c-1.8-0.7-3.3-2.2-4.7-4.6
		c-11.6-18.1-17.3-27.2-28.9-45.5c11.2-18.5,16.8-27.8,28-46.4C238.2,455.2,240.2,453,242.1,452z"/>
	<path d="M323.6,439.9c-5.3-2.5-12-3.1-20.1-1.9c-7.1,1.1-10.7,1.6-17.8,2.7c-10.3,1.6-15.5,2.3-25.8,3.8c-2,0.3-3.1,0.4-5.1,0.7
		c-0.4,0.1-0.8,0.4-1,1c-0.2,0.6,0.1,1.2,1,1.9c0.9,0.6,2,1.3,3.2,2.1c1.3,0.8,1.9,2.4,1.9,4.7c0,29.5,0,59,0,88.5
		c0,4.1-0.6,7.1-1.8,8.7c-1.2,1.7-2.3,2.9-3.3,3.6c-1,0.6-1.4,1.2-1.1,1.8c0.3,0.6,0.7,0.9,1.1,0.8c2-0.3,3.1-0.4,5.1-0.7
		c10.3-1.5,15.5-2.3,25.8-3.8c2-0.3,3.1-0.5,5.1-0.8c0.4-0.1,0.8-0.5,1.1-1.2c0.3-0.7-0.2-1.2-1.1-1.5c-1-0.3-2.2-1.3-3.3-2.6
		c-1.2-1.3-1.8-4-1.8-8.2c0-12.4,0-18.5,0-30.9c6.4-1,9.6-1.5,16-2.4c7.6-1.2,14-3.8,19.2-8c5.3-4.2,9.3-9,12.2-14.5
		c2.9-5.5,4.5-11.2,4.9-17.2c0.4-6-0.6-11.3-3-16C332.7,446,328.9,442.4,323.6,439.9z M315.4,470.1c-0.2,3.8-1.1,7.4-2.8,10.8
		c-1.6,3.4-4,6.4-7.1,9c-3.1,2.6-6.9,4.3-11.3,5c-3.4,0.5-5.1,0.8-8.5,1.3c0-17.2,0-25.7,0-42.9c3.8-0.6,5.7-0.9,9.6-1.4
		c4.7-0.7,8.7-0.2,11.8,1.4c3.1,1.7,5.3,4,6.7,6.9C315,462.9,315.6,466.3,315.4,470.1z"/>
	<path d="M420.9,491.3c-2.7-1.8-6.2-2.4-10.5-1.7c-5,0.8-8.6,2.6-10.8,5.4c-2.2,2.8-3.5,5.7-3.7,8.3c-0.2,2.9,0.9,5,3,5.9
		c2.1,1,4.3,0.7,6.3-0.8c0.1-0.2,0.5-0.4,1.1-0.7c0.6-0.3,1.2-0.4,1.8-0.4c0.6,0.1,1.1,0.5,1.6,1.2c0.4,0.7,0.7,2.1,0.7,4
		c-0.1,2.3-1,4.5-2.2,6.3c-1.2,1.7-3,3.5-5.6,5.1c-2.5,1.6-6.2,2.7-10.9,3.5c-5.8,0.9-8.7,1.4-14.5,2.3c0-30.9,0-61.8,0-92.7
		c0-2.4,0.6-4.1,1.9-5.3c1.3-1.2,2.4-2.2,3.2-3.1c0.7-0.8,1-1.6,0.9-2.1c-0.1-0.6-0.4-0.8-0.9-0.8c-14.4,2.3-21.6,3.4-36,5.7
		c-0.4,0.1-0.8,0.4-1,1c-0.2,0.6,0.1,1.2,1,1.8c0.9,0.6,2,1.3,3.2,2.1c1.3,0.8,1.9,2.3,1.9,4.7c0,29.5,0,59,0,88.5
		c0,4.1-0.6,7.1-1.8,8.7c-1.2,1.7-2.3,3-3.3,3.6c-1,0.6-1.4,1.3-1.1,2c0.3,0.7,0.7,1,1.1,0.9c25.8-4,38.7-6.1,64.5-10.1
		c3.6-0.5,6.6-2.1,9.1-4.7c2.5-2.6,4.5-5.7,5.9-9.2c1.4-3.5,2.2-7.3,2.4-11.3c0.2-4-0.3-7.5-1.6-10.7
		C425.5,495.6,423.6,493.1,420.9,491.3z"/>
	<path d="M510.7,423.4c-4-4.6-8.7-8-14-10.3c-5.3-2.2-11-2.9-17.1-2.1c-6.1,0.9-11.8,3.1-17.1,6.9c-5.3,3.7-10,8.5-14,14.2
		c-4,5.7-7.2,12.2-9.5,19.4c-2.3,7.2-3.4,14.7-3.4,22.4c0,7.9,1.1,15.1,3.4,21.6c2.3,6.5,5.4,12.1,9.5,16.6c4,4.5,8.7,7.9,14,10.1
		c5.3,2.2,11,2.9,17.1,2c6.1-0.8,11.8-3.1,17.1-6.8c5.3-3.7,10-8.3,14-14c4-5.6,7.2-12,9.5-19.2c2.3-7.2,3.4-14.7,3.4-22.6
		c0-7.7-1.1-14.9-3.4-21.5C517.9,433.6,514.7,428,510.7,423.4z M496.6,482.7c-1,5.5-2.3,10.4-4,14.7c-1.7,4.2-3.7,7.7-5.9,10.4
		c-2.2,2.7-4.6,4.2-7.1,4.5c-2.5,0.4-4.9-0.5-7.2-2.5c-2.3-2-4.3-5-5.9-8.7c-1.6-3.8-2.9-8.3-3.9-13.6c-1-5.3-1.4-11-1.4-17.2
		c0-6.1,0.5-11.9,1.4-17.4c1-5.5,2.3-10.4,3.9-14.7c1.6-4.2,3.6-7.7,5.9-10.4c2.3-2.7,4.7-4.2,7.2-4.6c2.5-0.4,4.9,0.5,7.1,2.6
		c2.2,2.1,4.2,5,5.9,8.8c1.7,3.8,3,8.3,4,13.6c1,5.3,1.4,11,1.4,17C498.1,471.3,497.6,477.1,496.6,482.7z"/>
	<path d="M617.2,478.4c-0.7-0.4-1.5-0.4-2.2-0.2c-0.7,0.3-1.3,0.8-1.6,1.6c-0.4,1.4-1.6,2.6-3.3,3.7c-1.8,1.1-3.8,1.6-6,1.4
		c-2.2-0.2-4.5-1.2-6.8-3.2c-2.3-1.9-4.3-5.2-6.1-9.8c-0.4-1.3-0.9-2.5-1.4-3.5c-0.5-1.1-1-2.1-1.4-3.1c6.1-1.9,11.2-4.9,15.3-9.2
		c4.1-4.2,7.2-8.9,9.2-14c2-5.1,2.9-10.4,2.8-15.8c-0.1-5.4-1.5-10.3-4.1-14.6c-2.6-4.3-6.4-7.7-11.5-10.3c-5-2.5-11.3-3.4-18.9-2.7
		c-17.4,1.7-26.2,2.7-43.6,4.7c-2,0.2-3.1,0.4-5.1,0.6c-0.4,0.1-0.8,0.4-1,1c-0.2,0.6,0.1,1.2,1,1.9c0.9,0.6,2,1.4,3.2,2.2
		c1.3,0.8,1.9,2.4,1.9,4.8c0,29.5,0,59,0,88.5c0,4.1-0.6,7-1.8,8.7c-1.2,1.6-2.3,2.9-3.3,3.5c-1,0.6-1.4,1.2-1.1,1.8
		c0.3,0.6,0.7,0.9,1.1,0.9c14.4-1.7,21.6-2.6,36-4.1c0.4,0,0.8-0.4,1.1-1.1c0.3-0.7-0.2-1.2-1.1-1.6c-1-0.4-2.2-1.4-3.3-2.8
		c-1.2-1.4-1.8-4.1-1.8-8.3c0-12.4,0-18.5,0-30.9c2-0.2,3.1-0.3,5.1-0.5c2.5,1.5,4.4,3.7,5.8,6.4c1.3,2.8,2.4,5.8,3.2,9
		c0.8,3.3,1.6,6.5,2.4,9.9c0.8,3.3,2,6.3,3.6,8.9c1.6,2.6,3.7,4.6,6.4,6.2c2.7,1.5,6.5,2.1,11.2,1.7c6.4-0.6,11.2-2.2,14.5-5.1
		c3.3-2.8,5.4-6,6.3-9.5c1-3.5,1-6.9,0-10.1C621.1,482.2,619.5,479.8,617.2,478.4z M583.2,450.7c-3.1,2.4-6.9,3.9-11.3,4.4
		c-3.4,0.3-5.1,0.5-8.4,0.9c0-17.2,0-25.7,0-42.9c3.8-0.4,5.7-0.6,9.6-1c4.7-0.5,8.7,0.2,11.8,2.1c3.1,1.9,5.3,4.3,6.7,7.3
		c1.3,3,1.9,6.4,1.7,10.2c-0.2,3.8-1.1,7.3-2.8,10.6C588.7,445.4,586.3,448.3,583.2,450.7z"/>
	<path d="M719.4,483c-0.8-1.1-2-1.7-3.4-1.7c-3,0-4.5,0-7.6,0.1c-2.1,0-3.6,0.6-4.7,1.7c-1,1.1-3,3.1-5.8,6.1
		c-1.8,1.9-3.8,3.4-6.1,4.4c-2.3,1-4.7,1.5-7.2,1.6c-4.1,0.1-6.1,0.2-10.2,0.3c-3,0.1-5.3-0.5-6.9-1.7c-1.6-1.3-2.8-3-3.6-5.1
		c-0.7-2.1-1.2-4.4-1.3-6.8c-0.1-2.4-0.2-4.8-0.2-7c0-0.2,0-0.3,0-0.4c0-7.4,1.6-13.1,4.8-17.1c3.2-4,6.6-6.4,10.2-7.4
		c3.6-0.9,6.7-0.4,9.3,1.7c2.6,2.1,3.3,5.5,2.1,10.3c0,0.7,0.3,1.2,0.7,1.5c0.4,0.3,1,0.5,1.8,0.2c3.4-1.9,5.9-4.6,7.4-8.1
		c1.6-3.6,2-7.1,1.4-10.6c-0.6-3.5-2.3-6.5-5.2-9.1c-2.9-2.6-7.1-3.8-12.6-3.7c-3.9,0.1-7,0.8-9.5,2.1c-2.4,1.3-4.6,2.6-6.1,4
		c-1.8,1.6-3.3,3.5-4.4,5.5c0-15.4,0-23.2,0-38.6c8-0.4,12-0.5,20-0.8c2.5-0.1,4.9,0.2,7.2,0.8c2.3,0.6,4.3,1.9,5.9,3.5
		c1.4,1.5,2.7,2.7,3.7,3.7c1,1,1.8,1.8,2.4,2.4c0.7,0.6,1.3,1,2,1.2c0.7,0.2,1.5,0.3,2.6,0.3c3,0,4.5,0,7.6-0.1
		c1.5,0,2.6-0.6,3.3-1.7c0.7-1.1,0.7-2.5,0-4.1c-3.1-6-4.7-9.1-7.8-15.1c-1.6-2.7-4-4-7.1-3.9c-26.2,0.4-39.4,1-65.6,2.7
		c-2,0.1-3.1,0.2-5.1,0.3c-0.4,0-0.8,0.4-1,1c-0.2,0.6,0.1,1.3,1,1.9c0.9,0.7,2,1.5,3.2,2.3c1.3,0.9,1.9,2.5,1.9,4.9
		c0,29.5,0,59,0,88.5c0,4.1-0.6,7-1.8,8.6c-1.2,1.6-2.3,2.8-3.3,3.3c-1,0.5-1.4,1.1-1.1,1.9c0.3,0.7,0.7,1.1,1.1,1
		c24.4-1.7,48.9-2.8,73.4-3c3.1,0,5.4-1.5,6.9-4.3c3-5.4,4.5-8.2,7.6-13.6C720.2,485.4,720.2,484.1,719.4,483z"/>
</g>
</svg>
