<svg id="Layer_1" data-name="Layer 1" xmlns="http://www.w3.org/2000/svg" viewBox="0 0 576 524.14"><defs><style>.cls-1{fill:#e37fd2;}</style></defs><title>flamingo-01</title><path class="cls-1" d="M634.75,353.81c-.9-2.17-2.69-3.33-4.68-4.39-4.43-2.35-8.88-4.7-13.12-7.35a16.71,16.71,0,0,1-4.84-4.76,195.4,195.4,0,0,0-37-41.71c-4.45-3.72-7.72-8.88-11.31-13.55-5.27-6.86-10.2-14-17-19.43-8.81-7-17.29-14.51-28-18.87-7-2.86-14.34-4.11-21.72-4.89-12.09-1.26-24.24-2.1-36.38-2.91-7.88-.52-15.23,2-22.64,4.34a71.86,71.86,0,0,0-18.15,8.39c-9.92,6.51-17,15.11-19.09,27-1.16,6.67-1.52,13.49-2,20.26q-1.25,16.67-2.16,33.36c-.13,2.4-1.38,3.39-3.36,4-6.32,1.87-12.7-.87-15.88-7.35-6-12.29-6.87-29.54,4.07-42,6.6-7.53,13.9-14.51,21-21.56s13.94-14.26,19.1-22.85c5.91-9.89,9.86-20.65,9.13-32.08-.89-13.82-5.89-26.14-19.36-32.9-6.74-3.38-14.05-3.68-21.43-2.92-9.24,1-17.93,3.54-25.61,8.94-9.65,6.79-14.16,16.18-14.51,27.92a146.17,146.17,0,0,1-1.79,16c-.77,5.7-1.81,11.36-2.76,17-1,6.06,1.59,10.95,5.11,15.49a61.9,61.9,0,0,0,15.77,14.09c.61.38,1.19.81,1.82,1.23-5.64,4.63-8.35,10.93-10.65,17.4-3.68,10.38-5.09,21-3,32,2.74,14.14,10.84,24.34,23.25,31.19,4.11,2.26,8.63,3.77,12.92,5.72,2.41,1.08,4.66,2.57,7.12,3.51,6.44,2.47,12.65,1.35,18.59-1.75s11.65-6.65,17.48-10c3.85-2.18,7.77-4.25,11.62-6.42a5.67,5.67,0,0,1,4.81-.46c7,2.08,14.06,3.9,21.06,6,2.1.66,4.07,1.68,6.4,2.65-2.25,2.92-4.17,5.58-6.22,8.16-4,5-8.51,9.73-11.91,15.13-4.23,6.76-7.73,14-6.05,22.49.25,1.28.68,2.61,2.28,2.5a3.49,3.49,0,0,0,2.44-1.19c2.34-3.57,4.48-7.26,7-10.75-.9,3.1-1.83,6.17-2.65,9.26a8,8,0,0,0,.07,2.28c.92,0,2.05.21,2.71-.22a7.28,7.28,0,0,0,2.44-2.68c3.22-6.28,6.36-12.61,9.92-18.93V546.06l-28.86,2v.79c1.89,1.73,4.36-.72,7,.75-2.28.71-4.07,1.31-5.91,1.85a36.68,36.68,0,0,0-5.51,1.57,15.13,15.13,0,0,0-4.56,3.71c3.08.41,5.85-.46,8.52-1.44s5.3-2,8.16-2.77L451,557.61h6.61c4-1.26,8-2.45,12-3.77,3.32-1.08,6.6-1.87,10.18-1.21a12,12,0,0,0,8.08-1.77,10.9,10.9,0,0,0-2.35-2.1c-2.2-1-2.63-2.61-2.51-4.94.3-6,.24-12,.38-17.93.62-29,1.34-58,1.94-87q.7-35.76,1.27-71.53c0-1.79.6-2.5,2.37-2.58,4.63-.21,9.26-.64,13.89-.8,27.54-.93,55.07-.32,82.56,1.43,11.11.71,22.2,1.89,33.27,3.13A18.79,18.79,0,0,0,629.22,367c2.12-1,3.83-2.41,4.29-5a36.17,36.17,0,0,1,1.26-4.21Zm-267.11-110c.13-5.14.36-10.28.66-15.41a2.43,2.43,0,0,1,1.08-1.53,36,36,0,0,0,15-17.4,80.19,80.19,0,0,1,6-12.05c3.29-5.33,8.49-7.57,13-6.05a13.72,13.72,0,0,1,8.33,7.75c3,6.79,2.29,13.72,0,20.47a69.91,69.91,0,0,1-17.2,27c-6.48,6.51-13.45,12.51-20.58,19.09-2.05-5.69-4.1-11-5.88-16.48A16.25,16.25,0,0,1,367.64,243.8Zm-7.16-41a3.23,3.23,0,1,1-3.23,3.23A3.23,3.23,0,0,1,360.48,202.8Zm5.7,54.49q-1.74.86-3.49,1.67-1.57.73-3.17,1.44a12.21,12.21,0,0,1-2.52,1.1,12.21,12.21,0,0,1-1.38-1.63l-1.49-1.69c-1-1.14-1.94-2.3-2.81-3.53a21.11,21.11,0,0,1-3.72-8.12c-1-5.11.76-9.92,1.25-14.95.38-3.88.81-7.82,2.39-11.42,1,.76,1.39,2.26,2.25,3.21a12.9,12.9,0,0,0,7,4,34.4,34.4,0,0,0,4,.55c.52,0,1,.07,1.52.07.17,0,.2.37.23.48.5,1.46.19,3.53.17,5,0,2.4-.13,4.8-.23,7.2a46.48,46.48,0,0,0,.46,6.53,30.43,30.43,0,0,0,1.55,6c.28.88.86,1.65,1.13,2.51A23.9,23.9,0,0,0,366.18,257.29Zm115.5,67.77a65.31,65.31,0,0,1-17.2-1.82,74.17,74.17,0,0,0,17.2.66,76.27,76.27,0,0,0,16.76-3.25l4-1.39,4-1.62,3.84-1.83,3.63-2.09a71.05,71.05,0,0,0,12-8.9,12.75,12.75,0,0,1-2.61-1.71l-1.85-1.59,2.35-.66c3-.85,6-1.83,8.86-3q3-1.17,5.86-2.56-5.86-2.14-11.49-4.82a51,51,0,0,1-6.71-4c-2.13-1.49-4.13-3.13-6.09-4.78-3.89-3.31-7.65-6.76-11.91-9.49a35.88,35.88,0,0,0-6.76-3.38c-2.38-.92-4.84-1.63-7.3-2.34,2.51.5,5,1,7.48,1.74a33.74,33.74,0,0,1,7.12,3c4.54,2.52,8.49,5.88,12.5,9,2,1.57,4,3.11,6.11,4.48a54.17,54.17,0,0,0,6.56,3.64,136.27,136.27,0,0,0,14.16,5.44l2.76,1-2.59,1.37a90.77,90.77,0,0,1-8.73,4q-3.15,1.27-6.4,2.28a10.14,10.14,0,0,0,1.41.57l2.09.66-1.57,1.52a68.08,68.08,0,0,1-14.08,10.47l-3.92,2.06-4,1.8-4.11,1.54-4.19,1.32A71.18,71.18,0,0,1,481.68,325.06Zm138.06,34.22a11.15,11.15,0,0,1-3.73.3c-6.11-.24-12.21-.54-18.32-.83-15.09-.71-30.18-1.46-45.28-2.12-15.33-.69-30.66-1.29-46-2L490.12,354c1.42-1.7,2.57-3.15,3.8-4.47a2,2,0,0,1,1.46-.58c5.85.58,11.7,1.46,17.56,1.9,10.22.77,20.22-.4,29.48-5.09a13.39,13.39,0,0,1,5.88-1.39c3.08-.1,6.13-.79,9.21-1a32.61,32.61,0,0,1,7.38.16c3.18.53,6.24,1.76,9.42,2.33,9.64,1.73,19.41,2.77,28.79,5.81,2.85.93,5.72,1.78,9.08,2.82L607.4,351l.34-.58a12.38,12.38,0,0,1,2.34.24q4.71,1.44,9.39,2.94c.42.13,1,.23,1.18.54.65,1.07,1.57,2.22,1.57,3.35C622.23,358.07,620.72,359,619.74,359.28Z" transform="translate(-58.77 -33.47)"/><path class="cls-1" d="M365,70.84a52.36,52.36,0,0,0-6.79-16.7c-3-4.7-7.07-7.72-12.71-8.17a50.11,50.11,0,0,1-20.86-6.77,50.57,50.57,0,0,0-15.94-5.72h-7.53c-1.79.36-3.6.68-5.38,1.1a28.24,28.24,0,0,0-18,13c-5.92,9.48-11.34,19.27-13.71,30.28-3.57,16.44-4.41,32.91,1.67,49.06,3.23,8.56,8.42,16,13.45,23.58a109.31,109.31,0,0,1,13.15,27.94c3,9.43,6.09,18.92,5.89,29.07-.13,6.7-.75,13.26-4.05,19.27a20.83,20.83,0,0,1-8.08,8.6,4.34,4.34,0,0,1-3,.36,18.67,18.67,0,0,1-9.44-6.29c-7.68-9.7-18-15.58-29.23-20-14.52-5.68-29.71-6.58-45.09-5.92-17,.72-32.92,5.63-48.14,13-19.51,9.47-36.92,22-53.05,36.48-6.73,6-13.54,12-21.95,15.88-3.21,1.45-6.11,3.56-7,7.4l5.09,1.08v.6l-15.44,7.13V286a4.46,4.46,0,0,1,1.28.07,153.92,153.92,0,0,0,29.48,7.7c9.57,1.48,18.4,5.29,27.19,9.1,10.41,4.51,21,8.32,32.55,8.39A4,4,0,0,1,151,312c1.85,1.07,3.62,2.27,5.5,3.25,3.53,1.83,7.18,3.44,10.68,5.33a6.69,6.69,0,0,1,3.68,7.4,18.07,18.07,0,0,1-.71,3.45c-1.48,4.15-3.18,8.24-4.63,12.4-2.62,7.51-4.74,15.23-7.77,22.58-3.37,8.16-7.43,16-11.3,24-1.7,3.47-2.79,7-2.18,10.88.66,4.14,1.36,8.3,2.41,12.35,4.23,16.25,10.84,31.64,16.93,47.22,4,10.21,7.27,20.72,10.54,31.2a13.67,13.67,0,0,1-2.31,12.57,19,19,0,0,0-2.81,7.76c-.84,5,.11,9.86,1.61,14.61,1.78,5.62,3.74,11.19,5.46,16.83,1.05,3.46.89,3.45-2.21,5.35a21.58,21.58,0,0,0-2.75,2.37l.38.56a75.72,75.72,0,0,1,23.3,5.52h10.65l-4-3.52.3-.4h0l0,0,9.92,3.92h5.76c-1.33-2.9-4.07-3.87-6.71-4.89-2.44-.93-4.91-1.78-7.5-2.71,1.24-2.15,4.56-.25,5.07-3.67L185,545.24c0-3.53-.16-6.83,0-10.14q.94-19.79,2.07-39.56,1.16-21,2.57-42c1-14.72,2-29.45,3.25-44.16q1.59-18.42,3.82-36.76c1.08-8.86,2.62-17.66,4.07-26.46.22-1.33,1.24-2.52,1.59-3.84,1.13-4.15,2-8.43,3.25-12.57a33,33,0,0,1,3.21-6.66,2.58,2.58,0,0,1,2.24-.77c18.24,3.89,33.86-2.08,48.25-12.71a54.67,54.67,0,0,0,14.61-15.25c4.36-7.13,11.07-11.76,17.48-16.7,7.73-6,15.21-12.22,20.44-20.65a54.3,54.3,0,0,0,7.86-23.5A154,154,0,0,0,318.54,194c-3.06-19.25-9.16-37.33-20-53.65-7.23-10.86-12-22.65-13-35.76a44,44,0,0,1,8.55-30.12,2.49,2.49,0,0,1,1.93-.79c2.12.19,4.22.64,6.34.9,8.9,1.12,16.69-2,24.08-6.48,8-4.9,14.41-3.9,21.44,1.6,3.86,3,7.32,6.63,11.13,9.77a77.6,77.6,0,0,0,7.16,4.68A42.8,42.8,0,0,0,365,70.84ZM180.81,504.6l-1.44,22.72-.69,0a37.08,37.08,0,0,1-1.45-10.07,32.69,32.69,0,0,1,2.55-12.69l1,.06v0Zm11.08-166.37c-.52,13.41-.87,26.84-2,40.21-1.26,14.51-1.67,29.21-6.81,43.14-1,2.72-.55,5.44.54,8.19a15.43,15.43,0,0,1,1.14,6.2c-.89,19.09-1.92,38.17-2.94,57.25v0c-.11,2.14-.33,4.28-.5,6.38h-.48a29.64,29.64,0,0,0-.5-4c-1.62-6.18-3-12.48-5.08-18.52q-10.15-29.47-20.94-58.71c-3-8-3.62-15.87-.73-23.94,1.91-5.34,3.72-10.71,5.64-16,3.2-8.92,6.25-17.94,9.72-26.78,3.27-8.33,7.4-16.26,13.66-22.83,1.6-1.67,3.42-3.13,5.19-4.74.56.69.86,1,1.11,1.36C191.62,329.22,192.07,333.73,191.89,338.23Zm3.58-46.09a71.18,71.18,0,0,1-17.25-2.58L174,288.24l-4.19-1.46-4-1.8-4-2a68.08,68.08,0,0,1-14.08-10.47l-1.57-1.52,2.09-.66a10.14,10.14,0,0,0,1.42-.58q-3.23-1-6.38-2.29a90.78,90.78,0,0,1-8.73-4L132.08,262l2.76-1A136.27,136.27,0,0,0,149,255.59a54.15,54.15,0,0,0,6.56-3.64c2.1-1.37,4.11-2.9,6.11-4.48,4-3.12,7.94-6.48,12.5-9a33.74,33.74,0,0,1,7.12-3c2.47-.73,5-1.22,7.47-1.72-2.45.7-4.91,1.42-7.28,2.3a35.87,35.87,0,0,0-6.76,3.38,109.9,109.9,0,0,0-11.91,9.49c-2,1.65-4,3.31-6.09,4.78a51,51,0,0,1-6.71,4q-5.63,2.69-11.49,4.82,2.89,1.38,5.86,2.56c2.9,1.14,5.87,2.12,8.86,3l2.35.66-1.85,1.59a12.76,12.76,0,0,1-2.61,1.71,71.05,71.05,0,0,0,12,8.9l3.72,2,3.84,1.83,4,1.62,4,1.39A76.27,76.27,0,0,0,195.47,291a74.18,74.18,0,0,0,17.2-.66A65.31,65.31,0,0,1,195.47,292.15ZM307.56,50.35a3.23,3.23,0,1,1,3.23-3.23A3.23,3.23,0,0,1,307.56,50.35Zm55.39,20c-1.32.72-2.71,1.36-4,2.07a27.82,27.82,0,0,1-4.06,1.46,28.14,28.14,0,0,0-6.39-6.32c-3-2-5.48-4.06-9.26-4.53a21.24,21.24,0,0,0-4.29-.07c-1.32.11-2.86.77-4.16.66.59-2.12,1.46-4.07,1.89-6.25.19-.94.34-1.87.44-2.79a27.78,27.78,0,0,0,0-4.92c-.1-1.51-.61-3-.61-4.45,0-.26,3.9.81,4.24.89,3,.66,6.11.84,9.14,1.38A16.86,16.86,0,0,1,354,51.43a24,24,0,0,1,6.78,10.78c.79,2.51,1.7,5.08,2.37,7.62a.48.48,0,0,1,.05.23C363.26,70.22,363.09,70.32,363,70.39Z" transform="translate(-58.77 -33.47)"/></svg>