<?xml version="1.0" encoding="utf-8"?>
<!-- Generator: Adobe Illustrator 23.1.0, SVG Export Plug-In . SVG Version: 6.00 Build 0)  -->
<svg version="1.1" id="Слой_1" xmlns="http://www.w3.org/2000/svg" xmlns:xlink="http://www.w3.org/1999/xlink" x="0px" y="0px"
	 viewBox="0 0 608.4 720" style="enable-background:new 0 0 608.4 720;" xml:space="preserve">
<style type="text/css">
	.st0{fill:#000200;}
</style>
<g>
	<path class="st0" d="M184.8,136.7c-2.3,10.7-42,74.2-44.2,84.7c13-9.3,67.7-71.2,69.8-68.5c-5,22-9.3,41-14.5,64.1
		c13.6-11.4,34.9-30.8,37.1-27.3c-5.7,13.8-11.1,19-16.9,32.8c11-6.3-4.5,22.3-3.5,23.4c17.7-23.5,42-58.4,59.5-82.1
		c20.8-28.2,33.8-49.2,60.7-87.7c0,5.4,0,10.9,0,16.2c3.1-0.7,5.1-1.1,7.3-1.6c-1.7,27.7-26.6,109-32.2,139.5
		c9-7.9,42.9-70.2,49.1-75.6c0.3-0.3,7.5,15.1,8.1,16.5c2.3,6.2,4.6,12.2,7.3,18.2c-5-3.3-9.6-7.3-13.6-11.8c2,8.7,4,17.5,7.9,25.6
		c8.3,17.2,24.8,28.7,41.6,36.9c-0.1,0,6.8-30.7,7.5-34.1c4.8,8.4,9.5,16.8,14.2,25.2c5.5,9.7,10.9,19.3,16.4,29
		c2.6-10.7,5.4-21.4,7.4-32.3c1-8,2.9-15.6,3.8-23.7c14.7,24,29,48.4,43.5,72.6c-0.4-6.9-0.8-13.9-1.2-20.8c-0.2-3.5-0.3-7-0.6-10.4
		c-0.1-0.7,0-2.6-0.1-4.2c0-1.3-0.2-2.4-0.4-2.8c4.7,6.6,9.2,13.5,14.4,19.7c5.6,6.7,11.5,13.1,17.4,19.6
		c9.7,10.6,31.1,28.9,31.9,27.7c-35.3-53.7-67.1-93.9-98.9-142.7c-9.8,7.2-18.2,13.3-27,19.8c-26.4-39.2-97.7-146.8-97.7-146.8
		c-5,8.6-11.3,18.5-18.1,28.7c-10.8-14.3-28-23.6-47.2-23.6c-32.7,0-59.3,26.6-59.3,59.3c0,6.9,1.2,13.6,3.4,19.8
		c-11.9-4.4-23.8-8.9-34.7-13C143.9,161.4,56.1,290.2,53.4,296.7C54.4,297.8,141.2,192.3,184.8,136.7z M224,100.2
		c0-29,26-53.2,49.4-52.8c17.9,0.3,33.8,9.1,43.3,22.8C294,103.5,268.1,138,268.1,138c-10.9-3.7-23.2-8.1-35.9-12.7
		C227.1,118.3,224,109.9,224,100.2z"/>
	<path class="st0" d="M90.8,434.8c0.7-0.5,1.4-0.9,2.1-1.4l-31.1-41.2c1.4-3.2,2.4-5.7,2.4-5.7c0.6-1.4,0.4-4.1-3.5-4.7
		c-3.9-0.6-6.1-2.1-15-11c-8.9-8.8-5.9-14.7-5.9-14.7s-13.5-3.9-9-12.6c4.5-8.7,11.8-14.5,17.2-17.5c5.4-3,9.3,2.9,12.9,0.5
		c3.6-2.4,1.4-8.6-4.8-11.9c-6.2-3.3-27.9,10.1-31.3,12.9c-3.4,2.7-8.2,10.8-10.9,15.7c-2.7,4.9-6.1,5.3-10.2,7.7
		c-4.1,2.4-5.3,11-1.1,14.9c4.2,3.9,11.5-4.9,11.5-4.9l1.4,0.7c2.2,39,6.9,54.9,9.1,62.6c2.2,7.6,4.9,14.5,11,12.5
		c6.1-2.1,7-9.4,5.5-16c-1.4-6.6-10.3-20.4-14.5-31.6c-4.3-11.2-2.8-21.5-2.8-21.5s5,4.5,14.8,14.1c9.8,9.6,11.2,16.5,11.5,18.2
		c0.3,1.7,3.9,7.3,6.7,2.6c0.3-0.5,0.6-1.1,1-1.7l28.3,37.5C87.5,437,89.1,435.8,90.8,434.8z"/>
	<path class="st0" d="M130.8,483.6L107,452c-2,2-4,4.1-6,6l21.1,28C124.9,484.9,127.8,484.2,130.8,483.6z"/>
	<path class="st0" d="M294.5,678.6l-2.7-3.6l-10.6,8L145.3,502.8c-2.9,0.9-5.9,1.6-8.9,2.2l138.1,183.1l-10.6,8l2.7,3.6l7.9-5.9
		l29.4,26.2l-17.6-35.1L294.5,678.6z"/>
	<path class="st0" d="M351,407.9c-5.3,1.9-13.6,17.6-13.4,23.7c0.2,3.7,4.8,7.5,7.6,3.3c2.6-3.9,12.4-14.1,15.9-16.2
		c2.3-1.3,4-0.8,4.5-0.9c0.8-0.1-0.4-3.1-2.3-5C360.6,410.1,355.4,406.3,351,407.9z"/>
	<path class="st0" d="M160.6,541.8c-2.7-4-6.1-7.6-8.7-11.7c-10.7,18.7-19.4,38.5-19.9,57.3c-0.2,7.4,4.3,12.3,9.1,11.7
		c1.2-0.1,2.5-0.5,3.6-1c-3-0.1-4.5-2.2-4.2-4.7C141.9,576.8,150.1,559.2,160.6,541.8z"/>
	<path class="st0" d="M461.9,504.1l-18.7,24.8c-3.3,1.3-6.7,2.1-10,2.4c-27.4,2.1-55-23.5-64.9-48.2c21.9-2.6,64.8-26.5,66.9-49
		c0.4-4-6.1-13.2-10.2-12.4c-19.5,4.2-38.7,27.6-52.6,44c12.4-21.7,25.4-43.1,39.9-63.4c0,0,10.4-14.5,12.7-17.5
		c12.5-15.7,21-24.6,26.3-22.1c3.7,1.7-4.2-9.9-16.6-8.8c-1.7,0.2-4.5,1.5-8.1,4.6c-6.8,6.2-15.9,17.6-26.7,33.3
		c-15.6,22.7-29.7,46.2-43.3,70.2c-4,1.4-8.1,3.8-9.3,7.3c-0.7,1.9-0.4,4.2,0.1,6.7c-13.7,15.6-28.3,31.5-45.8,41.7
		c8.2-20.5,21.3-50.4,40.3-62.7c1.7,0,2.8,0.9,2.8,0c0-5.3-8.5-12.5-13.4-11.7c-0.8,0.1-2.1,0.5-3.2,1.8c-4.5,4.6-9.2,10-13.7,15.8
		c-6.8-0.4-17.7-0.4-31.1,0.3c20.6-33.2,41.3-67.1,67.3-96.5c6.8-7.4,13.8-13.1,17.6-11.1c3.8,2-3.6-10.8-15.9-8.9
		c-1.5,0.2-4.7,1.8-8.5,4.7c-5.3,4.4-12.1,11.4-19.3,20.2c-23,29-42.1,60.9-60.7,92.8c-9.6,0.9-18.5,2.1-26.7,3.4
		c-9.1,1.4-17.8,2.9-26.7,4.9c17.5-25.2,45.4-59.5,46.3-90.3c0.4-16.5-16.8-18.7-32.9-15.9c-37.7,6.6-73.7,30.2-104.3,53.1
		c-20.7,15.5-57.8,41.4-58.9,69.3c-0.3,6.7,5,11.2,12.5,10.9c7.5-0.2,15.3-7,15.3-8.9c-1.9,1.8-7,3.2-10.2,3.3
		c-2.1,0.1-4-1.1-3.6-3.3c3.6-19.7,34.3-43.5,51.7-59.2c28-25.4,61.5-53.5,99.2-60.6c8.2-1.5,16.7,1,16.1,8.1
		c-2.6,31.6-34.9,68.5-54.3,97.5c-22,5.5-79.9,13.7-83.6,34.7c-1.1,6,5.8,11,6.4,9.6c5.3-13.9,47.3-24.5,68.3-31.3
		c-5.4,8.6-11.7,18.1-17.9,28c3.6,3.6,6.1,8.1,8.9,12.4c11.1-16.5,23.5-32.4,33.2-46.5c19.3-4.9,38.6-9.9,58.2-13.3
		c-15.2,28.7-39.2,67-37.8,99.3c0.2,4.4,4.1,7.9,7.2,7.2c4.2-0.9,11.2-8.3,15.1-13.4c-3.8,2.7-6.7,5.8-11.2,7.1
		c-1.5,0.4-2.1-0.3-2.1-2c5.6-35.3,31.3-71,48.8-101c13.5-1.7,24.7-2.4,32.2-2.8c-14.2,18.4-27.1,40.7-29,58.7
		c-0.4,3.4,5.3,8.3,8.7,8.8c1.1,0,1.7-0.1,2.5-0.2c18.7-7.7,35.7-27.8,50.1-46.2c-1.3,2.6-2.5,5.2-3.6,7.8
		c-6.8,14.8-6.8,21.9-6.4,23.5c1.7,3.1,5.9,6.9,7.4,7.3c2.1,0.9,4.5,1.4,7,0c-9.6,0.4,2.1-17.7,7.2-28c14.7,21.9,42,45.2,70.5,42.2
		c4.1-0.4,8.2-1.4,12.2-3L327.2,682.7l-10.6-8l-2.7,3.6l8.4,6.3l-17.6,35.1l29.4-26.2l7.9,5.9l2.7-3.6l-10.6-8l151.1-200.4
		C474.3,495.6,472.3,496.9,461.9,504.1z M366.3,476.6c13.6-16.2,31.2-36,50.7-44.9c-11,19.8-28,40.4-49.5,48.9
		C367.2,480.1,366.7,478.7,366.3,476.6z"/>
	<path class="st0" d="M604.7,350.6c-4.1-2.4-7.5-2.8-10.2-7.7c-2.7-4.9-7.5-13-10.9-15.7c-3.4-2.7-25.1-16.2-31.3-12.9
		c-6.2,3.3-8.4,9.5-4.8,11.9c3.6,2.4,7.4-3.5,12.9-0.5c5.4,3,12.7,8.8,17.2,17.5c4.5,8.7-9,12.6-9,12.6s3,5.8-5.9,14.7
		c-8.9,8.8-11.1,10.4-15,11c-3.9,0.6-4.1,3.2-3.5,4.7c0,0,1,2.5,2.4,5.7l-47.2,62.6c4.2-2.2,19.8-15.6,23.8-17.6l27.5-36.3
		c0.3,0.6,0.7,1.2,1,1.7c2.8,4.7,6.4-0.9,6.7-2.6c0.3-1.7,1.7-8.6,11.5-18.2c9.8-9.6,14.8-14.1,14.8-14.1s1.5,10.4-2.8,21.5
		c-4.3,11.2-13.1,25-14.5,31.6c-1.4,6.6-0.6,13.9,5.5,16c6.1,2.1,8.8-4.9,11-12.5c2.2-7.6,6.9-23.6,9.1-62.6l1.4-0.7
		c0,0,7.3,8.7,11.5,4.9C610,361.7,608.8,353.1,604.7,350.6z"/>
	<path class="st0" d="M511.5,450.4c-20.6,17.2-49.8,47.2-75.8,51.2c-4.4,0.7-6.6-0.9-6.4-3.4c0.5-5.5,5.1-15.5,8.5-17.6
		c16-3.1,61.2-27.7,64.5-47.9c0.8-4.9-9.9-10.7-12.9-10.5c-16.6,1.1-33.3,12.8-45.6,23.9c-11.4,10.2-23.4,25.1-29.3,39.6
		c-1.7,4.9-3,9.2-3,14.3c0,5.7,8.7,12.6,15.1,11.8c33-4.3,62.7-37.7,86.4-60.1C513.6,451,512.1,450,511.5,450.4z M495.6,428.3
		c-9.8,19.2-34.3,41.6-55,47.7C453.3,456.7,473.3,436.3,495.6,428.3z"/>
	<path class="st0" d="M299.1,647.1c1.9,10.2,3.7,20.5,5.6,30.7c0.1,0,0.1,0,0.2,0c1.9-10.2,3.7-20.4,5.6-30.6
		c18-2.5,32.2-16.8,34.7-34.7c10.3-1.9,20.5-3.7,30.8-5.6c0-0.1,0-0.1,0-0.2c-10.3-1.9-20.5-3.7-30.8-5.6
		c-2.5-17.9-16.8-32.2-34.7-34.7c-1.9-10.2-3.7-20.5-5.6-30.7c-0.1,0-0.2,0-0.2,0c-1.9,10.2-3.7,20.4-5.6,30.6
		c-17.9,2.5-32.2,16.7-34.7,34.7c-10.3,1.9-20.5,3.7-30.8,5.6c0,0.1,0,0.1,0,0.2c10.3,1.9,20.5,3.7,30.8,5.6
		C266.9,630.3,281.2,644.6,299.1,647.1z M270.1,613.4c6.1,1.1,12.3,2.2,18.4,3.3c-1.9,4-3.8,7.9-5.7,12c4.1-2,8-3.8,12-5.7
		c1.1,6.2,2.2,12.3,3.4,18.4C284,638.7,272.8,627.5,270.1,613.4z M311.5,641.4c1.1-6.1,2.2-12.3,3.4-18.4c4.1,1.9,7.9,3.8,12,5.7
		c-2-4.2-3.8-8-5.7-12c6.2-1.1,12.3-2.2,18.4-3.3C336.8,627.5,325.7,638.7,311.5,641.4z M339.5,599.9c-6.1-1.1-12.2-2.2-18.4-3.3
		c1.9-3.9,3.7-7.8,5.7-12c-4.1,2-8,3.8-12,5.7c-1.1-6.1-2.2-12.3-3.3-18.4C325.7,574.7,336.8,585.8,339.5,599.9z M298.1,571.9
		c-1.1,6.1-2.2,12.2-3.3,18.4c-4.1-1.9-7.9-3.8-12-5.7c2,4.2,3.8,8,5.7,12c-6.1,1.1-12.3,2.2-18.4,3.3
		C272.8,585.8,284,574.7,298.1,571.9z"/>
	<path class="st0" d="M167.7,357.9H202l1.9,6.1l0.6-0.2c1.1-0.3,2.1-0.6,3.2-0.9l0.6-0.2l-20.4-65.4c-0.2-0.5-0.1-1.1,0.3-1.5
		c0.3-0.4,0.8-0.7,1.4-0.7h0.8c1.3,0,2.3-1,2.3-2.3c0-1.3-1-2.3-2.3-2.3h-21c-1.3,0-2.3,1-2.3,2.3c0,1.3,1,2.3,2.3,2.3h0.6
		c0.4,0,0.8,0.2,1.1,0.5c0.3,0.3,0.3,0.8,0.2,1.2l-21.9,71c-0.8,2.7-3.3,4.5-6.1,4.5h-3.7c-1.3,0-2.3,1-2.3,2.3c0,1.3,1,2.3,2.3,2.3
		h32.2c1.3,0,2.3-1,2.3-2.3c0-1.3-1-2.3-2.3-2.3h-5c-0.8,0-1.4-0.3-1.9-1c-0.4-0.6-0.6-1.4-0.4-2.1L167.7,357.9z M184.7,302.9
		l15.8,50.4h-31.4L184.7,302.9z"/>
	<path class="st0" d="M210.4,288.7c0.4,0.4,0.9,0.7,1.6,0.7c0,0,0,0,0,0c1.2,0,2.6-0.9,2.8-2.5c0-0.1,0-0.3,0.1-0.5
		c1.8-11.5-3.7-20.1-16.2-25.8c-7.6-3.5-14.3-5.1-21.1-5.1c-11.2,0-22.4,4.4-36.9,11.4c-3.1,1.5-6.3,3.2-9.3,4.9
		c-4.3,2.3-8.7,4.7-13.2,6.7c-7.7,3.3-14.3,5.5-21.6,5.5c-0.7,0-1.5,0-2.3-0.1c-0.8-0.1-1.6-0.2-2.4-0.3c-3.5-0.8-7.7-3.3-8.7-6.4
		c-0.6-2,0.1-4.5,1.7-6c0.9-0.8,1.3-1.6,1.2-2.3c0-0.4-0.3-1-1.1-1.4c-0.3-0.1-0.6-0.2-0.9-0.2c-0.7,0-1.6,0.3-2.5,1
		c-1.6,1.1-3,2.7-3.8,4.6c-2.1,4.9-0.7,10.3,3.7,14.2c2.5,2.2,8.2,7.2,19.3,7.2c0.4,0,0.9,0,1.3,0v71.8c0,3.4-2.8,6.2-6.2,6.2h-2.2
		c-1.3,0-2.3,1-2.3,2.3c0,1.3,1,2.3,2.3,2.3h32.2c1.3,0,2.3-1,2.3-2.3c0-1.3-1-2.3-2.3-2.3h-2.2c-3.4,0-6.2-2.8-6.2-6.2v-72.6
		c7.4-1.4,16.2-4.3,26.8-8.9c24-10.3,39-15.8,49.5-15.8c6.4,0,10.9,2.1,14,6.6c2.9,4.3,2.7,8.8,2.3,11.1
		C209.8,287.7,210.1,288.3,210.4,288.7z"/>
	<path class="st0" d="M289.5,372.3h-4.1c-1.3,0-2.3,1-2.3,2.3c0,1.3,1,2.3,2.3,2.3h26.8l0.2-0.2c0.8-1.1,1.7-2.2,2.5-3.3l0.7-1h-2.8
		c-2.3,0-4.5-1.1-5.8-3.1l-32-46.9l12.9-23.6c1.2-2.3,3.6-3.7,6.2-3.7h4.4c1.3,0,2.3-1,2.3-2.3c0-1.3-1-2.3-2.3-2.3h-19.9
		c-1.3,0-2.3,1-2.3,2.3c0,1.3,1,2.3,2.3,2.3h4.5c0.3,0,0.6,0.2,0.8,0.5c0.2,0.3,0.2,0.6,0,0.9L258,344.1v-45c0-2.2,1.8-4,4-4h3.7
		c1.3,0,2.3-1,2.3-2.3c0-1.3-1-2.3-2.3-2.3H235c-1.3,0-2.3,1-2.3,2.3c0,1.3,1,2.3,2.3,2.3h3.6c2.2,0,4,1.8,4,4v59.8l0.5,0.1
		c5.7,1.1,10.2,3.3,13.4,6.6c0.1,0.1,0.4,0.4,0.4,0.4l1,1.1v-13.6l9.1-16.5l23.1,34.2c0.2,0.2,0.2,0.5,0,0.7
		C290,372.2,289.8,372.3,289.5,372.3z"/>
	<path class="st0" d="M520.3,372.3h-4.8c-1.3,0-2.3,1-2.3,2.3c0,1.3,1,2.3,2.3,2.3h18.8c1.3,0,2.3-1,2.3-2.3c0-1.3-1-2.3-2.3-2.3h-5
		c-1.6,0-3-1-3.5-2.6l-22.7-72.4c-0.2-0.5-0.1-1.1,0.3-1.5c0.3-0.4,0.8-0.7,1.4-0.7h0.8c1.3,0,2.3-1,2.3-2.3c0-1.3-1-2.3-2.3-2.3
		h-21c-1.3,0-2.3,1-2.3,2.3c0,1.3,1,2.3,2.3,2.3h0.6c0.4,0,0.8,0.2,1.1,0.5c0.3,0.3,0.3,0.8,0.2,1.2l-21.9,71
		c-0.8,2.7-3.3,4.5-6.1,4.5h-3.7c-1.3,0-2.3,1-2.3,2.3c0,1.3,1,2.3,2.3,2.3h32.2c1.3,0,2.3-1,2.3-2.3c0-1.3-1-2.3-2.3-2.3h-5
		c-0.8,0-1.4-0.3-1.9-1c-0.4-0.6-0.6-1.4-0.4-2.1l3.5-11.4h34.2l4.1,13c0.1,0.3,0,0.7-0.2,1C521,372.2,520.7,372.3,520.3,372.3z
		 M484.5,353.4l15.6-50.4l15.8,50.4H484.5z"/>
	<path class="st0" d="M395.8,374.6v-21.8c0-1.3-1-2.3-2.3-2.3c-1.3,0-2.3,1-2.3,2.3v0.3c0,10.6-8.7,19.3-19.3,19.3h-18.8v-2
		l-1.1,1.2c-1.2,1.4-2.5,2.9-3.7,4.4l-0.8,1h46C394.8,376.9,395.8,375.9,395.8,374.6z"/>
	<path class="st0" d="M339,346.6c0.5-0.4,0.9-0.8,1.4-1.2l0.2-0.1c2-1.5,7.1-5.2,11-5.7c0.3,0,0.6-0.1,0.9-0.1l0.7-0.1V336h16
		c5.2,0,9.4,4.2,9.4,9.4v4c0,1.3,1,2.3,2.3,2.3c1.3,0,2.3-1,2.3-2.3v-30.7c0-1.3-1-2.3-2.3-2.3c-1.3,0-2.3,1-2.3,2.3v3.4
		c0,5.2-4.2,9.4-9.4,9.4h-16v-36.3h19.2c8.1,0,14.8,6.6,14.8,14.8v1.5c0,1.3,1,2.3,2.3,2.3c1.3,0,2.3-1,2.3-2.3v-18.6
		c0-1.3-1-2.3-2.3-2.3h-59.3c-1.3,0-2.3,1-2.3,2.3c0,1.3,1,2.3,2.3,2.3h4.3c1.9,0,3.4,1.5,3.4,3.4v49.2L339,346.6z"/>
	<path class="st0" d="M411.5,103.2c0.6,3.1,4,13.8,12.9,18.8c8.9,5,13.2,7.7,12.7,8.9c-0.5,1.2-2.6,2.6-4.7,1.9
		c-2.1-0.6-7.4-3.4-8.1-2.2c-0.7,1.1,1.3,12.3,7.9,15.2c6.6,2.9,14.2,1.3,15.2,0.6c1.1-0.8-4.6-2.5-3.5-4.5c1.1-2,4-0.6,5.9-1.9
		c1.9-1.3,6.6,0.1,7.8,0.3c1.2,0.2-0.4-1.2-0.4-1.2s9.8,2,13.9,3c4.1,1,14.1,0.5,16.9,1.8c2.8,1.2,27.1,2.3,28.4,0.5
		c0.8-1.1-3.6-0.7-7.5-0.9c-3.9-0.2-16.3-2-20.7-4.4c-4.5-2.4-11-5.4-14-6.2c-3-0.8-12.2,0.1-15.8,0c-3.6-0.1-5.6-0.4-5.6-0.4
		s-1.9-3-3.7-4.2c-1.8-1.2-7.3-2.3-7.3-2.3s0-4.9-7.7-10.3c-7.7-5.5-20.7-19.1-21.8-22.4c-1-3.3-4.8-8.9-5.2-10.4
		c-0.4-1.5-2.7,2.2-0.7,7.1C408.4,94.9,410.9,100.2,411.5,103.2z"/>
	<path class="st0" d="M204.4,91.5l-16.2-1.3c-1.4-0.1-2.6,0.9-2.7,2.3c-0.1,1.4,0.9,2.6,2.3,2.7l16.2,1.3c0.1,0,0.1,0,0.2,0
		c1.3,0,2.4-1,2.5-2.3C206.8,92.8,205.8,91.6,204.4,91.5z"/>
	<path class="st0" d="M183.6,65.9l22.9,7.9c0.3,0.1,0.5,0.1,0.8,0.1c1,0,2-0.7,2.4-1.7c0.5-1.3-0.2-2.7-1.6-3.2l-22.9-7.9
		c-1.3-0.5-2.7,0.2-3.2,1.6C181.6,64,182.3,65.4,183.6,65.9z"/>
	<path class="st0" d="M202.1,46.2l12.8,10c0.5,0.4,1,0.5,1.5,0.5c0.7,0,1.5-0.3,2-1c0.9-1.1,0.7-2.7-0.4-3.5l-12.8-10
		c-1.1-0.9-2.7-0.7-3.5,0.4C200.8,43.8,201,45.4,202.1,46.2z"/>
	<path class="st0" d="M229.5,40.7c0.5,0.7,1.3,1.1,2.1,1.1c0.5,0,1-0.1,1.4-0.4c1.2-0.8,1.5-2.3,0.7-3.5l-13.7-21
		c-0.8-1.2-2.3-1.5-3.5-0.7c-1.2,0.8-1.5,2.3-0.7,3.5L229.5,40.7z"/>
	<path class="st0" d="M247.7,30.8c0.3,1.1,1.3,1.8,2.4,1.8c0.2,0,0.5,0,0.7-0.1c1.3-0.4,2.1-1.8,1.7-3.1l-4.8-15.5
		c-0.4-1.3-1.8-2.1-3.1-1.7c-1.3,0.4-2.1,1.8-1.7,3.1L247.7,30.8z"/>
	<path class="st0" d="M273.4,29.4C273.5,29.4,273.5,29.4,273.4,29.4c1.4,0,2.5-1.1,2.6-2.5l0.5-24.4c0-1.4-1.1-2.5-2.5-2.6
		c-1.4,0-2.5,1.1-2.6,2.5L271,26.8C270.9,28.2,272,29.4,273.4,29.4z"/>
	<path class="st0" d="M313.3,44.9c0.4,0.3,0.9,0.4,1.3,0.4c0.8,0,1.7-0.4,2.1-1.2l12.9-20.8c0.7-1.2,0.4-2.7-0.8-3.5
		c-1.2-0.7-2.7-0.4-3.5,0.8l-12.9,20.8C311.7,42.6,312.1,44.1,313.3,44.9z"/>
	<path class="st0" d="M294.8,33.7c0.3,0.1,0.6,0.1,0.8,0.1c1,0,2-0.6,2.4-1.7l5.4-15.4c0.5-1.3-0.2-2.7-1.5-3.2
		c-1.3-0.5-2.7,0.2-3.2,1.5l-5.4,15.4C292.8,31.8,293.5,33.2,294.8,33.7z"/>
</g>
</svg>
