<?xml version="1.0" encoding="utf-8"?>
<!-- Generator: Adobe Illustrator 15.1.0, SVG Export Plug-In . SVG Version: 6.00 Build 0)  -->
<!DOCTYPE svg PUBLIC "-//W3C//DTD SVG 1.1//EN" "http://www.w3.org/Graphics/SVG/1.1/DTD/svg11.dtd">
<svg version="1.1" id="Layer_1" xmlns="http://www.w3.org/2000/svg" xmlns:xlink="http://www.w3.org/1999/xlink" x="0px" y="0px"
	 width="864px" height="864px" viewBox="0 0 864 864" enable-background="new 0 0 864 864" xml:space="preserve">
<rect x="29.452" y="37.105" transform="matrix(0.0438 -0.999 0.999 0.0438 -18.2963 493.6963)" fill="#31B6B2" width="438.606" height="438.602"/>
<g>
	<path d="M136.04,276.693c4.655,2.588,6.332,8.461,3.744,13.113c-2.585,4.658-8.458,6.332-13.113,3.744s-6.335-8.459-3.744-13.113
		C125.508,275.783,131.388,274.105,136.04,276.693z"/>
	<path d="M150.378,250.898c4.658,2.585,6.335,8.458,3.744,13.113c-2.585,4.655-8.456,6.332-13.116,3.741
		c-4.652-2.585-6.329-8.459-3.741-13.113C139.853,249.984,145.72,248.31,150.378,250.898z"/>
	<path d="M164.716,225.1c4.661,2.588,6.335,8.461,3.747,13.116c-2.588,4.652-8.461,6.329-13.116,3.738
		c-4.655-2.585-6.332-8.459-3.744-13.113C154.191,224.186,160.065,222.512,164.716,225.1z"/>
	<circle cx="174.373" cy="207.73" r="9.643"/>
	<path d="M193.399,173.506c4.654,2.585,6.329,8.458,3.741,13.113c-2.585,4.655-8.458,6.332-13.116,3.744
		c-4.655-2.588-6.329-8.461-3.741-13.116C182.874,172.592,188.745,170.918,193.399,173.506z"/>
	<path d="M207.734,147.708c4.658,2.588,6.335,8.462,3.747,13.113c-2.588,4.658-8.461,6.332-13.116,3.744
		c-4.654-2.588-6.332-8.461-3.744-13.116S203.083,145.12,207.734,147.708z"/>
	<circle cx="217.391" cy="130.338" r="9.643"/>
	<path d="M236.6,95.784c4.652,2.588,6.329,8.459,3.741,13.114c-2.585,4.654-8.459,6.335-13.113,3.744
		c-4.658-2.588-6.332-8.458-3.744-13.113C226.072,94.874,231.942,93.196,236.6,95.784z"/>
	<path d="M250.936,69.986c4.658,2.591,6.335,8.461,3.747,13.116c-2.588,4.658-8.458,6.329-13.116,3.744
		c-4.655-2.588-6.329-8.459-3.741-13.113C240.41,69.076,246.284,67.401,250.936,69.986z"/>
	<path d="M265.277,44.191c4.655,2.588,6.332,8.458,3.747,13.113c-2.591,4.658-8.465,6.332-13.119,3.744
		c-4.652-2.588-6.329-8.459-3.744-13.113C254.751,43.28,260.619,41.603,265.277,44.191z"/>
	<path d="M279.615,18.396c4.655,2.588,6.335,8.456,3.744,13.113c-2.585,4.652-8.458,6.329-13.113,3.744
		c-4.655-2.588-6.332-8.462-3.744-13.116C269.09,17.482,274.96,15.808,279.615,18.396z"/>
	<path d="M165.732,276.313c4.655,2.591,6.329,8.461,3.744,13.116c-2.588,4.655-8.462,6.329-13.113,3.744
		c-4.658-2.588-6.335-8.459-3.747-13.113C155.204,275.402,161.074,273.728,165.732,276.313z"/>
	<path d="M180.07,250.518c4.655,2.588,6.332,8.458,3.744,13.113s-8.462,6.332-13.113,3.741c-4.655-2.585-6.332-8.456-3.744-13.113
		C169.545,249.604,175.413,247.93,180.07,250.518z"/>
	<path d="M194.409,224.719c4.658,2.588,6.335,8.458,3.741,13.113c-2.582,4.655-8.459,6.332-13.114,3.744
		c-4.651-2.588-6.329-8.459-3.744-13.113C183.883,223.809,189.751,222.131,194.409,224.719z"/>
	<path d="M208.747,198.924c4.658,2.585,6.332,8.458,3.747,13.113s-8.462,6.332-13.113,3.741c-4.658-2.585-6.335-8.459-3.747-13.113
		C198.222,198.01,204.092,196.336,208.747,198.924z"/>
	<path d="M223.088,173.125c4.655,2.585,6.332,8.458,3.744,13.116c-2.588,4.655-8.458,6.329-13.116,3.738
		c-4.658-2.585-6.329-8.458-3.741-13.113S218.434,170.535,223.088,173.125z"/>
	<path d="M237.424,147.327c4.658,2.588,6.338,8.462,3.747,13.113c-2.585,4.658-8.462,6.332-13.116,3.744
		c-4.655-2.588-6.329-8.458-3.741-13.113C226.904,146.414,232.769,144.739,237.424,147.327z"/>
	<path d="M251.765,121.532c4.658,2.588,6.338,8.459,3.744,13.113c-2.582,4.655-8.458,6.332-13.113,3.741
		c-4.655-2.585-6.326-8.456-3.744-13.113C241.243,120.621,247.11,118.944,251.765,121.532z"/>
	<path d="M266.292,95.407c4.651,2.585,6.326,8.458,3.741,13.113c-2.588,4.654-8.461,6.332-13.116,3.744s-6.329-8.462-3.744-13.117
		C255.761,94.494,261.635,92.819,266.292,95.407z"/>
	<path d="M280.627,69.605c4.655,2.591,6.335,8.462,3.744,13.12c-2.585,4.655-8.458,6.326-13.113,3.741
		c-4.655-2.591-6.332-8.459-3.744-13.113C270.102,68.698,275.973,67.021,280.627,69.605z"/>
	<path d="M294.966,43.811c4.658,2.588,6.332,8.458,3.744,13.116c-2.585,4.655-8.458,6.329-13.11,3.741
		c-4.654-2.588-6.335-8.459-3.747-13.113C284.44,42.9,290.309,41.223,294.966,43.811z"/>
	<path d="M182.431,302.479c4.654,2.588,6.332,8.458,3.744,13.116c-2.585,4.655-8.459,6.329-13.114,3.741
		c-4.654-2.585-6.332-8.458-3.744-13.113C171.902,301.569,177.776,299.895,182.431,302.479z"/>
	<path d="M196.772,276.681c4.655,2.588,6.329,8.458,3.741,13.116c-2.588,4.655-8.459,6.332-13.11,3.741
		c-4.655-2.585-6.335-8.458-3.75-13.113C186.24,275.771,192.117,274.093,196.772,276.681z"/>
	<circle cx="206.423" cy="259.314" r="9.643"/>
	<path d="M225.449,225.09c4.655,2.588,6.332,8.459,3.747,13.114c-2.591,4.654-8.462,6.329-13.119,3.741
		c-4.652-2.585-6.329-8.458-3.744-13.113C214.923,224.177,220.791,222.5,225.449,225.09z"/>
	<path d="M239.784,199.289c4.661,2.588,6.338,8.462,3.75,13.117c-2.588,4.654-8.462,6.329-13.116,3.741
		c-4.658-2.585-6.335-8.458-3.747-13.113C229.265,198.379,235.132,196.704,239.784,199.289z"/>
	<path d="M254.128,173.494c4.655,2.588,6.332,8.458,3.741,13.116c-2.585,4.651-8.458,6.329-13.113,3.741
		c-4.655-2.588-6.332-8.459-3.741-13.114C243.6,172.583,249.471,170.906,254.128,173.494z"/>
	<circle cx="263.782" cy="156.126" r="9.642"/>
	<path d="M282.988,121.571c4.655,2.591,6.332,8.461,3.744,13.116c-2.588,4.652-8.456,6.332-13.113,3.744
		c-4.655-2.591-6.332-8.461-3.744-13.116C272.459,120.66,278.336,118.986,282.988,121.571z"/>
	<path d="M297.329,95.772c4.655,2.591,6.332,8.461,3.744,13.116s-8.458,6.329-13.113,3.744c-4.658-2.588-6.335-8.458-3.747-13.116
		C286.798,94.862,292.675,93.188,297.329,95.772z"/>
	<path d="M311.668,69.977c4.657,2.588,6.332,8.458,3.747,13.113c-2.591,4.655-8.459,6.332-13.12,3.744
		c-4.655-2.588-6.329-8.458-3.741-13.113S307.01,67.389,311.668,69.977z"/>
	<path d="M326.006,44.182c4.655,2.588,6.332,8.459,3.744,13.113c-2.582,4.655-8.458,6.329-13.113,3.744
		c-4.654-2.588-6.332-8.461-3.744-13.116S321.352,41.594,326.006,44.182z"/>
	<path d="M212.123,302.099c4.658,2.588,6.329,8.461,3.741,13.116c-2.585,4.655-8.453,6.329-13.113,3.741
		c-4.655-2.585-6.332-8.458-3.744-13.113S207.465,299.511,212.123,302.099z"/>
	<path d="M226.461,276.304c4.655,2.588,6.332,8.459,3.744,13.113c-2.588,4.655-8.458,6.332-13.116,3.741
		c-4.652-2.585-6.329-8.458-3.741-13.11C215.936,275.393,221.807,273.716,226.461,276.304z"/>
	<path d="M240.802,250.505c4.652,2.588,6.332,8.459,3.744,13.116c-2.588,4.655-8.464,6.329-13.116,3.741
		c-4.655-2.588-6.332-8.458-3.744-13.113C230.277,249.592,236.145,247.917,240.802,250.505z"/>
	<path d="M255.138,224.71c4.655,2.585,6.332,8.459,3.744,13.113c-2.582,4.655-8.458,6.332-13.113,3.741
		c-4.651-2.585-6.332-8.458-3.744-13.113S250.483,222.119,255.138,224.71z"/>
	<path d="M269.479,198.912c4.654,2.585,6.332,8.462,3.744,13.114c-2.588,4.657-8.458,6.332-13.113,3.744
		c-4.658-2.588-6.332-8.458-3.747-13.113C258.954,197.998,264.825,196.324,269.479,198.912z"/>
	<path d="M283.821,173.117c4.651,2.584,6.332,8.458,3.741,13.113c-2.585,4.654-8.461,6.329-13.113,3.741
		c-4.658-2.588-6.329-8.456-3.747-13.113C273.292,172.2,279.163,170.529,283.821,173.117z"/>
	<path d="M298.156,147.315c4.657,2.591,6.338,8.462,3.744,13.117c-2.582,4.654-8.458,6.332-13.113,3.744
		c-4.654-2.588-6.329-8.462-3.744-13.117C287.634,146.405,293.501,144.73,298.156,147.315z"/>
	<path d="M312.677,121.19c4.661,2.591,6.338,8.461,3.747,13.113c-2.588,4.658-8.459,6.335-13.116,3.747
		c-4.655-2.591-6.332-8.461-3.744-13.116S308.025,118.605,312.677,121.19z"/>
	<path d="M327.019,95.395c4.658,2.588,6.332,8.458,3.747,13.116c-2.591,4.655-8.462,6.329-13.116,3.741
		c-4.655-2.588-6.335-8.458-3.744-13.116C316.49,94.484,322.364,92.807,327.019,95.395z"/>
	<path d="M341.36,69.6c4.652,2.585,6.329,8.456,3.744,13.113c-2.588,4.655-8.458,6.329-13.113,3.741
		c-4.655-2.585-6.335-8.458-3.744-13.113C330.829,68.686,336.702,67.012,341.36,69.6z"/>
	<path d="M224.203,325.699c4.655,2.588,6.332,8.462,3.744,13.117c-2.585,4.654-8.458,6.329-13.113,3.744
		c-4.655-2.591-6.335-8.459-3.747-13.12C213.671,324.785,219.548,323.114,224.203,325.699z"/>
	<path d="M238.544,299.9c4.655,2.588,6.329,8.462,3.744,13.117c-2.588,4.654-8.461,6.329-13.113,3.741
		c-4.658-2.585-6.335-8.458-3.747-13.113C228.016,298.99,233.886,297.313,238.544,299.9z"/>
	<path d="M252.879,274.105c4.658,2.588,6.332,8.458,3.747,13.113c-2.585,4.658-8.458,6.332-13.116,3.741
		c-4.655-2.584-6.332-8.456-3.744-13.113C242.354,273.192,248.225,271.518,252.879,274.105z"/>
	<path d="M267.218,248.304c4.658,2.591,6.335,8.462,3.747,13.12c-2.585,4.655-8.461,6.329-13.113,3.741
		c-4.655-2.588-6.332-8.462-3.744-13.113C256.692,247.396,262.563,245.719,267.218,248.304z"/>
	<path d="M281.559,222.509c4.655,2.588,6.335,8.461,3.744,13.116c-2.585,4.655-8.461,6.329-13.116,3.741
		c-4.652-2.588-6.329-8.459-3.741-13.113C271.031,221.598,276.908,219.924,281.559,222.509z"/>
	<circle cx="291.213" cy="205.142" r="9.643"/>
	<path d="M310.239,170.918c4.658,2.585,6.332,8.458,3.744,13.113s-8.458,6.332-13.116,3.741c-4.658-2.585-6.329-8.456-3.744-13.113
		C299.713,170.004,305.584,168.33,310.239,170.918z"/>
	<path d="M324.76,144.79c4.654,2.588,6.332,8.462,3.744,13.113c-2.588,4.658-8.459,6.332-13.114,3.744
		c-4.654-2.585-6.332-8.458-3.744-13.113C314.231,143.879,320.108,142.202,324.76,144.79z"/>
	<path d="M339.099,118.992c4.658,2.588,6.335,8.459,3.747,13.12c-2.588,4.651-8.462,6.329-13.12,3.741
		c-4.651-2.591-6.329-8.461-3.738-13.113C328.573,118.081,334.447,116.407,339.099,118.992z"/>
	<path d="M353.437,93.196c4.654,2.588,6.335,8.456,3.75,13.114c-2.588,4.654-8.465,6.332-13.12,3.744
		c-4.651-2.588-6.329-8.458-3.741-13.113C342.912,92.283,348.782,90.608,353.437,93.196z"/>
	<path d="M367.775,67.398c4.658,2.591,6.338,8.462,3.747,13.117c-2.585,4.654-8.459,6.332-13.113,3.744
		c-4.655-2.591-6.329-8.462-3.744-13.113C357.253,66.485,363.124,64.813,367.775,67.398z"/>
	<circle cx="249.207" cy="333.747" r="9.643"/>
	<path d="M268.233,299.523c4.654,2.588,6.332,8.458,3.744,13.113c-2.588,4.654-8.459,6.329-13.114,3.741
		c-4.654-2.585-6.332-8.456-3.744-13.11C257.705,298.609,263.579,296.935,268.233,299.523z"/>
	<path d="M282.568,273.725c4.658,2.585,6.338,8.459,3.75,13.114c-2.591,4.654-8.462,6.332-13.117,3.741
		c-4.654-2.585-6.335-8.458-3.741-13.113C272.043,272.812,277.914,271.14,282.568,273.725z"/>
	<path d="M296.91,247.927c4.658,2.588,6.332,8.461,3.747,13.116c-2.588,4.654-8.462,6.329-13.113,3.741
		c-4.658-2.585-6.335-8.459-3.747-13.114C286.385,247.016,292.255,245.339,296.91,247.927z"/>
	<path d="M311.251,222.131c4.655,2.585,6.332,8.458,3.744,13.113s-8.459,6.332-13.117,3.744c-4.651-2.588-6.329-8.462-3.747-13.117
		C300.726,221.218,306.597,219.541,311.251,222.131z"/>
	<path d="M325.587,196.336c4.658,2.585,6.338,8.456,3.747,13.113c-2.585,4.655-8.462,6.329-13.116,3.741
		c-4.655-2.585-6.326-8.462-3.744-13.113C315.064,195.422,320.935,193.745,325.587,196.336z"/>
	<path d="M339.928,170.535c4.655,2.591,6.335,8.458,3.744,13.116c-2.582,4.655-8.459,6.329-13.113,3.741
		c-4.655-2.585-6.332-8.459-3.744-13.113C329.406,169.621,335.273,167.95,339.928,170.535z"/>
	<path d="M354.449,144.41c4.658,2.588,6.332,8.462,3.747,13.116c-2.588,4.655-8.458,6.332-13.116,3.741
		c-4.655-2.585-6.329-8.458-3.744-13.113C343.924,143.502,349.794,141.822,354.449,144.41z"/>
	<path d="M368.791,118.611c4.658,2.588,6.332,8.462,3.744,13.12c-2.588,4.651-8.458,6.329-13.113,3.738
		c-4.655-2.585-6.332-8.456-3.744-13.113C358.262,117.701,364.136,116.026,368.791,118.611z"/>
	<path d="M383.129,92.816c4.655,2.588,6.332,8.462,3.747,13.117c-2.591,4.654-8.461,6.332-13.113,3.741
		c-4.658-2.588-6.335-8.458-3.744-13.113C372.604,91.906,378.475,90.228,383.129,92.816z"/>
	<circle cx="265.909" cy="359.914" r="9.643"/>
	<path d="M284.935,325.69c4.651,2.588,6.329,8.458,3.741,13.113c-2.585,4.655-8.456,6.332-13.11,3.741
		c-4.654-2.585-6.335-8.458-3.747-13.113C274.403,324.776,280.28,323.102,284.935,325.69z"/>
	<path d="M299.271,299.889c4.654,2.588,6.332,8.458,3.744,13.116c-2.588,4.655-8.456,6.332-13.113,3.744
		c-4.654-2.591-6.332-8.462-3.744-13.116C288.745,298.978,294.616,297.304,299.271,299.889z"/>
	<path d="M313.612,274.093c4.654,2.588,6.332,8.461,3.747,13.113c-2.591,4.658-8.462,6.332-13.117,3.744
		c-4.654-2.585-6.332-8.458-3.744-13.116C303.083,273.183,308.957,271.508,313.612,274.093z"/>
	<path d="M327.947,248.295c4.657,2.588,6.338,8.462,3.747,13.116c-2.585,4.655-8.459,6.332-13.113,3.741
		c-4.652-2.585-6.335-8.458-3.747-13.113C317.422,247.384,323.295,245.707,327.947,248.295z"/>
	<path d="M342.289,222.5c4.658,2.588,6.332,8.456,3.747,13.116c-2.588,4.655-8.462,6.329-13.116,3.738
		c-4.655-2.582-6.332-8.456-3.741-13.11C331.763,221.586,337.634,219.912,342.289,222.5z"/>
	<path d="M356.63,196.701c4.655,2.591,6.332,8.459,3.744,13.113c-2.588,4.658-8.459,6.332-13.12,3.747
		c-4.651-2.591-6.326-8.461-3.741-13.116C346.104,195.791,351.975,194.116,356.63,196.701z"/>
	<path d="M371.151,170.577c4.655,2.588,6.332,8.458,3.747,13.116c-2.591,4.655-8.458,6.332-13.116,3.741
		c-4.655-2.588-6.332-8.459-3.744-13.113C360.623,169.666,366.496,167.989,371.151,170.577z"/>
	<path d="M385.492,144.778c4.652,2.588,6.329,8.461,3.744,13.116c-2.588,4.655-8.458,6.329-13.116,3.744
		c-4.655-2.591-6.329-8.459-3.744-13.116C374.961,143.868,380.838,142.193,385.492,144.778z"/>
	<path d="M399.831,118.983c4.658,2.588,6.332,8.458,3.747,13.113c-2.591,4.658-8.461,6.335-13.119,3.744
		c-4.655-2.588-6.329-8.458-3.741-13.113S395.176,116.395,399.831,118.983z"/>
	<path d="M414.169,93.188c4.655,2.588,6.332,8.456,3.747,13.113c-2.591,4.655-8.461,6.329-13.116,3.744
		c-4.655-2.591-6.332-8.461-3.744-13.116C403.641,92.274,409.515,90.6,414.169,93.188z"/>
	<path d="M300.283,351.108c4.658,2.585,6.332,8.458,3.747,13.113c-2.588,4.655-8.461,6.329-13.116,3.741
		c-4.655-2.585-6.332-8.456-3.744-13.11C289.757,350.194,295.628,348.517,300.283,351.108z"/>
	<path d="M314.624,325.31c4.655,2.585,6.332,8.458,3.744,13.113s-8.458,6.332-13.113,3.741c-4.655-2.585-6.332-8.456-3.744-13.113
		C304.093,324.396,309.969,322.719,314.624,325.31z"/>
	<path d="M328.965,299.511c4.655,2.588,6.332,8.458,3.744,13.113c-2.591,4.658-8.458,6.332-13.113,3.744
		c-4.658-2.588-6.335-8.458-3.744-13.113C318.434,298.598,324.311,296.923,328.965,299.511z"/>
	<path d="M343.301,273.713c4.655,2.588,6.332,8.461,3.75,13.116c-2.594,4.655-8.464,6.332-13.119,3.744s-6.332-8.461-3.741-13.116
		C332.775,272.802,338.646,271.125,343.301,273.713z"/>
	<path d="M357.642,247.917c4.655,2.585,6.332,8.458,3.744,13.116c-2.588,4.652-8.458,6.329-13.116,3.738
		c-4.652-2.585-6.329-8.458-3.741-13.113S352.988,245.327,357.642,247.917z"/>
	<path d="M371.98,222.119c4.655,2.588,6.335,8.459,3.744,13.113c-2.585,4.658-8.456,6.332-13.113,3.744
		c-4.655-2.588-6.329-8.458-3.747-13.113C361.455,221.206,367.329,219.531,371.98,222.119z"/>
	<path d="M386.319,196.324c4.655,2.585,6.338,8.459,3.744,13.113c-2.582,4.655-8.458,6.332-13.113,3.744s-6.332-8.461-3.744-13.116
		S381.665,193.736,386.319,196.324z"/>
	<path d="M400.84,170.196c4.657,2.588,6.332,8.461,3.744,13.116c-2.582,4.655-8.456,6.332-13.113,3.744
		c-4.654-2.588-6.332-8.462-3.744-13.116C390.315,169.286,396.188,167.611,400.84,170.196z"/>
	<path d="M415.182,144.398c4.658,2.591,6.332,8.461,3.747,13.119c-2.591,4.655-8.462,6.329-13.116,3.741
		c-4.655-2.588-6.332-8.459-3.744-13.116C404.653,143.49,410.527,141.813,415.182,144.398z"/>
	<path d="M429.523,118.603c4.655,2.588,6.329,8.458,3.744,13.116c-2.59,4.652-8.458,6.329-13.116,3.741
		c-4.658-2.588-6.332-8.459-3.744-13.113C418.992,117.692,424.868,116.015,429.523,118.603z"/>
	<path d="M315.702,376.562c4.658,2.585,6.332,8.459,3.744,13.11c-2.588,4.658-8.458,6.335-13.119,3.744
		c-4.652-2.585-6.326-8.458-3.741-13.113C305.177,375.645,311.048,373.971,315.702,376.562z"/>
	<path d="M330.038,350.76c4.661,2.591,6.338,8.462,3.747,13.117c-2.585,4.654-8.458,6.329-13.116,3.741
		c-4.655-2.588-6.326-8.456-3.741-13.113C319.519,349.85,325.386,348.175,330.038,350.76z"/>
	<path d="M344.379,324.965c4.661,2.588,6.335,8.459,3.747,13.114c-2.591,4.654-8.461,6.332-13.116,3.744
		c-4.654-2.588-6.332-8.461-3.744-13.116C333.854,324.052,339.725,322.377,344.379,324.965z"/>
	<path d="M358.721,299.167c4.657,2.588,6.332,8.461,3.744,13.116c-2.591,4.654-8.459,6.332-13.117,3.741
		c-4.651-2.585-6.332-8.459-3.741-13.114C348.192,298.256,354.066,296.579,358.721,299.167z"/>
	<path d="M373.062,273.369c4.655,2.588,6.326,8.458,3.744,13.116c-2.591,4.658-8.459,6.332-13.117,3.741
		c-4.657-2.588-6.332-8.456-3.744-13.11C362.53,272.458,368.407,270.784,373.062,273.369z"/>
	<path d="M387.397,247.573c4.661,2.588,6.332,8.458,3.75,13.113c-2.594,4.658-8.458,6.332-13.119,3.744
		c-4.655-2.588-6.332-8.459-3.744-13.113C376.872,246.663,382.743,244.985,387.397,247.573z"/>
	<path d="M401.739,221.778c4.658,2.588,6.332,8.456,3.747,13.113c-2.591,4.655-8.462,6.332-13.116,3.741
		c-4.655-2.585-6.332-8.459-3.744-13.113C391.213,220.864,397.084,219.19,401.739,221.778z"/>
	<path d="M416.257,195.65c4.658,2.591,6.335,8.462,3.747,13.113c-2.582,4.658-8.458,6.332-13.116,3.747
		c-4.652-2.588-6.329-8.461-3.744-13.116C405.734,194.739,411.605,193.065,416.257,195.65z"/>
	<path d="M430.595,169.852c4.661,2.591,6.338,8.462,3.75,13.116c-2.588,4.658-8.462,6.329-13.12,3.741
		c-4.652-2.585-6.326-8.458-3.741-13.11C420.073,168.944,425.946,167.264,430.595,169.852z"/>
	<path d="M444.939,144.056c4.654,2.588,6.332,8.459,3.744,13.113c-2.591,4.658-8.459,6.332-13.116,3.744
		c-4.655-2.588-6.332-8.458-3.744-13.113C434.414,143.146,440.285,141.468,444.939,144.056z"/>
	<path d="M459.278,118.258c4.657,2.591,6.332,8.462,3.747,13.117c-2.591,4.654-8.462,6.332-13.116,3.744
		c-4.655-2.588-6.332-8.461-3.744-13.116C448.75,117.348,454.623,115.673,459.278,118.258z"/>
	<path d="M345.392,376.178c4.655,2.588,6.332,8.462,3.744,13.116c-2.588,4.655-8.456,6.332-13.113,3.741
		c-4.655-2.585-6.332-8.456-3.744-13.113C334.866,375.268,340.737,373.59,345.392,376.178z"/>
	<path d="M359.733,350.383c4.655,2.588,6.332,8.459,3.744,13.113c-2.588,4.658-8.458,6.332-13.113,3.744s-6.332-8.458-3.75-13.116
		C349.208,349.473,355.075,347.795,359.733,350.383z"/>
	<path d="M374.071,324.584c4.658,2.588,6.335,8.462,3.747,13.114c-2.588,4.654-8.458,6.332-13.116,3.744
		c-4.658-2.584-6.332-8.461-3.747-13.113C363.546,323.671,369.414,321.997,374.071,324.584z"/>
	<path d="M388.41,298.786c4.661,2.588,6.332,8.459,3.744,13.117c-2.585,4.658-8.458,6.332-13.116,3.741
		c-4.652-2.588-6.329-8.458-3.741-13.113C377.884,297.876,383.755,296.201,388.41,298.786z"/>
	<circle cx="398.066" cy="281.42" r="9.643"/>
	<path d="M417.092,247.196c4.655,2.585,6.332,8.458,3.744,13.113c-2.591,4.655-8.458,6.329-13.116,3.741
		c-4.652-2.588-6.329-8.459-3.741-13.113C406.567,246.282,412.438,244.605,417.092,247.196z"/>
	<path d="M431.428,221.397c4.655,2.588,6.332,8.456,3.744,13.113c-2.585,4.655-8.458,6.332-13.113,3.741
		c-4.655-2.582-6.332-8.459-3.744-13.113C420.902,220.484,426.773,218.81,431.428,221.397z"/>
	<circle cx="441.265" cy="203.7" r="9.644"/>
	<path d="M460.29,169.474c4.658,2.588,6.332,8.459,3.744,13.116c-2.588,4.652-8.458,6.329-13.113,3.741
		c-4.654-2.588-6.332-8.458-3.747-13.113C449.765,168.563,455.636,166.886,460.29,169.474z"/>
	<path d="M474.626,143.676c4.66,2.591,6.338,8.459,3.75,13.116c-2.588,4.655-8.462,6.329-13.119,3.744
		c-4.655-2.591-6.329-8.458-3.744-13.116C464.106,142.765,469.975,141.091,474.626,143.676z"/>
	<path d="M362.093,402.345c4.658,2.588,6.332,8.458,3.744,13.113c-2.588,4.658-8.462,6.332-13.113,3.744
		c-4.658-2.588-6.332-8.459-3.747-13.113C351.568,401.435,357.438,399.757,362.093,402.345z"/>
	<path d="M376.429,376.55c4.658,2.585,6.338,8.458,3.747,13.113c-2.585,4.655-8.462,6.332-13.116,3.744
		c-4.655-2.588-6.326-8.459-3.744-13.116C365.909,375.636,371.777,373.962,376.429,376.55z"/>
	<path d="M390.77,350.751c4.658,2.588,6.338,8.458,3.747,13.113c-2.585,4.658-8.461,6.332-13.116,3.744s-6.329-8.462-3.744-13.113
		C380.245,349.841,386.115,348.164,390.77,350.751z"/>
	<path d="M405.111,324.953c4.655,2.588,6.332,8.458,3.744,13.116c-2.588,4.652-8.458,6.329-13.116,3.741s-6.329-8.458-3.741-13.113
		S400.457,322.365,405.111,324.953z"/>
	<path d="M419.453,299.155c4.655,2.591,6.329,8.461,3.744,13.116c-2.591,4.655-8.458,6.332-13.116,3.744s-6.335-8.458-3.744-13.113
		C408.924,298.247,414.798,296.57,419.453,299.155z"/>
	<path d="M433.788,273.359c4.661,2.588,6.332,8.459,3.744,13.116c-2.585,4.652-8.456,6.329-13.113,3.741
		c-4.655-2.588-6.332-8.458-3.744-13.116C423.263,272.449,429.133,270.774,433.788,273.359z"/>
	<path d="M448.13,247.561c4.654,2.591,6.332,8.458,3.744,13.116c-2.585,4.655-8.459,6.329-13.113,3.741
		c-4.655-2.588-6.333-8.458-3.744-13.113C437.604,246.65,443.475,244.976,448.13,247.561z"/>
	<path d="M462.647,221.437c4.658,2.588,6.338,8.461,3.747,13.116c-2.585,4.655-8.461,6.329-13.116,3.741
		c-4.651-2.585-6.329-8.459-3.744-13.114C452.125,220.526,457.996,218.849,462.647,221.437z"/>
	<path d="M476.989,195.641c4.657,2.588,6.338,8.458,3.747,13.113c-2.588,4.655-8.462,6.329-13.119,3.741
		c-4.655-2.585-6.329-8.456-3.741-13.11C466.464,194.73,472.334,193.053,476.989,195.641z"/>
	<path d="M491.327,169.843c4.661,2.591,6.335,8.458,3.747,13.113c-2.585,4.658-8.458,6.332-13.116,3.741
		c-4.654-2.585-6.329-8.453-3.741-13.113C480.802,168.929,486.676,167.258,491.327,169.843z"/>
	<path d="M505.669,144.047c4.657,2.588,6.332,8.456,3.747,13.113c-2.591,4.655-8.462,6.329-13.116,3.741
		c-4.658-2.585-6.332-8.459-3.744-13.113C495.144,143.134,501.011,141.459,505.669,144.047z"/>
	<path d="M391.785,401.965c4.655,2.588,6.329,8.461,3.741,13.116c-2.585,4.658-8.458,6.329-13.113,3.741
		c-4.655-2.585-6.332-8.456-3.744-13.113C381.257,401.054,387.128,399.377,391.785,401.965z"/>
	<path d="M406.124,376.167c4.654,2.588,6.332,8.461,3.744,13.116c-2.584,4.658-8.458,6.332-13.113,3.744
		c-4.654-2.591-6.332-8.462-3.744-13.116C395.599,375.256,401.466,373.582,406.124,376.167z"/>
	<path d="M420.465,350.371c4.654,2.588,6.332,8.458,3.744,13.116c-2.588,4.655-8.459,6.332-13.117,3.741
		c-4.651-2.588-6.329-8.459-3.747-13.113C409.94,349.46,415.805,347.783,420.465,350.371z"/>
	<path d="M434.801,324.573c4.657,2.591,6.335,8.461,3.744,13.116c-2.582,4.655-8.459,6.332-13.114,3.744
		c-4.654-2.588-6.329-8.458-3.744-13.116C424.278,323.662,430.146,321.988,434.801,324.573z"/>
	<path d="M449.142,298.774c4.655,2.591,6.332,8.461,3.744,13.119c-2.588,4.655-8.458,6.329-13.116,3.741
		c-4.651-2.585-6.329-8.458-3.741-13.113S444.487,296.189,449.142,298.774z"/>
	<path d="M463.48,272.979c4.657,2.588,6.335,8.462,3.747,13.113c-2.588,4.655-8.459,6.332-13.116,3.744
		c-4.655-2.585-6.329-8.458-3.741-13.113S458.829,270.394,463.48,272.979z"/>
	<path d="M477.818,247.184c4.658,2.588,6.335,8.459,3.744,13.113c-2.588,4.655-8.458,6.332-13.113,3.744
		c-4.654-2.588-6.329-8.461-3.744-13.113C467.296,246.27,473.164,244.596,477.818,247.184z"/>
	<path d="M492.34,221.056c4.657,2.591,6.335,8.462,3.747,13.117c-2.588,4.654-8.462,6.332-13.116,3.744s-6.332-8.462-3.744-13.117
		C481.814,220.148,487.686,218.471,492.34,221.056z"/>
	<path d="M506.682,195.261c4.654,2.588,6.332,8.461,3.744,13.113c-2.588,4.658-8.459,6.332-13.113,3.744
		c-4.655-2.588-6.332-8.459-3.744-13.113C496.156,194.347,502.026,192.673,506.682,195.261z"/>
	<path d="M521.017,169.462c4.661,2.591,6.338,8.461,3.747,13.116c-2.585,4.655-8.459,6.329-13.11,3.744
		c-4.654-2.591-6.332-8.458-3.75-13.116C510.497,168.552,516.365,166.877,521.017,169.462z"/>
</g>
<path fill="#F4762B" d="M91.991,499.146l413.384,215.013c-59.372,114.145-200.042,158.559-314.198,99.186
	C77.021,753.97,32.625,613.297,91.991,499.146z"/>
<g>
	<polygon fill="#A72A59" points="803.04,820.668 633.382,852.532 605.612,508.488 775.268,476.628 	"/>
	<path fill="#A52B5A" d="M650.949,165.583c27.476,0.524,59.971,1.842,68.289-31.109c5.469-21.668-4.331-42.608-9.963-63.254
		c-2.139-7.856-5.538-18.912-3.021-26.934c2.585-8.243,16.549-4.337,23.417-2.666c11.816,2.873,14.526-15.821,2.776-18.681
		c-13.518-3.286-31.732-4.996-40.628,8.33c-7.662,11.469-5.05,26.508-2.091,39.088c4.699,19.958,25.334,58.71,1.482,73.292
		c-9.665,5.913-25.109,3.585-35.82,3.298c-13.191-0.354-27.455-0.734-39.472,5.58c-31.891,16.762-24.747,52.81-20.503,81.903
		c1.717,11.787,2.48,24.415-5.017,34.446c-9.43,12.616-27.935,17.085-42.41,20.85c-11.601,3.022-22.491,5.769-31.088,14.674
		c-11.286,11.697-12.413,31.837-13.389,46.966c-0.773,12.044,17.894,14.956,18.678,2.78c0.887-13.736,0.605-35.291,15.585-41.805
		c15.003-6.526,31.483-8.312,46.466-15.419c15.77-7.479,26.976-20.641,30.33-37.852c2.875-14.737-1.019-30.246-3.295-44.782
		c-2.181-13.931-3.276-28.201,6.446-39.577C625.821,165.239,639.498,165.368,650.949,165.583z"/>
	<path fill="#A52B5A" d="M698.553,212.244c27.473,0.527,59.972,1.842,68.286-31.106c5.47-21.671-4.325-42.611-9.956-63.257
		c-2.139-7.856-5.541-18.912-3.025-26.933c2.585-8.243,16.552-4.337,23.417-2.669c11.819,2.875,14.527-15.821,2.78-18.673
		c-13.521-3.289-31.732-5.002-40.632,8.324c-7.658,11.469-5.047,26.511-2.087,39.088c4.696,19.958,25.331,58.71,1.479,73.294
		c-9.663,5.91-25.112,3.582-35.82,3.295c-13.188-0.354-27.452-0.734-39.469,5.583c-31.895,16.762-24.75,52.81-20.506,81.9
		c1.719,11.79,2.479,24.415-5.018,34.446c-9.426,12.616-27.934,17.085-42.41,20.853c-11.604,3.019-22.494,5.766-31.088,14.671
		c-11.289,11.696-12.412,31.84-13.386,46.966c-0.778,12.044,17.894,14.956,18.679,2.78c0.881-13.736,0.602-35.291,15.581-41.805
		c15.001-6.527,31.48-8.309,46.466-15.42c15.771-7.479,26.976-20.64,30.333-37.851c2.873-14.737-1.021-30.243-3.295-44.782
		c-2.187-13.925-3.276-28.201,6.446-39.577C673.422,211.899,687.102,212.028,698.553,212.244z"/>
	<path fill="#A52B5A" d="M749.861,263.391c27.477,0.524,59.972,1.842,68.287-31.112c5.469-21.668-4.328-42.605-9.957-63.257
		c-2.142-7.851-5.541-18.906-3.024-26.931c2.581-8.246,16.546-4.337,23.417-2.666c11.816,2.875,14.526-15.824,2.776-18.679
		c-13.518-3.289-31.735-4.999-40.631,8.327c-7.656,11.466-5.044,26.511-2.085,39.088c4.696,19.955,25.328,58.714,1.479,73.294
		c-9.662,5.907-25.112,3.583-35.82,3.295c-13.188-0.354-27.451-0.734-39.472,5.58c-31.891,16.762-24.75,52.813-20.503,81.9
		c1.72,11.79,2.48,24.417-5.02,34.452c-9.424,12.613-27.935,17.082-42.407,20.85c-11.604,3.017-22.495,5.769-31.088,14.674
		c-11.289,11.694-12.416,31.837-13.389,46.963c-0.776,12.041,17.894,14.956,18.681,2.777c0.884-13.736,0.6-35.285,15.579-41.803
		c15.003-6.526,31.483-8.309,46.469-15.419c15.77-7.479,26.973-20.638,30.33-37.848c2.872-14.74-1.016-30.247-3.298-44.783
		c-2.181-13.931-3.271-28.204,6.448-39.577C724.731,263.047,738.408,263.169,749.861,263.391z"/>
</g>
<g>
	<path fill="#FCEC45" d="M674.842,463.104c2.815,4.202,1.689,9.896-2.516,12.709s-9.894,1.683-12.706-2.52
		c-2.815-4.205-1.689-9.896,2.516-12.709C666.342,457.77,672.032,458.898,674.842,463.104z"/>
	<path fill="#FCEC45" d="M698.143,447.511c2.813,4.205,1.689,9.894-2.52,12.706c-4.205,2.815-9.891,1.687-12.706-2.519
		c-2.815-4.203-1.686-9.894,2.517-12.703C689.639,442.18,695.33,443.309,698.143,447.511z"/>
	<path fill="#FCEC45" d="M721.736,431.723c2.815,4.202,1.684,9.894-2.517,12.703c-4.205,2.818-9.896,1.689-12.706-2.513
		c-2.815-4.206-1.688-9.9,2.514-12.709C713.229,426.388,718.921,427.514,721.736,431.723z"/>
	<path fill="#FCEC45" d="M745.033,416.124c2.815,4.211,1.689,9.896-2.516,12.712c-4.205,2.815-9.891,1.686-12.706-2.519
		c-2.815-4.206-1.689-9.891,2.516-12.709C736.533,410.795,742.221,411.924,745.033,416.124z"/>
	<path fill="#FCEC45" d="M768.331,400.536c2.815,4.205,1.688,9.893-2.517,12.706c-4.202,2.816-9.891,1.687-12.706-2.516
		c-2.813-4.206-1.689-9.894,2.517-12.715C759.83,395.204,765.519,396.331,768.331,400.536z"/>
	<path fill="#FCEC45" d="M791.628,384.942c2.815,4.206,1.695,9.896-2.516,12.706c-4.2,2.815-9.894,1.687-12.706-2.516
		c-2.815-4.208-1.684-9.896,2.516-12.706C783.127,379.611,788.818,380.737,791.628,384.942z"/>
	<path fill="#FCEC45" d="M676.807,491.236c2.816,4.208,1.687,9.896-2.516,12.712c-4.205,2.813-9.894,1.683-12.706-2.517
		c-2.818-4.208-1.689-9.896,2.516-12.709C668.307,485.907,673.994,487.033,676.807,491.236z"/>
	<path fill="#FCEC45" d="M700.102,475.646c2.815,4.205,1.692,9.896-2.514,12.709c-4.202,2.813-9.896,1.687-12.709-2.52
		c-2.813-4.202-1.68-9.89,2.52-12.708C691.604,470.313,697.289,471.443,700.102,475.646z"/>
	<path fill="#FCEC45" d="M723.401,460.055c2.815,4.206,1.689,9.891-2.516,12.709c-4.202,2.813-9.896,1.684-12.712-2.524
		c-2.81-4.199-1.678-9.888,2.521-12.7C714.901,454.724,720.586,455.85,723.401,460.055z"/>
	<path fill="#FCEC45" d="M746.998,444.264c2.815,4.206,1.687,9.899-2.516,12.709c-4.205,2.815-9.896,1.684-12.712-2.519
		c-2.81-4.202-1.684-9.896,2.519-12.709C738.492,438.93,744.183,440.062,746.998,444.264z"/>
	<path fill="#FCEC45" d="M770.296,428.67c2.815,4.206,1.689,9.894-2.517,12.712c-4.205,2.813-9.896,1.68-12.709-2.522
		c-2.813-4.205-1.689-9.893,2.52-12.706C761.792,423.339,767.48,424.468,770.296,428.67z"/>
	<path fill="#FCEC45" d="M793.593,413.077c2.815,4.206,1.689,9.896-2.516,12.709c-4.203,2.813-9.896,1.683-12.706-2.519
		c-2.813-4.199-1.689-9.894,2.516-12.706C785.089,407.746,790.783,408.872,793.593,413.077z"/>
	<path fill="#FCEC45" d="M679.584,520.593c2.818,4.208,1.692,9.896-2.52,12.709c-4.199,2.815-9.891,1.684-12.703-2.52
		c-2.815-4.208-1.689-9.896,2.52-12.706C671.086,515.261,676.771,516.391,679.584,520.593z"/>
	<path fill="#FCEC45" d="M702.881,504.999c2.815,4.206,1.689,9.894-2.519,12.709c-4.2,2.815-9.891,1.684-12.703-2.519
		c-2.813-4.203-1.687-9.894,2.516-12.709C694.38,499.665,700.068,500.8,702.881,504.999z"/>
	<path fill="#FCEC45" d="M726.182,489.409c2.815,4.205,1.688,9.893-2.517,12.706c-4.202,2.815-9.896,1.686-12.706-2.517
		c-2.818-4.205-1.687-9.896,2.517-12.706C717.681,484.077,723.371,485.209,726.182,489.409z"/>
	<path fill="#FCEC45" d="M749.775,473.614c2.813,4.209,1.686,9.896-2.52,12.706c-4.199,2.819-9.891,1.689-12.706-2.516
		c-2.813-4.202-1.684-9.894,2.522-12.706C741.271,468.286,746.963,469.415,749.775,473.614z"/>
	<path fill="#FCEC45" d="M773.075,458.021c2.813,4.208,1.684,9.896-2.516,12.715c-4.206,2.81-9.896,1.681-12.706-2.52
		c-2.815-4.205-1.689-9.893,2.516-12.709C764.574,452.695,770.26,453.822,773.075,458.021z"/>
	<path fill="#FCEC45" d="M796.369,442.428c2.819,4.212,1.689,9.899-2.513,12.712c-4.205,2.813-9.891,1.689-12.712-2.521
		c-2.81-4.2-1.684-9.894,2.521-12.703C787.872,437.103,793.557,438.226,796.369,442.428z"/>
	<path fill="#FCEC45" d="M681.546,548.728c2.815,4.205,1.688,9.896-2.514,12.712c-4.202,2.813-9.896,1.687-12.706-2.522
		c-2.813-4.202-1.689-9.891,2.514-12.706C673.045,543.401,678.736,544.528,681.546,548.728z"/>
	<path fill="#FCEC45" d="M704.846,533.134c2.815,4.205,1.687,9.896-2.519,12.712c-4.203,2.813-9.891,1.689-12.706-2.521
		c-2.813-4.2-1.684-9.891,2.516-12.706C696.342,527.809,702.033,528.935,704.846,533.134z"/>
	<path fill="#FCEC45" d="M728.146,517.543c2.81,4.209,1.686,9.894-2.52,12.706c-4.202,2.819-9.894,1.687-12.703-2.516
		c-2.818-4.202-1.689-9.894,2.514-12.706C719.646,512.215,725.33,513.341,728.146,517.543z"/>
	<path fill="#FCEC45" d="M751.44,501.953c2.818,4.205,1.692,9.896-2.517,12.706c-4.199,2.815-9.893,1.687-12.705-2.517
		c-2.813-4.205-1.687-9.893,2.519-12.706C742.942,496.621,748.628,497.748,751.44,501.953z"/>
	<path fill="#FCEC45" d="M775.037,486.156c2.815,4.208,1.687,9.899-2.516,12.712c-4.203,2.815-9.894,1.687-12.712-2.517
		c-2.807-4.205-1.681-9.894,2.519-12.709C766.533,480.827,772.225,481.96,775.037,486.156z"/>
	<path fill="#FCEC45" d="M798.334,470.568c2.819,4.205,1.687,9.894-2.516,12.706c-4.202,2.818-9.894,1.687-12.709-2.519
		c-2.81-4.203-1.687-9.891,2.522-12.706C789.831,465.234,795.521,466.363,798.334,470.568z"/>
	<path fill="#FCEC45" d="M681.533,573.905c2.816,4.212,1.689,9.899-2.519,12.712c-4.199,2.813-9.894,1.684-12.703-2.521
		c-2.813-4.199-1.687-9.885,2.516-12.7C673.033,568.58,678.724,569.706,681.533,573.905z"/>
	<path fill="#FCEC45" d="M704.831,558.315c2.815,4.205,1.689,9.899-2.517,12.712c-4.199,2.815-9.893,1.68-12.706-2.52
		c-2.813-4.205-1.688-9.896,2.52-12.709C696.33,552.986,702.021,554.113,704.831,558.315z"/>
	<path fill="#FCEC45" d="M728.131,542.725c2.815,4.205,1.687,9.894-2.516,12.709c-4.205,2.813-9.894,1.687-12.709-2.519
		c-2.813-4.206-1.684-9.894,2.521-12.706C719.628,537.394,725.318,538.52,728.131,542.725z"/>
	<path fill="#FCEC45" d="M751.432,527.135c2.815,4.208,1.686,9.896-2.517,12.709c-4.205,2.809-9.896,1.686-12.712-2.522
		c-2.813-4.205-1.684-9.891,2.517-12.706C742.931,521.806,748.616,522.932,751.432,527.135z"/>
	<path fill="#FCEC45" d="M775.028,511.343c2.81,4.203,1.684,9.894-2.522,12.703c-4.205,2.819-9.891,1.689-12.706-2.516
		c-2.813-4.199-1.689-9.891,2.517-12.706C766.521,506.012,772.213,507.138,775.028,511.343z"/>
	<path fill="#FCEC45" d="M798.322,495.747c2.815,4.205,1.687,9.896-2.519,12.712c-4.2,2.815-9.894,1.684-12.706-2.52
		c-2.813-4.202-1.684-9.894,2.516-12.706C789.818,490.418,795.51,491.545,798.322,495.747z"/>
	<path fill="#FCEC45" d="M683.498,602.049c2.816,4.203,1.689,9.891-2.516,12.706c-4.208,2.81-9.894,1.687-12.706-2.519
		c-2.815-4.202-1.689-9.894,2.517-12.709C674.998,596.718,680.683,597.844,683.498,602.049z"/>
	<path fill="#FCEC45" d="M706.796,586.453c2.815,4.208,1.689,9.896-2.517,12.709c-4.205,2.815-9.893,1.689-12.705-2.517
		c-2.816-4.205-1.689-9.896,2.516-12.709S703.986,582.254,706.796,586.453z"/>
	<path fill="#FCEC45" d="M730.093,570.859c2.818,4.208,1.689,9.896-2.516,12.709c-4.202,2.818-9.891,1.689-12.706-2.516
		c-2.81-4.206-1.684-9.894,2.516-12.713C721.593,565.527,727.283,566.657,730.093,570.859z"/>
	<path fill="#FCEC45" d="M753.391,555.266c2.818,4.212,1.692,9.899-2.517,12.709c-4.199,2.818-9.891,1.687-12.706-2.516
		c-2.815-4.205-1.683-9.891,2.517-12.709C744.89,549.943,750.581,551.066,753.391,555.266z"/>
	<path fill="#FCEC45" d="M776.688,539.676c2.815,4.208,1.695,9.896-2.51,12.706c-4.206,2.818-9.896,1.689-12.712-2.517
		c-2.81-4.202-1.684-9.894,2.519-12.706C768.193,534.344,773.878,535.477,776.688,539.676z"/>
	<path fill="#FCEC45" d="M800.284,523.885c2.815,4.205,1.689,9.899-2.516,12.712c-4.202,2.81-9.891,1.683-12.706-2.522
		s-1.687-9.894,2.516-12.706C791.777,518.556,797.475,519.682,800.284,523.885z"/>
	<path fill="#FCEC45" d="M686.275,631.396c2.815,4.209,1.689,9.896-2.514,12.713c-4.205,2.813-9.896,1.683-12.709-2.52
		c-2.815-4.208-1.686-9.894,2.514-12.709C677.777,626.068,683.463,627.197,686.275,631.396z"/>
	<path fill="#FCEC45" d="M709.575,615.81c2.815,4.205,1.684,9.891-2.516,12.706c-4.206,2.815-9.896,1.689-12.709-2.517
		c-2.81-4.205-1.687-9.893,2.519-12.709C701.071,610.475,706.76,611.604,709.575,615.81z"/>
	<path fill="#FCEC45" d="M732.873,600.213c2.815,4.205,1.688,9.899-2.517,12.712s-9.896,1.687-12.706-2.519
		c-2.813-4.199-1.689-9.896,2.517-12.706C724.372,594.882,730.061,596.011,732.873,600.213z"/>
	<path fill="#FCEC45" d="M756.17,584.623c2.815,4.205,1.689,9.89-2.516,12.709c-4.203,2.813-9.891,1.686-12.706-2.52
		s-1.687-9.894,2.516-12.709C747.669,579.291,753.357,580.417,756.17,584.623z"/>
	<path fill="#FCEC45" d="M779.473,569.032c2.813,4.205,1.684,9.894-2.521,12.706c-4.202,2.813-9.891,1.687-12.712-2.52
		c-2.81-4.205-1.678-9.89,2.521-12.705C770.967,563.697,776.654,564.827,779.473,569.032z"/>
	<path fill="#FCEC45" d="M803.063,553.241c2.816,4.199,1.689,9.894-2.516,12.706s-9.891,1.689-12.709-2.52
		c-2.81-4.202-1.687-9.893,2.52-12.706C794.563,547.906,800.254,549.039,803.063,553.241z"/>
	<path fill="#FCEC45" d="M688.243,659.537c2.813,4.209,1.687,9.894-2.522,12.706c-4.205,2.813-9.891,1.687-12.706-2.519
		c-2.813-4.199-1.687-9.891,2.517-12.706C679.736,654.203,685.428,655.335,688.243,659.537z"/>
	<path fill="#FCEC45" d="M711.54,643.947c2.815,4.199,1.684,9.894-2.519,12.706c-4.206,2.813-9.894,1.687-12.706-2.517
		c-2.813-4.208-1.689-9.899,2.519-12.709C703.033,638.612,708.728,639.745,711.54,643.947z"/>
	<path fill="#FCEC45" d="M734.835,628.351c2.818,4.208,1.686,9.896-2.514,12.709c-4.205,2.81-9.896,1.687-12.706-2.516
		c-2.815-4.206-1.689-9.896,2.517-12.709C726.334,623.022,732.021,624.148,734.835,628.351z"/>
	<path fill="#FCEC45" d="M758.135,612.761c2.815,4.202,1.689,9.896-2.516,12.705c-4.206,2.816-9.896,1.687-12.706-2.516
		c-2.815-4.202-1.689-9.896,2.516-12.709C749.634,607.432,755.322,608.555,758.135,612.761z"/>
	<path fill="#FCEC45" d="M781.438,597.167c2.81,4.205,1.683,9.894-2.522,12.709c-4.205,2.813-9.891,1.687-12.706-2.52
		c-2.815-4.205-1.687-9.893,2.517-12.706C772.932,591.835,778.622,592.968,781.438,597.167z"/>
	<path fill="#FCEC45" d="M804.729,581.573c2.815,4.206,1.692,9.896-2.517,12.709c-4.202,2.815-9.893,1.687-12.705-2.519
		c-2.816-4.203-1.687-9.894,2.516-12.706C796.229,576.242,801.92,577.368,804.729,581.573z"/>
	<path fill="#FCEC45" d="M690.244,687.732c2.815,4.208,1.689,9.896-2.517,12.706c-4.199,2.818-9.894,1.688-12.706-2.517
		c-2.815-4.199-1.689-9.891,2.517-12.706C681.743,682.4,687.432,683.533,690.244,687.732z"/>
	<path fill="#FCEC45" d="M713.541,672.142c2.815,4.202,1.689,9.894-2.516,12.706c-4.199,2.813-9.894,1.687-12.709-2.52
		c-2.813-4.202-1.687-9.896,2.519-12.705C705.04,666.807,710.729,667.939,713.541,672.142z"/>
	<path fill="#FCEC45" d="M736.842,656.548c2.813,4.203,1.686,9.894-2.52,12.709c-4.205,2.813-9.891,1.687-12.706-2.521
		c-2.813-4.199-1.689-9.894,2.52-12.709C728.338,651.214,734.028,652.343,736.842,656.548z"/>
	<path fill="#FCEC45" d="M760.142,640.955c2.815,4.208,1.684,9.894-2.522,12.706c-4.202,2.818-9.89,1.687-12.705-2.52
		c-2.813-4.199-1.689-9.894,2.516-12.706S757.326,636.752,760.142,640.955z"/>
	<path fill="#FCEC45" d="M783.438,625.361c2.816,4.209,1.684,9.891-2.516,12.709c-4.208,2.815-9.894,1.687-12.709-2.519
		c-2.813-4.206-1.687-9.894,2.516-12.709C774.933,620.033,780.623,621.159,783.438,625.361z"/>
	<path fill="#FCEC45" d="M806.736,609.771c2.815,4.205,1.689,9.893-2.52,12.705c-4.202,2.816-9.887,1.689-12.703-2.519
		c-2.815-4.202-1.688-9.894,2.517-12.706C798.229,604.437,803.921,605.565,806.736,609.771z"/>
	<path fill="#FCEC45" d="M692.206,715.87c2.813,4.205,1.687,9.893-2.517,12.706c-4.205,2.815-9.894,1.688-12.709-2.52
		c-2.813-4.202-1.684-9.894,2.517-12.706C683.702,710.535,689.394,711.664,692.206,715.87z"/>
	<path fill="#FCEC45" d="M715.506,700.273c2.815,4.208,1.689,9.899-2.516,12.712c-4.206,2.813-9.894,1.687-12.712-2.52
		c-2.81-4.205-1.684-9.89,2.519-12.706C707.002,694.944,712.69,696.071,715.506,700.273z"/>
	<path fill="#FCEC45" d="M738.803,684.683c2.816,4.206,1.689,9.899-2.516,12.706c-4.199,2.818-9.891,1.689-12.706-2.516
		c-2.815-4.202-1.689-9.894,2.517-12.706C730.303,679.354,735.987,680.48,738.803,684.683z"/>
	<path fill="#FCEC45" d="M762.101,669.093c2.815,4.202,1.689,9.894-2.517,12.706c-4.205,2.813-9.893,1.686-12.705-2.52
		c-2.816-4.205-1.689-9.891,2.516-12.709C753.6,663.761,759.285,664.884,762.101,669.093z"/>
	<path fill="#FCEC45" d="M785.397,653.496c2.815,4.208,1.689,9.899-2.516,12.712c-4.202,2.813-9.894,1.684-12.706-2.522
		c-2.815-4.199-1.687-9.89,2.516-12.705C776.897,648.168,782.588,649.294,785.397,653.496z"/>
	<path fill="#FCEC45" d="M808.701,637.905c2.815,4.209,1.684,9.896-2.517,12.709c-4.211,2.81-9.896,1.687-12.712-2.519
		c-2.81-4.202-1.683-9.896,2.522-12.709C800.194,632.574,805.886,633.703,808.701,637.905z"/>
	<path fill="#FCEC45" d="M694.985,745.224c2.815,4.202,1.689,9.896-2.519,12.706c-4.2,2.815-9.894,1.686-12.706-2.517
		c-2.816-4.208-1.687-9.894,2.516-12.709C686.484,739.892,692.173,741.018,694.985,745.224z"/>
	<path fill="#FCEC45" d="M718.285,729.627c2.81,4.205,1.689,9.896-2.519,12.709c-4.202,2.815-9.894,1.689-12.709-2.516
		c-2.815-4.206-1.684-9.896,2.519-12.712C709.785,724.302,715.47,725.431,718.285,729.627z"/>
	<path fill="#FCEC45" d="M741.583,714.037c2.815,4.205,1.689,9.896-2.517,12.705c-4.202,2.819-9.896,1.687-12.712-2.516
		c-2.81-4.205-1.68-9.891,2.522-12.706S738.771,709.831,741.583,714.037z"/>
	<path fill="#FCEC45" d="M764.88,698.443c2.815,4.205,1.689,9.899-2.516,12.709c-4.205,2.813-9.894,1.684-12.706-2.52
		c-2.815-4.205-1.689-9.89,2.516-12.706C756.38,693.111,762.07,694.241,764.88,698.443z"/>
	<path fill="#FCEC45" d="M788.178,682.85c2.815,4.209,1.689,9.896-2.511,12.715c-4.211,2.807-9.899,1.681-12.712-2.521
		c-2.815-4.209-1.689-9.894,2.517-12.712C779.677,677.519,785.368,678.647,788.178,682.85z"/>
	<path fill="#FCEC45" d="M811.475,667.26c2.818,4.208,1.689,9.896-2.516,12.709c-4.203,2.813-9.891,1.683-12.706-2.522
		c-2.815-4.202-1.687-9.894,2.516-12.706C802.974,661.928,808.665,663.054,811.475,667.26z"/>
	<path fill="#FCEC45" d="M720.25,757.768c2.811,4.202,1.684,9.894-2.521,12.706c-4.205,2.818-9.896,1.684-12.706-2.519
		c-2.815-4.203-1.684-9.888,2.516-12.703C711.744,752.437,717.435,753.563,720.25,757.768z"/>
	<path fill="#FCEC45" d="M743.548,742.174c2.81,4.203,1.687,9.896-2.517,12.709c-4.205,2.813-9.896,1.687-12.712-2.521
		c-2.81-4.202-1.683-9.894,2.517-12.706C735.047,736.846,740.729,737.969,743.548,742.174z"/>
	<path fill="#FCEC45" d="M766.845,726.581c2.813,4.202,1.689,9.896-2.516,12.709s-9.894,1.689-12.712-2.522
		c-2.81-4.199-1.684-9.891,2.521-12.703C758.342,721.249,764.029,722.372,766.845,726.581z"/>
	<path fill="#FCEC45" d="M790.143,710.987c2.81,4.202,1.689,9.899-2.517,12.709c-4.199,2.818-9.896,1.684-12.712-2.521
		c-2.81-4.197-1.68-9.888,2.52-12.706C781.642,705.659,787.327,706.782,790.143,710.987z"/>
	<path fill="#FCEC45" d="M813.439,695.394c2.815,4.206,1.689,9.896-2.516,12.706c-4.206,2.819-9.891,1.692-12.706-2.516
		c-2.815-4.202-1.689-9.891,2.516-12.706C804.936,690.063,810.63,691.194,813.439,695.394z"/>
</g>
</svg>
