<?xml version="1.0" encoding="utf-8"?>
<!-- Generator: Adobe Illustrator 23.1.0, SVG Export Plug-In . SVG Version: 6.00 Build 0)  -->
<svg version="1.1" xmlns="http://www.w3.org/2000/svg" xmlns:xlink="http://www.w3.org/1999/xlink" x="0px" y="0px"
	 viewBox="0 0 761.6 720" style="enable-background:new 0 0 761.6 720;" xml:space="preserve">
<style type="text/css">
	.st0{fill:#FFF083;}
	.st1{fill:#BFB462;}
	.st2{fill:#D14A43;}
</style>
<g id="_x34_">
	<path class="st0" d="M504.1,719.9L516,713c43.2-25.2,75-90.5,87.4-144.1l2.1-8.9l8.6,3.2c37.2,13.8,66.6,20.6,89.9,20.6
		c9.2,0,17.7-1.1,25.3-3.1l7.2-2c51.6-108.1,8-322.8,6.3-541c-181.5,1.3-379.5,5.8-522.6-0.2c-4.1,16.8-9.5,33.2-16.4,49
		c-11.1-15.5-19.4-32.8-24.6-51.1C125.2,32,81.7,26.6,53.4,18.4C27.1,183.1,87.3,596.5,0,719.9H504.1z"/>
</g>
<g id="_x33_">
	<path class="st1" d="M520.1,719.9c45-26.3,78-92.2,91.1-149.2c47.2,17.6,88.3,26.4,120.2,17.6C710,627.1,621.3,722.9,520.1,719.9z"
		/>
</g>
<g id="_x32_">
	<g>
		<path d="M391.6,85.4c-4.8,0-9-3.5-9.8-8.4L376,40.5c-0.9-5.4,2.8-10.5,8.2-11.4c5.4-0.9,10.5,2.8,11.4,8.2l5.9,36.6
			c0.9,5.4-2.8,10.5-8.2,11.4C392.7,85.4,392.1,85.4,391.6,85.4z"/>
	</g>
	<g>
		<path d="M210.3,332.6c16.3-7.3,33.3-18.2,45.9-30.9c8.8-8.9,17.5-18,20.8-30.4c3.1-11.5-6-21.5-16.2-25.6
			c-12.9-5.3-30.6-7.7-52.7-7.3c-6.2,0.1-12.8,0.5-19.6,1c-2.7,0.1-5.2,0.2-7.6,0.3c-22.4,0.4-34.5-2.8-36.8-9.8
			c-0.3-0.9-0.5-2-0.5-3.2c-0.1-7.7,4.3-16.9,12.8-26.8c8.9-10.3,20.5-20.3,34.4-29.8c19-12.9,37-21.5,53.4-25.5
			c5-1.2,9.8-1.9,14.1-2c3.4-0.1,6.6,0.3,9.6,0.9c5.3,1,8.6,4.1,10,9.4c0,0.2,0.1,0.4,0.1,0.6c-2.1,0-4.2,0.1-6.3,0.2
			c-9.3,0.7-19.1,2.6-26.9,8.1c-7.5,5.3-12.5,13.6-10.7,23c1.7,8.9,9.5,16.4,18.3,18.3c10.7,2.3,22-2.8,28.6-11.2
			c6.1-7.7,8.5-17.5,8.5-27.2c11,1.2,22,3.9,32.6,6.5c18.3,4.5,37.5,9.5,56.6,7.8c10.6-1,21.3-4.3,29-12c7.2-7.2,10.7-17.2,8.7-27.3
			c-1.3-6.7-11.5-3.7-10.2,3c1.8,8.9-4.7,17.2-12.2,21.3c-9,4.9-19.9,5-29.9,4.3c-20.9-1.4-40.9-8.6-61.4-12.4
			c-4.5-0.8-9.1-1.5-13.7-2c-0.2-1.5-0.4-3-0.7-4.4c-2.1-8.4-7.9-13.8-17.3-15.9c-3.9-0.9-8.1-1.3-12.6-1.2
			c-5.3,0.1-11,0.9-16.9,2.3c-3.6,0.9-10.4,3.1-19.6,6.4c-10,3.6-22.7,10.6-37.6,20.7c-15,10.2-27.6,21.4-37.4,33.3
			c-9.7,11.7-14.4,22.6-14,32.1c0,2.1,0.3,4.1,0.9,6.1c3.8,11.4,20,16.6,49.2,16.1c1.9,0,3.9-0.1,6-0.2c6.5-0.5,12.7-0.8,18.6-0.9
			c21-0.4,37.4,1.7,48.8,6.3c15.5,6.2,7.9,23.2,0.1,32c-15.6,17.5-35.5,30.2-56.9,39.8c-10.7,4.8-21.1,8.8-31,11.9
			c-16.2,5.1-29.1,7.7-39.3,7.9c-3.5,0.1-6.7-0.2-9.6-0.7c-5.9-1.1-9.5-3.9-11.2-8.5c-2-5.6,0.1-15.4,6.4-28.9
			c0.6-1.3,0.7-2.7,0.2-4.1c-0.5-1.2-1.4-2.1-2.7-2.7c-0.7-0.3-1.5-0.5-2.3-0.5c-0.6,0-1.1,0.1-1.7,0.3c-1.3,0.4-2.2,1.3-2.8,2.7
			c-7.4,16.3-9.7,28.5-6.7,36.5c3.1,8.3,9.4,13.3,18.8,15c3.5,0.6,7.3,0.9,11.5,0.8c11.3-0.2,25-2.9,42.1-8.3
			C181.5,344.7,194.3,339.6,210.3,332.6z M273.9,182c-0.1,0.5-0.2,1.1-0.2,1.6c-0.3,0.4-0.5,0.8-0.8,1.2c-4.7,6-13.5,10.4-20.9,6.9
			c-6.6-3.1-10.2-11-5.6-17.3c4.3-5.9,12.3-8.3,19.1-9.5c4.2-0.7,8.4-1,12.6-1C277.5,169,276.2,175,273.9,182z"/>
		<path d="M451.4,181.5c0.4,0.1,0.8,0.1,1.2,0.1c1,0,1.9-0.3,2.8-0.7c1.3-0.7,2.1-1.7,2.5-3.1c1.2-4.7,1.9-7.1,3.1-11.8
			c0.3-1.3,0-2.6-0.7-3.8c-0.7-1.2-1.8-1.9-3.4-2.3c-0.4-0.1-0.8-0.1-1.2-0.1c-1,0-2,0.3-2.8,0.7c-1.2,0.7-2.1,1.7-2.6,3.1
			c-1.2,4.7-1.8,7.1-2.9,11.8c-0.4,1.4-0.2,2.7,0.6,3.9C448.7,180.4,449.9,181.1,451.4,181.5z"/>
		<path d="M398.2,247.3c-1.2,0.5-2.3,0.7-3.1,0.8c-0.7,0-1.1-0.1-1.4-0.4c-1.4-1.9-1.9-5.3-1.7-10.1c0.2-4.9,0.7-10.1,1.4-15.2
			c1.6-9.2,1.5-15.6-0.5-19.8c-1.7-2.3-3.7-3.5-6-3.5c-1.6,0-3.4,0.6-5.2,1.8c-3.3,2.1-7,5.9-11.1,11.3c-4.1,5.4-8.4,11.5-12.8,18.2
			c-6.6,10-12,17.5-16.5,22.9c0-1.6,0-3.6,0.2-5.8l0.1-2.3c0.2-2.6,0.3-5.4,0.6-8.2c0.4-5,0.9-10.3,0.9-15.1c0-4.7-0.8-8-2.5-10.2
			c-1.4-1.6-3.1-2.4-4.9-2.3c-1.7,0-3.5,0.8-5.4,2.3c-3.1,2.7-7.1,7.6-11.7,14.5c-3.7,5.5-7.3,11.3-10.8,17.2
			c1.3-5.2,2.5-10.1,3.7-14.5c1.5-6,2.4-9.3,2.6-10.1c0.4-1.4,0.2-2.7-0.6-3.9c-0.7-1.1-1.9-1.9-3.3-2.2c-0.5-0.1-1-0.2-1.5-0.2
			c-0.9,0-1.8,0.3-2.6,0.7c-1.1,0.6-1.8,1.5-2.2,2.7l-0.2,0l-0.1,0.6c-0.1,0.9-1.3,5.5-2.2,8.9c-1.4,5.4-2.9,11.5-4.4,18.1
			c-1.6,6.9-3,13.1-4.2,18.6c-1.2,5.5-1.8,9.1-1.8,10.5l0.1,0.3c0.2,3,2,4.7,5,4.6l0.5,0l0.5-0.1c2.1-0.4,3.5-1.5,4-3.2
			c2.7-3.5,6-8.7,9.9-15.5c3.9-6.8,7.9-13.5,11.9-19.8c3.5-5.6,6.7-10.3,9.6-14.1c-0.2,3.9-0.4,7.8-0.7,11.7
			c-0.6,6.6-0.8,11.9-0.8,16.5c0.1,5.3,1,9,2.9,11.3c1.5,1.7,3.2,2.5,5.1,2.5c2,0,4.1-1,6.5-2.9c2.8-2.6,6-6.3,9.7-11.5
			c3.1-4.3,7.2-10.1,11.5-16.4c4.1-6.1,7.4-10.8,10.3-14.8c2.6-3.5,5-6.5,7.1-8.7c-0.2,2.3-0.5,5.1-1,8.7c-0.8,5.9-1.2,12-1.3,18.2
			c-0.1,6.1,1.3,11,4,14.6c1.9,2.9,4.7,4.3,8.4,4.3c5.5-0.1,12.9-3.6,22.8-10.6c5.9-4.7,11-9.3,15.3-13.5
			c-0.7,7.8,0.6,13.6,3.8,17.3c1.6,1.9,3.9,2.8,6.8,2.7c4-0.1,9.3-1.9,16.2-5.6c6.9-4.1,13.8-9.1,20.6-14.9c1.1-0.9,2.1-1.9,3.2-2.8
			c0.6,6,2.8,11.9,6.4,17.7c3.6,5.3,8.9,8.3,15.6,8.9c1.6,0.2,3.2,0.2,4.9,0.2c4.9-0.1,10.2-1,16-2.6c7.5-2.2,15.5-6.7,23.7-13.5
			c5.3-4.4,10.8-9.7,16.8-16.3c3.8-4.1,7-7.7,9.8-10.9c0.8,6.3,3.2,11.8,7.2,16.1c4.3,4.7,10.3,7.3,18,7.7
			c27.2-2.6,49.7-20.7,72.3-40.7c1.1-1,1.7-2.2,1.7-3.6c0-1.4-0.6-2.6-1.7-3.7c-1.1-0.9-2.3-1.4-4-1.4c-1.3,0-2.5,0.5-3.5,1.3
			c-29.2,25.4-49.5,37.9-61.8,38.1c-1,0-1.9,0-2.8-0.2c-4.6-0.2-8-1.6-10.3-4.1c-2.5-2.8-4-6.5-4.6-10.9c-0.1-0.8-0.1-1.7-0.1-2.5
			c0.2,0,0.5,0,0.7,0c2.2,0,5.2-0.3,9.1-0.9c4.8-0.7,9.7-2.5,14.6-5.5c12.4-8.9,18.4-16.5,18.2-23.4c0.1-3.3-0.8-6.1-2.7-8.5
			c-1.8-2.2-4.2-3.9-7.3-4.9c-2.1-0.7-4.3-1-6.6-0.9c-5.5,0.1-11.6,2.2-18.2,6.4c-6.6,5-11.6,11.3-14.7,18.9
			c-0.6,1.5-1.2,3.1-1.6,4.6c-0.2,0.2-2.4,2.8-5.8,6.9c-3.5,4.2-7.9,9.2-13.5,15.3c-5.7,6.2-10.9,11.3-15.9,15.5
			c-7,5.9-13.7,9.7-20,11.5c-4.5,1.3-8.8,2-12.7,2c-1.5,0-2.9,0-4.2-0.2c-3.2-0.3-5.9-1.9-7.6-4.6c-2.8-4.4-4.4-9.2-4.6-14.4
			l-0.3-4.5c4.5-4.2,9.6-10.2,15.4-18.2c5.7-7.9,11.5-16.7,17-26c5.6-9.4,10.3-18.4,14-26.8c3.9-8.9,6-15.7,6.3-20.9
			c0.2-2.3,0.1-4.6-0.2-6.8c-0.4-3.7-1.5-6.8-3.2-9.2c-2.1-3.1-5.6-4.9-9.9-5.2c-0.3,0-0.7,0-1,0c-0.4,0-0.8,0-1.1,0.1
			c-5.7,0.5-13,6.7-21.7,18.3c-5.8,8.7-11.5,22-16.5,38.3c-5.2,17-8.4,30.9-9.3,40.2c-0.3,3.5-0.5,6.7-0.6,9.6
			c-2.9,2.7-6,5.5-9.4,8.4c-6.3,5.5-12.8,10.2-19.2,14c-2.9,1.6-5.2,2.4-6.8,2.4c-1.1,0-1.9-0.3-2.5-1c-1.5-2-1.9-5.2-1.3-9.5
			c1.8-12.7,6.1-23.6,10.3-35.6c0.5-1.4,0.4-2.7-0.2-3.9c-0.6-1.2-1.7-2.1-3.1-2.5c-0.6-0.2-1.3-0.3-1.9-0.3c-0.7,0-1.4,0.2-2.1,0.5
			c-1.3,0.6-2.2,1.5-2.7,2.8c-1.6,4-3.6,9.7-5.7,16.1c-0.5,1.6-1,3.2-1.5,4.9c-1.2,1.6-2.9,3.7-5,6.5c-4.9,6.3-12,13.1-20.7,19.7
			C405.3,243.5,401.1,246.1,398.2,247.3z M600.5,180.8c4.5-3,8.4-4.5,11.6-4.5c1.1,0,2.1,0.1,3.1,0.5c1,0.3,1.7,0.7,2.1,1.2
			c0.4,0.6,0.6,1.2,0.6,2.1c0.2,3.9-4.4,9.2-13.6,15.6c-3.2,2-6.5,3.2-9.9,3.8c-2.9,0.5-5.2,0.8-7.1,0.9
			C589.4,192.5,593.8,185.9,600.5,180.8z M502.2,170.3c4.9-15.8,10.3-28.2,15.6-35.9c5.7-8.2,10.7-13.2,13.5-13.5c0,0,0-0.8,0-0.8
			l0,0.8l0.5,0.1c0.4,0,0.8,0.2,1,0.4c0.7,1.1,1.2,2.7,1.4,4.8c0.2,1.6,0.3,3.3,0.2,5.2c-0.3,4.5-2.3,10.6-5.8,18.4
			c-3.2,7.2-7.5,15.3-13.2,24.9c-6.5,11-13,22-21.9,31.2C494.9,196.8,497.9,184.3,502.2,170.3z"/>
		<path d="M646.5,359.5c9.7-7.7,19.4-15.3,27.4-24.8c13.3-16,20.7-37.6,11.2-57.4c-1.2-2.6-5-3.1-7.3-1.8c-2.7,1.6-3,4.7-1.8,7.3
			c8.2,17.2-1.8,36.3-13.7,48.8c-4.4,4.6-9.1,8.8-14,12.8c0.7-10,0.5-20.1-0.8-30.2c-0.1-0.8-0.2-1.6-0.3-2.4c0,0-0.5-3-0.5-3
			c-1-4.9-3-7.3-6.1-7.3c-0.3,0-0.5,0-0.8,0.1c-1.6,0.3-2.8,1.1-3.6,2.4c-0.7,1.2-1.5,2.9-2.2,5c-1.1,4-3.5,9.3-6.9,15.7
			c-8.8,14.6-17.9,24.4-27.1,29c-1.5,0.7-2.8,1.1-4,1.2c-0.3,0-0.6,0.1-0.8,0.1c-0.5,0-1,0-1.4-0.1c-1.5-0.3-2.6-2.4-3.3-6.1
			c-1.2-6.2-0.2-16.8,3-31.6c0.2-0.8,0.2-1.5,0.1-2.2c-0.4-2-1.6-3.4-3.8-4.1c-0.6-0.2-1.2-0.2-1.7-0.2c-0.2,0-0.3,0-0.5,0
			c-2,0.3-3.4,1.6-3.9,3.7c-1.6,6.7-10.9,15.5-18.3,15.7c-0.5,0-1.1-0.2-1.8-0.6c-1.4-0.7-3.7-3.8-6.7-14.7l-1.7-5.7
			c-1.2-3-3-4.5-5.6-4.5c-0.2,0-0.4,0-0.7,0.1l-1.3,0.3c-3.7,1.4-9.6,11-18,29.2c0.7-3.7,0.9-6.2,0.6-7.5c-0.2-0.9-0.7-1.7-1.4-2.6
			c-0.9-1.2-2.2-1.7-3.9-1.7c-0.2,0-0.5,0-0.7,0.1c-2.5,0.3-3.9,1.9-4,4.5c0,1-0.2,2.4-0.4,3.9c-22.8,27.3-40.3,41.3-52.1,41.6
			c-0.6,0-1.2,0-1.9-0.1c-4.3,0.1-7.7-1.2-10.1-3.6c-2.6-2.7-4.5-6.3-5.6-10.7c-0.2-0.8-0.3-1.6-0.4-2.5c2.1-0.1,5.1-0.6,9-1.4
			c9.5-2,21-9.9,25.1-18.8c4.4-9.6,1.8-21.3-9.3-24.5c-1.7-0.5-3.4-0.7-5.2-0.6c-5.3,0.1-10.9,2.6-16.9,7.4
			c-5.5,5.3-9.3,11.8-11.4,19.5c-0.5,0.1-0.9,0.3-1.3,0.6c-2.4,1.6-6.8,3.9-13.6,7c-6.6,3-12.6,4.9-17.7,5.5
			c-1.2,0.2-2.3,0.2-3.4,0.3c-1,0-2,0-2.9-0.1c6.8-16,9.6-26.2,8.7-31.1c-0.2-0.8-0.5-1.6-0.8-2c-1.1-2.5-3.1-3.8-5.7-3.7
			c-0.3,0-0.6,0-0.9,0.1c-2.1,0.3-4.6,1.5-7.9,3.8c-3.2,2.3-5.9,6.3-7.9,11.8c-2,5.5-2.4,11.4-1.2,17.5c0.5,2.5,1.4,4.7,2.8,6.6
			c-3.1,6.2-6.6,12-10.5,17.4c-2.8,3.9-4.5,6.1-5.7,7.4c-0.9,1-2.3,2.2-4.2,3.5c-0.1-0.3-0.2-0.7-0.3-1.4c-0.7-3.4-1.3-11-1.8-22.7
			c-0.7-15.2-0.8-17.9-0.7-18.2c0-0.5,0-0.8-0.1-1.2c-0.2-0.9-0.7-1.7-1.4-2.5c-1-1.2-2.3-1.8-3.7-1.8c-0.2,0-0.4,0-0.6,0.1
			c-2.6,0.4-4.1,2-4.2,4.6c-0.3,2.3-0.3,6.8-0.1,13.8c-23.2,28.3-40.7,42.8-52.1,43c-0.3,0-0.6,0-1,0c-0.4,0-0.7,0-1.1,0.1
			c-3.7,0.1-6.8-0.9-9-3c-2.6-2.5-4.5-6-5.5-10.4c-0.2-0.8-0.3-1.6-0.4-2.5c2.1-0.2,5.1-0.9,9-2c4.4-1.2,8.7-3.6,12.8-7
			c10.3-10,14.7-18.3,13.7-25.2c-0.4-3.3-1.5-6-3.5-8.1c-1.9-2-4.3-3.4-7.3-4.1c-1.3-0.3-2.7-0.4-4.1-0.4c-5.5,0.1-11.5,3-17.8,8.5
			c-5.5,5.6-9.3,12.5-11.3,20.4c-2,7.8-2.2,15.4-0.6,22.6c1.4,6.4,4.3,11.6,8.6,15.6c4.3,4,9.8,5.9,16.5,5.7c0.4,0,0.8,0,1.2-0.1
			c0.3,0,0.6,0,0.9,0c12.9-0.3,30-12.9,52.3-38.4c0.8,7.7,1.6,13.8,2.5,18.3c1.2,5.8,3.8,8.8,7.7,8.7c0.3,0,0.7,0,1.1-0.1l1.3-0.4
			c5.5-2.3,11.4-7.9,17.7-16.5c3.5-4.9,7.1-10.7,10.6-17.4c2.3,0.7,5,1,7.9,0.9c1.3,0,2.7-0.1,4.2-0.3c8.6-1.1,18.5-4.6,29.5-10.4
			c0,3.2,0.4,6.5,1.1,9.8c1.4,6.4,4.3,11.9,8.6,16.1c4.6,4.5,10.5,6.8,17.7,6.8c0.7,0.1,1.4,0.1,2.2,0.1c11.7-0.3,27.2-10.5,46-30.4
			l-0.4,1.5c-3.4,12.5-4.8,20.3-4.2,23.3l0.2,1c1.1,2.4,2.7,3.7,4.8,3.6c0.2,0,0.3,0,0.7-0.1l1.6-0.5c1.6-1,4.6-4.9,14.6-27.2
			c8.8-19.6,13.7-29.6,15.9-34.1c3.2,10.8,7.3,17.2,12.5,19.8c1.5,0.8,3.1,1.2,4.8,1.1c0.4,0,0.8,0,1.2-0.1c1.8-0.2,3.7-0.9,5.7-1.9
			l4.3-2.2c1.4-0.7,2.7-1.3,3.8-1.9c-0.6,6.5-0.5,11.8,0.3,15.9c0.3,1.7,0.8,3.2,1.3,4.6c2.8,6.9,7.5,10.3,13.9,10.1
			c0.7,0,1.5-0.1,2.2-0.2c2.2-0.3,4.5-1,6.7-2.1c10.8-5.4,21.3-16.5,31.2-32.9c0.9-1.4,1.7-2.9,2.4-4.4c0.3,8.3,0,16.9-1,25.7
			c-3.4,3.2-5.2,4.9-8.7,8.2c-15.1,13.8-27.9,26.3-39.1,38.4c-11.7,12.6-20.2,25.7-25.5,38.9c-2,5.1-2.7,9.5-2,13.1
			c0.8,3.8,2.7,6.7,5.9,8.5c2.5,1.4,5.4,2.1,8.8,2c0.9,0,1.8-0.1,2.7-0.2c5.6-0.7,11.5-3.2,17.6-7.2c18.4-13.7,32.1-33.6,40.9-58.9
			C641.5,382.9,644.6,371.3,646.5,359.5z M459.3,325.6c4-3.3,7.5-5,10.5-5.1c0.8,0,1.6,0.1,2.4,0.3c0.9,0.2,1.6,0.6,2.1,1.1
			c0.5,0.5,0.8,1.2,0.9,2.1c0.7,4-2.8,9.4-10.5,16.2c-2.7,2.1-5.6,3.5-8.6,4.3c-2.6,0.6-4.7,1-6.4,1.2
			C450.4,337.8,453.7,331,459.3,325.6z M296.2,348.8c4.2-3.8,7.8-5.7,10.9-5.8c0.7,0,1.3,0.1,1.9,0.2c0.9,0.2,1.6,0.5,2,1
			c0.5,0.5,0.8,1.2,0.8,2.1c0.7,3.9-2.8,9.6-10.5,16.9c-2.7,2.3-5.6,3.9-8.6,4.8c-2.6,0.8-4.7,1.3-6.3,1.6
			C287.5,361.6,290.7,354.5,296.2,348.8z M590.7,444.8c-4.8,3.2-9.3,5.1-13.4,5.6c-0.6,0.1-1.2,0.1-1.7,0.1
			c-3.5,0.1-3.7-1.4-3.8-1.9c-0.3-1.7,0.2-4.4,1.4-7.5c4.8-12.2,13-24.5,24.2-36.6c7.4-8,30.8-30.2,36.6-34.5
			C627.5,402,612.2,428.4,590.7,444.8z"/>
		<path d="M562.6,479.1c-12,0.3-22.9,6-30.7,14.9c-0.8-10.1-3.8-19.8-11.4-27.6c-10.8-11.1-28.6-13.9-42.9-9.1
			c-14.2,4.7-25.7,17.1-28.5,31.9c-3.2,17,4.3,33.3,16.1,45.2c11.8,11.9,33.9,23.9,32.2,43.4c-0.2,2.9,2.8,5.3,5.4,5.2
			c3.1-0.1,5-2.5,5.2-5.4c1.3-15.5-10-28.2-20.8-37.7c-11.1-9.8-23.3-18.9-27.3-34c-3.4-12.8,1.4-26.6,12.3-34.2
			c10.4-7.2,25.1-8.3,36-1.6c15.7,9.6,13.9,30.4,12.2,46.1c-0.1,0.8,0.1,1.6,0.5,2.3c0.4,5.7,9.4,7.6,10.4,1.3
			c2-13.1,10.6-25,23.6-28.9c11.3-3.3,23.5,0.4,31.8,8.6c9.8,9.8,12,23.9,7.6,36.7c-4.7,13.5-15.5,24.3-27,32.3
			c-25,17.4-54.4,25.7-84.6,27.2c-17,0.8-34.2-0.1-51.2-1.2c-11.1-0.7-22.1-1.7-33.1-2.9c3.4-6,6.7-12,9.6-18.2
			c6-12.7,10.5-26.1,13.5-39.8c1.5-6.8,2.5-13.8,3.2-20.8c1.2-12.2,1.6-24.2,1.8-36.5c0.1-5.7,0.9-22.3-8.2-22.2
			c-0.4,0-0.7,0-1.1,0.1c-1.6,0.3-2.9,1.2-3.7,2.6c-0.7,1.3-1.4,3-2,5.3c-0.9,4.3-3,9.8-6.2,16.6c-8.3,15.4-17.2,25.7-26.5,30.6
			c-1.5,0.7-2.9,1.1-4.1,1.3c-0.4,0.1-0.7,0.1-1,0.1c-0.5,0-0.9,0-1.3-0.1c-1.6-0.3-3-2.5-4-6.4c-1.7-6.6-1.4-17.7,1-33
			c0.1-0.8,0.1-1.6-0.1-2.2c-0.5-2.1-1.9-3.5-4.2-4.2c-0.6-0.1-1.1-0.2-1.6-0.2c-0.2,0-0.4,0-0.6,0c-2.1,0.3-3.5,1.7-3.9,3.9
			c-2.3,12.8-10,18.4-19.7,26.3c-6.6,5.4-13,9.4-18.9,11.9c-2.9,1.2-5.6,1.9-7.8,1.9c-0.4,0-0.9,0-1.2-0.1c-1.2-0.1-2.1-1-2.8-2.5
			c-1.5-3.3-1.5-9.6,0-18.1c0.1-0.9,0.4-2,0.7-3.5c0.2-1.4,0.5-2.6,0.8-3.7c0.3-1.2,0.1-2.3-0.4-3.5c-0.5-1.1-1.4-2-2.5-2.6
			c-1-0.6-2-0.9-2.9-0.9c-0.4,0-0.7,0-1.1,0.1c-0.4,0.1-0.8,0.3-1.2,0.5c0.1-0.8,0-1.6-0.3-2.5c-0.5-1.3-1.4-2.4-2.8-3.1
			c-3.1-1.6-6.2-2.7-9.3-3.2c-1.4-0.2-2.9-0.3-4.3-0.3c-7,0-13.3,2.6-18.8,7.5c-12.1,11-17.6,27.1-28.5,39.2
			c-5.3,5.8-11,10.4-17.1,13.5c-3.1,1.6-6,2.4-8.8,2.4c-2.1,0-4.1-0.4-6.1-1.3c-1-0.4-2-1.1-3-2.1c-1.2-1.1-2.3-2.6-3.5-4.4
			c11.1-24.8,17-50.2,17.6-75.7c0.2-9.5-0.3-17.8-1.5-24.6c-1.4-7.7-3.7-13.5-7.1-17c-2.5-2.7-5.4-4-8.5-4c-1.7,0-3.4,0.4-5.2,1.2
			c-1.2,0.5-2.4,1.4-3.5,2.7c-3.2,3.8-5.9,10.8-7.9,20.9c-2,9.7-3.2,21.1-3.6,34c-0.4,10.1-0.1,20,0.8,29.3
			c-2.4-0.9-4.7-1.3-6.9-1.3c-4.6,0-8.9,1.9-12.9,5.5c-7.2,6.6-12.6,16.2-16.1,28.4c-3.5,12.3-3.5,22.4,0,30
			c2.4,5.2,6.5,7.9,12.1,7.8c3.4,0,7.5-1,12.1-3.1c9.9-5.2,18.4-13.4,25.1-24.5c0.7,0.8,1.4,1.5,2.1,2.3c1.8,1.5,3.7,2.7,5.5,3.5
			c3.7,1.7,7.4,2.6,11.2,2.5c4.3,0,8.8-1.2,13.2-3.5c7.4-3.9,14.1-9.1,19.9-15.5c0.3-0.3,0.6-0.7,0.9-1c0.3,2.2,0.8,4.2,1.5,6
			c1.2,3.1,3.1,5.6,5.7,7.4c2.2,1.6,4.9,2.4,7.9,2.4c0.6,0,1.3,0,2-0.1c3-0.4,6.8-1.9,11.2-4.6c6.3-4.6,12.4-11.4,18.1-20.2
			c1.4-1.9,2.7-3.9,4-5.8c0.3,2.1,0.8,4,1.5,5.7c2.5,5.8,6.6,9.1,12.1,9.7c1,0.1,2,0.2,3,0.2c3.7,0,7.5-0.9,11.4-2.5
			c6.6-2.8,13.6-7.2,20.9-13.1c3.7-3,7.2-6.1,10.4-9.2c0.1,4.7,0.5,8.7,1.4,11.8c0.5,1.8,1,3.4,1.7,4.8c3.4,7,8.4,10.5,14.9,10.5
			c0.9,0,1.8-0.1,2.7-0.2c2.3-0.3,4.6-1.1,6.9-2.2c10.9-5.6,21.1-17.2,30.2-34.2c1.2,24-1.8,47.8-10.3,70.6
			c-4.4,11.7-10.2,22.9-16.5,33.7c-0.3,0.5-0.6,1-0.9,1.5c-3.3-0.4-6.6-0.8-9.9-1.3c-17.9-2.5-35.7-6-53.5-9.1
			c-16.6-2.9-33.6-4.9-50.4-2.4c-15,2.2-30.2,7.7-40.9,18.9c-9.7,10.1-15.4,24.5-12,38.4c3.3,13.6,15.2,23.6,27.6,28.9
			c12.7,5.4,26.7,7.1,40.4,5.9c27.9-2.4,54.6-15.2,75.7-33.3c10-8.6,18.1-18.5,25.3-29.6c1.1-1.7,2.2-3.4,3.2-5.1
			c2,0.2,4,0.5,6.1,0.7c62.2,6.7,133.8,11.7,184.5-32.4c10.8-9.4,20-22,23.2-36.2c3.1-14.2-0.6-28.8-10.1-39.7
			C587.9,484.5,575.2,478.8,562.6,479.1z M164.2,545.2c-2.8,1.2-5,1.9-6.7,1.9c-1.7,0-2.8-0.6-3.3-1.9c-2.3-5.3-2-12.8,0.7-22.5
			c2.8-10.1,7.2-17.9,13-23.3c2-1.8,4-2.8,6.1-2.8c2.7,0,5.5,1.5,8.5,4.4c1.3,7.2,3.2,13.5,5.4,18.9
			C181.7,531.6,173.7,540.1,164.2,545.2z M194.2,506c-3.2-13.8-4.4-29.6-3.8-47.2c0.5-11.9,1.5-22.4,3.1-31.1
			c1.6-8.8,3.7-14.7,6.1-17.5c0.2-0.2,0.4-0.4,0.3-0.4h0c0.3-0.1,0.5-0.2,0.7-0.2c0.2,0,0.4,0.1,0.6,0.2c1.8,1.8,3.2,5.6,4.1,11.1
			c1.1,6,1.5,13.6,1.3,22.4C206.1,464.1,201.9,485.2,194.2,506z M297.2,481.9c-3.2,6.2-7.6,13.4-12.7,21
			c-5.3,7.9-10.6,13.9-15.8,17.8c-3,1.9-5.4,2.9-7.2,3.1c-0.3,0-0.5,0.1-0.7,0.1c-0.5,0-0.9-0.1-1.2-0.3c-0.5-0.3-0.9-1-1.3-1.9
			c-0.7-1.9-1-4.3-0.9-7.1c0.2-4.7,1.7-10.3,4.5-16.6c3.1-6.8,7.1-12.5,12-16.8c3.8-3.4,8.3-5.3,12.8-5.3c0.8,0,1.6,0,2.4,0.1
			c1.6,0.2,3.4,0.9,5.4,2c0.9,0.4,1.8,0.6,2.7,0.6c0.4,0,0.9-0.1,1.3-0.2c0.2,0,0.4-0.1,0.5-0.2C298.6,479.1,298,480.4,297.2,481.9z
			 M366.2,619.7c-18.5,19.5-43.7,33.6-70.2,38.4c-13.1,2.3-27,1.9-39.7-2.3c-11.7-3.9-24.4-12.7-26.3-25.8
			c-1.9-13.4,7.4-26,18.2-32.7c13.2-8.2,29.2-10.5,44.5-10c17.6,0.5,34.9,4.5,52.2,7.6c11.9,2.1,23.9,3.9,36,5.5
			C376.5,607.1,371.8,613.7,366.2,619.7z"/>
		<g>
			<path d="M653.5,445.7c-2.2-1.9-5.4-2-7.5,0.1c-6.2,6.4-12.5,12.8-18.7,19.2c-1.9,2-2,5.6,0.1,7.5c2.2,1.9,5.4,2,7.5-0.1
				c6.2-6.4,12.5-12.8,18.7-19.2C655.5,451.2,655.6,447.6,653.5,445.7z"/>
			<path d="M694.2,479.3c-1.6-2.7-4.7-3-7.3-1.8c-15.9,7.1-32.3,12.9-48.2,20c-2.6,1.2-3.1,5.1-1.8,7.3c1.6,2.7,4.7,3,7.3,1.8
				c15.9-7.1,32.3-12.9,48.2-20C695.1,485.4,695.6,481.5,694.2,479.3z"/>
			<path d="M666.3,547.3c0.8,0.5,1.1,0.4,0.6,0.2c-0.1,0-0.2,0-0.3-0.1C666.5,547.4,666.4,547.3,666.3,547.3z"/>
			<path d="M669.8,537.3C669.8,537.3,669.9,537.3,669.8,537.3C669.8,537.3,669.8,537.3,669.8,537.3c-0.6-0.2-1.2-0.4-1.8-0.6
				c-1.9-0.6-3.9-1.2-5.8-1.8c-6.1-1.9-12.1-3.7-18.2-5.5c-2.7-0.8-5.9,1.1-6.5,3.8c-0.6,2.9,1,5.6,3.8,6.5
				c5.9,1.7,11.7,3.5,17.5,5.2c1.9,0.6,3.9,1.2,5.8,1.8c0.5,0.1,0.9,0.3,1.4,0.4c0.1,0.1,0.2,0.1,0.4,0.1c0,0-0.1,0-0.1-0.1
				c0.1,0,0.1,0,0.2,0.1c0.2,0.1,0.4,0.1,0.5,0.2c0.6,0.2,1.1,0.3,1.8,0.3c2.1-0.1,4-1.4,4.8-3.4c0.7-1.9,0.4-4.4-1.2-5.8
				C671.5,538,670.7,537.6,669.8,537.3z"/>
		</g>
	</g>
</g>
<g id="_x31_">
	<g>
		<ellipse transform="matrix(0.9239 -0.3827 0.3827 0.9239 17.0478 149.389)" class="st2" cx="384" cy="31.8" rx="31.8" ry="31.8"/>
	</g>
</g>
</svg>
