<svg id="svg" version="1.1" xmlns="http://www.w3.org/2000/svg" xmlns:xlink="http://www.w3.org/1999/xlink" width="400" height="400" viewBox="0, 0, 400,400"><g id="svgg"><path id="path0" d="M354.892 89.775 C 354.551 90.140,354.009 91.095,353.688 91.897 C 353.367 92.699,351.770 95.576,350.139 98.289 C 348.508 101.002,346.837 103.837,346.425 104.589 C 345.528 106.225,346.109 106.082,338.444 106.550 C 335.450 106.732,331.950 107.032,330.667 107.215 C 329.383 107.398,327.808 107.549,327.167 107.551 C 325.254 107.558,325.676 108.841,328.426 111.386 C 329.253 112.151,330.694 113.692,331.628 114.809 C 332.561 115.926,333.804 117.276,334.388 117.809 C 334.973 118.342,335.792 119.228,336.208 119.778 C 336.624 120.328,337.411 121.245,337.957 121.816 L 338.950 122.855 338.794 124.436 C 338.615 126.249,337.671 130.257,336.553 133.944 C 336.130 135.339,335.631 137.432,335.444 138.595 C 335.256 139.759,335.005 140.894,334.885 141.118 C 333.997 142.778,335.066 142.815,338.174 141.230 C 340.753 139.916,346.085 137.512,349.111 136.300 C 350.150 135.884,351.421 135.335,351.936 135.079 C 353.136 134.483,353.541 134.593,355.768 136.118 C 356.753 136.792,359.383 138.352,361.613 139.584 C 363.842 140.817,366.317 142.301,367.111 142.884 C 370.202 145.152,370.667 145.189,370.666 143.167 C 370.666 141.244,370.095 136.302,369.542 133.444 C 369.306 132.222,369.112 130.478,369.112 129.569 C 369.111 128.660,368.989 127.327,368.841 126.607 C 368.465 124.786,368.877 124.074,371.312 122.341 C 372.340 121.610,374.790 119.479,376.757 117.605 C 378.724 115.731,381.008 113.680,381.833 113.046 C 383.991 111.388,383.811 110.985,380.711 110.536 C 379.648 110.382,376.578 109.747,373.889 109.125 C 371.200 108.503,368.450 107.932,367.778 107.856 C 367.106 107.781,366.218 107.582,365.806 107.415 C 365.394 107.248,364.886 107.111,364.678 107.111 C 364.066 107.111,363.423 106.213,362.927 104.667 C 362.534 103.443,360.810 99.363,357.084 90.840 C 356.230 88.888,355.879 88.717,354.892 89.775 M287.389 154.870 C 286.648 155.349,285.630 156.113,285.126 156.568 C 284.025 157.563,282.557 157.553,280.149 156.534 C 277.200 155.285,277.074 155.462,278.333 159.080 C 279.413 162.182,279.121 163.368,276.653 165.897 C 274.894 167.700,275.518 168.147,279.462 167.911 L 281.980 167.761 282.886 168.579 C 283.384 169.030,284.263 170.184,284.838 171.143 C 286.285 173.558,286.390 173.506,287.548 169.777 L 288.514 166.665 290.618 165.991 C 291.776 165.620,293.160 165.257,293.695 165.184 C 295.453 164.943,294.884 163.884,292.121 162.252 C 289.508 160.709,289.437 160.568,289.480 156.980 C 289.522 153.482,289.528 153.488,287.389 154.870 M68.470 171.897 C 67.723 172.695,66.637 174.020,66.056 174.841 L 65.000 176.333 61.278 176.272 C 57.839 176.216,57.556 176.241,57.556 176.606 C 57.556 177.083,59.356 179.913,60.631 181.440 C 61.826 182.871,61.632 184.594,59.849 188.389 C 58.798 190.627,59.188 190.723,63.477 189.288 C 65.145 188.730,66.376 188.435,66.699 188.516 C 67.550 188.730,69.897 190.247,71.316 191.500 C 73.447 193.382,73.471 193.352,73.369 188.887 C 73.267 184.446,73.039 184.918,76.204 183.011 C 80.524 180.408,80.628 180.105,77.481 179.299 C 73.755 178.344,72.922 177.904,72.315 176.570 C 71.697 175.214,70.667 171.714,70.667 170.975 C 70.667 170.045,69.903 170.365,68.470 171.897 M31.093 187.944 C 31.082 189.014,30.957 191.130,30.815 192.648 L 30.556 195.407 29.215 196.092 C 27.265 197.090,22.444 200.281,22.444 200.575 C 22.444 200.844,27.930 203.264,30.052 203.932 C 31.215 204.298,31.327 204.390,31.330 204.975 C 31.341 207.120,33.056 213.333,33.638 213.333 C 34.017 213.333,37.054 210.110,38.558 208.110 L 39.894 206.333 42.818 206.478 C 44.427 206.557,46.256 206.732,46.882 206.867 C 49.312 207.388,49.812 207.015,48.731 205.487 C 48.369 204.975,47.597 203.648,47.017 202.538 C 46.436 201.428,45.658 200.196,45.288 199.800 C 44.380 198.829,44.495 198.261,46.336 194.590 C 48.104 191.067,48.395 189.775,47.418 189.783 C 46.543 189.789,43.186 190.539,40.860 191.247 L 38.943 191.831 37.582 190.907 C 36.833 190.398,35.283 189.086,34.138 187.991 C 31.375 185.350,31.117 185.346,31.093 187.944 M104.430 192.722 C 103.910 194.653,102.887 195.556,101.218 195.556 C 100.274 195.556,100.492 196.494,101.658 197.449 C 102.813 198.396,102.966 198.767,102.914 200.497 C 102.878 201.696,102.908 201.778,103.386 201.778 C 103.952 201.778,105.556 200.779,105.556 200.426 C 105.556 200.133,107.065 200.396,107.714 200.803 C 109.215 201.743,110.101 201.060,109.333 199.556 C 108.631 198.179,108.750 197.573,110.034 196.005 C 110.954 194.882,110.865 194.741,109.161 194.619 C 107.470 194.498,106.894 194.223,106.329 193.265 C 105.337 191.587,104.778 191.427,104.430 192.722 M301.640 219.294 C 300.188 220.617,298.482 222.267,297.850 222.961 C 297.121 223.760,296.521 224.222,296.213 224.222 C 295.386 224.222,289.269 223.137,288.104 222.784 C 286.809 222.391,286.082 222.355,285.885 222.673 C 285.713 222.951,288.549 229.046,289.653 230.772 C 290.789 232.547,290.648 233.169,288.301 236.745 C 284.424 242.652,284.779 242.999,293.127 241.457 L 296.365 240.859 299.594 244.041 C 301.370 245.791,303.003 247.502,303.222 247.844 C 304.292 249.513,305.077 248.125,305.378 244.036 C 305.851 237.595,305.827 237.625,312.618 234.778 C 313.997 234.200,315.347 233.539,315.618 233.310 L 316.111 232.893 315.333 232.224 C 314.620 231.610,307.227 227.778,306.756 227.778 C 306.644 227.778,306.221 225.503,305.816 222.722 C 304.977 216.963,304.961 216.889,304.570 216.889 C 304.411 216.889,303.093 217.971,301.640 219.294 M75.773 225.056 C 75.261 225.636,74.627 226.496,74.365 226.967 L 73.889 227.822 71.500 227.685 C 69.251 227.556,69.111 227.573,69.111 227.971 C 69.111 228.412,70.644 230.854,71.223 231.334 C 71.782 231.798,71.226 234.863,70.439 235.650 C 69.296 236.793,71.090 237.080,73.384 236.122 C 74.918 235.481,76.476 235.994,77.983 237.635 C 79.078 238.828,79.457 238.481,79.481 236.265 C 79.510 233.585,79.949 232.741,81.891 231.624 C 83.588 230.648,83.862 229.922,82.610 229.719 C 82.212 229.654,81.171 229.323,80.297 228.983 L 78.708 228.364 78.242 226.793 C 77.986 225.929,77.777 225.008,77.777 224.746 C 77.778 224.319,77.398 224.000,76.890 224.000 C 76.788 224.000,76.285 224.475,75.773 225.056 M268.477 230.547 L 267.337 231.613 265.557 231.458 C 263.488 231.277,263.265 231.587,264.333 233.159 C 265.060 234.228,265.034 234.929,264.215 236.380 C 263.346 237.920,263.463 238.077,265.332 237.889 C 267.090 237.712,267.958 238.039,268.595 239.118 C 269.257 240.239,269.821 239.940,270.241 238.247 C 270.646 236.610,271.235 235.892,272.476 235.520 C 273.706 235.151,273.577 234.523,272.111 233.741 C 270.562 232.915,270.497 232.832,270.326 231.460 C 270.070 229.413,269.820 229.290,268.477 230.547 M50.944 250.864 C 50.486 251.339,49.811 252.248,49.444 252.884 L 48.778 254.040 46.268 253.917 C 44.178 253.814,43.737 253.848,43.632 254.122 C 43.498 254.470,44.809 256.527,45.696 257.361 C 46.395 258.017,46.365 258.740,45.556 260.778 C 44.353 263.804,44.751 264.114,48.113 262.769 C 50.076 261.983,50.796 262.195,52.710 264.119 C 54.130 265.547,54.342 265.403,54.533 262.877 C 54.766 259.785,55.174 259.080,57.500 257.747 C 59.285 256.724,59.121 256.428,56.276 255.552 L 53.885 254.816 53.267 252.797 C 52.927 251.686,52.653 250.603,52.658 250.389 C 52.673 249.716,51.825 249.951,50.944 250.864 " stroke="none" fill="#fcb43c" fill-rule="evenodd"></path><path id="path1" d="M152.778 46.246 C 137.852 48.396,119.946 69.040,110.780 94.667 C 110.321 95.950,109.555 97.984,109.077 99.188 C 107.675 102.720,103.333 116.725,103.333 117.714 C 103.333 117.994,103.233 118.222,103.111 118.222 C 102.657 118.222,102.856 101.696,103.435 91.333 C 104.343 75.106,104.730 66.506,104.581 65.910 C 104.161 64.239,100.008 64.386,99.682 66.083 C 99.548 66.779,97.838 79.659,97.450 82.889 C 96.976 86.841,96.445 93.964,96.440 96.444 C 96.438 97.606,96.337 99.235,96.217 100.066 C 96.058 101.167,95.617 111.877,95.558 116.081 C 95.555 116.318,93.974 116.134,89.778 115.408 C 80.550 113.812,71.798 117.566,71.388 123.297 C 70.992 128.822,83.702 131.239,95.389 127.860 C 95.744 127.757,95.778 127.985,95.778 130.508 C 95.778 135.959,96.429 146.335,97.343 155.444 C 98.112 163.116,98.672 168.315,98.782 168.816 C 99.121 170.353,105.484 170.110,106.087 168.537 C 106.154 168.362,106.008 166.495,105.762 164.388 C 104.568 154.147,103.461 135.438,103.890 132.758 C 104.045 131.791,104.291 130.158,104.437 129.129 C 104.966 125.387,105.882 124.167,108.172 124.155 C 110.870 124.140,133.561 135.537,147.135 143.723 C 148.527 144.563,150.717 145.832,152.000 146.544 C 153.283 147.256,155.150 148.425,156.149 149.141 C 158.619 150.915,160.667 150.734,160.667 148.742 C 160.667 146.919,138.266 133.491,125.555 127.694 C 124.517 127.220,121.817 125.987,119.556 124.953 C 117.294 123.920,114.969 122.898,114.387 122.684 L 113.329 122.294 114.942 121.664 C 141.882 111.138,156.809 99.615,165.006 83.018 C 175.449 61.875,169.453 43.845,152.778 46.246 M155.896 50.344 C 161.821 51.888,164.382 59.741,162.123 69.444 C 159.228 81.881,149.001 96.228,135.975 106.125 C 126.865 113.046,106.889 122.132,106.889 119.354 C 106.889 118.668,110.327 107.669,111.907 103.299 C 120.702 78.978,130.917 62.929,143.111 54.275 C 148.093 50.739,152.366 49.425,155.896 50.344 M267.486 61.784 C 264.744 62.597,262.852 66.978,261.338 76.023 C 261.085 77.538,260.638 79.878,260.345 81.222 C 259.609 84.601,258.998 88.590,258.341 94.305 C 258.033 96.979,257.634 100.029,257.452 101.083 C 256.727 105.301,255.695 116.354,255.427 122.778 C 254.987 133.340,244.385 151.366,238.636 151.328 C 232.196 151.286,227.384 134.681,229.202 118.778 C 230.943 103.546,237.486 89.021,241.016 92.552 C 242.778 94.313,243.650 100.116,242.755 104.111 C 241.857 108.114,242.272 109.111,244.833 109.111 C 246.813 109.111,247.330 108.402,247.909 104.889 C 249.440 95.602,245.986 88.579,239.877 88.560 C 231.864 88.535,223.453 104.451,222.205 122.000 C 221.914 126.103,221.792 126.478,219.070 131.667 C 217.188 135.253,215.748 137.555,215.387 137.556 C 215.207 137.556,215.421 128.209,215.653 125.956 C 215.733 125.186,215.946 123.306,216.126 121.778 C 218.494 101.761,218.504 100.559,216.307 99.642 C 214.698 98.969,212.014 99.935,211.997 101.193 C 211.987 101.899,211.651 102.006,210.581 101.641 C 204.865 99.693,197.012 105.863,195.187 113.734 C 194.265 117.711,194.635 117.230,189.317 121.386 C 183.204 126.163,181.026 127.256,178.544 126.790 C 176.606 126.427,175.033 123.890,175.155 121.325 L 175.222 119.913 178.245 118.111 C 189.410 111.458,194.739 102.914,189.706 99.737 C 185.569 97.124,174.571 105.496,169.948 114.778 C 163.399 127.928,172.998 139.054,184.371 131.493 C 185.213 130.934,186.898 129.623,188.117 128.580 C 192.707 124.653,194.667 123.114,194.667 123.435 C 194.667 123.615,194.990 124.131,195.385 124.581 C 198.298 127.899,203.072 125.282,207.855 117.747 C 208.813 116.236,209.944 114.505,210.368 113.901 L 211.138 112.802 211.011 114.457 C 210.619 119.563,210.190 128.332,210.165 131.743 C 210.070 144.446,214.248 145.478,221.205 134.472 L 222.382 132.610 222.776 134.801 C 224.832 146.218,230.053 153.458,237.130 154.705 C 242.694 155.685,248.786 150.574,253.682 140.818 L 255.111 137.970 255.113 140.818 C 255.122 154.724,258.673 165.091,263.385 164.968 C 266.293 164.892,267.079 162.246,270.442 141.222 C 273.022 125.089,274.862 117.046,277.098 112.111 C 278.919 108.095,279.160 109.342,279.206 123.000 C 279.246 135.226,279.317 136.061,280.659 140.089 C 282.349 145.161,286.098 146.316,289.990 142.964 C 292.369 140.915,298.509 131.925,302.335 124.889 C 303.033 123.606,303.893 122.161,304.246 121.678 C 305.595 119.838,304.584 117.778,302.332 117.778 C 301.199 117.778,300.445 118.602,298.573 121.889 C 296.432 125.648,295.786 126.620,293.250 129.889 C 290.448 133.503,285.583 138.561,285.240 138.218 C 284.858 137.836,284.807 131.119,285.142 125.111 C 285.583 117.172,285.547 112.066,285.034 110.065 C 283.708 104.890,280.507 103.641,276.993 106.928 C 271.828 111.760,268.464 122.498,263.961 148.526 L 263.466 151.384 263.057 150.192 C 261.384 145.327,260.296 127.732,261.189 119.993 C 261.379 118.347,261.697 115.250,261.895 113.111 C 262.951 101.749,266.447 84.220,270.338 70.774 C 271.988 65.076,271.701 62.453,269.368 61.897 C 269.043 61.820,268.628 61.721,268.444 61.677 C 268.261 61.634,267.830 61.682,267.486 61.784 M186.628 105.150 C 185.893 106.528,182.449 109.977,179.000 112.787 C 178.144 113.485,177.371 114.168,177.281 114.305 C 177.175 114.468,177.117 114.473,177.115 114.320 C 177.091 112.715,183.102 105.674,185.672 104.295 C 187.360 103.389,187.500 103.514,186.628 105.150 M209.751 104.584 L 210.447 104.723 209.266 106.973 C 206.151 112.907,199.927 121.040,199.760 119.395 C 199.473 116.562,200.689 110.963,202.123 108.515 C 203.859 105.553,206.862 104.006,209.751 104.584 M89.111 118.882 C 90.272 119.008,92.171 119.291,93.331 119.510 L 95.440 119.908 95.596 120.787 C 95.682 121.271,95.758 122.069,95.765 122.562 L 95.778 123.456 93.500 124.071 C 83.633 126.733,73.819 125.417,76.281 121.763 C 77.800 119.510,83.377 118.258,89.111 118.882 M221.029 168.921 C 220.637 169.149,220.619 169.486,220.696 174.970 C 220.769 180.173,220.631 184.937,220.316 188.111 L 220.205 189.222 217.342 189.111 C 215.768 189.050,214.441 188.950,214.394 188.889 C 214.348 188.828,214.392 184.628,214.493 179.556 C 214.713 168.479,214.736 168.618,212.767 168.987 C 211.750 169.178,211.825 167.962,211.653 187.124 C 211.481 206.350,211.417 205.333,212.785 205.333 C 214.222 205.333,214.222 205.331,214.222 198.015 L 214.222 191.556 217.333 191.556 L 220.444 191.556 220.450 194.944 C 220.462 203.194,220.751 205.111,221.982 205.111 C 222.982 205.111,222.973 205.245,223.109 188.000 C 223.180 179.017,223.317 171.540,223.413 171.385 C 223.622 171.045,223.189 169.598,222.715 169.056 C 222.332 168.617,221.647 168.563,221.029 168.921 M171.043 169.489 C 170.142 169.722,169.920 173.682,169.674 193.889 C 169.532 205.512,169.562 205.841,170.778 205.947 C 172.029 206.055,171.990 206.299,172.212 197.096 C 172.447 187.385,172.430 187.522,173.412 187.709 C 175.939 188.188,176.499 189.840,176.901 197.995 C 177.170 203.439,177.082 203.112,178.271 203.108 C 179.880 203.102,179.826 203.327,179.562 197.758 C 179.213 190.431,178.770 188.226,177.311 186.564 C 176.489 185.628,176.478 185.685,177.788 184.111 C 180.094 181.340,180.947 175.875,179.530 172.948 C 178.287 170.380,174.135 168.688,171.043 169.489 M155.689 170.105 C 151.842 171.686,150.459 175.397,150.284 184.602 C 150.112 193.683,151.331 199.338,154.128 202.434 C 156.567 205.133,160.686 205.001,162.628 202.161 C 164.293 199.729,164.559 198.594,165.005 192.049 C 166.116 175.746,162.527 167.294,155.689 170.105 M141.073 170.215 C 139.121 170.413,137.561 171.074,136.963 171.955 C 136.487 172.656,136.432 179.834,136.875 183.333 C 137.007 184.372,137.212 186.853,137.330 188.846 C 137.448 190.839,137.599 192.558,137.665 192.664 C 137.731 192.771,137.924 194.640,138.094 196.818 C 138.512 202.176,138.928 203.149,140.537 202.532 C 140.994 202.356,141.001 199.815,140.556 195.333 C 140.379 193.561,140.232 190.750,140.229 189.087 L 140.222 186.064 141.944 185.940 C 144.915 185.726,145.999 185.136,145.690 183.901 L 145.536 183.290 142.801 183.447 L 140.066 183.605 139.931 182.191 C 138.988 172.389,138.938 172.531,143.391 172.461 C 145.924 172.421,146.223 172.340,146.219 171.698 C 146.209 170.352,144.519 169.864,141.073 170.215 M198.139 170.337 C 197.735 170.742,197.649 172.117,198.014 172.342 C 198.145 172.423,199.045 172.543,200.014 172.609 C 201.435 172.707,201.778 172.800,201.778 173.087 C 201.779 173.284,201.877 175.544,201.996 178.111 C 202.116 180.678,202.318 186.723,202.446 191.545 C 202.697 200.999,202.688 200.936,203.902 201.168 C 205.324 201.440,205.313 201.683,204.675 183.889 C 204.561 180.711,204.451 176.861,204.429 175.333 L 204.391 172.556 205.918 172.501 C 208.935 172.394,209.579 171.919,208.574 170.542 C 208.126 169.929,198.732 169.744,198.139 170.337 M228.080 172.127 C 227.565 172.913,227.987 203.860,228.519 204.392 C 229.666 205.539,238.222 204.778,238.222 203.528 C 238.222 202.435,237.649 202.281,234.033 202.397 L 230.667 202.505 230.650 198.864 C 230.627 194.014,230.669 192.213,230.816 191.609 C 230.949 191.062,230.943 191.064,233.962 190.587 C 236.339 190.212,236.946 189.833,236.844 188.789 C 236.761 187.942,235.615 187.806,232.593 188.284 L 230.667 188.590 230.666 183.461 C 230.665 180.641,230.600 177.358,230.521 176.167 L 230.377 174.000 233.532 174.000 C 236.585 174.000,236.704 173.982,237.232 173.455 C 238.728 171.959,237.749 171.556,232.622 171.556 L 228.455 171.556 228.080 172.127 M159.047 172.722 C 162.785 176.637,163.934 191.810,161.074 199.487 C 159.789 202.937,156.487 202.816,154.805 199.258 C 152.443 194.262,152.035 181.532,154.053 175.791 C 155.194 172.542,157.514 171.117,159.047 172.722 M175.653 172.467 C 178.794 174.624,176.961 184.222,173.408 184.222 L 172.632 184.222 172.789 178.500 C 172.876 175.353,173.037 172.603,173.148 172.389 C 173.432 171.839,174.801 171.882,175.653 172.467 M152.712 227.299 C 150.508 228.081,148.980 229.717,147.769 232.589 C 146.250 236.191,141.778 249.717,141.778 250.708 C 141.778 251.171,141.749 251.173,137.389 251.014 C 129.892 250.742,127.727 250.139,126.557 248.000 C 124.836 244.854,120.663 245.369,120.669 248.726 C 120.678 253.652,127.152 256.667,137.725 256.667 C 139.979 256.667,140.007 256.673,139.892 257.167 C 139.829 257.442,139.624 258.417,139.438 259.333 C 139.251 260.250,138.841 261.850,138.525 262.889 C 137.670 265.700,135.644 274.887,134.874 279.444 C 134.502 281.644,133.904 284.694,133.544 286.222 C 132.893 288.990,131.601 296.017,131.080 299.616 L 130.806 301.510 123.014 301.618 C 113.928 301.745,110.771 302.122,102.811 304.037 L 100.178 304.670 99.701 304.057 C 94.403 297.250,89.668 296.831,77.768 302.116 C 73.045 304.213,71.702 304.667,70.221 304.667 C 64.061 304.667,72.780 291.705,84.111 284.015 C 91.833 278.775,98.147 276.692,104.111 277.415 C 107.252 277.796,108.121 274.978,105.306 273.542 C 100.150 270.911,86.769 274.578,76.461 281.446 C 59.603 292.677,53.568 309.783,66.247 310.397 C 70.254 310.592,73.254 309.733,80.967 306.184 C 90.170 301.949,93.350 301.918,93.429 306.060 L 93.444 306.898 91.222 307.908 C 81.244 312.446,76.878 317.205,76.892 323.530 C 76.902 328.320,79.355 330.778,84.128 330.778 L 86.811 330.778 88.787 329.799 C 94.105 327.163,100.383 317.192,100.830 310.669 L 100.946 308.983 103.973 308.375 C 113.885 306.386,115.748 306.187,123.667 306.269 L 129.889 306.333 129.819 307.333 C 129.781 307.883,129.601 309.333,129.418 310.556 C 128.721 315.233,128.248 319.352,128.014 322.778 C 127.880 324.733,127.658 327.533,127.521 329.000 C 126.036 344.872,128.505 358.071,133.453 360.715 C 137.099 362.663,139.491 360.827,145.389 351.556 C 150.872 342.935,159.259 325.817,162.561 316.506 L 162.973 315.344 163.709 315.906 C 167.900 319.103,174.804 314.798,181.974 304.518 C 182.471 303.805,183.133 302.922,183.445 302.556 L 184.012 301.889 183.900 302.778 C 183.839 303.267,183.679 304.717,183.546 306.000 C 183.412 307.283,183.066 309.583,182.776 311.111 C 178.554 333.385,180.047 342.757,187.074 338.091 C 189.738 336.322,196.497 328.049,200.675 321.445 C 201.448 320.223,202.924 318.223,203.955 317.001 C 204.986 315.778,207.356 312.478,209.223 309.667 C 212.221 305.150,213.673 302.721,216.757 297.061 L 217.571 295.567 218.841 296.018 C 224.396 297.988,229.578 301.492,229.832 303.449 C 229.950 304.354,229.532 310.523,229.110 314.111 C 228.423 319.960,227.848 349.900,228.292 356.721 C 229.287 372.006,231.774 376.920,237.222 374.363 C 241.810 372.209,245.086 362.970,250.334 337.379 C 251.697 330.732,253.219 326.840,255.332 324.599 L 256.630 323.222 257.942 324.592 C 261.536 328.345,267.888 326.930,278.276 320.059 C 285.703 315.148,289.316 314.796,290.293 318.890 C 290.411 319.385,290.267 319.543,288.978 320.334 C 279.444 326.182,275.892 330.593,275.914 336.556 C 275.944 344.973,283.496 347.494,290.292 341.355 C 294.167 337.854,297.523 329.985,297.890 323.538 L 298.049 320.744 299.533 320.166 C 303.535 318.609,310.749 316.648,315.667 315.780 C 317.133 315.521,318.733 315.222,319.222 315.115 C 319.711 315.009,321.861 314.800,324.000 314.652 C 328.729 314.325,329.556 313.993,329.556 312.419 C 329.556 311.182,328.978 310.035,328.251 309.831 C 326.290 309.280,319.363 310.037,312.162 311.589 C 309.084 312.252,303.518 313.952,299.023 315.601 L 296.602 316.489 296.024 315.744 C 291.538 309.959,283.958 310.354,273.911 316.895 C 263.704 323.539,261.504 320.055,268.785 308.778 C 276.035 297.547,289.039 288.238,296.391 289.016 C 297.982 289.184,298.903 288.906,299.434 288.096 C 300.632 286.267,298.773 284.681,295.418 284.672 C 281.907 284.635,261.608 300.392,257.085 314.428 C 256.681 315.683,256.487 315.967,255.710 316.444 C 250.992 319.344,246.861 326.694,245.333 334.911 C 245.073 336.304,244.427 339.244,243.895 341.444 C 243.364 343.644,242.257 348.394,241.436 352.000 C 239.492 360.534,237.719 366.765,236.884 368.000 C 234.512 371.507,235.454 331.478,238.102 316.222 C 239.405 308.720,240.087 302.600,239.775 301.210 C 239.012 297.805,236.239 295.421,229.715 292.559 C 226.509 291.153,221.328 288.735,221.159 288.566 C 221.108 288.516,221.615 287.192,222.286 285.626 C 228.411 271.316,228.109 262.368,221.264 255.373 C 208.558 242.389,189.813 255.346,194.536 273.847 C 196.504 281.558,200.762 286.243,211.138 292.114 L 213.053 293.198 210.830 296.877 C 209.607 298.900,207.648 301.956,206.478 303.667 C 202.158 309.981,200.165 313.132,195.378 321.222 C 191.129 328.403,187.511 333.556,186.717 333.556 C 186.299 333.556,187.023 326.990,188.004 321.889 C 188.356 320.056,189.259 315.056,190.011 310.778 C 190.762 306.500,191.613 302.088,191.902 300.974 C 193.448 295.016,194.124 289.443,193.556 287.335 C 192.759 284.374,187.069 284.657,186.306 287.695 C 186.141 288.354,186.111 288.353,184.527 287.611 C 177.201 284.180,166.569 291.960,162.890 303.444 C 162.616 304.300,162.217 305.150,162.004 305.333 C 161.792 305.517,160.741 307.967,159.671 310.778 C 152.440 329.760,140.683 352.874,137.351 354.657 C 135.288 355.761,134.054 343.715,134.848 330.222 C 135.347 321.745,135.499 319.981,136.206 314.444 C 138.773 294.364,143.341 276.770,151.217 256.643 C 151.328 256.358,151.861 256.255,153.845 256.133 C 156.980 255.941,168.236 254.630,172.889 253.916 C 177.045 253.277,186.823 251.533,189.222 251.002 C 196.493 249.393,221.520 244.608,224.629 244.232 C 237.086 242.726,243.906 244.377,247.306 249.724 C 250.143 254.185,255.172 247.809,252.436 243.220 C 248.195 236.106,237.328 234.254,219.801 237.660 C 218.260 237.959,215.650 238.463,214.000 238.779 C 212.350 239.094,209.100 239.793,206.778 240.330 C 200.398 241.807,189.229 244.330,183.000 245.700 C 176.351 247.163,164.540 249.172,159.000 249.784 C 156.800 250.027,154.675 250.286,154.278 250.360 C 153.881 250.434,153.556 250.452,153.556 250.402 C 153.556 250.326,157.100 240.962,159.240 235.382 C 161.398 229.757,157.920 225.450,152.712 227.299 M214.103 258.317 C 216.714 259.600,219.156 262.684,220.362 266.222 C 221.576 269.787,220.436 276.968,217.610 283.556 C 216.388 286.405,216.594 286.207,215.500 285.578 C 206.340 280.306,200.975 272.181,202.280 265.558 C 203.531 259.205,209.040 255.831,214.103 258.317 M183.229 291.211 C 184.211 291.621,184.251 291.464,182.520 293.969 C 175.142 304.645,168.889 311.303,168.889 308.484 C 168.889 304.752,171.356 297.757,173.733 294.750 C 176.093 291.764,180.565 290.097,183.229 291.211 M92.640 313.389 C 90.645 320.653,82.658 329.390,81.865 325.177 C 81.272 322.028,83.279 317.838,86.585 315.323 C 87.701 314.474,92.482 311.809,92.930 311.786 C 93.014 311.781,92.884 312.503,92.640 313.389 M290.334 325.389 C 289.134 332.973,283.546 342.104,281.496 339.833 C 278.997 337.066,282.476 329.394,287.668 326.222 C 288.368 325.794,289.204 325.223,289.526 324.951 C 290.363 324.246,290.503 324.322,290.334 325.389 " stroke="none" fill="#040404" fill-rule="evenodd"></path></g></svg>