<svg id="svg" xmlns="http://www.w3.org/2000/svg" xmlns:xlink="http://www.w3.org/1999/xlink" width="400" height="400" viewBox="0, 0, 400,400"><g id="svgg"><path id="path0" d="M100.276 59.379 C 72.458 60.508,51.328 71.825,42.503 90.323 C 32.347 111.608,33.366 143.396,44.422 150.230 C 48.157 152.539,53.979 151.584,56.889 148.184 C 58.187 146.668,58.196 146.664,61.629 146.351 C 67.985 145.773,70.232 143.282,65.093 142.511 C 59.457 141.666,55.269 134.270,53.073 121.287 C 51.303 110.820,54.650 96.164,60.945 86.820 C 72.206 70.104,98.237 62.721,125.902 68.395 C 131.629 69.570,140.751 71.890,142.211 72.544 L 143.690 73.206 140.209 75.958 C 124.492 88.383,111.596 110.308,110.724 126.083 C 109.724 144.185,120.816 152.312,142.675 149.494 C 146.802 148.962,145.920 150.840,141.382 152.247 C 135.419 154.097,120.258 162.892,116.424 166.726 C 107.094 176.056,114.169 184.865,129.692 183.245 C 153.418 180.769,169.278 167.091,167.298 150.812 C 167.201 150.014,167.425 149.847,169.401 149.250 C 171.807 148.522,179.635 146.701,179.771 146.837 C 179.818 146.884,179.103 149.076,178.183 151.710 C 175.128 160.454,174.694 162.162,174.481 166.282 C 174.029 175.051,177.308 179.669,183.956 179.625 C 191.478 179.574,200.740 171.967,211.429 157.061 L 213.272 154.491 213.562 156.785 C 215.199 169.709,226.436 170.958,235.953 159.273 C 237.526 157.341,239.391 155.209,240.098 154.535 L 241.382 153.309 240.076 157.853 C 238.881 162.008,238.767 162.823,238.740 167.381 L 238.710 172.365 240.000 174.938 C 245.535 185.976,259.403 179.083,275.345 157.371 C 276.112 156.326,276.303 156.485,277.409 159.087 C 281.125 167.830,292.747 169.462,300.052 162.267 C 303.102 159.263,311.835 146.277,316.081 138.433 C 319.685 131.775,318.480 135.104,309.204 157.419 L 304.990 167.558 301.419 169.807 C 275.430 186.180,266.017 213.432,285.317 216.426 C 297.050 218.247,305.469 209.511,317.740 182.785 C 328.498 159.352,327.328 161.588,329.217 160.841 C 344.630 154.743,354.451 145.595,364.358 128.111 C 365.162 126.691,366.128 125.134,366.504 124.651 C 367.492 123.383,367.402 123.239,365.201 122.545 C 362.230 121.608,362.269 121.574,357.468 129.217 C 352.024 137.882,351.320 138.882,348.570 141.841 C 345.017 145.665,342.073 147.998,337.488 150.623 C 335.473 151.776,333.285 153.044,332.624 153.442 L 331.423 154.165 333.127 150.539 C 334.065 148.544,336.786 142.599,339.175 137.327 C 341.564 132.055,344.282 126.083,345.214 124.055 C 347.549 118.977,347.508 118.341,344.631 115.031 C 338.711 108.220,327.410 103.822,327.357 108.308 C 327.318 111.693,326.850 112.609,319.370 123.944 C 315.316 130.088,309.907 138.372,307.350 142.354 C 303.099 148.972,297.275 157.419,296.962 157.419 C 296.809 157.419,297.335 155.356,298.137 152.811 C 298.457 151.797,300.332 147.567,302.303 143.410 C 304.275 139.253,306.422 134.442,307.075 132.719 C 307.728 130.995,308.581 129.037,308.970 128.366 C 311.216 124.495,308.024 120.441,299.029 115.744 C 291.528 111.828,290.296 111.958,289.790 116.720 C 289.324 121.098,286.066 131.219,284.141 134.268 C 263.804 166.469,251.664 176.622,262.541 152.331 C 263.966 149.148,266.679 142.894,268.569 138.433 C 270.459 133.972,273.099 128.083,274.435 125.346 C 277.378 119.320,277.379 119.305,274.830 116.003 C 272.158 112.540,269.081 110.255,264.334 108.208 C 258.250 105.584,257.178 105.820,256.812 109.862 C 256.675 111.382,256.302 113.482,255.984 114.527 L 255.405 116.428 252.956 115.190 C 247.475 112.419,242.435 112.489,236.637 115.415 C 229.006 119.266,220.156 129.423,216.903 138.062 C 216.369 139.483,215.150 141.724,214.196 143.041 C 213.242 144.359,211.745 146.516,210.869 147.834 C 194.983 171.736,188.275 171.395,200.002 147.281 C 204.260 138.526,210.378 125.156,214.343 115.945 L 217.199 109.309 220.212 109.431 C 224.643 109.612,228.203 106.241,228.203 101.865 L 228.203 100.568 226.636 100.792 C 223.226 101.279,220.829 101.459,220.829 101.228 C 220.829 101.094,221.161 100.334,221.567 99.539 C 222.822 97.080,222.416 96.108,218.280 91.669 C 214.536 87.651,204.952 83.304,202.927 84.706 C 202.712 84.855,202.350 86.387,202.123 88.111 C 201.895 89.834,201.105 93.152,200.367 95.484 C 199.628 97.816,198.934 100.180,198.825 100.737 L 198.626 101.751 195.258 101.755 C 189.934 101.761,187.277 102.789,187.287 104.838 C 187.296 106.703,187.527 106.804,191.825 106.825 C 194.020 106.836,195.903 106.932,196.011 107.040 C 196.195 107.224,192.146 117.190,189.771 122.396 C 188.345 125.523,186.114 131.175,185.113 134.194 C 183.670 138.550,182.951 139.477,180.637 139.963 C 174.346 141.283,171.513 141.973,167.293 143.212 L 162.604 144.588 161.620 143.814 C 158.795 141.592,151.111 140.879,143.594 142.141 C 131.705 144.138,128.184 142.071,128.799 133.456 C 129.663 121.363,141.755 99.467,154.998 86.018 L 160.184 80.751 164.977 82.998 C 186.489 93.082,204.793 90.603,204.793 77.604 C 204.793 67.531,195.071 61.378,179.171 61.387 C 169.012 61.393,166.493 61.947,155.612 66.573 L 151.409 68.360 148.608 67.320 C 131.828 61.093,117.215 58.692,100.276 59.379 M187.724 68.617 C 196.576 70.496,198.724 77.731,191.092 79.964 C 185.742 81.530,177.614 80.159,169.167 76.265 L 166.652 75.106 167.696 74.511 C 168.270 74.185,170.270 73.026,172.141 71.937 C 174.149 70.768,176.599 69.686,178.126 69.293 C 179.548 68.927,180.807 68.532,180.924 68.415 C 181.288 68.052,185.672 68.182,187.724 68.617 M253.120 122.531 C 253.928 124.639,234.532 154.839,232.370 154.839 C 231.127 154.839,232.415 148.708,234.644 144.010 C 238.933 134.973,252.044 119.730,253.120 122.531 M144.359 160.268 C 141.380 165.937,135.536 171.873,130.623 174.220 C 126.669 176.109,121.659 175.466,121.659 173.069 C 121.659 170.635,132.645 163.055,141.382 159.462 C 143.207 158.711,144.855 157.947,145.045 157.764 C 145.854 156.981,145.602 157.903,144.359 160.268 M298.670 182.565 C 297.454 185.260,295.442 189.788,294.197 192.627 C 286.998 209.046,281.420 214.901,279.812 207.726 C 278.275 200.866,285.137 190.190,298.249 179.044 C 301.308 176.443,301.334 176.659,298.670 182.565 M154.681 183.436 C 154.362 183.755,154.099 184.377,154.097 184.819 C 154.089 186.359,153.043 189.342,150.843 194.101 C 148.076 200.086,145.991 205.237,145.991 206.087 C 145.991 206.598,145.554 206.790,143.932 206.993 C 141.401 207.309,141.312 207.225,142.067 205.249 C 142.844 203.214,142.829 202.674,141.951 200.951 C 138.850 194.873,123.213 186.848,122.858 191.152 C 122.558 194.785,121.807 198.364,120.442 202.662 L 118.894 207.536 116.528 207.547 C 110.758 207.573,107.646 208.646,107.655 210.608 C 107.664 212.482,107.893 212.583,112.195 212.620 C 116.987 212.661,116.804 212.518,115.761 215.383 C 115.019 217.420,113.983 219.777,109.882 228.756 C 109.326 229.972,108.347 232.544,107.706 234.470 C 105.649 240.653,100.738 245.055,92.601 248.009 C 89.775 249.035,90.141 249.252,87.676 245.083 C 84.580 239.846,84.633 239.089,88.649 231.267 C 92.210 224.332,92.199 223.054,88.546 219.637 C 83.814 215.211,71.436 209.449,71.108 211.521 C 71.084 211.673,71.026 212.959,70.980 214.378 C 70.879 217.425,69.854 220.564,66.529 228.007 C 62.246 237.594,62.427 240.036,67.814 245.344 C 70.030 247.528,70.599 248.358,71.529 250.770 C 73.189 255.074,73.149 255.212,69.770 256.792 C 54.861 263.763,49.023 271.105,52.482 278.533 C 55.888 285.847,66.521 287.786,76.129 282.847 C 84.097 278.750,90.214 268.565,90.608 258.736 L 90.780 254.430 91.934 253.971 C 92.568 253.718,94.954 252.639,97.235 251.574 C 99.516 250.508,101.382 249.696,101.382 249.770 C 101.382 249.843,100.387 252.651,99.169 256.010 C 92.301 274.963,93.146 283.890,101.982 285.724 C 112.084 287.821,123.825 276.669,141.967 247.742 C 145.464 242.166,149.433 236.111,150.787 234.286 C 152.141 232.461,154.619 228.702,156.293 225.933 L 159.338 220.899 160.683 221.459 C 163.384 222.583,164.793 223.437,164.793 223.949 C 164.793 224.996,162.783 230.001,159.902 236.129 C 146.856 263.874,144.251 276.279,150.080 282.900 C 156.567 290.270,169.617 283.427,182.884 265.700 C 186.667 260.646,186.562 260.699,187.140 263.535 C 188.731 271.334,196.227 275.570,203.574 272.822 C 210.005 270.415,218.060 261.548,223.091 251.336 L 224.680 248.111 228.451 248.111 C 232.395 248.111,235.429 247.641,237.143 246.766 C 238.455 246.096,238.576 245.674,235.392 252.855 C 231.638 261.320,231.607 260.938,236.434 265.669 C 243.492 272.586,252.535 275.733,252.535 271.273 C 252.535 270.488,254.307 267.182,258.500 260.147 C 261.781 254.642,265.846 247.686,267.533 244.688 C 271.567 237.518,277.758 228.234,278.206 228.683 C 278.462 228.938,276.847 233.743,275.404 237.023 C 269.375 250.723,263.939 270.138,264.444 276.165 C 265.262 285.919,273.968 288.619,283.929 282.209 C 288.653 279.168,296.372 270.970,301.717 263.316 C 304.123 259.871,304.328 259.825,304.621 262.663 C 305.450 270.697,312.745 275.561,319.119 272.331 C 322.338 270.700,327.068 266.208,330.858 261.182 C 331.157 260.786,330.356 262.949,329.078 265.991 C 327.800 269.032,325.455 274.822,323.867 278.857 L 320.981 286.193 317.080 287.986 C 311.498 290.551,310.700 290.996,306.071 294.121 C 302.576 296.481,301.692 296.919,300.541 296.864 C 298.839 296.782,274.242 293.967,270.968 293.479 C 268.476 293.108,256.670 291.842,249.954 291.225 C 247.825 291.029,244.673 290.700,242.949 290.493 C 239.695 290.102,234.426 289.719,221.567 288.938 C 213.939 288.475,193.708 288.390,182.488 288.774 C 147.130 289.985,120.658 302.542,114.976 320.798 C 112.963 327.265,116.462 333.641,122.024 333.641 C 122.988 333.641,123.134 333.774,123.137 334.654 C 123.148 337.779,125.523 340.532,130.326 342.986 C 136.588 346.186,136.930 346.004,137.256 339.295 C 138.711 309.428,173.873 296.967,243.687 301.579 C 255.686 302.371,290.347 305.708,290.748 306.109 C 290.799 306.160,289.845 307.596,288.627 309.299 C 280.534 320.620,281.607 330.883,291.382 335.669 C 303.697 341.699,319.954 332.286,330.224 313.180 L 332.404 309.124 339.013 308.887 C 351.388 308.443,357.484 306.542,362.413 301.592 C 372.065 291.897,364.366 280.943,347.886 280.924 L 345.358 280.922 345.611 279.908 C 345.750 279.350,347.410 275.659,349.300 271.705 C 353.382 263.167,354.697 260.097,359.485 247.926 C 361.479 242.857,364.187 236.055,365.503 232.811 C 368.652 225.043,368.656 224.663,365.622 221.195 C 361.706 216.719,353.698 212.167,350.182 212.419 C 348.359 212.550,348.639 211.910,347.427 218.710 C 346.717 222.695,346.793 222.595,345.253 221.546 C 333.976 213.861,320.883 221.777,307.461 244.396 C 299.251 258.232,288.134 271.917,285.346 271.619 C 283.136 271.383,284.765 265.111,289.966 253.822 C 301.403 229.000,301.526 225.841,291.251 220.865 C 281.455 216.121,275.784 219.731,266.317 236.740 C 262.879 242.917,260.276 247.124,260.276 246.506 C 260.276 246.339,261.288 244.018,262.524 241.350 C 266.660 232.421,269.493 225.840,269.493 225.163 C 269.493 222.042,264.897 217.809,257.443 214.067 C 251.318 210.991,249.799 211.240,249.409 215.384 C 248.648 223.472,243.347 237.012,239.953 239.539 C 235.945 242.523,226.573 244.444,227.307 242.132 C 233.667 222.091,231.659 212.936,220.786 212.417 C 215.675 212.172,214.212 212.929,211.218 217.365 C 210.129 218.980,209.120 220.093,208.745 220.094 C 203.434 220.111,194.093 231.890,189.889 243.871 C 188.527 247.751,187.201 249.845,179.963 259.539 C 172.782 269.158,168.785 272.996,167.714 271.303 C 166.690 269.684,167.999 266.065,176.967 245.714 C 184.251 229.184,184.208 229.423,180.563 225.911 C 177.567 223.025,175.920 221.920,171.142 219.589 C 168.968 218.528,166.151 217.126,164.882 216.473 L 162.575 215.286 163.474 213.542 C 163.968 212.582,165.219 210.470,166.254 208.848 C 167.289 207.226,169.066 204.074,170.203 201.843 C 171.340 199.613,172.579 197.348,172.956 196.809 C 175.126 193.708,172.456 189.770,165.899 186.403 C 159.414 183.074,155.957 182.160,154.681 183.436 M150.081 214.768 C 151.583 216.098,153.262 217.458,153.812 217.790 L 154.814 218.393 153.264 221.302 C 152.411 222.902,150.569 225.731,149.169 227.589 C 147.770 229.447,142.807 236.691,138.141 243.687 C 124.742 263.774,118.095 272.049,115.343 272.069 C 113.069 272.086,114.793 264.911,119.307 255.575 C 124.507 244.818,126.251 241.068,129.035 234.654 C 130.620 231.005,132.818 226.111,133.920 223.779 C 135.023 221.447,136.306 218.544,136.772 217.327 L 137.620 215.115 140.907 215.245 L 144.194 215.375 145.553 213.887 C 147.266 212.013,146.887 211.939,150.081 214.768 M224.562 222.488 C 225.353 226.207,224.155 233.391,221.980 237.972 L 220.579 240.922 219.751 239.308 C 218.306 236.492,218.274 233.929,219.675 233.205 C 221.004 232.518,221.074 232.018,220.274 228.931 C 219.637 226.472,219.814 225.714,221.676 222.940 C 223.065 220.869,224.181 220.695,224.562 222.488 M344.553 229.030 C 343.971 231.941,326.508 259.219,324.264 260.724 C 321.702 262.441,323.772 253.566,327.478 246.938 C 333.235 236.643,345.631 223.643,344.553 229.030 M214.797 243.318 C 216.291 244.737,217.679 245.899,217.881 245.899 C 219.620 245.899,211.245 260.156,207.959 262.789 C 201.781 267.742,203.183 255.227,210.142 243.312 C 211.960 240.199,211.513 240.199,214.797 243.318 M71.692 262.949 C 70.020 268.565,60.357 276.042,59.637 272.276 C 59.163 269.796,67.263 263.059,71.822 262.143 C 71.886 262.130,71.828 262.493,71.692 262.949 M349.396 287.940 C 358.219 290.755,354.823 297.730,343.947 299.129 C 336.147 300.132,336.576 300.640,339.514 293.879 C 340.717 291.112,341.862 288.424,342.059 287.905 C 342.452 286.868,346.089 286.885,349.396 287.940 M316.822 296.069 L 315.803 298.339 313.608 298.110 C 312.401 297.983,310.917 297.880,310.311 297.880 L 309.209 297.880 310.263 297.051 C 311.799 295.843,317.583 293.056,317.722 293.457 C 317.788 293.645,317.382 294.821,316.822 296.069 M306.657 307.522 C 308.623 307.757,310.288 307.994,310.358 308.049 C 311.030 308.582,304.800 319.024,302.161 321.789 C 292.912 331.476,288.904 320.561,297.409 308.848 L 298.680 307.097 300.882 307.097 C 302.094 307.097,304.692 307.288,306.657 307.522 " stroke="none" fill="#000000" fill-rule="evenodd"></path></g></svg>