<svg id="svg" version="1.1" xmlns="http://www.w3.org/2000/svg" xmlns:xlink="http://www.w3.org/1999/xlink" width="400" height="400" viewBox="0, 0, 400,400"><g id="svgg"><path id="path0" d="M132.414 115.876 C 130.946 117.440,131.592 119.816,133.486 119.816 C 135.580 119.816,136.992 117.546,136.024 115.736 C 135.472 114.705,133.441 114.784,132.414 115.876 M205.587 121.329 C 204.637 121.959,203.096 123.444,202.164 124.631 C 197.368 130.736,180.366 136.723,174.064 134.526 C 173.426 134.304,172.903 134.078,172.903 134.025 C 172.903 133.972,173.465 132.703,174.152 131.204 C 176.625 125.810,176.557 122.318,173.974 122.112 C 169.719 121.771,166.310 129.973,169.125 133.780 L 169.909 134.840 168.549 137.146 C 165.595 142.156,157.008 150.616,155.145 150.352 C 152.659 150.000,154.937 139.468,159.856 128.574 C 160.848 126.377,161.109 125.432,160.842 125.005 C 159.957 123.593,157.131 124.511,156.080 126.550 C 155.743 127.206,155.118 127.985,154.692 128.283 C 154.266 128.580,152.424 130.168,150.599 131.812 C 140.292 141.094,125.088 150.777,123.235 149.240 C 121.818 148.064,126.404 135.784,131.220 127.854 C 132.998 124.927,133.146 123.871,131.779 123.871 C 130.411 123.871,128.923 124.751,127.800 126.224 C 126.201 128.320,111.780 136.571,99.927 142.171 C 97.606 143.268,95.408 144.436,95.042 144.766 C 94.060 145.656,94.103 145.530,97.629 137.234 C 99.417 133.027,101.264 128.673,101.733 127.558 C 103.353 123.709,102.053 122.055,99.256 124.408 C 98.308 125.206,97.980 125.295,97.153 124.981 C 91.376 122.784,82.265 132.554,83.547 139.572 C 84.213 143.217,87.377 142.462,91.780 137.607 L 94.040 135.115 92.142 139.355 C 91.098 141.687,89.911 144.558,89.504 145.736 C 88.662 148.178,88.368 148.418,82.120 151.783 C 69.763 158.438,53.501 172.800,46.378 183.350 C 44.084 186.746,43.327 187.313,40.369 187.850 C 25.419 190.563,8.479 206.717,8.479 218.259 C 8.479 222.239,10.752 224.087,12.946 221.893 C 14.362 220.476,13.206 216.774,11.347 216.774 C 10.852 216.774,10.696 216.582,10.823 216.129 C 10.923 215.774,11.115 214.903,11.249 214.194 C 12.562 207.268,20.517 198.850,30.599 193.717 C 32.841 192.576,42.124 189.083,41.946 189.447 C 41.884 189.574,40.978 191.419,39.933 193.548 C 35.941 201.676,35.094 208.054,37.357 212.949 C 39.855 218.356,47.620 217.327,55.293 210.573 C 60.152 206.296,75.392 185.094,75.392 182.612 C 75.392 182.369,100.517 179.844,104.516 179.684 C 106.341 179.612,110.654 179.380,114.101 179.171 C 117.548 178.961,123.687 178.625,127.742 178.424 C 131.797 178.224,137.438 177.899,140.276 177.703 C 143.115 177.507,148.590 177.170,152.442 176.953 C 156.295 176.737,161.023 176.411,162.949 176.230 C 164.876 176.048,167.823 175.795,169.499 175.666 L 172.547 175.432 169.581 179.685 C 161.986 190.575,158.097 198.791,146.180 229.124 C 126.366 279.554,115.335 296.702,95.257 308.283 C 80.137 317.004,62.255 315.291,52.250 304.164 C 50.459 302.172,49.032 301.688,49.032 303.073 C 49.032 304.202,52.701 307.549,56.571 309.953 C 76.962 322.616,102.970 314.484,121.717 289.585 C 133.990 273.286,141.719 257.344,154.248 222.488 C 161.875 201.272,168.215 187.822,175.381 177.661 L 177.095 175.230 184.492 174.590 C 188.561 174.238,194.378 173.629,197.419 173.236 C 203.906 172.399,214.457 171.165,216.648 170.987 L 218.181 170.863 216.648 172.140 C 206.521 180.577,195.156 199.967,175.601 242.174 C 168.637 257.203,168.196 258.802,171.005 258.802 C 172.742 258.802,172.839 258.742,174.415 256.713 C 178.147 251.907,183.999 245.926,184.989 245.908 C 186.455 245.880,184.871 250.748,180.845 258.647 C 175.476 269.181,176.832 274.180,184.148 270.830 C 187.515 269.289,205.195 256.090,211.076 250.728 C 212.637 249.304,216.813 245.901,220.296 243.214 L 221.147 242.556 220.944 244.528 C 220.384 249.949,224.390 250.344,228.877 245.310 L 230.740 243.219 229.107 248.207 C 224.493 262.296,227.040 267.902,236.125 263.651 C 240.045 261.816,246.436 257.153,249.585 253.829 C 250.295 253.080,252.203 251.376,253.825 250.043 C 255.447 248.709,258.402 246.029,260.391 244.086 L 264.008 240.553 263.030 243.134 C 259.286 253.012,258.624 255.677,259.693 256.565 C 260.737 257.431,262.000 256.693,263.850 254.138 C 268.414 247.833,272.647 242.958,277.516 238.400 C 279.376 236.658,280.792 235.838,279.495 237.253 C 276.716 240.286,268.993 262.462,268.961 267.500 C 268.902 276.914,276.005 272.385,293.272 252.000 C 296.516 248.170,299.800 244.360,300.569 243.532 L 301.968 242.028 301.437 243.318 C 301.145 244.028,300.313 245.872,299.588 247.417 C 295.859 255.370,295.100 258.103,296.427 258.813 C 298.084 259.700,299.204 258.955,300.330 256.219 C 301.699 252.891,301.891 253.321,302.354 260.745 C 302.971 270.656,303.527 271.762,307.886 271.748 C 312.974 271.732,325.703 263.259,337.868 251.791 C 339.699 250.064,342.111 247.887,343.226 246.953 C 344.341 246.019,347.068 243.542,349.285 241.450 L 353.316 237.645 353.764 239.099 C 354.505 241.508,355.894 249.443,355.675 250.014 C 355.562 250.307,353.946 251.356,352.083 252.345 C 337.661 260.004,332.698 272.859,344.275 272.568 C 351.906 272.376,359.816 262.444,359.816 253.054 L 359.816 250.780 364.147 248.833 C 378.882 242.212,381.900 240.792,386.636 238.252 C 391.065 235.877,391.889 235.302,391.889 234.584 C 391.889 233.322,390.985 233.501,387.641 235.422 C 383.685 237.695,377.865 240.598,372.719 242.867 C 366.326 245.685,359.690 248.481,359.630 248.383 C 359.600 248.334,359.211 246.885,358.765 245.161 C 358.318 243.438,357.607 240.692,357.184 239.061 C 356.499 236.418,356.464 235.853,356.870 233.900 C 357.596 230.404,360.912 227.821,361.223 230.510 C 361.461 232.574,363.198 231.886,363.062 229.782 C 362.754 225.027,355.597 227.432,354.265 232.738 C 353.876 234.287,353.376 234.916,350.274 237.761 C 348.324 239.550,344.654 242.943,342.120 245.299 C 326.596 259.735,312.774 269.873,308.641 269.856 C 306.192 269.846,306.198 269.863,305.956 262.410 C 305.835 258.702,305.610 255.378,305.455 255.023 C 305.210 254.459,305.399 254.378,306.965 254.376 C 313.767 254.368,319.193 247.813,314.839 244.864 C 312.810 243.490,309.698 244.290,304.967 247.401 L 303.759 248.196 305.083 245.296 C 305.811 243.701,307.185 240.611,308.134 238.429 L 309.862 234.461 312.505 233.196 C 329.739 224.947,350.914 204.507,358.330 188.962 C 365.745 173.417,360.787 162.346,349.073 168.290 C 340.393 172.694,333.355 180.968,324.608 197.051 C 322.623 200.700,320.620 204.287,320.156 205.021 C 319.019 206.823,312.035 220.814,309.873 225.622 C 305.989 234.261,305.716 234.745,303.167 237.498 C 301.780 238.996,298.571 242.690,296.037 245.706 C 282.643 261.643,274.209 270.230,271.948 270.230 C 270.591 270.230,271.747 264.009,274.065 258.836 C 274.755 257.296,276.743 252.885,278.483 249.032 C 280.223 245.180,281.649 241.825,281.653 241.577 C 281.656 241.330,282.074 240.189,282.581 239.043 C 283.943 235.962,283.796 233.364,282.259 233.364 C 280.063 233.364,276.432 236.376,270.703 242.949 C 264.535 250.027,264.889 249.680,265.613 247.926 C 268.009 242.115,270.968 233.581,270.968 232.479 C 270.968 229.959,267.695 230.976,266.862 233.754 C 266.410 235.263,257.030 244.854,249.029 251.987 C 240.529 259.565,233.465 263.592,231.194 262.153 C 229.836 261.293,230.635 255.087,232.754 250.033 C 233.940 247.205,238.746 236.156,239.648 234.184 C 241.091 231.028,239.659 229.568,237.171 231.659 C 236.198 232.477,235.990 232.510,234.030 232.155 C 230.955 231.597,229.138 232.395,225.438 235.929 C 223.816 237.478,221.244 239.727,219.724 240.926 C 218.203 242.125,212.645 246.689,207.373 251.068 C 179.412 274.292,175.529 275.442,185.625 257.512 C 192.356 245.559,187.801 239.455,178.861 248.446 C 177.331 249.985,176.164 251.078,176.269 250.876 C 176.373 250.673,178.023 246.901,179.934 242.495 C 181.846 238.088,183.587 234.480,183.803 234.476 C 185.301 234.453,198.685 225.835,204.650 221.054 C 226.818 203.283,240.699 179.256,234.271 169.782 L 233.372 168.458 234.382 168.066 C 234.937 167.850,236.911 167.443,238.767 167.160 C 249.435 165.535,264.077 160.551,271.167 156.131 C 275.419 153.482,279.253 148.994,277.953 148.191 C 277.233 147.746,276.824 148.042,274.843 150.443 C 269.735 156.634,255.188 162.173,234.839 165.675 C 231.696 166.216,227.797 166.909,226.175 167.215 C 220.545 168.276,200.460 170.692,188.203 171.784 C 185.770 172.000,182.783 172.279,181.567 172.404 L 179.355 172.630 180.645 171.256 C 186.671 164.840,194.009 163.444,197.157 168.116 C 198.160 169.604,199.206 169.804,199.384 168.542 C 199.576 167.185,197.873 164.989,195.877 164.019 C 190.662 161.486,183.206 164.030,177.048 170.442 L 174.743 172.843 169.491 173.245 C 162.058 173.813,136.466 175.427,127.926 175.866 C 123.972 176.070,118.415 176.400,115.576 176.601 C 112.737 176.801,107.843 177.133,104.700 177.337 C 97.207 177.824,83.461 179.125,79.121 179.759 C 78.024 179.919,77.375 179.885,77.462 179.672 C 77.540 179.479,80.348 173.855,83.703 167.173 C 87.058 160.490,90.350 153.646,91.019 151.964 C 92.402 148.485,92.997 147.802,95.418 146.910 C 99.191 145.521,114.249 137.454,122.668 132.313 L 124.967 130.908 123.128 134.574 C 113.300 154.158,122.319 157.093,142.478 140.870 C 143.903 139.723,146.317 137.859,147.842 136.728 C 149.368 135.597,151.249 134.074,152.022 133.344 C 152.796 132.614,153.337 132.257,153.225 132.549 C 149.827 141.404,149.291 150.721,152.065 152.713 C 154.610 154.541,161.726 149.449,167.128 141.935 C 168.368 140.212,169.885 138.137,170.500 137.323 L 171.619 135.845 174.934 136.492 C 180.439 137.566,186.316 136.398,193.733 132.755 C 195.659 131.810,197.235 131.088,197.235 131.152 C 197.235 131.216,196.838 132.052,196.354 133.008 C 188.935 147.648,192.435 156.381,203.860 151.738 C 208.135 150.001,224.746 138.337,233.020 131.262 C 234.929 129.630,236.616 128.295,236.771 128.295 C 236.925 128.295,237.051 127.880,237.051 127.373 C 237.051 125.792,235.804 126.280,232.364 129.208 C 223.717 136.567,209.605 146.764,204.601 149.268 C 195.287 153.930,193.740 149.726,199.647 135.805 L 201.074 132.439 203.403 132.252 C 208.715 131.826,211.928 128.939,212.261 124.296 L 212.446 121.706 211.200 120.947 C 209.398 119.848,207.642 119.968,205.587 121.329 M210.181 123.226 C 210.368 126.895,207.799 129.727,203.674 130.396 C 202.333 130.614,202.319 130.603,202.768 129.733 C 205.259 124.908,210.052 120.702,210.181 123.226 M173.757 125.647 C 173.691 127.102,171.505 132.697,170.996 132.712 C 169.520 132.754,170.008 128.410,171.798 125.589 C 173.130 123.488,173.853 123.510,173.757 125.647 M97.124 127.158 C 97.725 128.130,87.187 140.476,86.250 139.897 C 85.788 139.612,86.161 138.119,87.231 135.979 C 89.424 131.588,96.154 125.589,97.124 127.158 M82.767 159.862 C 80.622 164.297,77.357 170.763,75.511 174.229 L 72.156 180.532 67.322 181.352 C 60.272 182.548,49.037 184.964,47.440 185.626 C 46.165 186.156,51.020 179.818,55.296 175.371 C 62.642 167.731,70.236 161.600,78.674 156.498 C 81.021 155.078,83.731 153.406,84.697 152.782 C 87.031 151.273,87.172 150.756,82.767 159.862 M232.933 171.806 C 239.006 183.478,216.294 213.156,188.940 229.290 C 188.129 229.769,186.926 230.480,186.267 230.871 L 185.069 231.581 187.116 227.219 C 198.204 203.600,210.848 182.183,217.820 175.210 C 224.410 168.621,230.555 167.236,232.933 171.806 M357.814 169.901 C 362.331 174.014,359.002 186.489,350.293 198.085 C 339.687 212.205,330.047 220.548,311.798 231.399 C 310.469 232.190,321.526 210.028,328.477 197.972 C 341.388 175.577,352.438 165.004,357.814 169.901 M70.415 183.447 C 70.415 185.992,57.937 203.446,52.102 209.064 C 39.725 220.981,33.045 211.066,41.946 193.990 C 42.865 192.226,43.881 190.253,44.205 189.605 C 44.876 188.259,53.862 185.773,63.381 184.300 C 65.900 183.910,68.043 183.509,68.143 183.408 C 68.404 183.148,70.415 183.182,70.415 183.447 M234.631 234.433 C 235.093 235.179,228.637 243.404,225.876 245.586 C 223.218 247.687,222.916 246.787,224.927 242.760 C 226.910 238.789,233.715 232.950,234.631 234.433 M313.558 246.283 C 314.329 247.530,310.751 249.904,306.643 250.873 C 303.245 251.674,303.041 251.566,304.853 249.927 C 307.629 247.417,312.897 245.213,313.558 246.283 M355.914 254.286 C 354.498 263.798,345.205 273.318,341.083 269.479 C 337.719 266.344,341.923 260.667,352.039 254.681 C 356.356 252.127,356.233 252.140,355.914 254.286 " stroke="none" fill="#000000" fill-rule="evenodd"></path></g></svg>